<svg width="253" height="85" viewBox="0 0 253 85" fill="none" xmlns="http://www.w3.org/2000/svg">
<rect x="6.19308" y="1.60375" width="245.329" height="63.9659" rx="6.5" transform="rotate(4.11429 6.19308 1.60375)" stroke="#3F4F26" stroke-width="3"/>
<path d="M22.7117 42.1693C23.0621 41.3944 23.3264 40.5502 23.5044 39.6366C23.6834 38.7091 23.8345 37.7795 23.9576 36.848C23.9677 36.7083 23.9703 36.5752 23.9653 36.4485C23.9734 36.3368 23.9809 36.232 23.9879 36.1343C23.8717 37.1646 23.7136 38.1919 23.5136 39.2162C23.3255 40.2694 23.0178 41.2298 22.5905 42.0974C22.5427 41.9817 22.5078 41.8809 22.4859 41.7951C22.464 41.7093 22.4571 41.6106 22.4651 41.4989C22.4892 41.1637 22.5702 40.8187 22.708 40.4636C22.8458 40.1086 22.9428 39.7366 22.9988 39.3476L23.3011 39.243C23.3503 38.5588 23.427 37.8836 23.531 37.2173C23.6361 36.5371 23.7133 35.8549 23.7625 35.1706C23.7876 34.8215 23.7982 34.4784 23.7944 34.1413C23.8046 33.8051 23.7878 33.453 23.7441 33.0849L23.6184 33.0759C23.6309 34.0734 23.6045 35.0259 23.5392 35.9336C23.506 36.3944 23.4604 36.8333 23.4024 37.2502C23.3463 37.6391 23.2688 38.0336 23.1699 38.4335C23.2338 38.1293 23.2829 37.8381 23.3169 37.5598C23.368 37.2407 23.4065 36.8996 23.4326 36.5365C23.514 35.4054 23.5475 34.2569 23.5331 33.0908C23.5337 31.9118 23.5433 30.7054 23.5619 29.4716L23.604 28.8851C23.658 28.7205 23.692 28.5405 23.7061 28.345C23.7341 28.1505 23.7686 27.9635 23.8096 27.784C23.8506 27.6045 23.91 27.4614 23.9878 27.3547C24.0807 27.235 24.2178 27.1817 24.3994 27.1948L24.7479 27.3251L24.8555 27.5855L25.044 27.5991C25.1059 27.5193 25.1718 27.4819 25.2416 27.487C25.3254 27.493 25.4066 27.5339 25.4854 27.6098C25.5652 27.6717 25.6609 27.7066 25.7726 27.7146C25.9821 27.7297 26.1181 27.8869 26.1808 28.1861C26.2445 28.4715 26.2748 28.8316 26.2716 29.2664C26.2693 29.6874 26.2497 30.1562 26.2125 30.6728C26.1763 31.1755 26.1701 31.6523 26.1938 32.1032C26.2066 32.5111 26.2119 32.9256 26.2097 33.3465C26.2224 33.7545 26.2137 34.1679 26.1836 34.5868C26.1535 35.0058 26.1044 35.4935 26.0363 36.05C25.9681 36.6066 25.8846 37.1831 25.7855 37.7795C25.7014 38.363 25.6034 38.9454 25.4914 39.5269C25.3794 40.1084 25.2649 40.6265 25.148 41.0813C25.0311 41.5361 24.9062 41.9061 24.7734 42.1913C24.6416 42.4625 24.5198 42.5941 24.4081 42.5861C24.3802 42.5841 24.3393 42.5671 24.2855 42.5351C24.4153 42.0953 24.5383 41.655 24.6542 41.2142C24.7841 40.7744 24.9015 40.3126 25.0065 39.8289C24.8766 40.2687 24.7387 40.722 24.5929 41.1887C24.462 41.6425 24.3191 42.0674 24.1643 42.4633C24.1125 42.4034 24.0447 42.3704 23.9609 42.3644C23.9329 42.3624 23.8955 42.3948 23.8486 42.4616C23.8157 42.5294 23.7677 42.6102 23.7049 42.7039C23.643 42.7837 23.5676 42.8555 23.4788 42.9193C23.39 42.9831 23.2967 43.0114 23.199 43.0044C23.1012 42.9974 23.0259 42.9709 22.9731 42.925C22.9203 42.8791 22.8749 42.8267 22.837 42.7678C22.8141 42.696 22.7842 42.6237 22.7474 42.5508C22.7245 42.479 22.6871 42.4132 22.6353 42.3533L22.7117 42.1693ZM25.5753 36.3116C25.4714 36.5849 25.39 36.8387 25.331 37.0731C25.287 37.2945 25.2505 37.5094 25.2215 37.7179C25.2064 37.9273 25.1909 38.1438 25.1748 38.3672C25.1607 38.5627 25.1382 38.7786 25.1071 39.015C25.1971 38.5443 25.2771 38.1149 25.3472 37.7269C25.4332 37.312 25.5092 36.8403 25.5753 36.3116ZM23.1638 38.5173C23.1658 38.4894 23.1678 38.4615 23.1699 38.4335C23.1678 38.4615 23.1658 38.4894 23.1638 38.5173ZM51.4702 34.5951C51.1208 35.1595 50.701 35.9223 50.2107 36.8836C49.7215 37.831 49.1864 38.8311 48.6053 39.8842C49.0685 39.1034 49.5173 38.3286 49.9516 37.5598C50.3998 36.7919 50.8715 35.9907 51.3667 35.1561C51.1838 35.7465 50.9756 36.3 50.7419 36.8166C50.5232 37.3202 50.2776 37.8078 50.0051 38.2795C49.7465 38.7521 49.4734 39.2308 49.1859 39.7154C48.8984 40.2 48.6089 40.7126 48.3174 41.253L47.9462 41.4369C47.6676 41.9923 47.3746 42.5537 47.0671 43.1211C46.7746 43.6756 46.4282 44.1981 46.028 44.6886C45.6417 45.1802 45.1961 45.6183 44.6912 46.0031C44.1863 46.3879 43.6036 46.6828 42.9432 46.888C42.7428 46.7472 42.5364 46.592 42.324 46.4224C42.1117 46.2527 41.8973 46.1109 41.6809 45.9971C41.6819 45.9832 41.6759 45.9687 41.663 45.9537C41.664 45.9398 41.6655 45.9188 41.6675 45.8909C41.6755 45.7792 41.6956 45.5981 41.7276 45.3478C41.7726 45.1124 41.8181 44.8701 41.8641 44.6207C41.9101 44.3714 41.9471 44.1495 41.9752 43.955C42.0182 43.7475 42.0412 43.6228 42.0442 43.581L41.9095 43.6976C41.9024 43.7953 41.8779 43.941 41.8359 44.1344C41.8089 44.315 41.7669 44.5085 41.71 44.7149C41.667 44.9223 41.6245 45.1228 41.5825 45.3163C41.5535 45.5248 41.5344 45.6918 41.5254 45.8175L41.5178 45.9222L43.0599 47.0227C43.4678 47.0099 43.9108 46.8032 44.3888 46.4024C44.8807 46.0027 45.3573 45.5247 45.8184 44.9683C46.2795 44.412 46.6992 43.8456 47.0775 43.2693C47.4079 42.7737 47.669 42.3644 47.8606 42.0413C47.635 42.4462 47.363 42.9108 47.0445 43.4353C46.6941 44.0137 46.3033 44.5681 45.8722 45.0985C45.455 45.6299 45.0084 46.0821 44.5324 46.4549C44.0554 46.8417 43.5695 47.0594 43.0748 47.108L41.4894 46.0255C41.4655 45.9676 41.456 45.9037 41.461 45.8339C41.4771 45.6105 41.5341 45.3058 41.6321 44.9198C41.73 44.5339 41.7885 44.2082 41.8076 43.9429L41.8196 43.7753C41.7448 43.8401 41.6305 43.9653 41.4768 44.1507C41.3231 44.3362 41.148 44.5271 40.9514 44.7235C40.7698 44.9069 40.5827 45.0689 40.3901 45.2095C40.2115 45.351 40.0663 45.4178 39.9546 45.4097C39.7282 45.2391 39.5169 45.0554 39.3205 44.8588C39.1231 44.6762 38.9187 44.4931 38.7073 44.3094C38.6407 43.8695 38.5252 43.4261 38.3609 42.9791C38.2105 42.5332 38.0456 42.0932 37.8663 41.6593C37.688 41.2113 37.5236 40.7644 37.3732 40.3184C37.2228 39.8725 37.1293 39.4166 37.0926 38.9508C37.0291 38.2725 36.9028 37.5896 36.7136 36.9023C36.5384 36.216 36.3911 35.5316 36.2718 34.8493L36.3525 34.8972C36.4244 34.8743 36.4902 34.8369 36.5501 34.7851C36.6239 34.7343 36.6888 34.7109 36.7446 34.7149C36.8284 34.7209 36.8997 34.8032 36.9585 34.9619C37.0182 35.1065 37.062 35.2781 37.0899 35.4766C37.1327 35.6622 37.1615 35.8467 37.1764 36.0303C37.2062 36.2008 37.2261 36.3146 37.236 36.3714L37.4919 36.3267C37.4861 36.0174 37.4797 35.7152 37.4729 35.42C37.4671 35.1107 37.4752 34.8025 37.4973 34.4953L37.5124 34.2859C37.5194 34.1881 37.5339 34.0839 37.5559 33.9732C37.5919 33.8635 37.6269 33.7677 37.6608 33.686C37.7087 33.6052 37.7676 33.5673 37.8374 33.5723C38.005 33.5844 38.1769 33.8284 38.3532 34.3042C38.5295 34.7801 38.7053 35.3612 38.8805 36.0476C39.0567 36.7199 39.2234 37.4267 39.3807 38.1679C39.5519 38.9101 39.7086 39.56 39.851 40.1177C39.8828 40.2603 39.9266 40.4319 39.9824 40.6324C40.0531 40.82 40.1169 41.007 40.1736 41.1936C40.2304 41.3802 40.2812 41.5522 40.326 41.7099C40.3858 41.8545 40.4206 41.9553 40.4306 42.0121C40.4875 41.8057 40.5779 41.5245 40.7018 41.1684C40.8267 40.7984 40.9525 40.4145 41.0794 40.0166C41.2213 39.6057 41.3541 39.2222 41.478 38.8662C41.6168 38.4972 41.7282 38.2175 41.8121 38.027C41.9248 38.0211 42.03 38.0216 42.1277 38.0286C42.2265 38.0217 42.3178 38.0213 42.4016 38.0273C42.6808 38.0474 42.9297 38.1004 43.1481 38.1863C43.3675 38.2582 43.6467 38.3765 43.9858 38.5413C44.0684 38.7578 44.1262 39.0286 44.1589 39.3538C44.1917 39.679 44.2089 40.0241 44.2108 40.3892C44.2265 40.7552 44.2209 41.1268 44.1937 41.5038C44.1806 41.8819 44.1625 42.2315 44.1394 42.5526L44.0791 43.3905C44.7119 42.5938 45.2689 41.7777 45.7501 40.942C46.2462 40.0934 46.7364 39.2304 47.2206 38.3529C47.2695 38.2581 47.3514 38.0956 47.4662 37.8652C47.5811 37.6349 47.7118 37.3776 47.8586 37.0934C48.0193 36.8102 48.1811 36.513 48.3438 36.2019C48.5215 35.8778 48.6898 35.5882 48.8485 35.3329C49.0072 35.0776 49.1484 34.8702 49.2722 34.7107C49.4109 34.5382 49.5152 34.4545 49.585 34.4595L49.7062 34.5314C49.4456 35.0319 49.1865 35.5116 48.929 35.9703C48.6853 36.43 48.4353 36.8822 48.1787 37.327C47.9361 37.7727 47.6925 38.2324 47.4479 38.7061C47.2042 39.1658 46.9591 39.6464 46.7125 40.148L49.76 34.6615L49.9559 34.8651L50.0651 34.8098C50.1001 34.7141 50.159 34.578 50.2419 34.4015C50.3387 34.226 50.4426 34.0509 50.5534 33.8764C50.6781 33.703 50.8014 33.5504 50.9232 33.4188C51.0589 33.2882 51.1896 33.2274 51.3152 33.2365C51.3711 33.2405 51.418 33.2719 51.4558 33.3308C51.4937 33.3897 51.5166 33.4615 51.5246 33.5463C51.5465 33.6321 51.5614 33.7174 51.5693 33.8021C51.5783 33.873 51.5812 33.9293 51.5782 33.9712L51.4702 34.5951ZM40.782 42.3953C40.8679 42.1769 40.9628 41.9311 41.0666 41.6579C41.1855 41.3717 41.3053 41.0715 41.4262 40.7573C41.561 40.4442 41.6803 40.151 41.7842 39.8778C41.903 39.5915 41.9969 39.3597 42.0658 39.1822C42.1357 38.9907 42.1717 38.881 42.1737 38.8531L42.1752 38.8321L41.9328 38.9831L41.849 38.9771C41.7581 39.2653 41.6517 39.5735 41.5298 39.9016C41.409 40.2157 41.2876 40.5368 41.1658 40.8649C41.0439 41.193 40.929 41.5216 40.8212 41.8508C40.7282 42.1669 40.6647 42.4641 40.6307 42.7424C40.6477 42.7015 40.6981 42.5858 40.782 42.3953ZM42.9209 46.6127C43.3159 46.5849 43.7295 46.3971 44.1615 46.0492C44.6076 45.7023 45.0292 45.3046 45.4264 44.8559C45.8246 44.3933 46.181 43.9276 46.4954 43.459C46.8248 42.9774 47.0779 42.5815 47.2546 42.2714L47.6664 41.522C47.331 42.0874 46.9901 42.6314 46.6437 43.1539C46.2664 43.7162 45.8861 44.2222 45.5028 44.6719C45.1196 45.1216 44.7344 45.5009 44.3472 45.8099C43.96 46.119 43.5879 46.3168 43.2307 46.4034L42.8417 46.5438L42.0251 45.8955C42.0311 45.8118 42.0476 45.6796 42.0746 45.4991C42.1146 45.3335 42.1486 45.1535 42.1766 44.959C42.2186 44.7655 42.2531 44.5785 42.2802 44.398C42.3211 44.2185 42.3462 44.0659 42.3552 43.9402C42.3332 44.0509 42.3012 44.203 42.2592 44.3965C42.2182 44.576 42.1703 44.755 42.1153 44.9335C42.0733 45.127 42.0323 45.3066 41.9924 45.4721C41.9663 45.6387 41.9503 45.7638 41.9443 45.8476C41.9393 45.9175 41.9692 45.9898 42.034 46.0646C42.1127 46.1405 42.199 46.2098 42.2927 46.2727C42.3994 46.3506 42.5066 46.4215 42.6143 46.4853C42.7359 46.5502 42.8302 46.6061 42.897 46.6531L42.9209 46.6127ZM46.6631 40.2498C46.2628 40.9368 45.8559 41.6164 45.4427 42.2885C45.0294 42.9605 44.5363 43.5707 43.9635 44.119L43.959 44.1819C44.5318 43.6336 45.0323 43.0169 45.4606 42.3319C45.8899 41.6328 46.2907 40.9388 46.6631 40.2498ZM42.7841 45.0027L43.0121 43.8822L42.5776 44.9457L42.7841 45.0027ZM39.9286 43.4288C39.8867 43.4258 39.8279 43.4636 39.752 43.5424C39.6912 43.6082 39.6223 43.6875 39.5454 43.7802C39.4696 43.859 39.4002 43.9452 39.3373 44.0389C39.2755 44.1187 39.2365 44.172 39.2206 44.199L39.24 44.2214C39.2689 44.2095 39.3208 44.1711 39.3957 44.1063C39.4715 44.0275 39.5474 43.9488 39.6232 43.87C39.7 43.7773 39.7694 43.691 39.8313 43.6113C39.8932 43.5315 39.9391 43.4787 39.969 43.4527L39.9286 43.4288ZM43.9824 45.3205C43.7819 45.1798 43.5491 45.0998 43.2838 45.0808L42.989 45.0806C43.1406 45.1196 43.2917 45.1655 43.4423 45.2185C43.5929 45.2714 43.745 45.3034 43.8986 45.3145L43.9824 45.3205ZM42.3466 43.1816L42.333 43.3701C42.3351 43.3422 42.3366 43.3213 42.3376 43.3073C42.3545 43.2664 42.3645 43.225 42.3676 43.1831L42.3466 43.1816ZM42.3404 43.5602C42.3424 43.5322 42.337 43.5108 42.324 43.4958C42.323 43.5098 42.3285 43.5312 42.3404 43.5602ZM47.9565 41.8798C47.9245 41.9336 47.8926 41.9874 47.8606 42.0413C47.8926 41.9874 47.9245 41.9336 47.9565 41.8798ZM56.2462 46.0974C56.1045 46.1153 55.9499 46.1182 55.7824 46.1061L55.1749 46.0624C54.8119 46.0363 54.5505 46.0596 54.3909 46.1324C54.2452 46.2061 54.1584 46.242 54.1305 46.24L54.0738 45.8569L54.101 45.4799L54.1379 43.5034C54.137 43.1244 54.0894 42.7139 53.9948 42.272C53.9003 41.8301 53.8342 41.3832 53.7965 40.9313C53.7757 40.6351 53.7609 40.3533 53.7521 40.0859L53.727 39.263C53.7192 38.9817 53.7049 38.693 53.6841 38.3967C53.6772 38.1015 53.651 37.7838 53.6053 37.4436C53.6113 37.3598 53.6173 37.276 53.6233 37.1923C53.6433 37.1095 53.6563 37.0262 53.6624 36.9424C53.6935 36.5095 53.6892 36.0811 53.6495 35.6572C53.6098 35.2332 53.5417 34.8143 53.4452 34.4003C53.5459 34.3654 53.6392 34.337 53.725 34.3151C53.8118 34.2793 53.8901 34.2638 53.9599 34.2689C54.0298 34.2739 54.1005 34.3632 54.1723 34.5368C54.245 34.6964 54.3122 35.0311 54.3737 35.5408C54.4017 35.5428 54.4441 35.5389 54.5009 35.5289C54.5588 35.505 54.6017 35.4941 54.6296 35.4961C54.6327 35.2577 54.6159 35.0038 54.5791 34.7345C54.5434 34.4512 54.5066 34.1819 54.4688 33.9265C54.431 33.6711 54.3913 33.4437 54.3495 33.2442C54.3226 33.0317 54.3137 32.8626 54.3228 32.737C54.3248 32.709 54.3273 32.6741 54.3303 32.6322C54.3473 32.5913 54.3837 32.5729 54.4396 32.5769C54.5094 32.5819 54.5946 32.6653 54.6953 32.8269C54.796 32.9885 54.9006 33.1926 55.0092 33.439C55.1178 33.6854 55.2179 33.9523 55.3095 34.2396C55.4161 34.514 55.5097 34.7734 55.5904 35.0178C56.0187 34.3327 56.4832 33.8258 56.9841 33.4969C57.5 33.155 58.1489 33.0122 58.9309 33.0684C59.5034 33.1096 59.9662 33.2131 60.3192 33.3788C60.6732 33.5306 60.9419 33.6973 61.1254 33.879C61.3238 34.0476 61.4529 34.2043 61.5127 34.349L61.6233 34.5675C61.6172 34.6512 61.5713 34.7041 61.4855 34.726C61.1476 34.3508 60.7547 34.0558 60.307 33.8411C59.8592 33.6265 59.391 33.5015 58.9023 33.4664C58.4275 33.4322 58.0669 33.4695 57.8205 33.5781C57.589 33.6737 57.3416 33.7963 57.0782 33.9458C57.3555 33.7973 57.6094 33.6822 57.8399 33.6005C58.0843 33.5198 58.4299 33.4956 58.8768 33.5277C59.3655 33.5629 59.8263 33.6943 60.2591 33.9219C60.6929 34.1356 61.0598 34.4006 61.3599 34.7169C61.288 34.7398 61.2227 34.7702 61.1638 34.8081C61.1199 34.833 61.0955 34.8804 61.0904 34.9502C61.1603 34.9552 61.2335 35.0096 61.3103 35.1134C61.388 35.2032 61.4573 35.3135 61.5181 35.4442C61.5789 35.5749 61.6252 35.7115 61.657 35.8542C61.7039 35.9839 61.7242 36.0906 61.7182 36.1744C61.7011 36.4118 61.6018 36.524 61.4203 36.5109C61.2807 36.5009 61.1166 36.4399 60.9282 36.3281C60.8873 36.3111 60.802 36.2278 60.6724 36.0781C60.5568 35.9294 60.4063 35.7783 60.2208 35.6246C60.0364 35.4569 59.823 35.3012 59.5807 35.1574C59.3384 35.0137 59.0636 34.9307 58.7564 34.9086C58.505 34.8906 58.2776 34.9303 58.0741 35.028C57.8855 35.1127 57.7079 35.2403 57.5412 35.4108C57.3756 35.5673 57.2219 35.7527 57.0801 35.9671L56.7717 36.4502C57.0083 36.0883 57.2633 35.7627 57.5367 35.4736C57.8421 35.1306 58.2043 34.9742 58.6232 35.0043C58.9863 35.0304 59.3154 35.1383 59.6105 35.328C59.9067 35.5037 60.144 35.7173 60.3224 35.9687C60.092 35.8539 59.8198 35.7361 59.5056 35.6152C59.1915 35.4944 58.8878 35.4234 58.5946 35.4023C58.441 35.3913 58.3058 35.4166 58.1891 35.4784C58.0723 35.5402 57.968 35.6239 57.8762 35.7296C57.7994 35.8223 57.7215 35.929 57.6427 36.0497C57.5778 36.1713 57.5064 36.2855 57.4285 36.3922L57.1532 36.4145C56.8867 36.8024 56.6571 37.2631 56.4643 37.7966C56.2865 38.3172 56.1765 38.8708 56.1343 39.4572C56.1092 39.8063 56.1006 40.1215 56.1084 40.4028C56.1302 40.6851 56.1655 40.9754 56.2142 41.2737L56.4188 41.9411L56.4206 41.3306C56.4269 40.8538 56.4291 40.4329 56.4272 40.0678C56.4264 39.6888 56.4421 39.2759 56.4742 38.829C56.5313 38.4261 56.6148 38.0461 56.7247 37.689C56.8166 37.3869 56.9419 37.1081 57.1006 36.8529C56.909 37.1759 56.7696 37.5519 56.6826 37.9808C56.5787 38.4505 56.5076 38.9507 56.4694 39.4813C56.4393 39.9003 56.4316 40.2997 56.4464 40.6798C56.4612 41.0598 56.4829 41.4404 56.5117 41.8214C56.5544 42.2035 56.596 42.5995 56.6367 43.0094C56.6784 43.4055 56.7031 43.8424 56.7109 44.3201L56.7451 44.7226L56.7849 45.9256L56.2462 46.0974ZM57.171 36.7527L57.1006 36.8529L57.171 36.7527ZM63.2997 45.2783C63.3837 44.8914 63.4652 44.441 63.5443 43.9274C63.6383 43.4008 63.7253 42.8737 63.8054 42.3461C63.8855 41.8184 63.9645 41.3048 64.0426 40.8051C64.1216 40.2915 64.1957 39.8476 64.2647 39.4736C64.1677 39.8456 64.0738 40.274 63.9827 40.7587C63.8917 41.2434 63.7997 41.7421 63.7067 42.2547C63.6137 42.7674 63.5207 43.28 63.4276 43.7927C63.3356 44.2914 63.2541 44.7417 63.1831 45.1436C62.9837 44.9889 62.8925 44.7929 62.9096 44.5555C62.9297 44.2762 62.9532 44.0463 62.9802 43.8658C63.0083 43.6713 63.0453 43.4494 63.0913 43.2L63.3368 43.0071C63.3278 42.9363 63.3254 42.873 63.3294 42.8171L63.3444 42.6077C63.3675 42.2865 63.4286 41.9259 63.5275 41.526C63.6275 41.1121 63.7344 40.6987 63.8483 40.2858C63.9772 39.86 64.0906 39.4541 64.1886 39.0681C64.2875 38.6682 64.3475 38.3216 64.3686 38.0283L64.1218 37.9474C64.0698 38.2805 64.0003 38.6615 63.9133 39.0904C63.8273 39.5053 63.7328 39.9406 63.6298 40.3964C63.5418 40.8393 63.4538 41.2821 63.3658 41.7249C63.3208 41.9603 63.2768 42.1817 63.2338 42.3892C63.2899 42.0002 63.3549 41.5838 63.429 41.1399C63.545 40.5026 63.6605 39.8723 63.7755 39.2489C63.9055 38.6126 64.0275 37.9898 64.1415 37.3804C64.2556 36.771 64.366 36.2105 64.473 35.6988C64.4881 35.4894 64.553 35.2695 64.6679 35.0391C64.7977 34.7958 64.893 34.543 64.954 34.2807C65.0358 34.3146 65.1046 34.3336 65.1605 34.3376L65.3071 34.3482C65.4467 34.3582 65.535 34.3997 65.5718 34.4725C65.6097 34.5314 65.6246 34.6167 65.6166 34.7284L65.6091 34.8331L65.7931 34.9095C65.9198 34.7081 66.0646 34.5501 66.2272 34.4354C66.3898 34.3208 66.548 34.269 66.7016 34.2801C67.0367 34.3042 67.1787 34.6723 67.1274 35.3845C67.1003 35.7615 67.0293 36.1634 66.9144 36.5903C66.8144 37.0042 66.7499 37.4136 66.7207 37.8186L66.7012 38.0909C66.669 38.5377 66.585 39.0229 66.4491 39.5465C66.3142 40.0562 66.1643 40.5787 65.9994 41.1143C65.8495 41.6369 65.7077 42.146 65.5737 42.6417C65.4398 43.1374 65.3578 43.5947 65.3277 44.0136C65.3207 44.1113 65.3201 44.2166 65.326 44.3293C65.332 44.442 65.3314 44.5472 65.3244 44.645C65.3093 44.8544 65.2579 44.9841 65.1701 45.0339C65.0972 45.0708 65.005 45.0852 64.8933 45.0771C64.9063 44.8956 64.9154 44.6717 64.9205 44.4054C64.9256 44.1391 64.9357 43.9012 64.9508 43.6917C64.9118 43.8433 64.8828 44.0518 64.8637 44.3171C64.8446 44.5824 64.8126 44.8327 64.7676 45.0681L64.4534 45.0455L64.4353 45.2969C64.2936 45.5112 64.118 45.6109 63.9085 45.5958C63.8108 45.5888 63.7011 45.5528 63.5794 45.4879C63.4577 45.423 63.3645 45.3532 63.2997 45.2783ZM68.7717 29.5023C68.5243 29.6248 68.2948 29.7908 68.0832 30.0002C67.8716 30.2095 67.6536 30.4114 67.4291 30.6058C67.5608 30.531 67.679 30.4483 67.7838 30.3576C67.8886 30.2669 67.9933 30.1762 68.0981 30.0854C68.2169 29.9957 68.3356 29.906 68.4543 29.8163C68.587 29.7276 68.7332 29.6469 68.8928 29.5741C68.9307 29.633 68.9621 29.6844 68.987 29.7283C69.0259 29.7732 69.0438 29.8166 69.0408 29.8585L68.5244 30.3056C68.5264 30.2777 68.5005 30.2477 68.4467 30.2158C68.4068 30.1848 68.3729 30.1684 68.3449 30.1664C68.293 30.303 68.2152 30.4097 68.1114 30.4864C68.0076 30.5632 67.9043 30.633 67.8016 30.6957C67.6988 30.7585 67.5955 30.8283 67.4917 30.9051C67.388 30.9818 67.3101 31.0885 67.2582 31.2251L67.2552 31.267C67.2542 31.281 67.2746 31.2895 67.3165 31.2925L68.4346 30.3834L68.008 30.7527C67.7985 30.9341 67.5744 31.1215 67.3359 31.3149C67.1124 31.4954 66.8974 31.6553 66.6908 31.7949C66.4983 31.9354 66.381 32.0042 66.3391 32.0012L66.3197 31.9787C66.224 31.9438 66.1202 31.9223 66.0085 31.9142C65.9108 31.9072 65.8065 31.8927 65.6958 31.8707C65.7039 31.759 65.6915 31.6388 65.6586 31.5101C65.6397 31.3824 65.6328 31.2837 65.6378 31.2138C65.6428 31.144 65.6803 31.1116 65.7501 31.1166C65.7531 31.0747 65.7297 31.0099 65.6799 30.9221C65.645 30.8213 65.6037 30.7131 65.5558 30.5974C65.509 30.4677 65.4622 30.338 65.4154 30.2083C65.3835 30.0656 65.3726 29.9245 65.3827 29.7849C65.3927 29.6452 65.4581 29.5166 65.5789 29.3989C65.7146 29.2683 65.8628 29.1597 66.0234 29.073C66.198 28.9873 66.3646 28.9151 66.5232 28.8563C66.6819 28.7975 66.7971 28.7567 66.8689 28.7338C66.9248 28.7378 66.9477 28.7114 66.9378 28.6545C66.9288 28.5837 66.9523 28.5503 67.0082 28.5543L67.3761 28.7071C67.3432 28.7749 67.2439 28.8871 67.0782 29.0436C66.9275 29.1871 66.8148 29.2913 66.7399 29.3561C66.8427 29.2933 66.962 29.1966 67.0977 29.066C67.2474 28.9364 67.3596 28.8393 67.4345 28.7745C67.5023 28.8074 67.5631 28.8399 67.6169 28.8718C67.6708 28.9037 67.7117 28.9207 67.7396 28.9227L67.807 28.8644C67.9047 28.8714 68.0079 28.8999 68.1166 28.9498C68.2393 29.0008 68.3475 29.0577 68.4412 29.1206C68.535 29.1835 68.6142 29.2523 68.679 29.3272C68.7438 29.402 68.7747 29.4604 68.7717 29.5023ZM63.1558 42.8888C63.1808 42.7363 63.2058 42.5837 63.2308 42.4311C63.2048 42.5976 63.1798 42.7502 63.1558 42.8888ZM78.6823 36.9525C78.5566 36.9435 78.3806 36.9519 78.1541 36.9777C77.9417 37.0045 77.7217 37.0378 77.4943 37.0776C77.2808 37.1184 77.0813 37.1602 76.8957 37.203C76.7242 37.2468 76.6164 37.2811 76.5725 37.3061C76.9396 37.2763 77.2792 37.2376 77.5915 37.1899C77.9047 37.1282 78.2429 37.1104 78.6059 37.1365C78.5271 37.2572 78.4293 37.3484 78.3125 37.4102C78.1958 37.472 78.0661 37.5188 77.9234 37.5506C77.7958 37.5695 77.6541 37.5874 77.4985 37.6043C77.3439 37.6072 77.1813 37.6236 77.0107 37.6534L76.8777 37.4543C76.6053 37.533 76.3983 37.5813 76.2567 37.5992C76.116 37.6031 75.9689 37.5995 75.8153 37.5885C75.6477 37.5764 75.4732 37.5639 75.2917 37.5508C75.1251 37.5248 74.9371 37.5042 74.7276 37.4892C74.7226 37.559 74.7116 37.6143 74.6946 37.6552C75.0158 37.6783 75.2881 37.6979 75.5115 37.714C75.7359 37.7161 76.0102 37.7078 76.3344 37.689C76.0232 37.7227 75.7479 37.745 75.5085 37.7559C75.2831 37.7677 75.0098 37.7621 74.6886 37.739C74.6096 38.0562 74.5382 38.3668 74.4742 38.671C74.4102 38.9752 74.3676 39.2739 74.3465 39.5672C74.3345 39.7348 74.3274 39.9307 74.3253 40.1552C74.3232 40.3796 74.3206 40.611 74.3175 40.8494C74.3293 41.0748 74.3347 41.2928 74.3336 41.5032C74.3335 41.6997 74.3299 41.8469 74.3229 41.9446L74.2325 43.2014C74.2822 43.4857 74.4697 43.7097 74.7947 43.8734C75.1198 44.0372 75.5966 44.1417 76.2249 44.1869L76.8952 44.2351C77.1326 44.2521 77.2912 44.2916 77.3709 44.3535C77.4657 44.4024 77.51 44.4688 77.504 44.5526C77.499 44.6224 77.4401 44.6603 77.3274 44.6662C77.2157 44.6582 77.104 44.6501 76.9923 44.6421C76.5873 44.613 76.1634 44.5544 75.7206 44.4664C75.3057 44.3804 74.8983 44.2879 74.4983 44.189C74.8963 44.3159 75.3156 44.4373 75.7565 44.5532C76.2122 44.6562 76.6566 44.7232 77.0895 44.7543L77.278 44.7679C77.3338 44.7719 77.3972 44.7695 77.468 44.7605C77.463 44.8303 77.4584 44.8932 77.4544 44.949C77.4644 45.0059 77.4808 45.0702 77.5037 45.1421L77.6743 45.1122C77.7172 45.1013 77.7666 45.0978 77.8224 45.1018C77.8793 45.0919 77.9227 45.0739 77.9526 45.048C78.3964 45.1221 78.6088 45.2917 78.5897 45.5571C78.5787 45.7107 78.5278 45.8333 78.4369 45.925C78.3461 46.0168 78.2359 46.086 78.1062 46.1328C77.9765 46.1797 77.8338 46.2115 77.6782 46.2284C77.5236 46.2313 77.3765 46.2277 77.2368 46.2177C76.7481 46.1825 76.2684 46.12 75.7976 46.0299C75.3418 45.927 74.893 45.8245 74.4512 45.7226C74.8321 45.8903 75.3198 46.0377 75.9142 46.1647C76.5087 46.2916 77.1131 46.3772 77.7275 46.4214C77.5669 46.5081 77.3798 46.5719 77.1663 46.6126C76.9529 46.6534 76.7344 46.6658 76.511 46.6497L75.0164 46.3527C74.823 46.3107 74.6714 46.2718 74.5617 46.2358C74.4659 46.2008 74.3702 46.1659 74.2744 46.1309C74.1797 46.082 74.071 46.0321 73.9483 45.9811C73.8396 45.9312 73.6826 45.8708 73.4771 45.7999L73.4937 45.5695C73.1377 45.4456 72.8565 45.2569 72.6501 45.0035C72.4438 44.75 72.2878 44.4791 72.1822 44.1908C72.0767 43.9025 72.013 43.6172 71.9912 43.3349C71.9704 43.0386 71.968 42.7788 71.9841 42.5554C72.0011 42.318 72.0167 42.1016 72.0308 41.9061C72.0598 41.6976 72.0819 41.4887 72.0969 41.2792C72.108 41.1256 72.1151 40.9296 72.1182 40.6912C72.1352 40.4538 72.1463 40.202 72.1515 39.9356C72.1566 39.6693 72.1622 39.396 72.1683 39.1157C72.1884 38.8365 72.2075 38.5711 72.2256 38.3198C72.2366 38.1662 72.2472 38.0196 72.2572 37.8799C72.2812 37.7413 72.3042 37.6166 72.3262 37.5059L72.1168 37.4909C72.0958 37.5876 72.0808 37.6988 72.0717 37.8245L72.0446 38.2015C72.0155 38.6065 71.9933 39.0119 71.9782 39.4179C71.964 39.8099 71.9449 40.1734 71.9208 40.5086C71.9106 40.8447 71.9035 41.139 71.8994 41.3913C71.8963 41.6297 71.8907 41.8048 71.8826 41.9165L71.8224 42.7543L71.8103 42.9219C71.7956 42.5418 71.7923 42.0012 71.8007 41.3C71.817 40.4871 71.8604 39.5919 71.9307 38.6144L71.9578 38.2374C71.9689 38.0838 71.9794 37.9371 71.9894 37.7975C72.0135 37.6589 72.0419 37.5557 72.0749 37.4878L71.3657 37.3947C71.2192 37.2859 71.0711 37.1981 70.9215 37.1312C70.7719 37.0643 70.6343 37.0263 70.5086 37.0173L70.5387 36.5983C70.5448 36.5146 70.5568 36.4452 70.5748 36.3904C70.6077 36.3226 70.68 36.2927 70.7917 36.3007C70.8197 36.3027 70.8885 36.3217 70.9982 36.3577L71.0163 36.1063C70.8687 36.0115 70.7511 35.8907 70.6634 35.7441C70.5767 35.5834 70.5388 35.4263 70.5499 35.2727C70.576 34.9097 70.8474 34.7467 71.364 34.7839C71.5595 34.7979 71.761 34.8265 71.9685 34.8695C72.1759 34.9125 72.3908 34.949 72.6133 34.979C72.6912 34.6758 72.7597 34.407 72.8186 34.1727C72.8786 33.9243 72.9376 33.6899 72.9955 33.4695C73.0545 33.2352 73.12 33.0083 73.1919 32.7889C73.2648 32.5555 73.3522 32.3162 73.4541 32.0708C73.5998 31.8006 73.7192 31.5074 73.8121 31.1913C73.906 30.8611 73.9785 30.5365 74.0295 30.2173L74.4679 30.2699C74.5377 30.275 74.5921 30.2999 74.631 30.3448C74.6838 30.3907 74.7047 30.4905 74.6936 30.6441C74.6846 30.7698 74.6516 30.9358 74.5946 31.1423L74.8415 31.2232C74.9803 30.8542 75.1351 30.5565 75.3057 30.3302C75.4904 30.1049 75.6595 29.9977 75.8131 30.0088C76.0505 30.0258 76.1755 30.3366 76.1882 30.9411L76.1611 31.3181C76.1349 31.6812 76.0824 32.0213 76.0035 32.3384C75.9395 32.6426 75.8615 32.9458 75.7696 33.248C75.6777 33.5502 75.5853 33.8593 75.4923 34.1755C75.3994 34.4916 75.3115 34.8362 75.2285 35.2092C75.5327 35.2732 75.8314 35.3158 76.1246 35.3369C76.2643 35.3469 76.4039 35.3569 76.5436 35.367C76.6842 35.3631 76.8243 35.3661 76.964 35.3762C77.1036 35.3862 77.2543 35.3409 77.4159 35.2402C77.5775 35.1396 77.7212 35.0938 77.8469 35.1028C77.9586 35.1108 78.0399 35.1518 78.0907 35.2256C78.1415 35.2995 78.1639 35.3783 78.1579 35.4621C77.9015 35.5138 77.6447 35.5725 77.3873 35.6382C77.1449 35.691 76.9094 35.7442 76.681 35.798C76.9064 35.7861 77.1473 35.7543 77.4037 35.7026C77.6611 35.6369 77.9319 35.5791 78.2162 35.5294C78.2112 35.5992 78.2067 35.6621 78.2027 35.7179C78.2126 35.7748 78.229 35.8391 78.2519 35.911C78.2799 35.913 78.3153 35.9085 78.3582 35.8975C78.444 35.8756 78.4938 35.8652 78.5078 35.8662C78.6424 35.9461 78.7267 36.0434 78.7605 36.1581C78.7954 36.2588 78.8083 36.3721 78.7992 36.4977C78.7922 36.5955 78.7717 36.6852 78.7378 36.767C78.7048 36.8348 78.6863 36.8967 78.6823 36.9525ZM72.5757 44.2823C72.4073 43.8912 72.3292 43.5136 72.3414 43.1496C72.3535 42.7855 72.3572 42.4419 72.3523 42.1187L72.3929 38.9213L72.3029 39.2939C72.2356 40.2294 72.2023 41.0832 72.2029 41.8553C72.2184 42.6144 72.274 43.2079 72.3695 43.6358C72.3605 43.7615 72.3475 43.8448 72.3305 43.8857C72.3275 43.9276 72.325 43.9625 72.323 43.9904C72.321 44.0183 72.3324 44.0542 72.3573 44.0981C72.3962 44.143 72.469 44.2044 72.5757 44.2823ZM73.851 43.2371C73.8311 43.1234 73.8257 43.0037 73.8347 42.878L73.9085 41.8516C73.8845 41.9903 73.8605 42.1289 73.8365 42.2675C73.8135 42.3922 73.797 42.5244 73.7869 42.664C73.7608 43.0271 73.7617 43.3079 73.7895 43.5064C73.8193 43.6769 73.8931 43.8226 74.0107 43.9434C73.9469 43.8546 73.9046 43.7603 73.8837 43.6605C73.8777 43.5478 73.8668 43.4067 73.851 43.2371ZM71.8207 43.07L71.8103 42.9219L71.8207 43.07ZM74.0511 43.9673C74.0381 43.9524 74.0247 43.9444 74.0107 43.9434C74.0247 43.9444 74.0381 43.9524 74.0511 43.9673ZM88.2424 48.5463C87.6987 48.6897 87.2867 48.7583 87.0065 48.7522C86.7252 48.76 86.4793 48.7634 86.2688 48.7623C85.4869 48.706 84.7922 48.5087 84.1849 48.1702C83.5777 47.8318 83.0687 47.3951 82.658 46.8603C82.2473 46.3254 81.9404 45.7139 81.7373 45.0255C81.5491 44.3242 81.4826 43.5895 81.5379 42.8215C81.57 42.3747 81.645 41.9169 81.763 41.4481C81.8819 40.9654 82.0417 40.4997 82.2425 40.0509C82.4442 39.5882 82.6923 39.1639 82.9867 38.778C83.2672 38.3912 83.5935 38.0497 83.9657 37.7536C83.5816 38.0208 83.2493 38.3478 82.9688 38.7346C82.6743 39.1205 82.4193 39.5443 82.2036 40.006C81.9889 40.4538 81.8216 40.926 81.7017 41.4227C81.5827 41.9054 81.5067 42.3771 81.4735 42.8379C81.4313 43.4244 81.4769 44.0593 81.6102 44.7427C81.7585 45.413 82.0215 46.0495 82.3992 46.6522C82.778 47.2409 83.282 47.7473 83.9111 48.1716C84.5543 48.5968 85.3506 48.8436 86.3002 48.9119C86.747 48.944 87.2193 48.9148 87.7171 48.8243C87.1614 49.1353 86.5553 49.2671 85.899 49.2199C85.3684 49.1817 84.8717 49.0618 84.409 48.8601C83.9593 48.6733 83.5425 48.4188 83.1586 48.0964C82.7877 47.789 82.4557 47.4282 82.1627 47.0142C81.8696 46.6001 81.6275 46.1616 81.4362 45.6986L81.6367 45.5446C81.4335 45.0528 81.2931 44.5655 81.2156 44.0826C81.152 43.6008 81.1377 43.1156 81.1729 42.6268C81.2241 41.9147 81.3711 41.2375 81.6138 40.5952C81.8705 39.954 82.1875 39.3522 82.5648 38.7898L83.1172 38.1348C83.212 37.9872 83.3418 37.8421 83.5064 37.6996C83.685 37.558 83.8771 37.4244 84.0827 37.2989C84.2892 37.1593 84.5012 37.0412 84.7187 36.9446C84.9512 36.835 85.1687 36.7383 85.3712 36.6547C85.892 36.4395 86.4107 36.2522 86.9275 36.0929C87.4453 35.9196 88.0428 35.8081 88.7201 35.7586L88.6408 35.6898C87.3471 35.723 86.2353 35.9589 85.3055 36.3973C84.3766 36.8217 83.6073 37.3699 82.9975 38.0419C82.3878 38.7139 81.9266 39.4668 81.6139 40.3005C81.3023 41.1202 81.1174 41.9351 81.0591 42.745C81.028 43.1779 81.0313 43.6202 81.0689 44.0721C81.1216 44.511 81.2091 44.9524 81.3316 45.3964C81.0428 44.5334 80.932 43.6341 80.9993 42.6986C81.0656 41.7769 81.285 40.8734 81.6575 39.9878C82.03 39.1022 82.572 38.2991 83.2835 37.5783C84.1766 36.8705 85.1335 36.3498 86.154 36.0162C87.1756 35.6686 88.1472 35.5279 89.0688 35.5942C89.362 35.6153 89.6588 35.6858 89.9589 35.8056C90.2591 35.9255 90.5273 36.0992 90.7636 36.3267C91.0009 36.5403 91.1848 36.8132 91.3153 37.1454C91.4598 37.4786 91.5154 37.8756 91.4823 38.3364C91.4552 38.7135 91.3312 39.1677 91.1105 39.6993C90.8898 40.2308 90.5794 40.7419 90.1791 41.2324C89.7939 41.71 89.3229 42.1112 88.7661 42.4361C88.2104 42.7471 87.5834 42.8774 86.8852 42.8272L86.194 42.7775C85.6854 42.6286 85.2197 42.4688 84.7968 42.298C84.389 42.1143 83.9995 41.9669 83.6285 41.856C83.5566 42.0754 83.5061 42.2894 83.4771 42.4978C83.463 42.6933 83.449 42.8888 83.4349 43.0843C83.4058 43.4893 83.419 43.8902 83.4747 44.2873C83.5453 44.6713 83.6668 45.031 83.8392 45.3662C84.0116 45.7014 84.2364 45.9913 84.5136 46.2358C84.8057 46.4674 85.1662 46.6266 85.5951 46.7136C85.8564 46.7886 86.0843 46.8401 86.2788 46.8681C86.4743 46.8822 86.6343 46.9007 86.759 46.9237C86.8986 46.9337 86.9949 46.9617 87.0477 47.0076C87.1155 47.0406 87.1459 47.1059 87.1389 47.2037C86.9962 47.2355 86.8476 47.2529 86.693 47.2558C86.5524 47.2597 86.4052 47.2562 86.2516 47.2451C85.7629 47.21 85.3286 47.1015 84.9486 46.9198C84.5697 46.7241 84.2481 46.5115 83.9839 46.2819C84.282 46.6262 84.6494 46.8842 85.0862 47.056C85.524 47.2138 85.9594 47.3083 86.3922 47.3394C86.6296 47.3565 86.8755 47.3532 87.1299 47.3293C87.0959 47.4111 87.0784 47.459 87.0774 47.4729C87.0714 47.5567 87.1023 47.6151 87.1701 47.648C87.227 47.6381 87.3272 47.6102 87.4709 47.5644C87.6155 47.5046 87.7597 47.4518 87.9033 47.406C88.062 47.3473 88.2126 47.302 88.3553 47.2701C88.4989 47.2243 88.5987 47.2034 88.6545 47.2074C88.7244 47.2124 88.7862 47.2309 88.84 47.2629C88.8949 47.2808 88.9173 47.3597 88.9072 47.4993C88.8972 47.6389 88.8363 47.803 88.7245 47.9915C88.6127 48.1799 88.452 48.3649 88.2424 48.5463ZM85.9485 40.0438L86.4033 40.1607C86.5549 40.1997 86.6935 40.2237 86.8192 40.2328C86.9588 40.2428 87.1224 40.2125 87.31 40.1417C87.5125 40.0581 87.7106 39.939 87.9042 39.7845C88.1117 39.6309 88.2944 39.4335 88.4521 39.1922C88.6238 38.9519 88.7561 38.6737 88.849 38.3576L88.8999 38.2349C88.7044 38.2208 88.4077 38.2486 88.0096 38.3182C87.6116 38.3879 87.1971 38.4914 86.7661 38.6288C86.3362 38.7523 85.9316 38.9127 85.5525 39.11C85.1744 39.2933 84.9064 39.5057 84.7487 39.747C84.9552 39.8039 85.1546 39.8604 85.3471 39.9163C85.5546 39.9593 85.755 40.0018 85.9485 40.0438ZM84.8735 41.5245C84.9035 41.4986 84.9204 41.4577 84.9245 41.4018C84.9424 41.347 84.9524 41.3056 84.9544 41.2777L83.9956 40.8508L83.8698 41.1365L84.8735 41.5245ZM83.945 46.237C83.8553 46.1183 83.7656 45.9995 83.6759 45.8808C83.5991 45.777 83.5363 45.6743 83.4875 45.5725C83.5961 45.8189 83.7486 46.0404 83.945 46.237ZM109.777 39.1892C109.651 39.1802 109.475 39.1886 109.249 39.2144C109.036 39.2412 108.817 39.2745 108.589 39.3143C108.376 39.3551 108.176 39.3969 107.991 39.4397C107.819 39.4835 107.711 39.5178 107.667 39.5428C108.034 39.513 108.374 39.4743 108.686 39.4266C109 39.3649 109.338 39.3471 109.701 39.3732C109.622 39.4939 109.524 39.5851 109.407 39.6469C109.291 39.7086 109.161 39.7555 109.018 39.7873C108.891 39.8062 108.749 39.8241 108.593 39.841C108.439 39.8439 108.276 39.8603 108.106 39.8901L107.972 39.691C107.7 39.7697 107.493 39.818 107.351 39.8359C107.211 39.8398 107.064 39.8362 106.91 39.8252C106.743 39.8131 106.568 39.8005 106.386 39.7875C106.22 39.7615 106.032 39.7409 105.822 39.7259C105.817 39.7957 105.806 39.851 105.789 39.8919C106.111 39.915 106.383 39.9346 106.606 39.9507C106.831 39.9528 107.105 39.9445 107.429 39.9257C107.118 39.9594 106.843 39.9817 106.603 39.9926C106.378 40.0044 106.105 39.9988 105.783 39.9757C105.704 40.2929 105.633 40.6035 105.569 40.9077C105.505 41.2119 105.462 41.5106 105.441 41.8039C105.429 41.9714 105.422 42.1674 105.42 42.3919C105.418 42.6163 105.415 42.8477 105.412 43.0861C105.424 43.3115 105.43 43.5295 105.428 43.7399C105.428 43.9364 105.425 44.0836 105.418 44.1813L105.327 45.4381C105.377 45.7224 105.564 45.9464 105.89 46.1101C106.215 46.2739 106.691 46.3784 107.32 46.4236L107.99 46.4718C108.227 46.4888 108.386 46.5283 108.466 46.5902C108.56 46.6391 108.605 46.7055 108.599 46.7893C108.594 46.8591 108.535 46.897 108.422 46.9029C108.31 46.8948 108.199 46.8868 108.087 46.8788C107.682 46.8496 107.258 46.7911 106.815 46.7031C106.401 46.6171 105.993 46.5246 105.593 46.4257C105.991 46.5526 106.41 46.674 106.851 46.7899C107.307 46.8929 107.751 46.9599 108.184 46.991L108.373 47.0046C108.429 47.0086 108.492 47.0062 108.563 46.9972C108.558 47.067 108.553 47.1299 108.549 47.1857C108.559 47.2426 108.576 47.3069 108.599 47.3788L108.769 47.3489C108.812 47.338 108.861 47.3345 108.917 47.3385C108.974 47.3286 109.017 47.3106 109.047 47.2847C109.491 47.3588 109.704 47.5284 109.685 47.7937C109.673 47.9474 109.623 48.07 109.532 48.1617C109.441 48.2535 109.331 48.3227 109.201 48.3695C109.071 48.4164 108.929 48.4482 108.773 48.4651C108.618 48.468 108.471 48.4644 108.332 48.4544C107.843 48.4192 107.363 48.3567 106.892 48.2666C106.437 48.1637 105.988 48.0612 105.546 47.9593C105.927 48.127 106.415 48.2744 107.009 48.4014C107.603 48.5283 108.208 48.6139 108.822 48.6581C108.662 48.7448 108.475 48.8086 108.261 48.8493C108.048 48.8901 107.829 48.9025 107.606 48.8864L106.111 48.5894C105.918 48.5474 105.766 48.5085 105.656 48.4725C105.561 48.4375 105.465 48.4026 105.369 48.3676C105.275 48.3187 105.166 48.2688 105.043 48.2178C104.934 48.1679 104.777 48.1075 104.572 48.0366L104.589 47.8062C104.232 47.6823 103.951 47.4936 103.745 47.2402C103.539 46.9867 103.383 46.7158 103.277 46.4275C103.171 46.1392 103.108 45.8539 103.086 45.5716C103.065 45.2753 103.063 45.0155 103.079 44.7921C103.096 44.5547 103.112 44.3383 103.126 44.1428C103.155 43.9343 103.177 43.7253 103.192 43.5159C103.203 43.3623 103.21 43.1663 103.213 42.9279C103.23 42.6905 103.241 42.4387 103.246 42.1723C103.251 41.906 103.257 41.6327 103.263 41.3524C103.283 41.0732 103.302 40.8078 103.32 40.5565C103.331 40.4029 103.342 40.2563 103.352 40.1166C103.376 39.978 103.399 39.8533 103.421 39.7426L103.212 39.7276C103.191 39.8243 103.176 39.9355 103.167 40.0612L103.139 40.4382C103.11 40.8432 103.088 41.2486 103.073 41.6546C103.059 42.0466 103.04 42.4101 103.016 42.7453C103.005 43.0814 102.998 43.3757 102.994 43.628C102.991 43.8664 102.985 44.0414 102.977 44.1532L102.917 44.991L102.905 45.1586C102.89 44.7785 102.887 44.2379 102.895 43.5367C102.912 42.7238 102.955 41.8286 103.025 40.8511L103.053 40.4741C103.064 40.3205 103.074 40.1738 103.084 40.0342C103.108 39.8956 103.137 39.7923 103.17 39.7245L102.461 39.6314C102.314 39.5226 102.166 39.4348 102.016 39.3679C101.867 39.301 101.729 39.263 101.603 39.254L101.634 38.835C101.64 38.7513 101.652 38.6819 101.67 38.6271C101.703 38.5593 101.775 38.5294 101.887 38.5374C101.914 38.5394 101.983 38.5584 102.093 38.5944L102.111 38.343C101.964 38.2482 101.846 38.1274 101.758 37.9808C101.671 37.8201 101.634 37.663 101.645 37.5094C101.671 37.1464 101.942 36.9834 102.459 37.0206C102.654 37.0346 102.856 37.0632 103.063 37.1062C103.271 37.1492 103.486 37.1857 103.708 37.2157C103.786 36.9125 103.854 36.6437 103.913 36.4094C103.973 36.161 104.032 35.9266 104.09 35.7062C104.149 35.4719 104.215 35.245 104.287 35.0256C104.36 34.7922 104.447 34.5529 104.549 34.3075C104.695 34.0373 104.814 33.7441 104.907 33.428C105.001 33.0978 105.073 32.7732 105.124 32.454L105.563 32.5066C105.633 32.5116 105.687 32.5366 105.726 32.5815C105.779 32.6274 105.8 32.7272 105.788 32.8808C105.779 33.0065 105.746 33.1725 105.689 33.379L105.936 33.4599C106.075 33.0909 106.23 32.7932 106.401 32.5669C106.585 32.3416 106.754 32.2344 106.908 32.2455C107.145 32.2625 107.27 32.5733 107.283 33.1778L107.256 33.5548C107.23 33.9179 107.177 34.258 107.098 34.5751C107.034 34.8793 106.956 35.1825 106.864 35.4847C106.772 35.7869 106.68 36.096 106.587 36.4122C106.494 36.7283 106.406 37.0729 106.323 37.4459C106.627 37.5099 106.926 37.5525 107.219 37.5735C107.359 37.5836 107.499 37.5936 107.638 37.6037C107.779 37.5998 107.919 37.6028 108.059 37.6129C108.198 37.6229 108.349 37.5776 108.511 37.4769C108.672 37.3763 108.816 37.3305 108.942 37.3395C109.053 37.3475 109.135 37.3885 109.186 37.4623C109.236 37.5362 109.259 37.615 109.253 37.6988C108.996 37.7505 108.739 37.8092 108.482 37.8749C108.24 37.9277 108.004 37.9809 107.776 38.0347C108.001 38.0228 108.242 37.991 108.499 37.9393C108.756 37.8736 109.027 37.8158 109.311 37.7661C109.306 37.8359 109.301 37.8988 109.297 37.9546C109.307 38.0115 109.324 38.0758 109.347 38.1477C109.375 38.1497 109.41 38.1452 109.453 38.1342C109.539 38.1123 109.589 38.1019 109.603 38.1029C109.737 38.1828 109.821 38.2801 109.855 38.3948C109.89 38.4955 109.903 38.6088 109.894 38.7344C109.887 38.8322 109.867 38.9219 109.833 39.0037C109.8 39.0715 109.781 39.1334 109.777 39.1892ZM103.671 46.519C103.502 46.1279 103.424 45.7503 103.436 45.3862C103.448 45.0222 103.452 44.6786 103.447 44.3554L103.488 41.158L103.398 41.5306C103.33 42.4661 103.297 43.3199 103.298 44.092C103.313 44.851 103.369 45.4446 103.464 45.8725C103.455 45.9982 103.442 46.0815 103.425 46.1224C103.422 46.1643 103.42 46.1992 103.418 46.2271C103.416 46.255 103.427 46.2909 103.452 46.3348C103.491 46.3797 103.564 46.4411 103.671 46.519ZM104.946 45.4738C104.926 45.3601 104.92 45.2404 104.93 45.1147L105.003 44.0883C104.979 44.227 104.955 44.3656 104.931 44.5042C104.908 44.6289 104.892 44.7611 104.882 44.9007C104.856 45.2638 104.856 45.5446 104.884 45.7431C104.914 45.9136 104.988 46.0593 105.106 46.1801C105.042 46.0913 104.999 45.997 104.978 45.8972C104.973 45.7845 104.962 45.6434 104.946 45.4738ZM102.916 45.3067L102.905 45.1586L102.916 45.3067ZM105.146 46.204C105.133 46.1891 105.119 46.1811 105.106 46.1801C105.119 46.1811 105.133 46.1891 105.146 46.204ZM114.773 49.802C114.723 49.9107 114.696 49.993 114.692 50.0489C114.689 50.0908 114.699 50.1546 114.721 50.2404L112.257 49.6631L112.263 49.5793C112.165 49.5723 112.122 49.485 112.134 49.3174C112.142 49.2057 112.164 49.095 112.2 48.9853C112.236 48.8756 112.264 48.7864 112.283 48.7175C112.443 48.0553 112.572 47.426 112.671 46.8295C112.784 46.2341 112.886 45.6028 112.976 44.9355C113.07 43.6229 113.121 42.4335 113.127 41.3672C113.149 40.288 113.197 39.2317 113.271 38.1983C113.334 37.3186 113.433 36.5327 113.567 35.8405C113.701 35.1483 113.795 34.4252 113.849 33.6712C113.887 33.1405 113.905 32.6014 113.903 32.0538L114.39 32.0047C114.432 32.0077 114.472 32.0386 114.51 32.0975C114.549 32.1424 114.577 32.2427 114.594 32.3983C114.611 32.5399 114.618 32.7439 114.613 33.0102C114.623 33.2636 114.613 33.5927 114.584 33.9977L114.835 34.0158C114.931 33.0682 115.048 32.3187 115.186 31.7672C115.338 31.2167 115.491 30.9469 115.645 30.958C115.784 30.968 115.892 31.1302 115.968 31.4444C116.044 31.7447 116.092 32.1482 116.112 32.6549C116.146 33.1626 116.153 33.7386 116.135 34.383C116.131 35.0283 116.104 35.6931 116.055 36.3774L115.865 39.0166C116.166 38.7294 116.536 38.4753 116.973 38.2541C117.424 38.0338 117.907 37.9423 118.424 37.9795C119.178 38.0337 119.8 38.2679 120.289 38.6821C120.794 39.0834 121.201 39.5688 121.511 40.1385C121.822 40.6943 122.046 41.2859 122.183 41.9133C122.336 42.5279 122.437 43.0685 122.488 43.5354C122.538 43.8197 122.578 44.1384 122.609 44.4915C122.653 44.8456 122.684 45.2057 122.699 45.5718C122.715 45.9379 122.717 46.3029 122.705 46.667C122.707 47.0321 122.696 47.3682 122.674 47.6754C122.671 47.7173 122.656 47.8355 122.628 48.03C122.615 48.2115 122.587 48.406 122.544 48.6135C122.501 48.8209 122.445 49.0064 122.377 49.17C122.309 49.3335 122.227 49.4118 122.129 49.4047C122.101 49.4027 122.08 49.3942 122.068 49.3793C122.119 49.0601 122.162 48.7474 122.198 48.4412C122.234 48.135 122.264 47.8213 122.287 47.5002C122.34 46.7601 122.344 46.0235 122.298 45.2903C122.263 44.614 122.186 43.9277 122.068 43.2314C122.163 43.8559 122.224 44.4708 122.251 45.0763C122.288 45.7247 122.284 46.37 122.238 47.0124C122.183 47.7804 122.087 48.5245 121.951 49.2445C121.807 49.2904 121.693 49.4155 121.608 49.6199C121.537 49.8254 121.465 50.0448 121.392 50.2781C121.319 50.5115 121.227 50.7154 121.117 50.8899C121.019 51.0794 120.872 51.1671 120.677 51.153C120.607 51.148 120.548 51.0946 120.499 50.9929C120.463 50.9061 120.429 50.7913 120.397 50.6487C120.364 50.52 120.339 50.3779 120.323 50.2222C120.321 50.0537 120.325 49.8996 120.335 49.7599C120.342 49.6622 120.362 49.5794 120.395 49.5116C120.428 49.4438 120.462 49.362 120.497 49.2663C120.577 48.9351 120.636 48.6025 120.674 48.2684C120.727 47.9213 120.766 47.5662 120.792 47.2032C120.822 46.7843 120.835 46.315 120.83 45.7953C120.826 45.2756 120.794 44.7469 120.734 44.2093C120.674 43.6716 120.585 43.1529 120.467 42.6531C120.35 42.1393 120.186 41.6854 119.975 41.2913C119.78 40.8843 119.537 40.558 119.246 40.3124C118.956 40.053 118.615 39.9092 118.224 39.881C117.917 39.8589 117.628 39.9715 117.358 40.2187C117.102 40.453 116.862 40.7656 116.637 41.1565C116.428 41.5344 116.236 41.9627 116.061 42.4414C115.901 42.9072 115.757 43.353 115.628 43.7788L115.62 43.8835C115.735 43.4567 115.871 43.0243 116.029 42.5865C116.201 42.1497 116.398 41.7499 116.621 41.3869C116.858 41.011 117.127 40.6934 117.426 40.4342C117.726 40.175 118.067 40.0171 118.45 39.9604C118.785 39.9846 119.077 40.1248 119.325 40.3813C119.573 40.6378 119.781 40.9685 119.948 41.3736C120.131 41.7657 120.274 42.2111 120.379 42.7099C120.498 43.1957 120.583 43.679 120.632 44.1598C120.696 44.6416 120.733 45.1005 120.744 45.5364C120.756 45.9583 120.751 46.3089 120.731 46.5882C120.699 47.0351 120.646 47.4804 120.572 47.9242C120.499 48.3541 120.413 48.776 120.313 49.1899C120.286 48.5844 120.282 47.9525 120.302 47.2942C120.321 46.6359 120.319 45.983 120.295 45.3357C120.271 44.6883 120.212 44.0524 120.116 43.4279C120.022 42.7895 119.848 42.1875 119.594 41.6218L119.787 41.5725C119.678 41.3261 119.572 41.143 119.468 41.0232C119.379 40.9045 119.287 40.8137 119.193 40.7508C119.113 40.6889 119.019 40.633 118.91 40.5831C118.803 40.5192 118.684 40.4194 118.553 40.2837L118.239 40.2611C117.764 40.2269 117.306 40.6431 116.865 41.5097C116.423 42.3763 115.984 43.6079 115.546 45.2046L115.388 46.5197C115.513 45.9532 115.665 45.3114 115.843 44.5943C116.036 43.8643 116.246 43.1846 116.474 42.5553C116.716 41.9131 116.979 41.3846 117.261 40.9698C117.559 40.542 117.882 40.3407 118.231 40.3658C118.385 40.3769 118.563 40.4388 118.765 40.5516C118.968 40.6644 119.17 40.8755 119.372 41.1848C119.193 40.9473 119.01 40.7657 118.822 40.6399C118.635 40.5141 118.464 40.4457 118.311 40.4347L118.162 40.4451C117.883 40.425 117.626 40.5819 117.392 40.916C117.157 41.25 116.929 41.6898 116.707 42.2353C116.501 42.7678 116.309 43.3856 116.132 44.0888C115.956 44.7779 115.786 45.4746 115.624 46.1787C115.462 46.8688 115.308 47.5386 115.163 48.1878C115.033 48.8242 114.903 49.3622 114.773 49.802ZM114.33 50.107C114.416 50.0851 114.468 50.0468 114.486 49.9919C114.518 49.9381 114.548 49.9121 114.576 49.9141L114.802 48.8146L114.392 49.8377L114.32 49.9589C114.084 49.9279 113.855 49.8834 113.635 49.8254C113.441 49.7834 113.234 49.7404 113.012 49.6964C112.806 49.6395 112.62 49.591 112.454 49.551C112.422 49.4223 112.407 49.33 112.411 49.2742C112.412 49.2602 112.413 49.2463 112.414 49.2323C112.429 49.2193 112.437 49.2059 112.438 49.1919L112.293 49.1604C112.305 49.3859 112.316 49.52 112.327 49.5629C112.353 49.5928 112.386 49.6233 112.426 49.6542L114.33 50.107ZM120.21 39.2028C119.945 38.9872 119.655 38.812 119.342 38.6772C119.03 38.5284 118.7 38.4414 118.35 38.4163C117.792 38.3762 117.299 38.4951 116.872 38.7732C116.446 39.0373 116.094 39.3418 115.817 39.6868L115.812 39.7497C115.951 39.5772 116.103 39.4127 116.269 39.2561C116.449 39.0867 116.642 38.9461 116.847 38.8345C117.052 38.7089 117.284 38.6133 117.541 38.5476C117.798 38.4819 118.088 38.4606 118.409 38.4837C119.037 38.5289 119.583 38.7506 120.045 39.1488C120.522 39.548 120.923 40.026 121.248 40.5828C121.111 40.3343 120.96 40.0919 120.795 39.8554C120.643 39.6199 120.448 39.4024 120.21 39.2028ZM122.036 43.0818L122.068 43.2314L122.036 43.0818ZM125.817 49.7753C125.901 49.3883 125.982 48.938 126.061 48.4243C126.155 47.8977 126.242 47.3706 126.322 46.843C126.402 46.3154 126.481 45.8017 126.559 45.302C126.639 44.7884 126.713 44.3446 126.782 43.9705C126.685 44.3425 126.591 44.7709 126.5 45.2556C126.409 45.7403 126.317 46.239 126.224 46.7517C126.131 47.2643 126.038 47.777 125.945 48.2896C125.853 48.7883 125.771 49.2386 125.7 49.6406C125.501 49.4858 125.409 49.2898 125.426 49.0524C125.447 48.7731 125.47 48.5432 125.497 48.3627C125.525 48.1682 125.562 47.9463 125.608 47.697L125.854 47.5041C125.845 47.4333 125.842 47.3699 125.846 47.3141L125.861 47.1046C125.884 46.7834 125.945 46.4229 126.044 46.0229C126.144 45.609 126.251 45.1957 126.365 44.7828C126.494 44.3569 126.608 43.951 126.705 43.565C126.804 43.1651 126.864 42.8185 126.886 42.5253L126.639 42.4444C126.587 42.7775 126.517 43.1585 126.43 43.5873C126.344 44.0022 126.25 44.4376 126.147 44.8934C126.059 45.3362 125.971 45.779 125.883 46.2219C125.838 46.4572 125.794 46.6786 125.751 46.8861C125.807 46.4971 125.872 46.0807 125.946 45.6369C126.062 44.9996 126.177 44.3692 126.292 43.7459C126.422 43.1096 126.544 42.4867 126.658 41.8773C126.772 41.2679 126.883 40.7074 126.99 40.1958C127.005 39.9863 127.07 39.7664 127.185 39.536C127.315 39.2927 127.41 39.0399 127.471 38.7776C127.553 38.8116 127.622 38.8306 127.677 38.8346L127.824 38.8451C127.964 38.8552 128.052 38.8966 128.089 38.9694C128.127 39.0283 128.142 39.1136 128.134 39.2253L128.126 39.33L128.31 39.4064C128.437 39.205 128.581 39.047 128.744 38.9324C128.907 38.8177 129.065 38.7659 129.218 38.777C129.554 38.8011 129.696 39.1692 129.644 39.8814C129.617 40.2584 129.546 40.6604 129.431 41.0872C129.331 41.5011 129.267 41.9105 129.238 42.3155L129.218 42.5878C129.186 43.0346 129.102 43.5199 128.966 44.0435C128.831 44.5531 128.681 45.0757 128.516 45.6112C128.366 46.1338 128.225 46.643 128.091 47.1386C127.957 47.6343 127.875 48.0916 127.845 48.5105C127.838 48.6083 127.837 48.7135 127.843 48.8262C127.849 48.9389 127.848 49.0442 127.841 49.1419C127.826 49.3514 127.775 49.481 127.687 49.5308C127.614 49.5677 127.522 49.5821 127.41 49.5741C127.423 49.3926 127.432 49.1686 127.437 48.9023C127.443 48.636 127.453 48.3981 127.468 48.1886C127.429 48.3402 127.4 48.5487 127.381 48.814C127.362 49.0793 127.329 49.3297 127.284 49.565L126.97 49.5424L126.952 49.7938C126.81 50.0082 126.635 50.1078 126.425 50.0928C126.328 50.0857 126.218 50.0498 126.096 49.9849C125.975 49.92 125.881 49.8501 125.817 49.7753ZM131.289 33.9992C131.041 34.1218 130.812 34.2877 130.6 34.4971C130.389 34.7065 130.17 34.9083 129.946 35.1027C130.078 35.028 130.196 34.9452 130.301 34.8545C130.405 34.7638 130.51 34.6731 130.615 34.5824C130.734 34.4927 130.853 34.403 130.971 34.3132C131.104 34.2245 131.25 34.1438 131.41 34.0711C131.448 34.13 131.479 34.1813 131.504 34.2252C131.543 34.2701 131.561 34.3135 131.558 34.3554L131.041 34.8025C131.043 34.7746 131.017 34.7447 130.964 34.7127C130.924 34.6818 130.89 34.6653 130.862 34.6633C130.81 34.7999 130.732 34.9066 130.628 34.9834C130.525 35.0601 130.421 35.1299 130.318 35.1927C130.216 35.2555 130.112 35.3252 130.009 35.402C129.905 35.4787 129.827 35.5854 129.775 35.7221L129.772 35.764C129.771 35.7779 129.792 35.7864 129.833 35.7894L130.952 34.8803L130.525 35.2496C130.315 35.4311 130.091 35.6185 129.853 35.8119C129.629 35.9923 129.414 36.1523 129.208 36.2918C129.015 36.4324 128.898 36.5011 128.856 36.4981L128.837 36.4757C128.741 36.4407 128.637 36.4192 128.525 36.4112C128.428 36.4041 128.323 36.3896 128.213 36.3676C128.221 36.2559 128.208 36.1357 128.176 36.007C128.157 35.8793 128.15 35.7806 128.155 35.7108C128.16 35.641 128.197 35.6086 128.267 35.6136C128.27 35.5717 128.247 35.5068 128.197 35.419C128.162 35.3183 128.121 35.21 128.073 35.0943C128.026 34.9646 127.979 34.8349 127.932 34.7052C127.9 34.5626 127.89 34.4214 127.9 34.2818C127.91 34.1421 127.975 34.0135 128.096 33.8959C128.232 33.7653 128.38 33.6566 128.54 33.5699C128.715 33.4842 128.882 33.412 129.04 33.3532C129.199 33.2945 129.314 33.2536 129.386 33.2307C129.442 33.2347 129.465 33.2083 129.455 33.1514C129.446 33.0806 129.469 33.0472 129.525 33.0512L129.893 33.204C129.86 33.2718 129.761 33.384 129.595 33.5405C129.444 33.6841 129.332 33.7883 129.257 33.8531C129.36 33.7903 129.479 33.6936 129.615 33.563C129.764 33.4334 129.877 33.3362 129.951 33.2714C130.019 33.3043 130.08 33.3368 130.134 33.3687C130.188 33.4007 130.229 33.4177 130.257 33.4197L130.324 33.3613C130.422 33.3684 130.525 33.3969 130.634 33.4468C130.756 33.4977 130.864 33.5546 130.958 33.6175C131.052 33.6804 131.131 33.7493 131.196 33.8241C131.261 33.8989 131.292 33.9573 131.289 33.9992ZM125.673 47.3858C125.698 47.2332 125.723 47.0806 125.748 46.928C125.722 47.0946 125.697 47.2472 125.673 47.3858ZM132.96 50.0364C132.965 49.9666 132.992 49.8843 133.041 49.7896C133.09 49.6949 133.118 49.5917 133.126 49.4799C133.192 49.1478 133.237 48.9124 133.261 48.7738C133.286 48.6212 133.303 48.4891 133.311 48.3773C133.353 47.7909 133.377 47.161 133.384 46.4877C133.405 45.8015 133.417 45.1426 133.421 44.5113C133.435 44.3158 133.444 44.0849 133.449 43.8185C133.468 43.5532 133.469 43.3428 133.453 43.1871C133.53 42.7014 133.599 42.2222 133.661 41.7494C133.723 41.2766 133.772 40.7959 133.807 40.3072L133.845 39.7835C133.858 39.602 133.864 39.4199 133.863 39.2374C133.902 39.2823 133.942 39.3063 133.984 39.3093C134.04 39.3133 134.097 39.2964 134.156 39.2585C134.229 39.2216 134.293 39.2052 134.349 39.2092C134.447 39.2163 134.516 39.3265 134.557 39.54C134.612 39.7545 134.614 40.2178 134.562 40.9299L134.751 40.9435C134.877 40.1666 135.026 39.5527 135.199 39.1019C135.386 38.6522 135.556 38.4328 135.71 38.4439C135.78 38.4489 135.88 38.6105 136.012 38.9288C136.144 39.2331 136.187 39.7064 136.141 40.3487L136.399 39.9883C136.565 39.8178 136.746 39.6413 136.942 39.4589C137.152 39.2775 137.381 39.1185 137.629 38.982C137.877 38.8454 138.152 38.7388 138.452 38.6622C138.753 38.5716 139.093 38.5398 139.47 38.5669C140.196 38.6192 140.812 38.8319 141.319 39.2052C141.84 39.5656 142.263 40.0241 142.588 40.5809C142.914 41.1236 143.165 41.7382 143.34 42.4245C143.53 43.0979 143.663 43.7813 143.74 44.4745C143.817 45.1538 143.854 45.8092 143.851 46.4406C143.848 47.072 143.83 47.6111 143.798 48.0579C143.769 48.4629 143.723 48.7052 143.661 48.785C143.614 48.8518 143.528 48.8877 143.401 48.8926C143.45 47.8154 143.459 46.7142 143.428 45.589C143.397 44.4639 143.209 43.3626 142.866 42.2852C143.163 43.4154 143.322 44.5217 143.343 45.6039C143.378 46.6732 143.357 47.7455 143.28 48.8207C143.199 48.7728 143.124 48.7463 143.054 48.7413C142.998 48.7373 142.948 48.7547 142.903 48.7936C142.895 48.9053 142.893 49.0245 142.898 49.1512C142.904 49.2639 142.903 49.3761 142.895 49.4878C142.901 49.6005 142.9 49.7058 142.893 49.8035C142.786 50.1187 142.686 50.343 142.592 50.4767C142.498 50.6103 142.416 50.6746 142.347 50.6695C142.263 50.6635 142.196 50.6236 142.145 50.5497C142.095 50.4619 142.046 50.3602 141.998 50.2444C141.964 50.1297 141.924 50.0075 141.877 49.8778C141.845 49.7352 141.792 49.598 141.717 49.4663C141.762 49.2309 141.797 49.0439 141.821 48.9053C141.846 48.7527 141.862 48.6275 141.869 48.5298C141.896 48.1527 141.922 47.6984 141.946 47.1668C141.97 46.6351 141.968 46.0805 141.939 45.503C141.926 44.9125 141.87 44.326 141.771 43.7434C141.688 43.1479 141.543 42.6182 141.338 42.1542C141.148 41.6773 140.888 41.2867 140.559 40.9823C140.231 40.664 139.823 40.4872 139.334 40.4521C138.999 40.428 138.691 40.5181 138.409 40.7224C138.142 40.9278 137.898 41.1979 137.677 41.533C137.471 41.869 137.282 42.2415 137.113 42.6503C136.944 43.0453 136.804 43.4282 136.693 43.7992C136.847 43.4173 137.001 43.0283 137.156 42.6324C137.325 42.2375 137.512 41.879 137.718 41.5569C137.937 41.2359 138.18 40.9796 138.447 40.7883C138.714 40.5829 139.015 40.4923 139.35 40.5164C139.783 40.5475 140.145 40.6929 140.435 40.9523C140.739 41.2128 140.982 41.5391 141.165 41.9312C141.361 42.3243 141.504 42.7697 141.595 43.2675C141.7 43.7523 141.77 44.2486 141.804 44.7563C141.838 45.2501 141.845 45.7349 141.825 46.2106C141.82 46.6735 141.805 47.0724 141.781 47.4076C141.762 47.6729 141.736 47.9377 141.703 48.202C141.684 48.4673 141.657 48.7391 141.623 49.0174C141.536 48.4777 141.478 47.9191 141.449 47.3416C141.435 46.7511 141.414 46.174 141.384 45.6104C141.356 45.0329 141.304 44.4818 141.229 43.9571C141.17 43.4194 141.058 42.9201 140.895 42.4592L141.057 42.2603C140.94 41.9291 140.797 41.6732 140.628 41.4926C140.473 41.299 140.315 41.1543 140.154 41.0584C139.992 40.9626 139.842 40.9027 139.703 40.8787C139.565 40.8547 139.474 40.8411 139.433 40.8381C139.083 40.813 138.76 40.9161 138.463 41.1474C138.179 41.3796 137.917 41.7047 137.677 42.1225C137.451 42.5273 137.242 43.0035 137.048 43.551C136.854 44.0985 136.679 44.6755 136.523 45.2818C136.367 45.8882 136.225 46.5026 136.096 47.1249C135.968 47.7333 135.856 48.3078 135.761 48.8484L135.95 48.8619C136.054 48.3922 136.161 47.8736 136.272 47.3061C136.397 46.7396 136.523 46.1661 136.649 45.5856C136.79 44.9922 136.943 44.4208 137.109 43.8712C137.275 43.3217 137.458 42.8296 137.657 42.3948C137.871 41.961 138.107 41.613 138.364 41.3508C138.607 41.1015 138.89 40.9675 139.214 40.9487C138.902 40.9965 138.629 41.1734 138.397 41.4795C138.149 41.7985 137.924 42.1964 137.721 42.6731C137.519 43.1498 137.326 43.6763 137.145 44.2528C136.978 44.8163 136.819 45.3593 136.67 45.8819L136.031 48.9099C135.961 49.1013 135.906 49.2729 135.867 49.4245L135.752 49.8583C135.714 49.9959 135.675 50.1475 135.635 50.3131C135.596 50.4647 135.548 50.6437 135.491 50.8501L135.41 51.097L135.284 51.0879L133.22 50.2236C133.151 50.2046 133.097 50.1796 133.057 50.1487C133.031 50.1188 132.999 50.0814 132.96 50.0364ZM137.377 39.5534C137.081 39.7707 136.839 40.0129 136.651 40.2802C136.479 40.5344 136.312 40.7962 136.153 41.0654L136.151 41.0863C136.376 40.6955 136.678 40.3031 137.057 39.9093C137.42 39.5424 137.888 39.2813 138.461 39.126C138.275 39.1688 138.097 39.2121 137.925 39.2559C137.725 39.3117 137.542 39.4108 137.377 39.5534ZM139.941 39.043C139.872 39.024 139.775 39.01 139.649 39.0009C140.088 39.1448 140.498 39.3006 140.879 39.4683C141.26 39.6221 141.612 39.9071 141.933 40.3232C141.719 39.9849 141.423 39.711 141.045 39.5013C140.681 39.2927 140.313 39.1399 139.941 39.043ZM140.334 41.4715C140.229 41.3796 140.101 41.3073 139.95 41.2543C139.814 41.1884 139.645 41.1061 139.441 41.0072L139.423 40.9638C139.66 40.9948 139.865 41.0658 140.04 41.1766C140.215 41.2734 140.379 41.4396 140.53 41.675L140.334 41.4715ZM141.972 40.3681C142.15 40.6195 142.312 40.9049 142.458 41.2242C142.603 41.5434 142.73 41.8263 142.839 42.0727C142.722 41.7415 142.611 41.4387 142.504 41.1643C142.397 40.89 142.22 40.6246 141.972 40.3681ZM155.013 45.5592L155.016 45.5173L154.484 45.3105L154.884 44.7287L157.28 45.659C157.247 46.1199 157.234 46.5961 157.24 47.0879C157.262 47.5667 157.283 48.0594 157.303 48.5661C157.336 49.0739 157.355 49.5946 157.359 50.1282C157.377 50.6489 157.368 51.1745 157.329 51.7052C157.278 52.4173 157.164 53.1319 156.986 53.849C156.808 54.5661 156.549 55.2423 156.208 55.8775C155.882 56.5137 155.461 57.094 154.946 57.6184C154.445 58.1438 153.832 58.5629 153.108 58.8758C152.713 59.1 152.208 59.2953 151.592 59.4615C150.99 59.6428 150.401 59.7268 149.827 59.7135L149.575 59.6954C149.017 59.6552 148.553 59.5588 148.185 59.406C147.816 59.2671 147.526 59.1129 147.313 58.9432C147.1 58.7875 146.949 58.6363 146.862 58.4896C146.787 58.3579 146.751 58.2781 146.753 58.2502C146.757 58.1943 146.787 58.1684 146.842 58.1724C147.252 58.5247 147.703 58.7888 148.196 58.9646C148.689 59.1404 149.186 59.2464 149.689 59.2825C150.541 59.3438 151.342 59.233 152.092 58.9501C152.814 58.6652 153.473 58.2915 154.068 57.8289C153.474 58.2775 152.809 58.6367 152.074 58.9067C151.325 59.1756 150.538 59.2805 149.715 59.2212C149.226 59.186 148.749 59.0816 148.284 58.9078C147.834 58.735 147.417 58.4734 147.035 58.1232C147.077 58.1262 147.127 58.1157 147.185 58.0918C147.242 58.0819 147.272 58.049 147.276 57.9931L147.119 57.8344C147.029 57.7296 146.919 57.5954 146.79 57.4318C146.676 57.2691 146.57 57.0791 146.473 56.8616C146.391 56.6451 146.358 56.4182 146.375 56.1808C146.392 55.9434 146.491 55.8312 146.673 55.8443C146.813 55.8543 146.967 55.9566 147.135 56.1512C147.304 56.3458 147.506 56.5569 147.742 56.7844C147.978 57.0259 148.263 57.25 148.599 57.4566C148.949 57.6643 149.369 57.7857 149.857 57.8208C150.556 57.8711 151.194 57.7766 151.773 57.5375C152.35 57.3124 152.866 56.9775 153.319 56.5329C152.882 56.9506 152.382 57.2655 151.819 57.4777C151.27 57.6909 150.654 57.7729 149.97 57.7236C149.551 57.6935 149.158 57.5951 148.791 57.4283C148.438 57.2625 148.158 57.0529 147.952 56.7995C148.184 56.8864 148.472 56.9843 148.815 57.0932C149.172 57.2031 149.56 57.2731 149.979 57.3032C150.733 57.3575 151.41 57.2097 152.011 56.8599C152.624 56.525 153.162 56.0794 153.623 55.5231L153.913 55.5861C154.275 55.0506 154.541 54.4662 154.713 53.8329C154.898 53.2146 155.015 52.5563 155.066 51.8581C155.1 51.3834 155.113 50.9001 155.107 50.4084C155.1 49.9166 155.08 49.4169 155.046 48.9091L154.931 49.0482C154.966 49.542 154.98 50.0273 154.974 50.504C154.982 50.9679 154.971 51.4232 154.938 51.87C154.898 52.4286 154.803 52.9762 154.652 53.5127C154.5 54.0632 154.289 54.5604 154.018 55.0041C154.291 54.5324 154.496 54.0208 154.634 53.4693C154.771 52.9318 154.862 52.3488 154.907 51.7204C154.863 51.3523 154.855 50.9868 154.881 50.6237C154.907 50.2606 154.919 49.8966 154.917 49.5315L154.905 49.1096C154.798 49.2422 154.637 49.4271 154.423 49.6644C154.21 49.9017 153.961 50.1365 153.678 50.3687C153.396 50.587 153.08 50.7749 152.732 50.9323C152.398 51.0908 152.049 51.1569 151.686 51.1308L151.158 51.156C150.418 51.1027 149.768 50.8665 149.209 50.4473C148.649 50.0281 148.181 49.5171 147.803 48.9145C147.426 48.2979 147.151 47.6394 146.977 46.9391C146.803 46.2248 146.74 45.5465 146.786 44.9042C146.777 44.8334 146.774 44.777 146.777 44.7351L146.791 44.5466C146.852 43.6948 147.058 42.9728 147.41 42.3804C147.762 41.7742 148.218 41.2946 148.777 40.9418C149.349 40.59 150.005 40.3494 150.744 40.2201C151.485 40.0769 152.274 40.0354 153.111 40.0956C154.089 40.1659 155.071 40.3699 156.057 40.7075C155.971 40.7294 155.926 40.7753 155.921 40.8451C155.917 40.901 155.92 40.9573 155.93 41.0142C155.955 41.0581 155.965 41.108 155.961 41.1638L155.958 41.2057C155.911 41.2725 155.811 41.3004 155.657 41.2894C155.504 41.2783 155.282 41.2413 154.992 41.1783C154.701 41.1153 154.294 41.0298 153.768 40.9219L153.75 41.1732C154.221 41.2632 154.619 41.3831 154.945 41.5329C155.272 41.6687 155.535 41.814 155.735 41.9687C155.934 42.1234 156.071 42.2666 156.146 42.3983C156.235 42.531 156.276 42.6392 156.27 42.723C156.266 42.7789 156.228 42.8183 156.156 42.8412C156.099 42.8511 156.036 42.8536 155.966 42.8485C155.813 42.8375 155.535 42.7895 155.135 42.7045C154.748 42.6205 154.254 42.5569 153.653 42.5137C153.081 42.4726 152.541 42.4688 152.033 42.5025C151.525 42.5361 151.076 42.6371 150.685 42.8055C150.308 42.9749 150.002 43.2266 149.767 43.5606C149.533 43.8947 149.395 44.3409 149.355 44.8995C149.322 45.3603 149.36 45.8052 149.47 46.2342C149.593 46.6641 149.748 47.0472 149.934 47.3835C150.135 47.7207 150.361 47.9966 150.612 48.2112C150.864 48.4118 151.116 48.5212 151.367 48.5392C151.535 48.5513 151.746 48.4472 152 48.2269C152.269 48.0075 152.548 47.7329 152.839 47.4029C153.143 47.0739 153.435 46.7229 153.714 46.35C153.994 45.9771 154.235 45.6436 154.439 45.3494L155.013 45.5592ZM153.957 49.715C153.807 49.8446 153.642 49.9872 153.463 50.1427C153.284 50.2843 153.085 50.4173 152.865 50.5419C152.661 50.6535 152.429 50.7561 152.169 50.8498C151.911 50.9294 151.634 50.9727 151.339 50.9795L151.481 51.0529C151.904 51.0272 152.297 50.9361 152.659 50.7797C153.022 50.6093 153.345 50.408 153.629 50.1757C153.926 49.9444 154.189 49.7037 154.417 49.4534C154.646 49.2032 154.844 48.9858 155.012 48.8014L154.988 48.547C154.849 48.7195 154.681 48.911 154.483 49.1213C154.3 49.3327 154.124 49.5306 153.957 49.715ZM155.339 51.8568C155.295 52.4712 155.189 53.0671 155.021 53.6446C154.855 54.1941 154.643 54.7052 154.385 55.1778C154.658 54.6922 154.886 54.1542 155.069 53.5638C155.267 52.9604 155.389 52.3376 155.435 51.6952C155.458 51.3741 155.468 51.0449 155.464 50.7078C155.474 50.3716 155.477 50.035 155.474 49.6978L155.458 48.4545L155.344 48.5726C155.361 49.1213 155.37 49.6694 155.373 50.217C155.39 50.7656 155.379 51.3122 155.339 51.8568ZM156.898 51.8426C156.952 51.1025 156.969 50.3809 156.949 49.6776C156.943 48.9754 156.923 48.2792 156.889 47.5889C156.898 48.2353 156.915 48.8821 156.939 49.5295C156.963 50.1629 156.951 50.8147 156.903 51.485C156.87 51.9458 156.807 52.4325 156.714 52.9452C156.636 53.4449 156.516 53.9416 156.354 54.4352C156.192 54.9289 155.982 55.4051 155.725 55.8638C155.483 56.2955 155.188 56.6954 154.839 57.0633C155.443 56.4611 155.894 55.7636 156.189 54.9708C156.501 54.151 156.721 53.3317 156.85 52.5129L156.898 51.8426ZM161.931 50.0781C162.149 50.164 162.406 50.3088 162.7 50.5124C163.008 50.717 163.35 50.9312 163.727 51.1548C164.104 51.3784 164.518 51.5836 164.967 51.7703C165.431 51.9581 165.928 52.071 166.459 52.1092L166.689 52.1258C166.773 52.1318 166.872 52.1249 166.986 52.105L167.204 52.2891C167.761 52.1607 168.23 51.8787 168.612 51.443C168.996 50.9933 169.216 50.3705 169.273 49.5746C169.314 49.0021 169.203 48.601 168.939 48.3715C168.689 48.129 168.202 47.9816 167.475 47.9294C167.029 47.8972 166.558 47.8985 166.065 47.9332C165.586 47.9549 165.081 47.9466 164.55 47.9085C164.313 47.8914 164.069 47.8668 163.819 47.8348C163.569 47.7888 163.315 47.7213 163.054 47.6324L163.045 47.7581C163.594 47.9379 164.14 48.0474 164.685 48.0866C165.216 48.1247 165.72 48.133 166.199 48.1113C166.693 48.0766 167.163 48.0753 167.61 48.1075C167.987 48.1346 168.277 48.1976 168.481 48.2964C168.699 48.3823 168.86 48.4921 168.962 48.6258C169.065 48.7596 169.124 48.9182 169.139 49.1017C169.168 49.2723 169.176 49.4623 169.161 49.6718C169.114 50.3281 168.899 50.8741 168.517 51.3098C168.15 51.7186 167.733 51.9622 167.264 52.0408C167.794 51.8964 168.221 51.6114 168.547 51.1856C168.888 50.7329 169.08 50.2134 169.122 49.6269C169.152 49.208 169.063 48.8788 168.856 48.6393C168.663 48.4008 168.301 48.2624 167.77 48.2243C167.337 48.1931 166.846 48.1859 166.298 48.2026C165.749 48.2193 165.168 48.2055 164.553 48.1613C164.176 48.1342 163.74 48.0537 163.244 47.9198C162.763 47.7869 162.308 47.5717 161.88 47.2742C161.452 46.9768 161.101 46.5866 160.827 46.1037C160.554 45.6068 160.445 44.9814 160.499 44.2273C160.542 43.6269 160.701 43.0838 160.974 42.5982C161.263 42.0996 161.623 41.6764 162.055 41.3285C162.488 40.9666 162.971 40.6926 163.504 40.5063C164.051 40.321 164.604 40.2415 165.163 40.2677C165.694 40.3059 166.191 40.4189 166.655 40.6066C167.133 40.7814 167.581 41.0031 167.996 41.2716C168.413 41.5262 168.807 41.8071 169.178 42.1145C169.549 42.4219 169.892 42.7273 170.207 43.0307L169.758 43.4195C169.66 43.4125 169.518 43.3461 169.33 43.2203C169.144 43.0806 168.858 42.8495 168.475 42.5271L168.335 42.7066C168.809 43.1477 169.145 43.5509 169.343 43.916C169.556 44.2822 169.655 44.563 169.641 44.7585C169.605 44.8682 169.531 44.9191 169.419 44.911C169.307 44.903 169.09 44.7962 168.768 44.5905C168.446 44.3849 168.077 44.1548 167.66 43.9002C167.257 43.6467 166.825 43.4121 166.363 43.1964C165.901 42.9807 165.475 42.8588 165.084 42.8307C164.861 42.8146 164.634 42.8404 164.405 42.9081C164.175 42.9758 163.964 43.08 163.772 43.2205C163.58 43.3471 163.414 43.5106 163.273 43.711C163.147 43.9124 163.074 44.1388 163.056 44.3902C163.027 44.7951 163.196 45.081 163.563 45.2477C163.93 45.4145 164.42 45.52 165.035 45.5642C165.161 45.5732 165.293 45.5828 165.433 45.5928C165.587 45.5899 165.729 45.579 165.856 45.5601C166.177 45.5832 166.387 45.5913 166.486 45.5844C166.6 45.5645 166.706 45.558 166.803 45.5651C167.404 45.6083 168.001 45.6933 168.596 45.8203C169.19 45.9473 169.715 46.1675 170.169 46.4809C170.624 46.7943 170.979 47.2199 171.235 47.7577C171.492 48.2955 171.588 48.9972 171.526 49.863C171.483 50.4634 171.335 51.0563 171.082 51.6417C170.845 52.2141 170.506 52.7232 170.067 53.1688C169.629 53.6005 169.1 53.9344 168.479 54.1705C167.858 54.4205 167.142 54.5164 166.332 54.4582C165.843 54.423 165.271 54.2836 164.615 54.0399C163.971 53.8111 163.359 53.5495 162.776 53.2549C162.209 52.9474 161.726 52.639 161.327 52.3296C160.942 52.0212 160.757 51.7692 160.771 51.5737C160.775 51.5179 160.813 51.4785 160.884 51.4556C161.691 52.1452 162.52 52.7242 163.37 53.1924C164.209 53.6317 165.081 53.9049 165.985 54.0121C165.54 53.9521 165.099 53.8431 164.661 53.6853C164.21 53.5125 163.762 53.3118 163.315 53.0832C162.883 52.8416 162.467 52.58 162.066 52.2985C161.68 52.0041 161.308 51.7106 160.95 51.4182L161.284 51.1685C161.243 51.1515 161.17 51.0971 161.064 51.0053C160.959 50.9135 160.854 50.8007 160.752 50.667C160.663 50.5343 160.582 50.3951 160.508 50.2495C160.434 50.1038 160.402 49.9681 160.411 49.8425C160.421 49.7028 160.456 49.6141 160.514 49.5762C160.573 49.5383 160.638 49.5219 160.707 49.5269C160.777 49.5319 160.92 49.5914 161.137 49.7052C161.353 49.819 161.618 49.9433 161.931 50.0781ZM166.406 52.5476C165.918 52.5124 165.38 52.3755 164.794 52.1368C164.222 51.8852 163.683 51.5797 163.175 51.2203C163.587 51.5447 164.05 51.8447 164.563 52.1202C165.078 52.3818 165.684 52.5377 166.382 52.588C167.318 52.6553 168.079 52.4222 168.664 51.8889C169.264 51.3565 169.599 50.6086 169.668 49.6451L169.683 49.4356C169.645 48.9838 169.518 48.6097 169.301 48.3133C169.098 48.004 168.761 47.8183 168.288 47.7562C168.577 47.8332 168.808 47.941 168.981 48.0797C169.167 48.2195 169.303 48.3836 169.387 48.5722C169.487 48.7478 169.55 48.9418 169.577 49.1543C169.604 49.3668 169.609 49.5847 169.593 49.8082C169.471 50.7258 169.126 51.4308 168.557 51.9232C167.989 52.4017 167.272 52.6098 166.406 52.5476ZM169.008 53.5558C169.373 53.3575 169.672 53.1053 169.904 52.7992C170.137 52.4931 170.343 52.171 170.521 51.833C170.186 52.3983 169.744 52.8859 169.195 53.2956C168.66 53.7063 168.04 53.9423 167.333 54.0038C167.602 53.981 167.878 53.9448 168.162 53.895C168.462 53.8323 168.743 53.7193 169.008 53.5558ZM171.281 49.7611C171.292 49.6075 171.275 49.4589 171.229 49.3152C171.195 49.2005 171.168 49.0793 171.15 48.9516L171.151 49.2254C171.157 49.3381 171.153 49.4922 171.139 49.6877C171.112 50.0648 171.044 50.4248 170.935 50.7679C170.826 51.1109 170.697 51.4455 170.547 51.7716C170.694 51.4735 170.836 51.1608 170.972 50.8337C171.123 50.4937 171.226 50.1361 171.281 49.7611ZM171.154 48.8888C171.153 48.9027 171.152 48.9237 171.15 48.9516C171.152 48.9237 171.153 48.9027 171.154 48.8888ZM167.241 52.0602C167.228 52.0592 167.214 52.0582 167.2 52.0572C167.214 52.0582 167.228 52.0592 167.241 52.0602ZM184.92 54.8478C184.87 54.9565 184.843 55.0388 184.839 55.0946C184.836 55.1365 184.846 55.2003 184.867 55.2861L182.403 54.7089L182.409 54.6251C182.312 54.6181 182.269 54.5308 182.281 54.3632C182.289 54.2515 182.311 54.1408 182.347 54.0311C182.383 53.9214 182.41 53.8321 182.429 53.7633C182.589 53.1011 182.719 52.4717 182.818 51.8753C182.931 51.2799 183.032 50.6485 183.123 49.9813C183.217 48.6687 183.267 47.4792 183.274 46.4129C183.295 45.3337 183.343 44.2774 183.418 43.2441C183.481 42.3644 183.58 41.5784 183.714 40.8862C183.848 40.1941 183.942 39.471 183.996 38.7169C184.034 38.1863 184.052 37.6472 184.049 37.0996L184.537 37.0504C184.579 37.0534 184.619 37.0844 184.657 37.1433C184.695 37.1882 184.723 37.2884 184.74 37.444C184.758 37.5857 184.764 37.7897 184.759 38.056C184.769 38.3093 184.76 38.6385 184.73 39.0434L184.982 39.0615C185.078 38.114 185.195 37.3645 185.333 36.8129C185.485 36.2624 185.638 35.9927 185.791 36.0037C185.931 36.0138 186.039 36.1759 186.114 36.4901C186.191 36.7904 186.239 37.1939 186.259 37.7006C186.292 38.2084 186.3 38.7844 186.282 39.4287C186.277 40.0741 186.251 40.7389 186.201 41.4231L186.012 44.0623C186.313 43.7752 186.682 43.521 187.119 43.2998C187.57 43.0796 188.054 42.9881 188.571 43.0252C189.325 43.0795 189.946 43.3137 190.436 43.7279C190.941 44.1291 191.348 44.6146 191.658 45.1843C191.969 45.74 192.193 46.3316 192.33 46.9591C192.482 47.5736 192.584 48.1143 192.634 48.5811C192.684 48.8654 192.724 49.1841 192.755 49.5372C192.8 49.8914 192.83 50.2515 192.846 50.6175C192.862 50.9836 192.864 51.3487 192.851 51.7127C192.853 52.0778 192.843 52.414 192.821 52.7212C192.818 52.7631 192.802 52.8812 192.774 53.0757C192.761 53.2573 192.733 53.4518 192.69 53.6592C192.647 53.8667 192.592 54.0522 192.524 54.2157C192.456 54.3793 192.373 54.4575 192.275 54.4505C192.248 54.4485 192.227 54.44 192.214 54.425C192.265 54.1059 192.309 53.7932 192.345 53.487C192.381 53.1808 192.41 52.8671 192.434 52.5459C192.487 51.8058 192.491 51.0692 192.445 50.336C192.41 49.6598 192.333 48.9735 192.214 48.2772C192.31 48.9016 192.371 49.5166 192.397 50.1221C192.435 50.7704 192.431 51.4158 192.384 52.0581C192.329 52.8261 192.234 53.5702 192.097 54.2903C191.954 54.3361 191.84 54.4612 191.755 54.6657C191.684 54.8711 191.612 55.0905 191.539 55.3239C191.466 55.5573 191.374 55.7612 191.263 55.9357C191.165 56.1252 191.019 56.2129 190.823 56.1988C190.753 56.1938 190.694 56.1404 190.645 56.0386C190.609 55.9518 190.576 55.8371 190.544 55.6944C190.511 55.5658 190.486 55.4236 190.469 55.268C190.467 55.0994 190.471 54.9453 190.481 54.8057C190.488 54.7079 190.508 54.6252 190.541 54.5573C190.574 54.4895 190.608 54.4078 190.643 54.312C190.723 53.9809 190.782 53.6483 190.82 53.3141C190.873 52.9671 190.913 52.612 190.939 52.2489C190.969 51.83 190.982 51.3607 190.977 50.841C190.972 50.3213 190.94 49.7927 190.881 49.255C190.821 48.7174 190.732 48.1986 190.614 47.6988C190.496 47.1851 190.332 46.7312 190.122 46.3371C189.927 45.93 189.683 45.6037 189.392 45.3582C189.102 45.0987 188.762 44.9549 188.371 44.9268C188.063 44.9047 187.775 45.0173 187.504 45.2645C187.249 45.4988 187.009 45.8114 186.784 46.2022C186.574 46.5802 186.382 47.0085 186.207 47.4872C186.048 47.9529 185.903 48.3987 185.774 48.8246L185.767 48.9293C185.882 48.5024 186.018 48.0701 186.176 47.6323C186.348 47.1955 186.545 46.7956 186.768 46.4326C187.005 46.0567 187.274 45.7392 187.573 45.48C187.872 45.2208 188.214 45.0629 188.597 45.0062C188.932 45.0303 189.223 45.1706 189.472 45.4271C189.72 45.6835 189.928 46.0143 190.095 46.4193C190.277 46.8114 190.421 47.2569 190.525 47.7557C190.645 48.2415 190.729 48.7248 190.779 49.2056C190.842 49.6874 190.88 50.1462 190.89 50.5821C190.902 51.0041 190.898 51.3547 190.878 51.634C190.846 52.0808 190.793 52.5261 190.719 52.97C190.646 53.3998 190.559 53.8217 190.459 54.2356C190.433 53.6301 190.429 52.9983 190.448 52.3399C190.467 51.6816 190.465 51.0288 190.442 50.3814C190.418 49.7341 190.359 49.0982 190.263 48.4737C190.169 47.8353 189.994 47.2332 189.74 46.6675L189.933 46.6183C189.825 46.3718 189.719 46.1887 189.615 46.069C189.525 45.9503 189.434 45.8594 189.34 45.7966C189.26 45.7347 189.166 45.6788 189.057 45.6288C188.949 45.565 188.83 45.4651 188.7 45.3294L188.385 45.3068C187.911 45.2727 187.453 45.6889 187.011 46.5555C186.57 47.422 186.131 48.6537 185.693 50.2504L185.535 51.5655C185.66 50.999 185.811 50.3572 185.989 49.6401C186.182 48.91 186.393 48.2304 186.62 47.6011C186.863 46.9589 187.126 46.4303 187.408 46.0155C187.706 45.5878 188.029 45.3864 188.378 45.4116C188.532 45.4226 188.71 45.4845 188.912 45.5974C189.114 45.7102 189.317 45.9212 189.519 46.2305C189.34 45.9931 189.156 45.8114 188.969 45.6857C188.781 45.5599 188.611 45.4915 188.457 45.4804L188.309 45.4908C188.03 45.4707 187.773 45.6277 187.538 45.9617C187.304 46.2958 187.076 46.7355 186.854 47.281C186.647 47.8136 186.455 48.4314 186.278 49.1345C186.102 49.8237 185.933 50.5203 185.77 51.2244C185.608 51.9146 185.455 52.5843 185.31 53.2336C185.18 53.8699 185.05 54.408 184.92 54.8478ZM184.477 55.1528C184.563 55.1309 184.615 55.0925 184.633 55.0377C184.665 54.9838 184.695 54.9579 184.722 54.9599L184.949 53.8603L184.538 54.8835L184.467 55.0047C184.23 54.9736 184.002 54.9291 183.781 54.8711C183.588 54.8292 183.38 54.7862 183.159 54.7422C182.953 54.6852 182.767 54.6367 182.601 54.5968C182.568 54.4681 182.554 54.3758 182.558 54.3199C182.559 54.306 182.56 54.292 182.561 54.278C182.576 54.2651 182.584 54.2516 182.585 54.2377L182.44 54.2062C182.451 54.4316 182.463 54.5658 182.474 54.6087C182.5 54.6386 182.533 54.669 182.573 54.7L184.477 55.1528ZM190.356 44.2485C190.091 44.0329 189.802 43.8577 189.489 43.7229C189.177 43.5741 188.846 43.4872 188.497 43.4621C187.939 43.4219 187.446 43.5409 187.019 43.8189C186.593 44.083 186.241 44.3876 185.963 44.7326L185.959 44.7954C186.098 44.6229 186.25 44.4584 186.415 44.3019C186.596 44.1324 186.789 43.9919 186.993 43.8803C187.199 43.7547 187.43 43.659 187.688 43.5933C187.945 43.5276 188.234 43.5063 188.555 43.5294C189.184 43.5746 189.729 43.7963 190.192 44.1946C190.668 44.5938 191.069 45.0718 191.394 45.6285C191.258 45.3801 191.107 45.1376 190.941 44.9011C190.79 44.6657 190.595 44.4481 190.356 44.2485ZM192.183 48.1275L192.214 48.2772L192.183 48.1275ZM202.937 56.7965C202.394 56.9398 201.982 57.0085 201.702 57.0023C201.42 57.0102 201.174 57.0136 200.964 57.0124C200.182 56.9562 199.487 56.7589 198.88 56.4204C198.273 56.082 197.764 55.6453 197.353 55.1105C196.942 54.5756 196.635 53.964 196.432 53.2757C196.244 52.5744 196.178 51.8397 196.233 51.0717C196.265 50.6249 196.34 50.1671 196.458 49.6983C196.577 49.2156 196.737 48.7499 196.938 48.3011C197.139 47.8384 197.387 47.4141 197.682 47.0282C197.962 46.6414 198.289 46.2999 198.661 46.0038C198.277 46.271 197.944 46.598 197.664 46.9848C197.369 47.3707 197.114 47.7945 196.899 48.2562C196.684 48.704 196.517 49.1762 196.397 49.6729C196.278 50.1556 196.202 50.6273 196.169 51.0881C196.126 51.6746 196.172 52.3095 196.305 52.9929C196.454 53.6632 196.717 54.2997 197.094 54.9024C197.473 55.4911 197.977 55.9975 198.606 56.4218C199.249 56.847 200.046 57.0938 200.995 57.1621C201.442 57.1942 201.914 57.165 202.412 57.0745C201.856 57.3854 201.25 57.5173 200.594 57.4701C200.063 57.4319 199.567 57.312 199.104 57.1103C198.654 56.9235 198.238 56.669 197.854 56.3466C197.483 56.0392 197.151 55.6784 196.858 55.2643C196.565 54.8502 196.323 54.4117 196.131 53.9488L196.332 53.7948C196.129 53.303 195.988 52.8156 195.911 52.3328C195.847 51.851 195.833 51.3658 195.868 50.877C195.919 50.1649 196.066 49.4877 196.309 48.8454C196.566 48.2042 196.883 47.6024 197.26 47.04L197.812 46.3849C197.907 46.2374 198.037 46.0923 198.201 45.9497C198.38 45.8082 198.572 45.6746 198.778 45.5491C198.984 45.4095 199.196 45.2914 199.414 45.1948C199.646 45.0852 199.864 44.9885 200.066 44.9048C200.587 44.6897 201.106 44.5024 201.623 44.3431C202.14 44.1698 202.738 44.0583 203.415 44.0088L203.336 43.9399C202.042 43.9732 200.93 44.209 200.001 44.6475C199.072 45.0719 198.302 45.6201 197.693 46.2921C197.083 46.9641 196.622 47.717 196.309 48.5507C195.997 49.3704 195.812 50.1853 195.754 50.9952C195.723 51.428 195.726 51.8704 195.764 52.3223C195.817 52.7612 195.904 53.2026 196.027 53.6465C195.738 52.7836 195.627 51.8843 195.694 50.9488C195.761 50.0271 195.98 49.1235 196.353 48.238C196.725 47.3524 197.267 46.5492 197.979 45.8284C198.872 45.1207 199.829 44.6 200.849 44.2664C201.871 43.9188 202.842 43.7781 203.764 43.8444C204.057 43.8655 204.354 43.936 204.654 44.0558C204.954 44.1757 205.222 44.3493 205.459 44.5769C205.696 44.7905 205.88 45.0634 206.01 45.3956C206.155 45.7288 206.21 46.1258 206.177 46.5866C206.15 46.9636 206.026 47.4179 205.806 47.9495C205.585 48.481 205.274 48.992 204.874 49.4826C204.489 49.9602 204.018 50.3614 203.461 50.6863C202.905 50.9972 202.278 51.1276 201.58 51.0774L200.889 51.0277C200.38 50.8788 199.915 50.719 199.492 50.5482C199.084 50.3644 198.695 50.2171 198.324 50.1062C198.252 50.3256 198.201 50.5396 198.172 50.748C198.158 50.9435 198.144 51.139 198.13 51.3345C198.101 51.7394 198.114 52.1404 198.17 52.5374C198.24 52.9215 198.362 53.2811 198.534 53.6164C198.707 53.9516 198.931 54.2415 199.209 54.486C199.501 54.7176 199.861 54.8768 200.29 54.9638C200.551 55.0388 200.779 55.0903 200.974 55.1183C201.169 55.1323 201.329 55.1509 201.454 55.1739C201.594 55.1839 201.69 55.2119 201.743 55.2578C201.811 55.2908 201.841 55.3561 201.834 55.4539C201.691 55.4857 201.543 55.5031 201.388 55.506C201.247 55.5099 201.1 55.5064 200.947 55.4953C200.458 55.4601 200.024 55.3517 199.644 55.17C199.265 54.9743 198.943 54.7617 198.679 54.5321C198.977 54.8764 199.344 55.1344 199.781 55.3062C200.219 55.464 200.654 55.5585 201.087 55.5896C201.325 55.6067 201.571 55.6033 201.825 55.5795C201.791 55.6613 201.773 55.7092 201.772 55.7231C201.766 55.8069 201.797 55.8653 201.865 55.8982C201.922 55.8883 202.022 55.8604 202.166 55.8146C202.311 55.7548 202.455 55.702 202.598 55.6562C202.757 55.5975 202.908 55.5521 203.05 55.5203C203.194 55.4745 203.294 55.4536 203.35 55.4576C203.419 55.4626 203.481 55.4811 203.535 55.5131C203.59 55.531 203.612 55.6098 203.602 55.7495C203.592 55.8891 203.531 56.0532 203.42 56.2416C203.308 56.4301 203.147 56.6151 202.937 56.7965ZM200.644 48.294L201.098 48.4109C201.25 48.4499 201.389 48.4739 201.514 48.483C201.654 48.493 201.818 48.4627 202.005 48.3919C202.208 48.3082 202.406 48.1891 202.599 48.0346C202.807 47.8811 202.989 47.6837 203.147 47.4424C203.319 47.2021 203.451 46.9239 203.544 46.6077L203.595 46.4851C203.399 46.471 203.103 46.4988 202.705 46.5684C202.307 46.6381 201.892 46.7416 201.461 46.879C201.031 47.0025 200.627 47.1629 200.248 47.3602C199.869 47.5435 199.602 47.7558 199.444 47.9972C199.65 48.0541 199.85 48.1106 200.042 48.1665C200.25 48.2095 200.45 48.252 200.644 48.294ZM199.569 49.7747C199.599 49.7488 199.615 49.7079 199.62 49.652C199.637 49.5972 199.647 49.5558 199.649 49.5279L198.691 49.101L198.565 49.3867L199.569 49.7747ZM198.64 54.4872C198.55 54.3685 198.461 54.2497 198.371 54.131C198.294 54.0272 198.231 53.9244 198.183 53.8227C198.291 54.0691 198.444 54.2906 198.64 54.4872ZM211.583 57.271C211.441 57.2889 211.287 57.2918 211.119 57.2797L210.512 57.236C210.148 57.2099 209.887 57.2332 209.728 57.306C209.582 57.3797 209.495 57.4156 209.467 57.4136L209.41 57.0305L209.438 56.6535L209.474 54.677C209.474 54.298 209.426 53.8875 209.331 53.4456C209.237 53.0037 209.171 52.5568 209.133 52.1049C209.112 51.8087 209.098 51.5269 209.089 51.2595L209.064 50.4366C209.056 50.1553 209.041 49.8666 209.021 49.5703C209.014 49.2751 208.988 48.9574 208.942 48.6172C208.948 48.5334 208.954 48.4496 208.96 48.3659C208.98 48.2831 208.993 48.1998 208.999 48.116C209.03 47.6831 209.026 47.2547 208.986 46.8308C208.946 46.4068 208.878 45.9879 208.782 45.5739C208.883 45.539 208.976 45.5106 209.062 45.4887C209.148 45.4529 209.227 45.4374 209.297 45.4425C209.366 45.4475 209.437 45.5368 209.509 45.7104C209.582 45.87 209.649 46.2047 209.71 46.7144C209.738 46.7164 209.781 46.7125 209.838 46.7025C209.895 46.6786 209.938 46.6677 209.966 46.6697C209.969 46.4313 209.953 46.1774 209.916 45.9081C209.88 45.6248 209.843 45.3555 209.805 45.1001C209.768 44.8447 209.728 44.6173 209.686 44.4178C209.659 44.2053 209.65 44.0362 209.659 43.9106C209.661 43.8826 209.664 43.8477 209.667 43.8058C209.684 43.7649 209.72 43.7465 209.776 43.7505C209.846 43.7555 209.931 43.8389 210.032 44.0005C210.133 44.1621 210.237 44.3662 210.346 44.6126C210.454 44.859 210.555 45.1259 210.646 45.4132C210.753 45.6876 210.846 45.947 210.927 46.1914C211.355 45.5063 211.82 44.9994 212.321 44.6705C212.837 44.3286 213.486 44.1858 214.267 44.242C214.84 44.2832 215.303 44.3867 215.656 44.5524C216.01 44.7042 216.279 44.8709 216.462 45.0526C216.66 45.2212 216.79 45.3779 216.849 45.5226L216.96 45.7411C216.954 45.8248 216.908 45.8777 216.822 45.8996C216.484 45.5244 216.091 45.2294 215.644 45.0147C215.196 44.8001 214.728 44.6751 214.239 44.64C213.764 44.6058 213.403 44.6431 213.157 44.7517C212.926 44.8473 212.678 44.9699 212.415 45.1194C212.692 44.9709 212.946 44.8558 213.177 44.7741C213.421 44.6934 213.767 44.6692 214.213 44.7013C214.702 44.7365 215.163 44.8679 215.596 45.0955C216.029 45.3092 216.396 45.5742 216.696 45.8905C216.625 45.9134 216.559 45.9438 216.5 45.9817C216.457 46.0066 216.432 46.054 216.427 46.1238C216.497 46.1288 216.57 46.1832 216.647 46.287C216.725 46.3768 216.794 46.4871 216.855 46.6178C216.915 46.7485 216.962 46.8851 216.994 47.0278C217.04 47.1575 217.061 47.2642 217.055 47.348C217.038 47.5854 216.938 47.6976 216.757 47.6845C216.617 47.6745 216.453 47.6135 216.265 47.5017C216.224 47.4847 216.139 47.4014 216.009 47.2517C215.893 47.103 215.743 46.9519 215.557 46.7982C215.373 46.6305 215.16 46.4748 214.917 46.331C214.675 46.1873 214.4 46.1043 214.093 46.0822C213.842 46.0642 213.614 46.1039 213.411 46.2016C213.222 46.2863 213.045 46.4139 212.878 46.5844C212.712 46.7409 212.559 46.9263 212.417 47.1407L212.108 47.6238C212.345 47.2619 212.6 46.9363 212.873 46.6472C213.179 46.3042 213.541 46.1478 213.96 46.1779C214.323 46.204 214.652 46.3119 214.947 46.5016C215.243 46.6773 215.481 46.8909 215.659 47.1423C215.429 47.0275 215.156 46.9097 214.842 46.7888C214.528 46.668 214.224 46.597 213.931 46.5759C213.778 46.5649 213.642 46.5902 213.526 46.652C213.409 46.7138 213.305 46.7975 213.213 46.9032C213.136 46.9959 213.058 47.1026 212.979 47.2233C212.914 47.3449 212.843 47.4591 212.765 47.5658L212.49 47.5881C212.223 47.976 211.994 48.4367 211.801 48.9702C211.623 49.4908 211.513 50.0444 211.471 50.6308C211.446 50.9799 211.437 51.2951 211.445 51.5764C211.467 51.8587 211.502 52.149 211.551 52.4473L211.755 53.1147L211.757 52.5042C211.763 52.0274 211.766 51.6065 211.764 51.2414C211.763 50.8624 211.779 50.4495 211.811 50.0026C211.868 49.5997 211.951 49.2197 212.061 48.8626C212.153 48.5605 212.279 48.2817 212.437 48.0265C212.246 48.3495 212.106 48.7255 212.019 49.1544C211.915 49.6241 211.844 50.1243 211.806 50.6549C211.776 51.0739 211.768 51.4733 211.783 51.8534C211.798 52.2334 211.82 52.614 211.848 52.995C211.891 53.3771 211.933 53.7731 211.973 54.183C212.015 54.5791 212.04 55.016 212.048 55.4937L212.082 55.8962L212.122 57.0992L211.583 57.271ZM212.508 47.9263L212.437 48.0265L212.508 47.9263ZM225.467 58.4171C224.924 58.5605 224.512 58.6291 224.231 58.623C223.95 58.6308 223.704 58.6342 223.494 58.6331C222.712 58.5768 222.017 58.3795 221.41 58.041C220.803 57.7026 220.294 57.2659 219.883 56.7311C219.472 56.1962 219.165 55.5847 218.962 54.8963C218.774 54.195 218.708 53.4603 218.763 52.6923C218.795 52.2455 218.87 51.7877 218.988 51.3189C219.107 50.8362 219.267 50.3705 219.467 49.9217C219.669 49.459 219.917 49.0347 220.212 48.6488C220.492 48.262 220.818 47.9205 221.191 47.6244C220.807 47.8916 220.474 48.2186 220.194 48.6054C219.899 48.9913 219.644 49.4151 219.429 49.8768C219.214 50.3246 219.047 50.7968 218.927 51.2935C218.808 51.7762 218.732 52.2479 218.698 52.7087C218.656 53.2952 218.702 53.9301 218.835 54.6135C218.983 55.2838 219.246 55.9203 219.624 56.523C220.003 57.1117 220.507 57.6181 221.136 58.0424C221.779 58.4676 222.576 58.7144 223.525 58.7827C223.972 58.8148 224.444 58.7856 224.942 58.6951C224.386 59.0061 223.78 59.1379 223.124 59.0907C222.593 59.0525 222.097 58.9326 221.634 58.7309C221.184 58.5441 220.767 58.2896 220.384 57.9672C220.013 57.6598 219.681 57.299 219.388 56.885C219.095 56.4709 218.852 56.0324 218.661 55.5694L218.862 55.4154C218.658 54.9236 218.518 54.4363 218.441 53.9534C218.377 53.4716 218.363 52.9864 218.398 52.4976C218.449 51.7855 218.596 51.1083 218.839 50.466C219.095 49.8248 219.412 49.223 219.79 48.6606L220.342 48.0056C220.437 47.858 220.567 47.7129 220.731 47.5704C220.91 47.4288 221.102 47.2952 221.308 47.1697C221.514 47.0301 221.726 46.912 221.944 46.8154C222.176 46.7058 222.394 46.6091 222.596 46.5255C223.117 46.3103 223.636 46.123 224.152 45.9637C224.67 45.7904 225.268 45.6789 225.945 45.6294L225.866 45.5606C224.572 45.5938 223.46 45.8297 222.53 46.2681C221.602 46.6925 220.832 47.2407 220.223 47.9127C219.613 48.5847 219.152 49.3376 218.839 50.1713C218.527 50.991 218.342 51.8059 218.284 52.6158C218.253 53.0487 218.256 53.491 218.294 53.9429C218.347 54.3818 218.434 54.8232 218.557 55.2672C218.268 54.4042 218.157 53.5049 218.224 52.5694C218.291 51.6477 218.51 50.7442 218.882 49.8586C219.255 48.973 219.797 48.1699 220.509 47.4491C221.402 46.7413 222.358 46.2206 223.379 45.887C224.401 45.5394 225.372 45.3987 226.294 45.465C226.587 45.4861 226.884 45.5566 227.184 45.6764C227.484 45.7963 227.752 45.97 227.989 46.1975C228.226 46.4111 228.41 46.684 228.54 47.0162C228.685 47.3494 228.74 47.7464 228.707 48.2072C228.68 48.5843 228.556 49.0385 228.336 49.5701C228.115 50.1016 227.804 50.6127 227.404 51.1032C227.019 51.5808 226.548 51.982 225.991 52.3069C225.435 52.6179 224.808 52.7482 224.11 52.698L223.419 52.6483C222.91 52.4994 222.445 52.3396 222.022 52.1688C221.614 51.9851 221.224 51.8377 220.853 51.7268C220.782 51.9462 220.731 52.1602 220.702 52.3686C220.688 52.5641 220.674 52.7596 220.66 52.9551C220.631 53.3601 220.644 53.761 220.7 54.1581C220.77 54.5421 220.892 54.9018 221.064 55.237C221.237 55.5722 221.461 55.8621 221.739 56.1066C222.031 56.3382 222.391 56.4974 222.82 56.5844C223.081 56.6594 223.309 56.7109 223.504 56.7389C223.699 56.753 223.859 56.7715 223.984 56.7945C224.124 56.8045 224.22 56.8325 224.273 56.8784C224.341 56.9114 224.371 56.9767 224.364 57.0745C224.221 57.1063 224.073 57.1237 223.918 57.1266C223.777 57.1305 223.63 57.127 223.477 57.1159C222.988 57.0808 222.554 56.9723 222.174 56.7906C221.795 56.5949 221.473 56.3823 221.209 56.1527C221.507 56.497 221.874 56.755 222.311 56.9268C222.749 57.0846 223.184 57.1791 223.617 57.2102C223.855 57.2273 224.1 57.224 224.355 57.2001C224.321 57.2819 224.303 57.3298 224.302 57.3437C224.296 57.4275 224.327 57.4859 224.395 57.5188C224.452 57.5089 224.552 57.481 224.696 57.4352C224.841 57.3754 224.985 57.3226 225.128 57.2768C225.287 57.2181 225.438 57.1728 225.58 57.1409C225.724 57.0951 225.824 57.0742 225.88 57.0782C225.949 57.0832 226.011 57.1017 226.065 57.1337C226.12 57.1516 226.142 57.2305 226.132 57.3701C226.122 57.5097 226.061 57.6738 225.949 57.8623C225.838 58.0507 225.677 58.2357 225.467 58.4171ZM223.173 49.9146L223.628 50.0315C223.78 50.0705 223.919 50.0945 224.044 50.1036C224.184 50.1136 224.347 50.0833 224.535 50.0125C224.737 49.9289 224.936 49.8098 225.129 49.6553C225.337 49.5017 225.519 49.3043 225.677 49.063C225.849 48.8227 225.981 48.5445 226.074 48.2284L226.125 48.1057C225.929 48.0916 225.633 48.1194 225.235 48.189C224.837 48.2587 224.422 48.3622 223.991 48.4996C223.561 48.6231 223.157 48.7835 222.777 48.9808C222.399 49.1641 222.131 49.3765 221.974 49.6178C222.18 49.6747 222.38 49.7312 222.572 49.7871C222.78 49.8301 222.98 49.8726 223.173 49.9146ZM222.098 51.3953C222.128 51.3694 222.145 51.3285 222.149 51.2726C222.167 51.2178 222.177 51.1764 222.179 51.1485L221.221 50.7216L221.095 51.0073L222.098 51.3953ZM221.17 56.1078C221.08 55.9891 220.991 55.8703 220.901 55.7516C220.824 55.6478 220.761 55.5451 220.712 55.4433C220.821 55.6897 220.974 55.9112 221.17 56.1078Z" fill="#486023"/>
</svg>
