<svg width="207" height="107" viewBox="0 0 207 107" fill="none" xmlns="http://www.w3.org/2000/svg">
<rect width="136.932" height="68.3475" rx="8" transform="matrix(0.996454 0.0841441 -0.116437 0.993198 65.9581 16)" fill="#FF8C99"/>
<path d="M98.7843 43.2682C98.7649 43.6738 98.7394 44.0719 98.7077 44.4624C98.6777 44.839 98.639 45.2289 98.5917 45.6321C98.4939 46.4664 98.3674 47.3053 98.2121 48.1488C98.0725 48.9795 97.9172 49.823 97.7464 50.6792C97.5756 51.5354 97.4023 52.4125 97.2266 53.3104C97.0509 54.2083 96.8781 55.1416 96.7082 56.1102C96.6903 56.2632 96.6646 56.4225 96.631 56.5882C96.6131 56.7411 96.5788 56.9138 96.5281 57.1061L96.4987 57.3563C96.4938 57.3981 96.4734 57.4525 96.4373 57.5197C96.4013 57.5868 96.3677 57.6332 96.3365 57.6586C96.1307 57.8519 95.9445 57.9976 95.778 58.0959C95.6271 58.1815 95.4856 58.2467 95.3536 58.2918C95.2231 58.3229 95.1021 58.3337 94.9905 58.3243C94.8773 58.3288 94.764 58.3333 94.6508 58.3377L94.7763 58.3483C94.8182 58.3519 94.8957 58.3514 95.009 58.3469C95.1362 58.3436 95.2711 58.334 95.4139 58.3179C95.5722 58.2892 95.7174 58.2523 95.8495 58.2073C95.9972 58.1495 96.1054 58.0674 96.1743 57.9609L96.4066 57.6013C96.5082 57.4554 96.5758 57.2997 96.6093 57.134C96.6584 56.9556 96.6927 56.783 96.7123 56.6161C96.7474 56.4365 96.7748 56.2633 96.7944 56.0964C96.8139 55.9296 96.8466 55.7708 96.8924 55.6203C97.037 54.7478 97.1955 53.8765 97.3679 53.0064C97.5543 52.1375 97.7346 51.261 97.9087 50.377C98.0827 49.4929 98.2507 48.6014 98.4124 47.7023C98.5758 46.7893 98.7129 45.86 98.8238 44.9145C98.858 44.6225 98.8836 44.3438 98.9007 44.0784C98.9333 43.8004 98.9573 43.5356 98.9726 43.2841C99.008 43.3433 99.0392 43.4372 99.0664 43.5659C99.1092 43.6818 99.1298 43.8661 99.1284 44.1187C99.1802 44.2776 99.2025 44.448 99.1953 44.6299C99.188 44.8119 99.1869 45.0013 99.192 45.1984C99.0812 46.1439 98.9387 47.0587 98.7646 47.9427C98.5922 48.8128 98.4197 49.6829 98.2473 50.553L98.0516 50.5997L97.4452 54.1503C97.3278 55.1515 97.182 55.9747 97.0077 56.62C96.849 57.2525 96.7226 57.6701 96.6284 57.8728L96.621 57.9354C96.3873 58.1263 96.1872 58.2709 96.0207 58.3692C95.8698 58.4547 95.7283 58.52 95.5962 58.565C95.4642 58.61 95.3423 58.6278 95.2307 58.6184C95.1314 58.6241 95.026 58.6222 94.9144 58.6128L93.5752 58.4997C93.2034 58.4262 92.8013 58.3711 92.3688 58.3346C91.9347 58.312 91.4862 58.232 91.0233 58.0946C90.5604 57.9572 90.0958 57.7144 89.6295 57.3661C89.1771 57.0189 88.7389 56.4904 88.3149 55.7806C88.3116 55.8084 88.3022 55.8287 88.2866 55.8414C88.2711 55.8541 88.2547 55.8738 88.2375 55.9004C88.6245 56.565 89.1152 57.126 89.7096 57.5835C90.318 58.0421 90.9948 58.3379 91.74 58.4711L93.4977 58.6195C93.6619 58.6615 93.8276 58.6895 93.995 58.7036C94.1748 58.7329 94.3693 58.7563 94.5785 58.774C94.7878 58.7916 95.0631 58.7868 95.4044 58.7595C95.7597 58.7333 96.1087 58.5802 96.4515 58.3002C96.5154 58.2354 96.556 58.1897 96.5732 58.1631C96.606 58.1237 96.6404 58.0704 96.6765 58.0033L96.7539 57.8834C96.8383 57.7642 96.9018 57.6432 96.9444 57.5204C97.0026 57.3849 97.0529 57.2557 97.0955 57.1329C97.0776 57.2859 97.0481 57.4168 97.0072 57.5257C96.9802 57.6357 96.9118 57.7985 96.802 58.0139L96.7319 58.0711L96.4368 58.4254C96.2966 58.5399 96.1457 58.6255 95.9841 58.682C95.8224 58.7386 95.6703 58.7749 95.5275 58.7909C95.3831 58.8209 95.2473 58.8375 95.1201 58.8408C95.0069 58.8453 94.9216 58.8521 94.8641 58.8613L94.1736 58.803C93.9922 58.7877 93.8396 58.7677 93.7157 58.7432C93.6041 58.7338 93.5142 58.7192 93.4461 58.6994C93.3903 58.6947 93.3423 58.6836 93.3021 58.6662L92.6743 58.6132C92.5487 58.6026 92.4232 58.592 92.2976 58.5814C92.1704 58.5847 92.0371 58.5804 91.8976 58.5687C91.2419 58.5133 90.619 58.2992 90.0287 57.9264C89.4507 57.5686 88.9301 57.0823 88.4668 56.4675C88.0175 55.8538 87.6362 55.1405 87.3229 54.3277C87.0097 53.5149 86.8038 52.6269 86.7054 51.6637C86.7234 51.5107 86.7265 51.3635 86.7149 51.2221C86.7173 51.0819 86.7274 50.9353 86.7453 50.7824C86.8057 50.2679 86.9435 49.7529 87.1589 49.2375C87.3899 48.7094 87.7399 48.2474 88.2089 47.8517C88.678 47.456 89.2837 47.1561 90.0262 46.952C90.7702 46.734 91.6863 46.6709 92.7745 46.7628C93.2767 46.8052 93.7633 46.8603 94.2344 46.9282C94.707 46.9822 95.1859 47.0437 95.6709 47.1127C95.6102 47.1497 95.5766 47.196 95.5701 47.2516C95.5619 47.3212 95.5685 47.3849 95.5899 47.4429C95.6129 47.487 95.6212 47.5368 95.6147 47.5924C95.6065 47.6619 95.5434 47.7198 95.4252 47.766C95.3227 47.7995 95.104 47.8021 94.7692 47.7738C94.6576 47.7644 94.5251 47.7532 94.3716 47.7402C94.2338 47.7145 94.075 47.6871 93.8952 47.6579L93.8732 47.8456C94.5314 47.9995 95.053 48.1769 95.438 48.3779C95.8386 48.5662 96.0804 48.7271 96.1634 48.8604L96.2003 48.9057L96.3916 47.995C96.4775 47.6232 96.5481 47.2008 96.6036 46.7281C96.6606 46.2414 96.7029 45.7605 96.7304 45.2854C96.7579 44.8103 96.7872 44.4406 96.8182 44.1764C96.8573 43.8427 96.9043 43.622 96.9592 43.5143C97.0141 43.4066 97.0764 43.3557 97.1462 43.3616C97.202 43.3663 97.2299 43.488 97.2301 43.7267C97.2443 43.9667 97.2404 44.2402 97.2185 44.5472C97.2121 44.8416 97.1919 45.1348 97.1576 45.4268L97.0867 46.0316C97.0394 46.4349 96.9844 46.8445 96.9215 47.2604C96.8603 47.6625 96.7921 48.064 96.7169 48.4649C96.8207 47.94 96.9159 47.4285 97.0025 46.9303C97.0907 46.4181 97.1658 45.8979 97.2277 45.3695C97.2652 45.0497 97.2949 44.7363 97.3169 44.4292C97.3404 44.1082 97.357 43.7866 97.3666 43.4644C97.4405 43.5549 97.4984 43.602 97.5402 43.6055C97.596 43.6102 97.6428 43.572 97.6804 43.4909C97.6795 43.3785 97.6794 43.2592 97.6802 43.1328C97.6792 43.0204 97.6853 42.9086 97.6984 42.7974L97.735 42.4845C97.8243 42.3235 97.9297 42.206 98.0511 42.132C98.1741 42.0441 98.2774 42.0037 98.3611 42.0108C98.5983 42.0308 98.7774 42.3057 98.8984 42.8355L98.7843 43.2682ZM94.6608 49.2391C94.1972 49.228 93.6708 49.2117 93.0816 49.19C92.5064 49.1695 91.9534 49.2 91.4225 49.2816C90.8933 49.3492 90.4266 49.4854 90.0222 49.6899C89.6318 49.8957 89.3912 50.2054 89.3004 50.619C89.2466 51.0778 89.284 51.6006 89.4124 52.1871C89.5409 52.7737 89.7354 53.3378 89.996 53.8794C90.2581 54.4071 90.5703 54.8687 90.9325 55.2644C91.3086 55.6613 91.7174 55.8994 92.159 55.9788L93.3517 56.0795C93.4215 56.0854 93.4695 56.0965 93.4957 56.1128C93.5376 56.1163 93.5918 56.1349 93.6583 56.1686L94.1605 56.211C94.3648 56.2704 94.5716 56.3089 94.7809 56.3266C94.9178 55.1586 95.1068 53.9669 95.3479 52.7516C95.6046 51.5235 95.865 50.3238 96.1291 49.1524C95.9315 49.2762 95.442 49.3051 94.6608 49.2391ZM95.6613 53.6838C95.6434 53.8367 95.6107 53.9954 95.5632 54.1599C95.5313 54.3117 95.504 54.4849 95.4812 54.6796C95.7259 53.9139 95.9128 53.1012 96.0417 52.2414C96.1707 51.3817 96.3026 50.5573 96.4373 49.7683C96.2893 50.4298 96.1561 51.0856 96.0376 51.7355C95.9348 52.3728 95.8093 53.0222 95.6613 53.6838ZM97.2178 56.0901C97.2357 55.9371 97.2606 55.7847 97.2925 55.633C97.326 55.4673 97.3673 55.2952 97.4164 55.1168C97.3535 55.5328 97.3001 55.9285 97.2561 56.3039C97.2137 56.6655 97.1626 56.9209 97.1028 57.0703C97.111 57.0008 97.1183 56.9382 97.1248 56.8826C97.1469 56.8143 97.1621 56.7453 97.1702 56.6758C97.1833 56.5646 97.1885 56.4597 97.186 56.3612C97.1974 56.2639 97.208 56.1735 97.2178 56.0901ZM97.9278 52.7377C97.8917 52.8049 97.861 52.8865 97.8356 52.9827C97.8119 53.0649 97.7804 53.1536 97.7411 53.2485L97.9739 51.9833L97.9278 52.7377ZM97.5487 54.3487C97.534 54.4738 97.5124 54.5984 97.4838 54.7223C97.4691 54.8475 97.4483 54.9651 97.4213 55.0751C97.4539 54.797 97.4935 54.5195 97.54 54.2426C97.5882 53.9518 97.6401 53.6894 97.6957 53.4553L97.5487 54.3487ZM95.3255 55.4669C95.3459 55.4124 95.3594 55.3574 95.366 55.3018C95.3725 55.2462 95.3938 55.1848 95.4298 55.1176L95.4567 54.8882C95.4395 54.9148 95.4293 54.942 95.426 54.9698C95.4244 54.9837 95.4158 54.997 95.4002 55.0098L95.3744 55.0497L95.3255 55.4669ZM95.1453 56.4627C95.174 56.3387 95.2026 56.2148 95.2312 56.0908C95.2614 55.9529 95.2847 55.8145 95.301 55.6754L95.3084 55.6129L95.1293 56.4192L95.1453 56.4627ZM107.925 59.7956C107.373 59.9316 106.957 59.9948 106.677 59.9852C106.394 59.9894 106.148 59.9896 105.937 59.9859C105.156 59.9199 104.468 59.7144 103.875 59.3694C103.281 59.0244 102.791 58.5828 102.403 58.0445C102.015 57.5062 101.735 56.8928 101.562 56.2041C101.405 55.5028 101.371 54.7697 101.461 54.005C101.513 53.56 101.608 53.1047 101.748 52.639C101.888 52.1594 102.069 51.6972 102.29 51.2525C102.513 50.7939 102.781 50.3741 103.093 49.9933C103.392 49.6112 103.734 49.275 104.12 48.9847C103.723 49.2461 103.376 49.5678 103.077 49.9498C102.765 50.3307 102.49 50.7498 102.253 51.2073C102.018 51.6508 101.83 52.1193 101.687 52.6128C101.546 53.0924 101.449 53.5617 101.395 54.0205C101.327 54.6045 101.344 55.2379 101.447 55.9206C101.566 56.5906 101.801 57.2284 102.153 57.8338C102.506 58.4253 102.989 58.9365 103.6 59.3673C104.226 59.7993 105.013 60.0553 105.962 60.1354C106.408 60.1731 106.883 60.15 107.386 60.0661C106.815 60.3689 106.202 60.4927 105.546 60.4373C105.016 60.3926 104.523 60.2667 104.069 60.0598C103.626 59.868 103.22 59.609 102.849 59.2828C102.491 58.9717 102.175 58.608 101.9 58.1916C101.624 57.7751 101.401 57.335 101.23 56.8712L101.438 56.7203C101.256 56.2275 101.137 55.74 101.081 55.2578C101.039 54.7768 101.046 54.293 101.103 53.8063C101.187 53.0971 101.364 52.4241 101.636 51.787C101.922 51.1512 102.267 50.5554 102.67 49.9997L103.253 49.3538C103.354 49.2079 103.491 49.065 103.662 48.925C103.848 48.7861 104.046 48.6555 104.258 48.5329C104.471 48.3964 104.689 48.2814 104.911 48.1879C105.149 48.0816 105.371 47.988 105.578 47.9072C106.109 47.6993 106.638 47.5192 107.163 47.367C107.689 47.2008 108.293 47.0973 108.974 47.0565L108.898 46.9869C107.6 47.0036 106.475 47.2246 105.523 47.6498C104.574 48.0611 103.778 48.5977 103.137 49.2597C102.496 49.9218 102 50.6663 101.649 51.4933C101.3 52.3063 101.079 53.1161 100.984 53.9226C100.934 54.3536 100.917 54.7946 100.935 55.2454C100.968 55.6836 101.036 56.1246 101.139 56.5686C100.888 55.7049 100.817 54.8072 100.926 53.8756C101.034 52.9579 101.294 52.0601 101.707 51.1822C102.12 50.3043 102.699 49.5106 103.444 48.8012C104.371 48.1072 105.353 47.6003 106.391 47.2807C107.43 46.9472 108.41 46.8193 109.331 46.8971C109.624 46.9218 109.918 46.9958 110.214 47.1191C110.509 47.2423 110.77 47.4188 110.997 47.6486C111.225 47.8645 111.397 48.1388 111.513 48.4716C111.643 48.8055 111.681 49.2019 111.627 49.6608C111.583 50.0362 111.439 50.4874 111.194 51.0144C110.949 51.5413 110.615 52.0467 110.192 52.5306C109.785 53.0017 109.295 53.3957 108.722 53.7124C108.151 54.0153 107.517 54.1373 106.82 54.0783L106.129 54.02C105.626 53.8652 105.166 53.7 104.75 53.5245C104.35 53.3362 103.966 53.1844 103.599 53.0692C103.517 53.2869 103.457 53.4995 103.419 53.7069C103.396 53.9016 103.373 54.0962 103.35 54.2909C103.303 54.6941 103.298 55.094 103.336 55.4904C103.39 55.874 103.496 56.234 103.653 56.5703C103.811 56.9066 104.024 57.1984 104.291 57.4456C104.573 57.6801 104.927 57.8434 105.353 57.9355C105.612 58.0135 105.838 58.0677 106.031 58.0981C106.227 58.1146 106.386 58.1351 106.51 58.1596C106.65 58.1714 106.745 58.2005 106.796 58.2469C106.862 58.2806 106.89 58.3462 106.879 58.4435C106.734 58.4734 106.584 58.4889 106.429 58.4898C106.288 58.4919 106.141 58.4865 105.987 58.4736C105.499 58.4323 105.069 58.3187 104.696 58.1328C104.325 57.933 104.012 57.717 103.758 57.4849C104.041 57.8318 104.398 58.0936 104.828 58.2703C105.26 58.4332 105.692 58.5328 106.124 58.5694C106.361 58.5894 106.608 58.5891 106.864 58.5686C106.826 58.6497 106.806 58.6972 106.805 58.7111C106.795 58.7945 106.823 58.8531 106.89 58.8868C106.947 58.8776 107.049 58.8511 107.195 58.8072C107.343 58.7495 107.49 58.6987 107.636 58.6549C107.797 58.5983 107.95 58.5551 108.095 58.5251C108.241 58.4813 108.342 58.4617 108.397 58.4664C108.467 58.4723 108.528 58.4915 108.581 58.524C108.635 58.5427 108.654 58.6215 108.638 58.7605C108.621 58.8996 108.553 59.0623 108.432 59.2487C108.312 59.4352 108.143 59.6175 107.925 59.7956ZM106.005 51.2924L106.456 51.4147C106.606 51.4554 106.744 51.4811 106.869 51.4917C107.009 51.5035 107.174 51.4753 107.365 51.4072C107.572 51.3264 107.776 51.2102 107.977 51.0586C108.192 50.9083 108.383 50.7138 108.552 50.4753C108.735 50.238 108.88 49.9624 108.987 49.6485L109.044 49.5269C108.849 49.5104 108.55 49.5343 108.148 49.5986C107.746 49.663 107.326 49.7609 106.888 49.8924C106.451 50.01 106.039 50.1648 105.65 50.3566C105.263 50.5346 104.985 50.7428 104.816 50.9813C105.02 51.0407 105.218 51.0995 105.408 51.1577C105.614 51.2032 105.813 51.2481 106.005 51.2924ZM104.862 52.7545C104.893 52.729 104.912 52.6885 104.918 52.6329C104.939 52.5785 104.95 52.5373 104.954 52.5095L104.012 52.0719L103.873 52.3551L104.862 52.7545ZM103.721 57.4396C103.636 57.3201 103.551 57.2006 103.467 57.0811C103.395 56.9767 103.336 56.8735 103.292 56.7715C103.39 57.0185 103.533 57.2412 103.721 57.4396ZM115.105 56.6316C115.32 56.72 115.571 56.8675 115.856 57.0742C116.156 57.2821 116.49 57.4998 116.858 57.7275C117.225 57.9551 117.631 58.1648 118.073 58.3567C118.529 58.5497 119.023 58.6686 119.553 58.7133L119.783 58.7328C119.867 58.7398 119.966 58.7342 120.081 58.7158L120.291 58.9021C120.855 58.7812 121.338 58.506 121.741 58.0766C122.145 57.6333 122.393 57.0154 122.486 56.2228C122.553 55.6527 122.459 55.2516 122.205 55.0194C121.966 54.7746 121.484 54.6215 120.758 54.5603C120.312 54.5226 119.84 54.5179 119.344 54.5462C118.863 54.5617 118.358 54.5471 117.827 54.5024C117.59 54.4823 117.347 54.4548 117.098 54.4197C116.85 54.3706 116.597 54.3002 116.34 54.2083L116.326 54.3334C116.867 54.5196 117.41 54.6356 117.954 54.6816C118.485 54.7264 118.99 54.741 119.471 54.7254C119.967 54.6971 120.439 54.7018 120.885 54.7395C121.262 54.7713 121.55 54.8377 121.749 54.9388C121.964 55.0272 122.12 55.1387 122.217 55.2733C122.314 55.4078 122.366 55.5667 122.373 55.7498C122.395 55.9202 122.394 56.1097 122.369 56.3182C122.293 56.9718 122.053 57.5132 121.651 57.9426C121.265 58.3454 120.836 58.583 120.363 58.6553C120.9 58.5182 121.341 58.2395 121.686 57.8193C122.049 57.3724 122.264 56.857 122.332 56.273C122.381 55.8558 122.307 55.5266 122.11 55.2853C121.927 55.0451 121.57 54.9027 121.04 54.8579C120.608 54.8214 120.116 54.808 119.566 54.8176C119.015 54.8273 118.433 54.8062 117.819 54.7544C117.442 54.7226 117.009 54.6368 116.518 54.4971C116.041 54.3585 115.595 54.1383 115.179 53.8364C114.764 53.5345 114.43 53.1412 114.177 52.6564C113.925 52.1577 113.843 51.533 113.931 50.7821C114.002 50.1842 114.184 49.645 114.48 49.1644C114.792 48.6712 115.172 48.2539 115.62 47.9126C116.071 47.5575 116.567 47.2904 117.109 47.1115C117.665 46.9338 118.223 46.8616 118.783 46.8948C119.313 46.9396 119.806 47.0584 120.262 47.2515C120.734 47.4317 121.173 47.6583 121.578 47.9312C121.984 48.1902 122.366 48.4753 122.724 48.7863C123.082 49.0974 123.412 49.4061 123.714 49.7125L123.247 50.0943C123.149 50.0861 123.009 50.0181 122.827 49.8903C122.647 49.7487 122.371 49.5148 122.001 49.1886L121.853 49.3658C122.308 49.8114 122.627 50.2175 122.809 50.5839C123.006 50.9516 123.092 51.2327 123.07 51.4274C123.029 51.5363 122.952 51.586 122.841 51.5766C122.729 51.5672 122.517 51.4579 122.203 51.2489C121.889 51.0399 121.529 50.8058 121.123 50.5469C120.731 50.289 120.308 50.0497 119.855 49.8289C119.402 49.6081 118.98 49.4812 118.589 49.4482C118.366 49.4294 118.138 49.4522 117.905 49.5168C117.672 49.5814 117.456 49.6825 117.256 49.8201C117.059 49.9439 116.885 50.1047 116.735 50.3027C116.599 50.5018 116.516 50.7266 116.487 50.9768C116.439 51.3801 116.596 51.6671 116.956 51.838C117.317 52.0088 117.804 52.1202 118.418 52.172C118.543 52.1826 118.676 52.1938 118.815 52.2056C118.97 52.2046 119.112 52.1956 119.241 52.1783C119.562 52.2054 119.772 52.2162 119.871 52.2105C119.986 52.1921 120.092 52.187 120.19 52.1953C120.79 52.2459 121.385 52.3383 121.975 52.4724C122.565 52.6065 123.081 52.8326 123.523 53.1507C123.964 53.4689 124.302 53.8976 124.534 54.4368C124.767 54.976 124.833 55.6767 124.732 56.5388C124.661 57.1367 124.487 57.7257 124.207 58.306C123.944 58.8735 123.582 59.3765 123.122 59.8151C122.663 60.2398 122.118 60.5659 121.486 60.7933C120.851 61.0347 120.13 61.1212 119.321 61.0529C118.832 61.0116 118.265 60.8654 117.618 60.6142C116.984 60.3781 116.381 60.1095 115.811 59.8086C115.256 59.4949 114.785 59.1814 114.399 58.8679C114.027 58.5557 113.853 58.3022 113.876 58.1076C113.882 58.0519 113.922 58.0132 113.995 57.9912C114.773 58.6888 115.577 59.2763 116.409 59.7538C117.23 60.2023 118.091 60.4856 118.993 60.6039C118.55 60.5384 118.112 60.4242 117.681 60.2614C117.237 60.0835 116.796 59.8777 116.358 59.6442C115.936 59.3979 115.531 59.132 115.142 58.8464C114.768 58.548 114.408 58.2508 114.063 57.9548L114.408 57.7102C114.368 57.6928 114.297 57.6376 114.195 57.5448C114.093 57.4519 113.994 57.3382 113.897 57.2036C113.814 57.0702 113.739 56.9305 113.672 56.7844C113.604 56.6383 113.578 56.5026 113.592 56.3775C113.609 56.2384 113.647 56.1504 113.708 56.1134C113.769 56.0764 113.834 56.0609 113.904 56.0667C113.973 56.0726 114.114 56.1337 114.326 56.2498C114.538 56.366 114.798 56.4933 115.105 56.6316ZM119.48 59.1496C118.992 59.1083 118.46 58.9651 117.882 58.7197C117.321 58.4617 116.794 58.1504 116.301 57.7858C116.7 58.1143 117.15 58.4192 117.652 58.7003C118.156 58.9675 118.757 59.1306 119.455 59.1895C120.389 59.2684 121.162 59.0458 121.773 58.5217C122.398 57.9987 122.767 57.2575 122.879 56.2981L122.903 56.0895C122.886 55.6387 122.775 55.2642 122.57 54.966C122.381 54.6552 122.051 54.4658 121.58 54.398C121.867 54.4783 122.093 54.5887 122.26 54.7292C122.441 54.8708 122.569 55.0362 122.646 55.2252C122.738 55.4015 122.792 55.5956 122.81 55.8077C122.827 56.0199 122.823 56.2371 122.797 56.4596C122.633 57.3726 122.256 58.0709 121.663 58.5546C121.073 59.0243 120.345 59.2226 119.48 59.1496ZM122.043 60.1874C122.417 59.9944 122.728 59.7468 122.975 59.4447C123.222 59.1425 123.442 58.8241 123.636 58.4895C123.275 59.0487 122.81 59.529 122.242 59.9304C121.687 60.3329 121.055 60.5604 120.344 60.6127C120.614 60.5934 120.893 60.5607 121.18 60.5148C121.483 60.4561 121.77 60.347 122.043 60.1874ZM124.49 56.4341C124.508 56.2812 124.497 56.1328 124.458 55.9891C124.429 55.8743 124.408 55.7532 124.395 55.6257L124.384 55.8986C124.385 56.011 124.374 56.1645 124.351 56.3592C124.307 56.7346 124.223 57.0926 124.098 57.4332C123.974 57.7737 123.829 58.1055 123.665 58.4287C123.826 58.1333 123.982 57.8236 124.133 57.4993C124.299 57.1622 124.418 56.8072 124.49 56.4341ZM124.402 55.5631C124.401 55.577 124.398 55.5978 124.395 55.6257C124.398 55.5978 124.401 55.577 124.402 55.5631ZM120.339 58.6744C120.325 58.6732 120.311 58.6721 120.297 58.6709C120.311 58.6721 120.325 58.6732 120.339 58.6744ZM127.72 59.9928C127.822 59.6082 127.923 59.1604 128.026 58.6494C128.143 58.1258 128.254 57.6015 128.358 57.0767C128.462 56.5518 128.564 56.0409 128.664 55.5438C128.766 55.0329 128.86 54.5915 128.946 54.2196C128.833 54.5891 128.719 55.0149 128.606 55.4968C128.494 55.9788 128.379 56.4746 128.263 56.9844C128.147 57.4942 128.031 58.0039 127.915 58.5137C127.8 59.0096 127.698 59.4573 127.609 59.857C127.416 59.7003 127.334 59.5038 127.361 59.2674C127.394 58.9893 127.428 58.7605 127.463 58.5809C127.5 58.3874 127.547 58.1667 127.604 57.9188L127.859 57.7296C127.853 57.6589 127.853 57.5958 127.86 57.5401L127.884 57.3316C127.922 57.0118 127.999 56.6532 128.116 56.2558C128.235 55.8446 128.36 55.4339 128.493 55.0238C128.641 54.601 128.773 54.1979 128.888 53.8145C129.005 53.4171 129.081 53.0724 129.115 52.7804L128.871 52.6967C128.804 53.028 128.718 53.4069 128.611 53.8332C128.507 54.2456 128.392 54.6783 128.269 55.1313C128.161 55.5715 128.053 56.0118 127.945 56.452C127.889 56.6861 127.835 56.9062 127.783 57.1124C127.857 56.7254 127.94 56.3112 128.034 55.8698C128.179 55.2361 128.323 54.6093 128.466 53.9895C128.625 53.3569 128.775 52.7377 128.916 52.1318C129.058 51.5258 129.194 50.9686 129.324 50.46C129.348 50.2514 129.423 50.0331 129.548 49.8049C129.689 49.5641 129.796 49.3133 129.869 49.0527C129.95 49.0875 130.018 49.1073 130.073 49.112L130.22 49.1244C130.359 49.1362 130.446 49.1786 130.48 49.2517C130.515 49.3108 130.526 49.396 130.513 49.5073L130.501 49.6115L130.682 49.69C130.818 49.4909 130.97 49.3352 131.138 49.223C131.306 49.1108 131.467 49.0612 131.621 49.0742C131.955 49.1025 132.081 49.4712 131.998 50.1803C131.954 50.5557 131.865 50.9554 131.731 51.3794C131.612 51.7907 131.529 52.1979 131.482 52.6012L131.45 52.8723C131.398 53.3173 131.292 53.7998 131.132 54.3199C130.974 54.8262 130.801 55.3451 130.612 55.8768C130.438 56.3958 130.273 56.9014 130.117 57.3937C129.961 57.8861 129.858 58.3408 129.809 58.7579C129.798 58.8553 129.792 58.9601 129.793 59.0726C129.794 59.185 129.789 59.2898 129.778 59.3872C129.753 59.5958 129.696 59.7243 129.606 59.7729C129.531 59.8087 129.438 59.8219 129.326 59.8125C129.347 59.6317 129.366 59.4086 129.384 59.1433C129.401 58.8779 129.421 58.6409 129.446 58.4324C129.4 58.583 129.361 58.7903 129.331 59.0545C129.3 59.3187 129.256 59.5678 129.201 59.8019L128.887 59.7754L128.857 60.0256C128.706 60.2375 128.525 60.3346 128.316 60.3169C128.218 60.3087 128.11 60.2715 127.991 60.2052C127.872 60.139 127.782 60.0682 127.72 59.9928ZM133.909 44.3385C133.655 44.4575 133.418 44.62 133.196 44.826C132.975 45.032 132.747 45.2304 132.514 45.4213C132.649 45.3485 132.771 45.2676 132.88 45.1785C132.989 45.0894 133.098 45.0003 133.208 44.9112C133.331 44.8233 133.454 44.7354 133.577 44.6475C133.714 44.5607 133.864 44.4821 134.027 44.4117C134.062 44.4708 134.091 44.5224 134.114 44.5665C134.151 44.6118 134.167 44.6552 134.162 44.697L133.625 45.136C133.628 45.1082 133.604 45.0781 133.551 45.0455C133.512 45.0142 133.479 44.9973 133.451 44.995C133.393 45.1305 133.31 45.2358 133.203 45.311C133.095 45.3862 132.989 45.4544 132.883 45.5157C132.777 45.577 132.671 45.6452 132.563 45.7204C132.456 45.7956 132.373 45.9009 132.315 46.0365L132.31 46.0782C132.308 46.0921 132.328 46.1008 132.37 46.1043L133.531 45.2124L133.087 45.5751C132.869 45.7533 132.636 45.9372 132.389 46.1269C132.157 46.3039 131.934 46.4607 131.721 46.5971C131.521 46.7348 131.401 46.8018 131.359 46.7983L131.341 46.7757C131.246 46.7396 131.143 46.7169 131.032 46.7074C130.934 46.6992 130.83 46.6834 130.72 46.6601C130.733 46.5488 130.726 46.4289 130.699 46.3002C130.686 46.1727 130.683 46.0742 130.691 46.0047C130.699 45.9352 130.738 45.9033 130.808 45.9092C130.813 45.8675 130.793 45.8026 130.746 45.7144C130.716 45.6136 130.679 45.5052 130.637 45.3892C130.596 45.2594 130.554 45.1295 130.513 44.9997C130.488 44.8571 130.483 44.7163 130.499 44.5772C130.516 44.4382 130.587 44.3108 130.713 44.1951C130.855 44.0666 131.009 43.9602 131.173 43.8758C131.352 43.7926 131.522 43.7227 131.684 43.6662C131.846 43.6096 131.963 43.5704 132.036 43.5485C132.092 43.5532 132.116 43.5271 132.108 43.4703C132.103 43.3996 132.128 43.3666 132.183 43.3713L132.545 43.5283C132.509 43.5955 132.405 43.706 132.232 43.8599C132.074 44.0011 131.957 44.1035 131.879 44.1671C131.985 44.1058 132.109 44.011 132.25 43.8825C132.406 43.7552 132.523 43.6598 132.601 43.5962C132.667 43.6299 132.727 43.663 132.779 43.6955C132.832 43.728 132.872 43.7455 132.9 43.7478L132.97 43.6905C133.068 43.6988 133.17 43.7285 133.277 43.7796C133.397 43.8319 133.503 43.89 133.594 43.9539C133.686 44.0178 133.762 44.0874 133.824 44.1628C133.885 44.2382 133.914 44.2968 133.909 44.3385ZM127.683 57.6094C127.714 57.4577 127.746 57.3059 127.778 57.1541C127.745 57.3198 127.713 57.4716 127.683 57.6094ZM143.607 55.0153L143.612 54.9736L143.088 54.7608L143.514 54.1859L145.875 55.1435C145.821 55.6024 145.786 56.0769 145.771 56.5671C145.771 57.0446 145.77 57.536 145.767 58.0413C145.778 58.5477 145.774 59.0669 145.754 59.5988C145.749 60.118 145.716 60.6418 145.654 61.1702C145.571 61.8793 145.424 62.5901 145.214 63.3026C145.004 64.015 144.714 64.6856 144.344 65.3144C143.988 65.9444 143.541 66.5174 143.001 67.0336C142.476 67.5509 141.843 67.9609 141.103 68.2635C140.697 68.482 140.182 68.6702 139.558 68.8281C138.946 69.0011 138.352 69.0773 137.777 69.0568L137.526 69.0356C136.968 68.9885 136.508 68.8865 136.146 68.7295C135.782 68.5865 135.498 68.4291 135.292 68.2573C135.086 68.0994 134.941 67.9468 134.86 67.7995C134.791 67.6673 134.758 67.5873 134.761 67.5595C134.768 67.5038 134.799 67.4784 134.855 67.4831C135.25 67.8394 135.69 68.1083 136.176 68.2898C136.662 68.4712 137.156 68.5832 137.658 68.6256C138.509 68.6974 139.317 68.5971 140.082 68.3247C140.818 68.0499 141.495 67.6857 142.112 67.2323C141.497 67.6718 140.815 68.0215 140.066 68.2812C139.303 68.5397 138.51 68.6343 137.687 68.5648C137.198 68.5235 136.725 68.4134 136.267 68.2343C135.823 68.0563 135.418 67.7904 135.051 67.4364C135.092 67.44 135.143 67.4302 135.202 67.4071C135.259 67.3979 135.291 67.3655 135.298 67.3099L135.148 67.1497C135.061 67.0441 134.957 66.909 134.836 66.7443C134.728 66.5807 134.631 66.3899 134.544 66.1719C134.47 65.9551 134.448 65.7285 134.475 65.4921C134.503 65.2558 134.608 65.1452 134.789 65.1605C134.929 65.1723 135.078 65.2762 135.239 65.4723C135.399 65.6684 135.592 65.8813 135.819 66.1111C136.044 66.3548 136.32 66.5817 136.648 66.7919C136.989 67.0033 137.404 67.1296 137.892 67.1709C138.59 67.2298 139.234 67.1437 139.825 66.9128C140.414 66.6957 140.945 66.3684 141.419 65.931C140.962 66.3418 140.447 66.6494 139.874 66.8537C139.314 67.0592 138.693 67.1331 138.009 67.0754C137.591 67.0401 137.201 66.937 136.841 66.7661C136.494 66.5964 136.224 66.384 136.028 66.1288C136.257 66.2183 136.541 66.3195 136.88 66.4324C137.233 66.5465 137.619 66.6212 138.037 66.6565C138.79 66.7201 139.476 66.5814 140.094 66.2404C140.723 65.9144 141.282 65.4771 141.769 64.9285L142.057 64.9949C142.443 64.4658 142.736 63.8868 142.937 63.2577C143.15 62.6438 143.297 61.9892 143.378 61.294C143.434 60.8212 143.469 60.3397 143.484 59.8495C143.5 59.3593 143.502 58.861 143.491 58.3545L143.369 58.4917C143.382 58.9843 143.374 59.4681 143.347 59.9432C143.335 60.4056 143.303 60.8593 143.25 61.3042C143.185 61.8604 143.065 62.4049 142.89 62.9378C142.713 63.4846 142.479 63.9774 142.188 64.4162C142.482 63.9496 142.711 63.4423 142.874 62.8943C143.035 62.3603 143.152 61.7804 143.226 61.1547C143.198 60.7873 143.206 60.4228 143.248 60.0613C143.291 59.6998 143.319 59.3371 143.334 58.9732L143.341 58.5525C143.227 58.6833 143.057 58.8656 142.833 59.0994C142.608 59.3332 142.348 59.564 142.054 59.7919C141.761 60.0059 141.437 60.1892 141.081 60.3417C140.739 60.4953 140.387 60.5569 140.024 60.5262L139.493 60.5446C138.754 60.4822 138.113 60.2385 137.571 59.8136C137.03 59.3887 136.583 58.8735 136.231 58.2681C135.881 57.6488 135.634 56.989 135.491 56.2888C135.349 55.5747 135.316 54.8979 135.391 54.2583C135.385 54.1876 135.385 54.1314 135.39 54.0896L135.412 53.9019C135.511 53.0537 135.75 52.3367 136.129 51.7508C136.509 51.151 136.987 50.6788 137.563 50.3342C138.152 49.9909 138.821 49.7594 139.567 49.6399C140.315 49.5065 141.108 49.4751 141.945 49.5458C142.922 49.6283 143.897 49.844 144.87 50.193C144.783 50.2138 144.736 50.2589 144.727 50.3284C144.721 50.384 144.721 50.4402 144.729 50.497C144.752 50.5411 144.76 50.591 144.753 50.6466L144.749 50.6883C144.699 50.7543 144.597 50.7808 144.443 50.7678C144.29 50.7549 144.069 50.7152 143.781 50.6487C143.493 50.5823 143.088 50.4919 142.566 50.3776L142.537 50.6279C143.005 50.7236 143.398 50.8481 143.719 51.0015C144.04 51.141 144.298 51.2891 144.491 51.4459C144.684 51.6026 144.815 51.747 144.884 51.8793C144.967 52.0126 145.003 52.1211 144.993 52.2045C144.987 52.2601 144.947 52.2989 144.874 52.3208C144.817 52.33 144.753 52.3316 144.683 52.3257C144.53 52.3128 144.254 52.2614 143.856 52.1716C143.472 52.083 142.98 52.0134 142.38 51.9627C141.808 51.9144 141.267 51.9039 140.757 51.931C140.246 51.9581 139.791 52.0531 139.392 52.2159C139.006 52.38 138.689 52.627 138.439 52.9569C138.189 53.2869 138.031 53.7299 137.966 54.2861C137.912 54.745 137.93 55.1889 138.021 55.6178C138.126 56.0479 138.264 56.4317 138.436 56.7692C138.621 57.1078 138.835 57.3857 139.077 57.6027C139.321 57.8059 139.569 57.9181 139.82 57.9393C139.987 57.9534 140.203 57.8523 140.468 57.6359C140.747 57.4208 141.039 57.1505 141.345 56.8253C141.665 56.5012 141.973 56.1552 142.27 55.787C142.567 55.4189 142.824 55.0895 143.041 54.7989L143.607 55.0153ZM142.363 59.144C142.207 59.2712 142.035 59.4112 141.848 59.5639C141.663 59.7028 141.458 59.8329 141.232 59.9542C141.022 60.0629 140.785 60.1622 140.521 60.2523C140.258 60.3284 139.979 60.368 139.683 60.3711L139.822 60.446C140.247 60.4257 140.644 60.3399 141.014 60.1886C141.386 60.0234 141.719 59.8268 142.013 59.5989C142.322 59.3722 142.596 59.1356 142.836 58.8891C143.076 58.6425 143.285 58.4284 143.461 58.2467L143.448 57.9929C143.302 58.1631 143.125 58.3517 142.917 58.5589C142.724 58.7672 142.539 58.9622 142.363 59.144ZM143.653 61.2961C143.581 61.9079 143.448 62.5005 143.254 63.0739C143.064 63.6195 142.828 64.1262 142.548 64.594C142.844 64.1135 143.096 63.5801 143.306 62.994C143.531 62.3952 143.681 61.7759 143.756 61.1363C143.794 60.8165 143.818 60.4886 143.829 60.1525C143.854 59.8176 143.873 59.4821 143.884 59.146L143.923 57.9066L143.804 58.0229C143.796 58.5699 143.782 59.1163 143.76 59.6622C143.752 60.2092 143.716 60.7538 143.653 61.2961ZM145.216 61.3017C145.302 60.5648 145.352 59.8457 145.363 59.1446C145.389 58.4446 145.4 57.7505 145.396 57.0621C145.377 57.7064 145.365 58.3513 145.359 58.9968C145.356 59.6284 145.315 60.2779 145.237 60.9454C145.183 61.4042 145.098 61.8885 144.982 62.3983C144.881 62.8953 144.739 63.3888 144.555 63.8788C144.37 64.3688 144.139 64.8407 143.86 65.2946C143.599 65.7219 143.285 66.1167 142.919 66.4789C143.552 65.8864 144.034 65.1969 144.366 64.4105C144.714 63.5974 144.972 62.7836 145.138 61.9691L145.216 61.3017ZM148.574 61.501C148.582 61.4315 148.613 61.3498 148.666 61.256C148.719 61.1622 148.752 61.0597 148.766 60.9485C148.846 60.6183 148.902 60.3843 148.932 60.2464C148.964 60.0946 148.987 59.9631 149 59.8519C149.068 59.2679 149.121 58.6404 149.157 57.9694C149.209 57.2857 149.251 56.6293 149.282 56C149.305 55.8053 149.325 55.5753 149.342 55.31C149.373 55.0458 149.383 54.836 149.374 54.6807C149.472 54.1976 149.564 53.7208 149.647 53.2504C149.73 52.78 149.8 52.3015 149.857 51.8148L149.919 51.2934C149.94 51.1126 149.954 50.9313 149.961 50.7493C149.998 50.7946 150.038 50.819 150.079 50.8225C150.135 50.8272 150.193 50.8111 150.254 50.7741C150.329 50.7382 150.394 50.7227 150.45 50.7274C150.547 50.7356 150.612 50.8464 150.643 51.0597C150.689 51.2741 150.67 51.7359 150.587 52.4451L150.775 52.461C150.936 51.6882 151.113 51.0783 151.306 50.6312C151.514 50.1853 151.694 49.9688 151.847 49.9818C151.917 49.9877 152.011 50.1501 152.128 50.4689C152.248 50.7739 152.27 51.2462 152.195 51.8858L152.469 51.5298C152.644 51.362 152.833 51.1884 153.037 51.0091C153.255 50.8309 153.492 50.6753 153.747 50.5424C154.002 50.4095 154.282 50.3067 154.586 50.2341C154.892 50.1476 155.234 50.1203 155.61 50.1521C156.336 50.2133 156.944 50.4332 157.435 50.8117C157.941 51.1774 158.345 51.6398 158.646 52.1988C158.948 52.7439 159.172 53.3596 159.317 54.0459C159.477 54.7195 159.581 55.4022 159.626 56.0941C159.674 56.7722 159.681 57.4258 159.65 58.0551C159.618 58.6843 159.577 59.2214 159.524 59.6664C159.477 60.0696 159.421 60.3106 159.355 60.3893C159.305 60.4553 159.217 60.4899 159.089 60.4932C159.187 59.4202 159.245 58.3228 159.264 57.201C159.283 56.0792 159.144 54.9792 158.848 53.901C159.096 55.0313 159.206 56.1359 159.178 57.2148C159.166 58.281 159.097 59.3494 158.971 60.4201C158.892 60.3713 158.818 60.3439 158.748 60.3381C158.692 60.3333 158.641 60.3501 158.594 60.3883C158.581 60.4995 158.575 60.6183 158.574 60.7446C158.575 60.857 158.569 60.9688 158.556 61.0801C158.557 61.1925 158.551 61.2974 158.54 61.3947C158.419 61.7074 158.308 61.9298 158.208 62.0618C158.108 62.1938 158.023 62.2568 157.953 62.2509C157.87 62.2439 157.804 62.2032 157.756 62.129C157.71 62.0408 157.666 61.9388 157.623 61.8228C157.594 61.7081 157.559 61.5857 157.518 61.4559C157.493 61.3133 157.446 61.1759 157.376 61.0437C157.432 60.8097 157.475 60.6237 157.505 60.4859C157.537 60.3341 157.559 60.2095 157.57 60.1122C157.614 59.7368 157.66 59.2843 157.708 58.7547C157.756 58.2251 157.779 57.6724 157.776 57.0964C157.789 56.5077 157.758 55.9224 157.686 55.3405C157.629 54.7459 157.508 54.2161 157.323 53.7511C157.153 53.2734 156.911 52.8808 156.594 52.5733C156.28 52.2518 155.878 52.0705 155.39 52.0292C155.055 52.001 154.742 52.0869 154.451 52.287C154.174 52.4882 153.917 52.7544 153.681 53.0856C153.459 53.4179 153.254 53.7867 153.066 54.1921C152.879 54.5835 152.722 54.9634 152.594 55.3318C152.765 54.9531 152.937 54.5674 153.11 54.1747C153.297 53.7833 153.5 53.4284 153.721 53.11C153.955 52.7927 154.21 52.5404 154.486 52.3531C154.763 52.1518 155.069 52.0653 155.404 52.0936C155.836 52.1301 156.192 52.2795 156.471 52.5418C156.764 52.8053 156.994 53.1336 157.159 53.5267C157.338 53.9209 157.462 54.3667 157.53 54.864C157.614 55.3485 157.662 55.844 157.673 56.3505C157.686 56.843 157.671 57.3263 157.63 57.8002C157.604 58.2614 157.572 58.6589 157.532 58.9926C157.501 59.2568 157.463 59.5204 157.419 59.7834C157.388 60.0476 157.349 60.3182 157.302 60.5951C157.239 60.0561 157.205 59.4986 157.202 58.9226C157.215 58.3339 157.219 57.7585 157.215 57.1964C157.212 56.6205 157.185 56.0705 157.133 55.5466C157.098 55.01 157.008 54.511 156.865 54.0495L157.036 53.8533C156.934 53.5217 156.802 53.2648 156.64 53.0827C156.494 52.8878 156.342 52.7415 156.185 52.644C156.027 52.5464 155.879 52.4848 155.741 52.4591C155.603 52.4334 155.514 52.4188 155.472 52.4153C155.123 52.3858 154.794 52.4845 154.486 52.7112C154.192 52.9391 153.915 53.2597 153.655 53.6731C153.411 54.0738 153.179 54.5457 152.96 55.0889C152.742 55.6322 152.541 56.205 152.357 56.8074C152.174 57.4097 152.004 58.0203 151.847 58.6389C151.691 59.2436 151.554 59.8148 151.435 60.3524L151.623 60.3683C151.748 59.9014 151.879 59.3859 152.016 58.8217C152.166 58.2586 152.318 57.6887 152.47 57.1117C152.637 56.5221 152.817 55.9544 153.007 55.4089C153.198 54.8633 153.403 54.3751 153.623 53.9442C153.857 53.5146 154.108 53.1708 154.378 52.9127C154.632 52.6673 154.922 52.5374 155.248 52.5227C154.933 52.5663 154.652 52.7392 154.405 53.0414C154.143 53.3562 153.899 53.7499 153.675 54.2225C153.45 54.695 153.234 55.2174 153.026 55.7896C152.834 56.3491 152.651 56.8883 152.477 57.4073L151.702 60.4171C151.623 60.607 151.561 60.7773 151.515 60.9279L151.38 61.3588C151.336 61.4955 151.29 61.6461 151.243 61.8106C151.197 61.9612 151.141 62.139 151.074 62.3441L150.982 62.589L150.857 62.5784L148.826 61.6908C148.758 61.671 148.705 61.6455 148.666 61.6141C148.642 61.584 148.611 61.5463 148.574 61.501ZM153.469 51.1087C153.163 51.3216 152.909 51.56 152.709 51.8239C152.525 52.0751 152.347 52.3339 152.174 52.6002L152.172 52.6211C152.415 52.2343 152.735 51.8471 153.132 51.4594C153.513 51.0984 153.993 50.8441 154.574 50.6965C154.386 50.7368 154.206 50.7777 154.032 50.8192C153.828 50.8722 153.641 50.9688 153.469 51.1087ZM156.061 50.6325C155.993 50.6127 155.896 50.5975 155.771 50.5869C156.204 50.7358 156.608 50.8963 156.982 51.0684C157.358 51.2265 157.698 51.5149 158.001 51.9337C157.801 51.5939 157.516 51.3171 157.147 51.1033C156.792 50.8908 156.43 50.7338 156.061 50.6325ZM156.347 53.0579C156.246 52.9651 156.12 52.8913 155.972 52.8366C155.839 52.7692 155.673 52.685 155.473 52.5839L155.457 52.5404C155.693 52.5743 155.895 52.6476 156.065 52.7603C156.237 52.859 156.393 53.0267 156.535 53.2633L156.347 53.0579ZM158.038 51.979C158.205 52.2318 158.355 52.5183 158.486 52.8383C158.618 53.1584 158.733 53.4419 158.83 53.6889C158.728 53.3573 158.63 53.0541 158.536 52.7793C158.441 52.5045 158.275 52.2377 158.038 51.979ZM163.902 60.7522C164.117 60.8405 164.367 60.9881 164.653 61.1948C164.953 61.4026 165.286 61.6204 165.654 61.848C166.022 62.0757 166.427 62.2854 166.87 62.4772C167.326 62.6702 167.819 62.7891 168.349 62.8339L168.579 62.8533C168.663 62.8604 168.762 62.8547 168.877 62.8363L169.088 63.0226C169.652 62.9017 170.135 62.6266 170.537 62.1972C170.941 61.7538 171.19 61.1359 171.283 60.3433C171.35 59.7732 171.256 59.3721 171.001 59.14C170.762 58.8951 170.28 58.7421 169.555 58.6808C169.108 58.6431 168.637 58.6384 168.14 58.6667C167.66 58.6823 167.154 58.6677 166.624 58.6229C166.387 58.6029 166.144 58.5753 165.894 58.5402C165.646 58.4912 165.394 58.4207 165.137 58.3288L165.122 58.454C165.664 58.6401 166.207 58.7562 166.751 58.8021C167.281 58.8469 167.786 58.8615 168.267 58.8459C168.764 58.8176 169.235 58.8223 169.682 58.86C170.058 58.8919 170.346 58.9583 170.546 59.0594C170.761 59.1478 170.917 59.2592 171.014 59.3938C171.111 59.5284 171.163 59.6872 171.169 59.8703C171.191 60.0407 171.19 60.2302 171.166 60.4388C171.089 61.0923 170.85 61.6338 170.447 62.0632C170.062 62.466 169.632 62.7035 169.159 62.7759C169.696 62.6387 170.138 62.36 170.483 61.9398C170.845 61.493 171.061 60.9775 171.129 60.3935C171.178 59.9764 171.104 59.6472 170.907 59.4058C170.724 59.1657 170.367 59.0232 169.837 58.9785C169.404 58.9419 168.913 58.9285 168.362 58.9382C167.812 58.9479 167.229 58.9268 166.616 58.875C166.239 58.8432 165.805 58.7574 165.314 58.6176C164.838 58.4791 164.391 58.2589 163.976 57.957C163.561 57.6551 163.226 57.2618 162.973 56.777C162.722 56.2783 162.64 55.6535 162.728 54.9027C162.798 54.3048 162.981 53.7655 163.277 53.285C163.588 52.7917 163.968 52.3745 164.417 52.0332C164.867 51.678 165.363 51.411 165.906 51.2321C166.462 51.0544 167.02 50.9821 167.579 51.0154C168.109 51.0601 168.603 51.179 169.059 51.372C169.531 51.5523 169.969 51.7789 170.374 52.0518C170.78 52.3108 171.163 52.5958 171.521 52.9069C171.879 53.218 172.209 53.5267 172.511 53.8331L172.044 54.2149C171.946 54.2066 171.806 54.1386 171.624 54.0109C171.443 53.8693 171.168 53.6354 170.797 53.3092L170.65 53.4863C171.105 53.932 171.423 54.338 171.606 54.7045C171.802 55.0721 171.889 55.3533 171.866 55.548C171.825 55.6568 171.749 55.7066 171.637 55.6971C171.526 55.6877 171.313 55.5785 170.999 55.3695C170.686 55.1604 170.326 54.9264 169.919 54.6674C169.527 54.4096 169.104 54.1703 168.651 53.9495C168.198 53.7286 167.776 53.6017 167.386 53.5688C167.162 53.5499 166.934 53.5728 166.701 53.6374C166.468 53.7019 166.252 53.8031 166.053 53.9407C165.855 54.0644 165.681 54.2253 165.531 54.4232C165.395 54.6224 165.313 54.8471 165.283 55.0974C165.236 55.5006 165.393 55.7877 165.753 55.9585C166.113 56.1294 166.6 56.2407 167.214 56.2926C167.34 56.3032 167.472 56.3144 167.612 56.3261C167.767 56.3252 167.909 56.3161 168.038 56.2989C168.358 56.326 168.569 56.3367 168.668 56.3311C168.783 56.3127 168.889 56.3076 168.987 56.3158C169.586 56.3665 170.181 56.4589 170.772 56.593C171.362 56.727 171.878 56.9532 172.319 57.2713C172.761 57.5895 173.098 58.0181 173.331 58.5573C173.563 59.0966 173.629 59.7972 173.528 60.6593C173.458 61.2572 173.283 61.8463 173.004 62.4265C172.74 62.994 172.378 63.4971 171.918 63.9357C171.46 64.3604 170.915 64.6865 170.282 64.9139C169.648 65.1552 168.926 65.2417 168.117 65.1734C167.629 65.1322 167.061 64.986 166.415 64.7348C165.78 64.4986 165.178 64.2301 164.607 63.9292C164.052 63.6155 163.582 63.3019 163.196 62.9885C162.824 62.6762 162.649 62.4228 162.672 62.2281C162.679 62.1725 162.718 62.1337 162.791 62.1118C163.569 62.8094 164.374 63.3969 165.205 63.8743C166.026 64.3228 166.888 64.6062 167.789 64.7245C167.346 64.659 166.909 64.5448 166.477 64.382C166.033 64.204 165.592 63.9983 165.155 63.7648C164.733 63.5185 164.327 63.2525 163.938 62.9669C163.564 62.6686 163.205 62.3714 162.859 62.0754L163.205 61.8308C163.165 61.8133 163.094 61.7582 162.992 61.6653C162.89 61.5725 162.791 61.4588 162.694 61.3242C162.611 61.1908 162.535 61.051 162.468 60.9049C162.401 60.7588 162.374 60.6232 162.389 60.498C162.405 60.359 162.444 60.271 162.504 60.234C162.565 60.197 162.63 60.1814 162.7 60.1873C162.77 60.1932 162.911 60.2542 163.122 60.3704C163.334 60.4866 163.594 60.6138 163.902 60.7522ZM168.277 63.2701C167.789 63.2289 167.256 63.0856 166.679 62.8403C166.118 62.5822 165.591 62.2709 165.098 61.9064C165.496 62.2349 165.946 62.5397 166.449 62.8209C166.953 63.0881 167.554 63.2512 168.251 63.3101C169.186 63.389 169.959 63.1664 170.57 62.6422C171.194 62.1193 171.563 61.3781 171.676 60.4186L171.7 60.21C171.682 59.7592 171.571 59.3847 171.367 59.0866C171.178 58.7758 170.848 58.5864 170.377 58.5185C170.663 58.5989 170.89 58.7093 171.056 58.8498C171.237 58.9914 171.366 59.1567 171.442 59.3457C171.534 59.522 171.589 59.7162 171.606 59.9283C171.624 60.1404 171.619 60.3577 171.593 60.5802C171.43 61.4932 171.052 62.1915 170.46 62.6751C169.87 63.1448 169.142 63.3432 168.277 63.2701ZM170.839 64.308C171.214 64.1149 171.525 63.8674 171.772 63.5652C172.018 63.2631 172.239 62.9447 172.433 62.61C172.072 63.1693 171.607 63.6496 171.038 64.051C170.484 64.4535 169.852 64.6809 169.141 64.7333C169.411 64.7139 169.689 64.6813 169.977 64.6353C170.279 64.5766 170.567 64.4675 170.839 64.308ZM173.287 60.5547C173.305 60.4017 173.294 60.2534 173.254 60.1096C173.226 59.9948 173.205 59.8737 173.191 59.7462L173.181 60.0191C173.181 60.1315 173.17 60.2851 173.148 60.4797C173.104 60.8552 173.019 61.2132 172.895 61.5537C172.77 61.8943 172.626 62.2261 172.461 62.5492C172.623 62.2539 172.779 61.9441 172.929 61.6198C173.096 61.2828 173.215 60.9278 173.287 60.5547ZM173.199 59.6836C173.197 59.6975 173.195 59.7184 173.191 59.7462C173.195 59.7184 173.197 59.6975 173.199 59.6836ZM169.136 62.795C169.122 62.7938 169.108 62.7926 169.094 62.7914C169.108 62.7926 169.122 62.7938 169.136 62.795Z" fill="white"/>
<g clip-path="url(#clip0_50_183)">
<path d="M5.70274 47.4834C7.2442 47.6127 8.66986 48.3492 9.66773 49.5299L11.8769 52.1438C13.9555 54.6032 17.6331 54.9119 20.0925 52.8333L20.0984 52.8282C22.5579 50.7496 26.2355 51.0583 28.3141 53.5177L28.3191 53.5237C30.3977 55.9831 34.0752 56.2917 36.5347 54.2131L39.1486 52.004C40.3293 51.0061 41.8591 50.5177 43.3992 50.647L47.8441 51.02L48.1891 46.9094L4.3432 43.2298L3.99823 47.3403L5.70274 47.4834Z" fill="#C9C6C0"/>
<path d="M43.3992 50.647C41.8578 50.5176 40.3293 51.0061 39.1486 52.004L36.5347 54.2131C34.0752 56.2917 30.3927 55.9772 28.3141 53.5177C26.2355 51.0583 22.5579 50.7496 20.0984 52.8282C17.639 54.9068 13.9555 54.6032 11.8769 52.1438L9.66773 49.5299C8.66985 48.3492 7.24282 47.6126 5.70274 47.4834L3.99823 47.3403L3.07832 58.3018C2.88778 60.5722 4.57351 62.5668 6.8439 62.7573L42.4687 65.747C44.7391 65.9376 46.7336 64.2518 46.9242 61.9815L47.8441 51.02L43.3992 50.647Z" fill="#C9483A"/>
<path d="M48.649 41.4287L4.80316 37.7491L4.34321 43.2298L48.1891 46.9094L48.649 41.4287Z" fill="#80BCC4"/>
<path d="M45.4584 30.1223L34.4969 29.2024L34.8419 25.0918C35.0324 22.8214 33.3467 20.8268 31.0763 20.6363L25.5956 20.1763C23.3252 19.9858 21.3306 21.6715 21.1401 23.9419L20.7951 28.0525L9.83364 27.1325C7.56325 26.942 5.56866 28.6277 5.37812 30.8981L4.80318 37.749L48.649 41.4287L49.224 34.5778C49.4145 32.3074 47.7288 30.3128 45.4584 30.1223Z" fill="#725A48"/>
<path d="M42.718 29.8923L31.7566 28.9724L32.1015 24.8618C32.2921 22.5914 30.6064 20.5968 28.336 20.4063L25.5956 20.1763C23.3252 19.9858 21.3306 21.6715 21.1401 23.9419L20.7951 28.0525L9.83364 27.1325C7.56325 26.942 5.56866 28.6277 5.37812 30.8981L4.80318 37.749L45.9087 41.1987L46.4836 34.3478C46.6742 32.0774 44.9884 30.0828 42.718 29.8923Z" fill="#8E7866"/>
<path d="M45.9087 41.1987L4.80316 37.7491L4.34321 43.2298L45.4487 46.6795L45.9087 41.1987Z" fill="#A6E4EC"/>
<path d="M43.3992 50.647C41.8578 50.5176 40.3293 51.0061 39.1486 52.004L36.5347 54.2131C34.0752 56.2917 30.3927 55.9772 28.3141 53.5177C26.2355 51.0583 22.5579 50.7496 20.0984 52.8282C17.639 54.9068 13.9555 54.6032 11.8769 52.1438L9.66773 49.5299C8.66985 48.3492 7.24282 47.6126 5.70274 47.4834L3.99823 47.3403L3.07832 58.3018C2.88778 60.5722 4.57351 62.5668 6.8439 62.7573L39.7283 65.5171C41.9987 65.7076 43.9933 64.0219 44.1838 61.7515L45.1037 50.79L43.3992 50.647Z" fill="#D97360"/>
<path d="M5.70274 47.4834C7.2442 47.6127 8.66986 48.3492 9.66773 49.5299L11.8769 52.1438C13.9555 54.6032 17.6331 54.9119 20.0925 52.8333L20.0984 52.8282C22.5579 50.7496 26.2355 51.0583 28.3141 53.5177L28.3191 53.5237C30.3977 55.9831 34.0752 56.2917 36.5347 54.2131L39.1486 52.004C40.3293 51.0061 41.8591 50.5177 43.3992 50.647L45.1037 50.79L45.4487 46.6795L4.3432 43.2298L3.99823 47.3403L5.70274 47.4834Z" fill="#EDEAE5"/>
<path d="M26.5058 25.7721C27.2625 25.8356 27.9275 25.2736 27.991 24.5169C28.0545 23.7601 27.4925 23.0952 26.7358 23.0317C25.9791 22.9682 25.3141 23.5302 25.2506 24.2869C25.1871 25.0436 25.7491 25.7086 26.5058 25.7721Z" fill="#725A48"/>
</g>
<defs>
<clipPath id="clip0_50_183">
<rect width="44" height="44" fill="white" transform="translate(6.41302 18.5665) rotate(4.79716)"/>
</clipPath>
</defs>
</svg>
