<svg width="236" height="114" viewBox="0 0 236 114" fill="none" xmlns="http://www.w3.org/2000/svg">
<rect width="165.491" height="68.3475" rx="8" transform="matrix(0.996454 0.0841441 -0.116437 0.993198 65.9581 18)" fill="#FF8C99"/>
<path d="M92.0838 66.1875C92.2029 65.4112 92.3143 64.6413 92.418 63.8777C92.5199 63.128 92.6206 62.3291 92.7201 61.4809C92.7625 61.1194 92.7979 60.7572 92.8263 60.3945C92.8531 60.0457 92.8721 59.7033 92.8833 59.3672L92.6144 61.6615C92.5247 62.4263 92.4219 63.1829 92.306 63.9314C92.2024 64.695 92.0655 65.4417 91.8954 66.1716C91.8403 66.0406 91.7931 65.9032 91.7536 65.7594C91.7124 65.6296 91.6869 65.487 91.6769 65.3317C91.7488 64.9586 91.8035 64.6122 91.841 64.2924C91.8908 63.9876 91.9377 63.6476 91.9818 63.2721L92.2475 63.1682C92.2399 62.8727 92.2471 62.5714 92.269 62.2643C92.2893 61.9711 92.3165 61.6785 92.3507 61.3865C92.3882 61.0667 92.4249 60.7538 92.4608 60.4479C92.509 60.1571 92.5518 59.8518 92.5893 59.532C92.6349 59.1427 92.6658 58.7591 92.6819 58.3813C92.7136 57.9908 92.7174 57.5979 92.6933 57.2027L92.6305 57.1974C92.59 57.7838 92.5432 58.3626 92.4904 58.9339C92.4514 59.5063 92.3985 60.0776 92.3317 60.6477C92.3024 60.898 92.266 61.1477 92.2227 61.3968L92.1382 61.9373C92.2668 60.6001 92.3712 59.2889 92.4515 58.0038C92.5554 56.6364 92.6216 55.2307 92.65 53.7867L92.9366 52.0627C92.7848 52.0358 92.6252 52.0153 92.4578 52.0012L91.9765 51.9605L91.97 51.4755C91.9781 51.406 92.0343 51.3475 92.1385 51.3002C92.2426 51.2528 92.4412 51.2415 92.7342 51.2662L92.9434 51.2839L92.9728 51.0336C92.5189 50.9391 92.1676 50.8111 91.9189 50.6497C91.6841 50.4895 91.5756 50.3329 91.5935 50.1799C91.6098 50.0409 91.7493 49.9333 92.0118 49.8571C92.2759 49.7671 92.6066 49.7108 93.0037 49.6881C93.4164 49.6528 93.8615 49.6412 94.3391 49.6535C94.8167 49.6657 95.2787 49.6907 95.7251 49.7284C96.2134 49.7696 96.7349 49.8277 97.2896 49.9026C97.8583 49.9787 98.4221 50.0965 98.9811 50.2561C99.54 50.4156 100.071 50.636 100.573 50.9171C101.091 51.1855 101.542 51.5466 101.925 52.0002C102.311 52.44 102.606 52.9845 102.812 53.6338C103.033 54.2703 103.133 55.0371 103.113 55.9341C103.024 56.6849 102.785 57.2895 102.393 57.7479C102.016 58.1936 101.581 58.543 101.086 58.7961C100.592 59.0492 100.086 59.2172 99.5692 59.2999C99.0662 59.3838 98.6519 59.4331 98.3261 59.4477C97.9971 59.4901 97.6177 59.5423 97.1877 59.6043C96.7594 59.6524 96.3988 59.6641 96.1059 59.6394C95.785 59.6123 95.6008 59.5616 95.5531 59.4874C95.5054 59.4131 95.4881 59.3204 95.5012 59.2092C96.1322 59.2344 96.7657 59.2387 97.4016 59.2222C98.0391 59.1918 98.6832 59.1057 99.3338 58.9641C98.6881 59.064 98.0465 59.1292 97.4089 59.1596C96.773 59.1761 96.1395 59.1718 95.5085 59.1466C95.5183 59.0632 95.5211 58.9791 95.5169 58.8945C95.5144 58.796 95.4783 58.7438 95.4085 58.7379C95.269 58.7262 95.1313 58.9392 94.9954 59.3771C94.8735 59.8162 94.7558 60.3398 94.6422 60.9481C94.541 61.5715 94.445 62.2093 94.3545 62.8617C94.2779 63.5152 94.2143 64.0575 94.1638 64.4885C94.1409 64.6832 94.1243 64.8854 94.1138 65.0951C94.1156 65.32 94.1075 65.5089 94.0896 65.6618C94.0733 65.8009 94.0385 65.9173 93.9853 66.0111C93.932 66.1049 93.8077 66.1435 93.6124 66.127L93.9205 63.499C93.8404 63.9416 93.7682 64.3779 93.7037 64.8077C93.6531 65.2388 93.6018 65.6768 93.5496 66.1217L93.173 66.0899L93.1534 66.2568C93.1387 66.3819 93.1491 66.4741 93.1844 66.5332C93 66.7845 92.8101 66.9018 92.6148 66.8854C92.4613 66.8724 92.3477 66.8207 92.2737 66.7302C92.2138 66.6409 92.1222 66.5208 91.999 66.3699L92.0838 66.1875ZM95.1332 57.6615L95.4261 57.6862C95.9144 57.7275 96.4757 57.7468 97.11 57.7442C97.7582 57.7427 98.3703 57.6891 98.9462 57.5833C99.5222 57.4774 100.015 57.3014 100.424 57.0551C100.847 56.81 101.085 56.465 101.137 56.02L101.157 55.8531C101.173 55.7141 101.177 55.56 101.169 55.3908C101.174 55.2227 101.137 55.0581 101.057 54.8969C101.063 54.9676 101.082 55.1096 101.113 55.3229C101.145 55.5362 101.152 55.7123 101.136 55.8514C101.085 56.2824 100.89 56.624 100.551 56.8762C100.227 57.1157 99.8248 57.2994 99.3449 57.4274C98.8806 57.5426 98.3723 57.612 97.8201 57.6356C97.2834 57.6465 96.771 57.6313 96.2827 57.5901L95.8642 57.5547C95.7247 57.5429 95.586 57.5242 95.4481 57.4985C95.6614 57.3621 95.9247 57.279 96.2381 57.2493C96.5671 57.2069 96.9085 57.1795 97.2621 57.1672C97.6158 57.155 97.9624 57.1421 98.3021 57.1287C98.6418 57.1152 98.936 57.0699 99.1845 56.9926L99.2808 57.2534C99.7967 57.0583 100.165 56.8577 100.387 56.6517C100.624 56.433 100.766 56.1221 100.813 55.7188C100.888 55.0792 100.773 54.5007 100.467 53.9834C100.175 53.4673 99.7394 53.1005 99.1591 52.883L99.0817 53.0028C99.575 53.2411 99.984 53.5986 100.308 54.0754C100.633 54.5521 100.759 55.1034 100.685 55.7291C100.646 56.0628 100.538 56.3205 100.362 56.5022C100.203 56.6573 99.9619 56.7914 99.6386 56.9045C99.9028 56.8145 100.107 56.6913 100.253 56.5351C100.429 56.3534 100.559 56.1467 100.642 55.915C100.711 55.331 100.629 54.8256 100.397 54.3988C100.166 53.972 99.8125 53.6192 99.338 53.3404C98.8651 53.0477 98.2786 52.8227 97.5786 52.6653C96.8941 52.4951 96.1264 52.3741 95.2754 52.3023C95.3169 52.9096 95.3031 53.5684 95.2339 54.2788C95.1803 54.9764 95.1492 55.6618 95.1407 56.3351L95.1332 57.6615ZM93.3938 54.2919C93.425 54.2664 93.4667 54.1506 93.5191 53.9444C93.5714 53.7382 93.6184 53.5175 93.6601 53.2823C93.7173 53.0343 93.7652 52.8067 93.8036 52.5993C93.8576 52.3791 93.9009 52.2494 93.9337 52.2101L93.6641 52.1662L93.3938 54.2919ZM99.5291 56.9374L99.6386 56.9045L99.5291 56.9374ZM113.234 56.3464C112.857 56.3146 112.572 56.2835 112.378 56.2531C112.199 56.2239 112.032 56.2028 111.879 56.1898C111.46 56.1545 111.088 56.1441 110.762 56.1587C110.436 56.1734 110.155 56.2338 109.917 56.3401C109.679 56.4464 109.49 56.613 109.351 56.84C109.212 57.0669 109.119 57.3751 109.073 57.7644C109.007 58.3345 109.02 58.7639 109.113 59.0526C109.221 59.3286 109.387 59.5392 109.609 59.6843C109.847 59.8168 110.139 59.9116 110.485 59.9689C110.83 60.0261 111.213 60.1217 111.634 60.2555C111.882 60.3046 112.131 60.3466 112.38 60.3817C112.631 60.4029 112.883 60.4241 113.134 60.4453L114.64 60.5726C113.948 60.472 113.253 60.3922 112.555 60.3333C111.873 60.2617 111.26 60.1467 110.715 59.9883C110.184 59.8311 109.76 59.5988 109.444 59.2912C109.142 58.9849 109.024 58.5466 109.091 57.9765C109.145 57.5177 109.241 57.1748 109.381 56.9478C109.535 56.7081 109.717 56.5409 109.925 56.4462C110.149 56.3387 110.402 56.2898 110.682 56.2994C110.965 56.2952 111.266 56.3066 111.587 56.3337C111.978 56.3667 112.373 56.4211 112.772 56.497C112.44 56.5672 112.103 56.616 111.762 56.6434C111.436 56.658 111.131 56.6813 110.845 56.7134C110.561 56.7315 110.31 56.7735 110.091 56.8393C109.887 56.8923 109.742 56.9854 109.656 57.1185L109.546 58.0571L109.369 58.1264C109.384 58.4787 109.402 58.7471 109.423 58.9314C109.459 59.1029 109.583 59.2468 109.795 59.363C110.008 59.4653 110.356 59.5648 110.838 59.6617C111.333 59.7597 112.048 59.9113 112.982 60.1166L114.489 60.2438C114.754 60.2662 114.908 60.2722 114.951 60.2618C115.01 60.2387 115.047 60.2278 115.061 60.2289L115.005 59.0868C115.009 58.8063 115.004 58.5531 114.988 58.3271C114.972 58.1011 114.944 57.86 114.904 57.6038C114.885 57.6443 114.841 57.6616 114.771 57.6558C114.813 57.898 114.839 58.153 114.85 58.4207C114.875 58.6897 114.888 58.9435 114.888 59.1822C114.902 59.4221 114.906 59.6261 114.901 59.7941C114.909 59.9633 114.925 60.063 114.95 60.0932L114.82 60.1243C114.79 60.1359 114.747 60.1393 114.692 60.1346L114.566 60.124C114.468 60.1157 114.358 60.0993 114.234 60.0748C114.111 60.0364 113.953 60.009 113.757 59.9925L113.067 59.9342C112.523 59.8882 112.024 59.818 111.57 59.7235C111.144 59.6314 110.775 59.53 110.464 59.4195C110.777 59.5161 111.161 59.6047 111.617 59.6853C112.098 59.7822 112.549 59.8483 112.967 59.8836C113.148 59.8989 113.337 59.9148 113.532 59.9313C113.743 59.9351 113.967 59.947 114.204 59.967L114.895 60.0253C114.858 59.9801 114.811 59.9551 114.755 59.9504L114.714 59.9469C114.77 58.9827 114.752 58.0544 114.66 57.1619C114.567 56.2694 114.343 55.4781 113.987 54.7881C113.633 54.0842 113.13 53.5081 112.478 53.0598C111.828 52.5977 110.979 52.3224 109.933 52.2341C109.64 52.2094 109.345 52.2055 109.047 52.2224C108.749 52.2394 108.443 52.2697 108.128 52.3133C108.159 52.2879 108.176 52.2612 108.179 52.2334C108.187 52.1639 108.167 52.099 108.118 52.0386C108.07 51.9644 108.05 51.8925 108.058 51.823C108.068 51.7396 108.161 51.6702 108.336 51.6148C108.527 51.5467 108.913 51.502 109.493 51.4808C109.468 51.4506 109.452 51.4071 109.445 51.3503C109.452 51.2947 109.456 51.253 109.46 51.2252C108.706 51.1616 108.122 51.0982 107.707 51.035C107.293 50.958 107.096 50.836 107.116 50.6692C107.124 50.5996 107.219 50.5094 107.401 50.3984C107.597 50.2885 107.862 50.1916 108.196 50.1074C108.532 50.0094 108.927 49.9375 109.384 49.8917C109.855 49.8333 110.37 49.8276 110.928 49.8747C112.002 49.9654 112.904 50.2101 113.632 50.6086C114.362 50.9932 114.953 51.4784 115.405 52.0643C115.873 52.6374 116.228 53.2782 116.469 53.9866C116.724 54.6962 116.908 55.4069 117.022 56.1186C117.151 56.8176 117.227 57.498 117.248 58.1598C117.27 58.8077 117.296 59.3715 117.324 59.8513C117.314 59.9348 117.305 60.0182 117.295 60.1016C117.299 60.1862 117.295 60.2842 117.281 60.3954C117.234 60.7986 117.116 61.1467 116.927 61.4397C116.753 61.7199 116.522 61.9461 116.234 62.1184C115.959 62.3058 115.641 62.4334 115.281 62.5013C114.933 62.5843 114.564 62.6093 114.173 62.5763C113.866 62.5504 113.469 62.5098 112.983 62.4547C112.496 62.3996 112.034 62.3184 111.595 62.2112C111.31 62.1169 110.996 62.0342 110.652 61.963C110.307 61.9058 109.958 61.8201 109.605 61.706C109.252 61.592 108.91 61.4438 108.579 61.2614C108.262 61.0801 107.982 60.8248 107.739 60.4953C107.511 60.1531 107.343 59.7247 107.235 59.21C107.14 58.6964 107.137 58.0573 107.227 57.2925C107.312 56.5695 107.547 56.0066 107.932 55.6038C108.319 55.1871 108.757 54.88 109.245 54.6825C109.748 54.4723 110.248 54.353 110.745 54.3247C111.243 54.2825 111.645 54.2744 111.952 54.3003C112.343 54.3333 112.598 54.3829 112.717 54.4491C112.836 54.5153 112.892 54.5763 112.885 54.6319C112.88 54.6736 112.869 54.7078 112.852 54.7344C112.503 54.7049 112.055 54.6812 111.508 54.663C110.961 54.6449 110.42 54.6905 109.886 54.7999C109.366 54.9104 108.906 55.1103 108.505 55.3995C108.107 55.6747 107.874 56.0974 107.807 56.6675C107.993 56.1636 108.25 55.7781 108.577 55.5108C108.92 55.2308 109.295 55.0378 109.701 54.9317C110.11 54.8118 110.518 54.755 110.926 54.7613C111.349 54.7549 111.728 54.7659 112.063 54.7942L112.775 54.8542C112.712 54.9051 112.678 54.9584 112.671 55.014C112.665 55.0696 112.687 55.1207 112.738 55.1671L113.554 55.236C113.772 55.2966 113.924 55.3866 114.009 55.5061C114.095 55.6117 114.133 55.7062 114.123 55.7896C114.109 55.9147 114.033 56.0207 113.896 56.1074C113.759 56.1941 113.538 56.2738 113.234 56.3464ZM109.127 61.097C109.499 61.2829 109.883 61.4347 110.278 61.5523C110.686 61.671 111.091 61.7614 111.493 61.8234C111.892 61.8992 112.267 61.9519 112.615 61.9814C112.34 61.93 112.066 61.8578 111.796 61.7647C111.511 61.6704 111.26 61.5861 111.043 61.5116C110.813 61.4359 110.58 61.3811 110.344 61.3472C110.124 61.3006 109.891 61.2458 109.645 61.1829C109.413 61.1211 109.176 61.0379 108.934 60.9333C108.695 60.8148 108.46 60.6545 108.23 60.4525C108.467 60.7113 108.766 60.9261 109.127 61.097ZM109.593 58.9246C109.58 58.9095 109.617 58.9548 109.703 59.0604C109.777 59.1509 109.882 59.2229 110.016 59.2764C109.95 59.2427 109.849 59.1991 109.715 59.1456C109.568 59.077 109.501 58.9871 109.514 58.8758L109.593 58.9246ZM110.079 59.2817C110.065 59.2805 110.044 59.2787 110.016 59.2764C110.03 59.2775 110.051 59.2793 110.079 59.2817ZM120.77 61.4061C120.872 61.0215 120.973 60.5737 121.076 60.0628C121.193 59.5391 121.304 59.0149 121.408 58.49C121.512 57.9652 121.614 57.4542 121.714 56.9572C121.816 56.4463 121.91 56.0048 121.996 55.6329C121.883 56.0025 121.769 56.4282 121.656 56.9102C121.544 57.3921 121.429 57.888 121.313 58.3978C121.197 58.9075 121.081 59.4173 120.965 59.9271C120.85 60.4229 120.748 60.8707 120.659 61.2704C120.466 61.1137 120.384 60.9171 120.411 60.6808C120.444 60.4027 120.478 60.1738 120.513 59.9942C120.55 59.8007 120.597 59.58 120.654 59.3321L120.909 59.143C120.903 59.0723 120.903 59.0091 120.91 58.9535L120.934 58.7449C120.972 58.4251 121.049 58.0665 121.166 57.6692C121.285 57.2579 121.41 56.8473 121.543 56.4372C121.691 56.0144 121.823 55.6113 121.938 55.2278C122.055 54.8305 122.131 54.4858 122.165 54.1938L121.921 54.11C121.854 54.4414 121.768 54.8202 121.661 55.2466C121.557 55.659 121.442 56.0917 121.319 56.5447C121.211 56.9849 121.103 57.4251 120.995 57.8654C120.939 58.0994 120.885 58.3195 120.833 58.5257C120.907 58.1388 120.99 57.7246 121.084 57.2832C121.229 56.6494 121.373 56.0226 121.516 55.4028C121.675 54.7703 121.825 54.151 121.966 53.5451C122.108 52.9392 122.244 52.3819 122.374 51.8734C122.398 51.6648 122.473 51.4464 122.598 51.2183C122.739 50.9774 122.846 50.7267 122.919 50.466C123 50.5009 123.068 50.5207 123.123 50.5254L123.27 50.5378C123.409 50.5495 123.496 50.592 123.53 50.665C123.565 50.7242 123.576 50.8094 123.563 50.9206L123.551 51.0249L123.732 51.1034C123.868 50.9042 124.02 50.7486 124.188 50.6364C124.356 50.5242 124.517 50.4746 124.671 50.4875C125.005 50.5158 125.131 50.8845 125.048 51.5937C125.004 51.9691 124.915 52.3688 124.781 52.7928C124.662 53.204 124.579 53.6113 124.532 54.0145L124.5 54.2857C124.448 54.7306 124.342 55.2131 124.182 55.7333C124.024 56.2395 123.851 56.7585 123.662 57.2902C123.488 57.8091 123.323 58.3148 123.167 58.8071C123.011 59.2994 122.908 59.7541 122.859 60.1713C122.848 60.2686 122.842 60.3735 122.843 60.4859C122.844 60.5983 122.839 60.7032 122.828 60.8005C122.803 61.0091 122.746 61.1377 122.656 61.1862C122.581 61.222 122.488 61.2352 122.376 61.2258C122.397 61.0451 122.416 60.822 122.433 60.5566C122.451 60.2913 122.471 60.0543 122.496 59.8457C122.45 59.9963 122.411 60.2037 122.381 60.4679C122.35 60.7321 122.306 60.9812 122.251 61.2152L121.937 61.1887L121.907 61.439C121.756 61.6509 121.575 61.748 121.366 61.7303C121.268 61.7221 121.16 61.6848 121.041 61.6186C120.922 61.5524 120.832 61.4816 120.77 61.4061ZM126.959 45.7519C126.705 45.8709 126.468 46.0334 126.246 46.2394C126.025 46.4453 125.797 46.6438 125.564 46.8347C125.699 46.7619 125.821 46.6809 125.93 46.5918C126.039 46.5027 126.148 46.4136 126.258 46.3246C126.381 46.2367 126.504 46.1487 126.627 46.0608C126.764 45.9741 126.914 45.8955 127.077 45.825C127.112 45.8842 127.141 45.9358 127.164 45.9799C127.201 46.0251 127.217 46.0686 127.212 46.1103L126.675 46.5494C126.678 46.5216 126.654 46.4914 126.601 46.4589C126.562 46.4275 126.529 46.4107 126.501 46.4083C126.443 46.5439 126.36 46.6492 126.253 46.7244C126.145 46.7996 126.039 46.8678 125.933 46.9291C125.827 46.9903 125.721 47.0586 125.613 47.1338C125.506 47.2089 125.423 47.3143 125.365 47.4498L125.36 47.4915C125.358 47.5054 125.378 47.5141 125.42 47.5177L126.581 46.6257L126.137 46.9885C125.919 47.1666 125.686 47.3506 125.439 47.5403C125.207 47.7173 124.984 47.874 124.771 48.0105C124.571 48.1481 124.451 48.2152 124.409 48.2116L124.391 48.189C124.296 48.153 124.193 48.1302 124.082 48.1208C123.984 48.1126 123.88 48.0968 123.77 48.0734C123.783 47.9622 123.776 47.8422 123.749 47.7136C123.736 47.5861 123.733 47.4876 123.741 47.418C123.749 47.3485 123.788 47.3167 123.858 47.3226C123.863 47.2809 123.843 47.2159 123.796 47.1278C123.766 47.0269 123.729 46.9185 123.687 46.8026C123.646 46.6727 123.604 46.5429 123.563 46.413C123.538 46.2704 123.533 46.1296 123.549 45.9906C123.566 45.8515 123.637 45.7241 123.763 45.6084C123.905 45.48 124.059 45.3736 124.223 45.2892C124.402 45.206 124.572 45.1361 124.734 45.0795C124.896 45.023 125.013 44.9837 125.086 44.9618C125.142 44.9665 125.166 44.9405 125.158 44.8837C125.153 44.813 125.178 44.78 125.233 44.7847L125.595 44.9416C125.559 45.0088 125.455 45.1193 125.282 45.2732C125.124 45.4144 125.007 45.5168 124.929 45.5805C125.035 45.5192 125.158 45.4243 125.3 45.2959C125.456 45.1686 125.573 45.0732 125.651 45.0095C125.717 45.0432 125.777 45.0763 125.829 45.1089C125.882 45.1414 125.922 45.1588 125.95 45.1612L126.02 45.1039C126.118 45.1121 126.22 45.1418 126.327 45.193C126.447 45.2453 126.553 45.3034 126.644 45.3672C126.736 45.4311 126.812 45.5007 126.874 45.5762C126.935 45.6516 126.964 45.7101 126.959 45.7519ZM120.733 59.0228C120.764 58.871 120.796 58.7192 120.828 58.5675C120.795 58.7331 120.763 58.8849 120.733 59.0228ZM127.918 61.757C127.926 61.6874 127.957 61.6058 128.01 61.512C128.063 61.4182 128.096 61.3157 128.109 61.2044C128.19 60.8742 128.246 60.6402 128.276 60.5023C128.308 60.3506 128.33 60.2191 128.343 60.1078C128.412 59.5238 128.464 58.8963 128.501 58.2254C128.553 57.5417 128.595 56.8852 128.626 56.256C128.649 56.0613 128.669 55.8313 128.686 55.5659C128.717 55.3017 128.727 55.092 128.717 54.9367C128.816 54.4535 128.907 53.9768 128.991 53.5064C129.074 53.0359 129.144 52.5574 129.201 52.0707L129.262 51.5493C129.284 51.3686 129.298 51.1872 129.305 51.0053C129.342 51.0505 129.381 51.0749 129.423 51.0784C129.479 51.0831 129.537 51.067 129.598 51.03C129.673 50.9942 129.738 50.9786 129.794 50.9833C129.891 50.9916 129.956 51.1023 129.987 51.3156C130.032 51.5301 130.013 51.9919 129.93 52.701L130.119 52.7169C130.28 51.9442 130.457 51.3342 130.65 50.8872C130.857 50.4413 131.038 50.2248 131.191 50.2377C131.261 50.2436 131.355 50.406 131.472 50.7249C131.591 51.0298 131.614 51.5021 131.539 52.1417L131.813 51.7857C131.987 51.6179 132.177 51.4444 132.381 51.265C132.599 51.0868 132.836 50.9313 133.091 50.7984C133.346 50.6654 133.626 50.5627 133.93 50.4901C134.236 50.4036 134.577 50.3762 134.954 50.408C135.679 50.4693 136.288 50.6892 136.779 51.0676C137.285 51.4334 137.689 51.8958 137.99 52.4548C138.292 52.9999 138.516 53.6156 138.661 54.3019C138.821 54.9754 138.924 55.6582 138.97 56.3501C139.017 57.0281 139.025 57.6818 138.994 58.311C138.962 58.9403 138.92 59.4774 138.868 59.9223C138.821 60.3256 138.764 60.5665 138.699 60.6452C138.649 60.7112 138.56 60.7459 138.433 60.7492C138.531 59.6762 138.589 58.5787 138.608 57.4569C138.627 56.3351 138.488 55.2351 138.192 54.1569C138.439 55.2872 138.549 56.3918 138.522 57.4707C138.509 58.5369 138.44 59.6053 138.315 60.676C138.236 60.6272 138.162 60.5999 138.092 60.594C138.036 60.5893 137.985 60.606 137.938 60.6442C137.925 60.7554 137.918 60.8742 137.918 61.0005C137.919 61.113 137.912 61.2248 137.899 61.336C137.9 61.4484 137.895 61.5533 137.884 61.6507C137.762 61.9634 137.652 62.1858 137.552 62.3177C137.452 62.4497 137.367 62.5128 137.297 62.5069C137.214 62.4998 137.148 62.4591 137.1 62.3849C137.054 62.2968 137.01 62.1947 136.967 62.0788C136.938 61.964 136.903 61.8417 136.862 61.7118C136.837 61.5693 136.789 61.4319 136.72 61.2996C136.776 61.0656 136.819 60.8797 136.849 60.7418C136.881 60.59 136.903 60.4655 136.914 60.3681C136.958 59.9927 137.004 59.5402 137.052 59.0107C137.1 58.4811 137.123 57.9283 137.12 57.3523C137.132 56.7636 137.102 56.1783 137.03 55.5965C136.973 55.0019 136.851 54.4721 136.666 54.0071C136.497 53.5294 136.254 53.1368 135.938 52.8292C135.624 52.5078 135.222 52.3264 134.734 52.2852C134.399 52.2569 134.086 52.3428 133.795 52.5429C133.518 52.7442 133.261 53.0104 133.025 53.3415C132.803 53.6738 132.598 54.0427 132.409 54.448C132.223 54.8395 132.065 55.2194 131.938 55.5877C132.109 55.209 132.281 54.8233 132.454 54.4307C132.64 54.0392 132.844 53.6843 133.065 53.3659C133.299 53.0487 133.554 52.7964 133.83 52.609C134.107 52.4078 134.413 52.3213 134.748 52.3495C135.18 52.386 135.536 52.5355 135.815 52.7977C136.108 53.0612 136.337 53.3895 136.503 53.7826C136.682 54.1769 136.806 54.6227 136.874 55.1199C136.958 55.6045 137.006 56.1 137.017 56.6064C137.03 57.099 137.015 57.5822 136.974 58.0562C136.948 58.5174 136.915 58.9149 136.876 59.2486C136.845 59.5128 136.807 59.7764 136.762 60.0394C136.731 60.3036 136.693 60.5741 136.646 60.851C136.582 60.3121 136.549 59.7546 136.546 59.1786C136.559 58.5899 136.563 58.0145 136.558 57.4524C136.556 56.8764 136.528 56.3265 136.477 55.8026C136.441 55.2659 136.352 54.7669 136.209 54.3055L136.38 54.1093C136.278 53.7777 136.146 53.5208 135.984 53.3386C135.838 53.1437 135.686 52.9975 135.528 52.8999C135.371 52.8024 135.223 52.7407 135.085 52.715C134.947 52.6894 134.857 52.6748 134.815 52.6712C134.467 52.6418 134.138 52.7404 133.83 52.9671C133.535 53.195 133.258 53.5157 132.999 53.9291C132.754 54.3297 132.523 54.8016 132.304 55.3449C132.086 55.8881 131.885 56.4609 131.701 57.0633C131.518 57.6657 131.348 58.2762 131.191 58.8949C131.035 59.4996 130.898 60.0708 130.778 60.6083L130.967 60.6242C131.092 60.1574 131.223 59.6418 131.359 59.0776C131.51 58.5146 131.661 57.9446 131.814 57.3677C131.981 56.778 132.161 56.2104 132.351 55.6648C132.542 55.1192 132.747 54.631 132.967 54.2002C133.2 53.7706 133.452 53.4267 133.722 53.1686C133.976 52.9233 134.266 52.7933 134.592 52.7787C134.276 52.8223 133.996 52.9952 133.749 53.2973C133.487 53.6122 133.243 54.0059 133.019 54.4784C132.794 54.9509 132.578 55.4733 132.37 56.0455C132.178 56.605 131.995 57.1443 131.821 57.6632L131.046 60.673C130.967 60.863 130.905 61.0332 130.859 61.1838L130.724 61.6148C130.68 61.7515 130.634 61.9021 130.586 62.0666C130.541 62.2172 130.484 62.395 130.418 62.6L130.326 62.845L130.201 62.8344L128.17 61.9468C128.102 61.927 128.049 61.9014 128.01 61.8701C127.985 61.8399 127.955 61.8022 127.918 61.757ZM132.813 51.3647C132.506 51.5775 132.253 51.8159 132.053 52.0799C131.869 52.3311 131.69 52.5899 131.518 52.8562L131.516 52.877C131.758 52.4903 132.078 52.1031 132.476 51.7154C132.857 51.3543 133.337 51.1 133.918 50.9525C133.73 50.9928 133.549 51.0337 133.375 51.0752C133.172 51.1282 132.985 51.2247 132.813 51.3647ZM135.405 50.8885C135.337 50.8687 135.24 50.8535 135.114 50.8429C135.548 50.9918 135.952 51.1523 136.326 51.3243C136.702 51.4824 137.041 51.7709 137.344 52.1897C137.145 51.8498 136.86 51.573 136.491 51.3593C136.135 51.1467 135.773 50.9898 135.405 50.8885ZM135.691 53.3139C135.589 53.221 135.464 53.1473 135.316 53.0926C135.183 53.0252 135.016 52.9409 134.817 52.8398L134.801 52.7964C135.036 52.8303 135.239 52.9036 135.409 53.0162C135.581 53.115 135.737 53.2826 135.878 53.5193L135.691 53.3139ZM137.381 52.2349C137.549 52.4878 137.699 52.7743 137.83 53.0943C137.962 53.4143 138.076 53.6978 138.174 53.9448C138.072 53.6132 137.974 53.31 137.879 53.0353C137.785 52.7605 137.619 52.4937 137.381 52.2349ZM150.122 54.4482C149.996 54.4376 149.82 54.4438 149.592 54.4666C149.377 54.4907 149.155 54.5211 148.926 54.5578C148.71 54.5958 148.508 54.6349 148.32 54.6752C148.146 54.7167 148.037 54.7496 147.992 54.7739C148.361 54.7489 148.703 54.7146 149.018 54.671C149.335 54.6134 149.675 54.6 150.037 54.6306C149.953 54.7499 149.851 54.8396 149.731 54.8997C149.611 54.9598 149.479 55.0048 149.335 55.0347C149.206 55.0519 149.063 55.068 148.906 55.0828C148.751 55.0837 148.588 55.098 148.415 55.1256L148.291 54.9255C148.014 55.0005 147.805 55.0459 147.662 55.062C147.521 55.0641 147.374 55.0587 147.22 55.0457C147.053 55.0316 146.878 55.0169 146.697 55.0015C146.531 54.9735 146.344 54.9507 146.135 54.933C146.126 55.0025 146.113 55.0575 146.094 55.0981C146.415 55.1252 146.687 55.1481 146.91 55.167C147.135 55.1719 147.41 55.1671 147.736 55.1525C147.423 55.1822 147.146 55.2009 146.905 55.2087C146.679 55.2177 146.405 55.2086 146.084 55.1815C145.991 55.4966 145.905 55.8053 145.828 56.1077C145.75 56.4101 145.694 56.7073 145.66 56.9993C145.64 57.1661 145.624 57.3614 145.612 57.585C145.6 57.8087 145.587 58.0393 145.573 58.2768C145.575 58.5017 145.571 58.719 145.56 58.9287C145.552 59.1246 145.541 59.2712 145.53 59.3685L145.383 60.6199C145.42 60.9039 145.598 61.1296 145.917 61.2969C146.235 61.4642 146.708 61.5744 147.336 61.6274L148.006 61.6839C148.243 61.7039 148.4 61.7453 148.477 61.808C148.57 61.8579 148.612 61.9246 148.602 62.0081C148.594 62.0776 148.533 62.1146 148.42 62.1191C148.308 62.1097 148.196 62.1002 148.085 62.0908C147.68 62.0566 147.258 61.9929 146.818 61.8996C146.406 61.8086 146.002 61.7113 145.606 61.6076C145.999 61.7391 146.414 61.8654 146.85 61.9866C147.302 62.095 147.745 62.1674 148.177 62.2039L148.366 62.2198C148.421 62.2245 148.485 62.2229 148.556 62.2149C148.548 62.2844 148.541 62.347 148.534 62.4026C148.542 62.4594 148.555 62.5237 148.575 62.5956L148.747 62.568C148.791 62.5577 148.841 62.5548 148.896 62.5595C148.954 62.5503 148.998 62.533 149.029 62.5076C149.471 62.587 149.676 62.7588 149.645 63.023C149.627 63.1759 149.571 63.2975 149.476 63.3878C149.38 63.4781 149.267 63.5457 149.135 63.5907C149.003 63.6357 148.858 63.6657 148.702 63.6805C148.546 63.6815 148.399 63.6761 148.26 63.6643C147.771 63.623 147.293 63.5546 146.826 63.4589C146.373 63.3505 145.928 63.2427 145.49 63.1355C145.864 63.3075 146.346 63.4606 146.936 63.5947C147.527 63.7288 148.129 63.8217 148.742 63.8735C148.577 63.9579 148.387 64.0191 148.171 64.057C147.956 64.095 147.736 64.1045 147.513 64.0857L146.028 63.7707C145.836 63.7264 145.686 63.6857 145.578 63.6484C145.483 63.6124 145.389 63.5763 145.294 63.5403C145.202 63.4903 145.095 63.4392 144.974 63.3869C144.868 63.3357 144.713 63.2735 144.51 63.2002L144.537 62.9708C144.186 62.8428 143.912 62.6512 143.717 62.396C143.521 62.1408 143.377 61.8688 143.284 61.5801C143.191 61.2914 143.14 61.0062 143.131 60.7246C143.123 60.4291 143.133 60.1701 143.159 59.9476C143.186 59.7112 143.212 59.4957 143.234 59.301C143.273 59.0936 143.304 58.8857 143.329 58.6771C143.347 58.5241 143.362 58.3289 143.376 58.0913C143.404 57.8549 143.426 57.6041 143.443 57.3387C143.46 57.0733 143.478 56.801 143.497 56.5217C143.529 56.2436 143.56 55.9794 143.59 55.7292C143.608 55.5762 143.625 55.4302 143.641 55.2912C143.671 55.1533 143.7 55.0293 143.727 54.9193L143.518 54.9016C143.492 54.9977 143.472 55.1084 143.458 55.2335L143.414 55.609C143.366 56.0122 143.326 56.416 143.293 56.8204C143.261 57.211 143.226 57.5731 143.187 57.9068C143.161 58.2417 143.141 58.5349 143.126 58.7863C143.112 59.0239 143.099 59.1983 143.086 59.3095L142.988 60.1438L142.968 60.3107C142.97 59.9317 142.991 59.3928 143.031 58.6941C143.084 57.884 143.167 56.9924 143.281 56.019L143.325 55.6436C143.343 55.4907 143.36 55.3447 143.376 55.2056C143.407 55.0677 143.44 54.9652 143.476 54.8981L142.769 54.7963C142.627 54.686 142.483 54.5965 142.336 54.528C142.189 54.4594 142.053 54.4198 141.927 54.4092L141.976 53.992C141.986 53.9086 142.001 53.8397 142.021 53.7852C142.057 53.7181 142.131 53.6892 142.243 53.6986C142.271 53.701 142.339 53.7208 142.447 53.758L142.477 53.5077C142.333 53.4113 142.22 53.2895 142.139 53.1422C142.059 52.981 142.028 52.8239 142.046 52.671C142.089 52.3094 142.368 52.1505 142.884 52.1941C143.079 52.2106 143.28 52.2415 143.486 52.287C143.692 52.3325 143.906 52.3716 144.127 52.4044C144.219 52.1032 144.3 51.8362 144.369 51.6033C144.441 51.3566 144.51 51.1237 144.578 50.9048C144.648 50.6719 144.723 50.4466 144.805 50.2289C144.889 49.9972 144.987 49.7597 145.1 49.5165C145.258 49.249 145.391 48.9583 145.498 48.6444C145.607 48.3166 145.694 47.9939 145.76 47.6765L146.197 47.7345C146.266 47.7403 146.32 47.7659 146.357 47.8112C146.407 47.8576 146.424 47.9573 146.406 48.1102C146.391 48.2354 146.351 48.4005 146.285 48.6055L146.528 48.6893C146.684 48.3233 146.852 48.0286 147.034 47.8051C147.229 47.5829 147.403 47.4782 147.556 47.4912C147.794 47.5112 147.905 47.8226 147.891 48.4252L147.847 48.8006C147.804 49.1621 147.736 49.5004 147.643 49.8155C147.565 50.1179 147.474 50.4191 147.368 50.7191C147.263 51.0191 147.156 51.3261 147.049 51.64C146.942 51.9539 146.838 52.2963 146.738 52.667C147.04 52.7346 147.338 52.7808 147.631 52.8055C147.77 52.8173 147.91 52.8291 148.049 52.8409C148.19 52.8387 148.331 52.8436 148.47 52.8553C148.61 52.8671 148.763 52.8239 148.929 52.7256C149.096 52.6273 149.242 52.5835 149.367 52.5941C149.479 52.6035 149.559 52.6453 149.606 52.7196C149.654 52.7938 149.673 52.8726 149.663 52.9561C149.404 53.0044 149.144 53.0597 148.883 53.1219C148.637 53.1714 148.399 53.2215 148.168 53.2721C148.394 53.2632 148.637 53.2345 148.896 53.1862C149.157 53.124 149.431 53.0699 149.718 53.0239C149.71 53.0935 149.703 53.156 149.696 53.2117C149.704 53.2684 149.717 53.3328 149.737 53.4047C149.765 53.407 149.801 53.403 149.844 53.3926C149.931 53.3719 149.982 53.3621 149.996 53.3633C150.127 53.4446 150.207 53.5426 150.236 53.6574C150.266 53.7583 150.274 53.8713 150.26 53.9964C150.248 54.0938 150.224 54.183 150.186 54.264C150.15 54.3312 150.129 54.3926 150.122 54.4482ZM143.674 61.6763C143.523 61.2843 143.462 60.907 143.49 60.5443C143.519 60.1816 143.538 59.8392 143.547 59.517L143.731 56.3308L143.624 56.7009C143.515 57.6326 143.443 58.4831 143.409 59.2526C143.391 60.0093 143.42 60.6016 143.497 61.0293C143.482 61.1545 143.465 61.2373 143.446 61.2779C143.442 61.3196 143.437 61.3543 143.434 61.3821C143.431 61.4099 143.441 61.4459 143.464 61.49C143.501 61.5352 143.571 61.5973 143.674 61.6763ZM144.999 60.6507C144.984 60.5371 144.984 60.4177 144.999 60.2926L145.119 59.2706C145.089 59.4084 145.058 59.5463 145.028 59.6842C144.999 59.8082 144.977 59.9397 144.961 60.0787C144.918 60.4402 144.907 60.7201 144.926 60.9183C144.948 61.0887 145.015 61.2348 145.128 61.3566C145.068 61.2673 145.03 61.1728 145.013 61.0731C145.012 60.9607 145.008 60.8199 144.999 60.6507ZM142.972 60.4584L142.968 60.3107L142.972 60.4584ZM145.167 61.381C145.155 61.3659 145.142 61.3578 145.128 61.3566C145.142 61.3578 145.155 61.3659 145.167 61.381ZM152.386 64.0759C152.488 63.6913 152.59 63.2435 152.692 62.7326C152.81 62.2089 152.92 61.6847 153.024 61.1598C153.128 60.635 153.23 60.124 153.331 59.627C153.433 59.1161 153.527 58.6746 153.613 58.3027C153.499 58.6723 153.386 59.098 153.273 59.58C153.16 60.0619 153.045 60.5578 152.929 61.0676C152.813 61.5773 152.697 62.0871 152.581 62.5969C152.466 63.0927 152.365 63.5405 152.276 63.9402C152.083 63.7835 152 63.5869 152.028 63.3506C152.06 63.0725 152.094 62.8436 152.129 62.664C152.166 62.4705 152.213 62.2498 152.27 62.0019L152.525 61.8128C152.519 61.7421 152.52 61.6789 152.526 61.6233L152.55 61.4147C152.588 61.0949 152.665 60.7363 152.782 60.339C152.901 59.9277 153.027 59.5171 153.159 59.107C153.307 58.6842 153.439 58.2811 153.555 57.8976C153.672 57.5003 153.747 57.1556 153.781 56.8636L153.538 56.7798C153.471 57.1112 153.384 57.49 153.278 57.9164C153.173 58.3288 153.059 58.7615 152.935 59.2145C152.827 59.6547 152.719 60.0949 152.611 60.5352C152.556 60.7692 152.502 60.9893 152.449 61.1955C152.523 60.8086 152.607 60.3944 152.701 59.9529C152.845 59.3192 152.989 58.6924 153.132 58.0726C153.291 57.4401 153.441 56.8208 153.583 56.2149C153.724 55.609 153.86 55.0517 153.99 54.5432C154.015 54.3346 154.089 54.1162 154.215 53.8881C154.356 53.6472 154.463 53.3965 154.535 53.1358C154.616 53.1707 154.684 53.1905 154.74 53.1952L154.886 53.2076C155.026 53.2193 155.112 53.2618 155.146 53.3348C155.181 53.394 155.193 53.4792 155.18 53.5904L155.167 53.6947L155.348 53.7732C155.484 53.574 155.636 53.4184 155.805 53.3062C155.973 53.194 156.133 53.1444 156.287 53.1573C156.622 53.1856 156.748 53.5543 156.664 54.2635C156.62 54.6389 156.531 55.0386 156.397 55.4626C156.278 55.8738 156.195 56.2811 156.148 56.6843L156.116 56.9555C156.064 57.4004 155.958 57.8829 155.799 58.4031C155.641 58.9093 155.467 59.4283 155.278 59.96C155.105 60.4789 154.94 60.9846 154.783 61.4769C154.627 61.9692 154.524 62.4239 154.475 62.8411C154.464 62.9384 154.459 63.0433 154.46 63.1557C154.461 63.2681 154.455 63.373 154.444 63.4703C154.419 63.6789 154.362 63.8075 154.272 63.856C154.197 63.8918 154.104 63.905 153.993 63.8956C154.014 63.7149 154.033 63.4918 154.05 63.2264C154.067 62.9611 154.088 62.7241 154.112 62.5155C154.066 62.6661 154.028 62.8735 153.997 63.1377C153.966 63.4019 153.923 63.651 153.867 63.885L153.553 63.8585L153.524 64.1088C153.372 64.3207 153.192 64.4178 152.982 64.4001C152.885 64.3919 152.776 64.3546 152.657 64.2884C152.538 64.2222 152.448 64.1514 152.386 64.0759ZM158.575 48.4217C158.322 48.5407 158.084 48.7032 157.863 48.9092C157.641 49.1151 157.414 49.3136 157.18 49.5045C157.315 49.4317 157.438 49.3507 157.547 49.2616C157.656 49.1725 157.765 49.0834 157.874 48.9944C157.997 48.9064 158.12 48.8185 158.243 48.7306C158.38 48.6439 158.53 48.5653 158.693 48.4948C158.729 48.554 158.758 48.6056 158.781 48.6497C158.818 48.6949 158.834 48.7384 158.829 48.7801L158.291 49.2192C158.295 49.1914 158.27 49.1612 158.217 49.1287C158.179 49.0973 158.146 49.0805 158.118 49.0781C158.059 49.2136 157.977 49.319 157.869 49.3942C157.762 49.4694 157.655 49.5376 157.549 49.5989C157.444 49.6601 157.337 49.7284 157.23 49.8036C157.122 49.8787 157.039 49.9841 156.981 50.1196L156.976 50.1613C156.975 50.1752 156.995 50.1839 157.037 50.1875L158.198 49.2955L157.754 49.6583C157.536 49.8364 157.303 50.0204 157.055 50.2101C156.823 50.3871 156.6 50.5438 156.387 50.6803C156.188 50.8179 156.067 50.885 156.025 50.8814L156.007 50.8588C155.913 50.8228 155.81 50.8 155.698 50.7906C155.6 50.7824 155.496 50.7666 155.387 50.7432C155.4 50.632 155.392 50.512 155.365 50.3834C155.352 50.2559 155.35 50.1574 155.358 50.0878C155.366 50.0183 155.405 49.9865 155.475 49.9924C155.479 49.9507 155.459 49.8857 155.413 49.7976C155.382 49.6967 155.346 49.5883 155.303 49.4724C155.262 49.3425 155.221 49.2127 155.18 49.0828C155.154 48.9402 155.149 48.7994 155.166 48.6604C155.182 48.5213 155.253 48.3939 155.38 48.2782C155.521 48.1498 155.675 48.0434 155.84 47.959C156.019 47.8758 156.189 47.8059 156.35 47.7493C156.512 47.6928 156.629 47.6535 156.702 47.6316C156.758 47.6363 156.782 47.6103 156.775 47.5535C156.769 47.4828 156.794 47.4498 156.85 47.4545L157.212 47.6114C157.176 47.6786 157.071 47.7891 156.898 47.943C156.741 48.0842 156.623 48.1866 156.545 48.2503C156.651 48.189 156.775 48.0941 156.917 47.9657C157.072 47.8384 157.189 47.743 157.267 47.6793C157.334 47.713 157.393 47.7461 157.446 47.7786C157.498 47.8112 157.539 47.8286 157.566 47.831L157.637 47.7737C157.734 47.7819 157.836 47.8116 157.943 47.8628C158.064 47.9151 158.17 47.9732 158.261 48.037C158.352 48.1009 158.428 48.1705 158.49 48.246C158.552 48.3214 158.58 48.3799 158.575 48.4217ZM152.349 61.6926C152.381 61.5408 152.413 61.389 152.444 61.2373C152.411 61.4029 152.379 61.5547 152.349 61.6926ZM159.534 64.4268C159.542 64.3572 159.573 64.2756 159.626 64.1818C159.679 64.088 159.713 63.9855 159.726 63.8742C159.807 63.544 159.862 63.31 159.892 63.1721C159.924 63.0204 159.947 62.8889 159.96 62.7776C160.028 62.1936 160.081 61.5661 160.117 60.8952C160.169 60.2115 160.211 59.555 160.242 58.9258C160.265 58.7311 160.285 58.5011 160.302 58.2357C160.333 57.9715 160.344 57.7618 160.334 57.6065C160.433 57.1233 160.524 56.6466 160.607 56.1762C160.69 55.7057 160.76 55.2272 160.818 54.7405L160.879 54.2191C160.9 54.0384 160.914 53.857 160.921 53.6751C160.958 53.7203 160.998 53.7447 161.04 53.7482C161.095 53.7529 161.154 53.7368 161.214 53.6998C161.289 53.664 161.354 53.6484 161.41 53.6531C161.508 53.6614 161.572 53.7721 161.603 53.9854C161.649 54.1999 161.63 54.6617 161.547 55.3708L161.735 55.3867C161.896 54.614 162.073 54.004 162.267 53.557C162.474 53.1111 162.654 52.8946 162.808 52.9075C162.877 52.9134 162.971 53.0758 163.089 53.3947C163.208 53.6996 163.23 54.1719 163.155 54.8115L163.429 54.4555C163.604 54.2877 163.793 54.1142 163.997 53.9348C164.215 53.7566 164.452 53.6011 164.707 53.4682C164.962 53.3352 165.242 53.2325 165.546 53.1599C165.852 53.0734 166.194 53.046 166.57 53.0778C167.296 53.1391 167.904 53.359 168.395 53.7374C168.902 54.1032 169.305 54.5656 169.606 55.1246C169.908 55.6697 170.132 56.2854 170.277 56.9717C170.438 57.6452 170.541 58.328 170.586 59.0199C170.634 59.6979 170.642 60.3516 170.61 60.9808C170.579 61.6101 170.537 62.1472 170.485 62.5921C170.437 62.9954 170.381 63.2363 170.315 63.315C170.265 63.381 170.177 63.4157 170.049 63.419C170.147 62.346 170.205 61.2485 170.224 60.1267C170.243 59.0049 170.104 57.9049 169.808 56.8267C170.056 57.957 170.166 59.0616 170.138 60.1405C170.126 61.2067 170.057 62.2751 169.931 63.3458C169.852 63.297 169.778 63.2697 169.708 63.2638C169.653 63.2591 169.601 63.2758 169.555 63.314C169.542 63.4252 169.535 63.544 169.534 63.6703C169.535 63.7828 169.529 63.8946 169.516 64.0058C169.517 64.1182 169.511 64.2231 169.5 64.3205C169.379 64.6332 169.268 64.8556 169.168 64.9875C169.068 65.1195 168.983 65.1826 168.914 65.1767C168.83 65.1696 168.764 65.1289 168.717 65.0547C168.671 64.9666 168.626 64.8645 168.583 64.7486C168.555 64.6338 168.52 64.5115 168.478 64.3816C168.453 64.2391 168.406 64.1017 168.337 63.9694C168.392 63.7354 168.435 63.5495 168.465 63.4116C168.497 63.2598 168.519 63.1353 168.53 63.0379C168.574 62.6625 168.62 62.21 168.668 61.6805C168.716 61.1509 168.739 60.5981 168.736 60.0221C168.749 59.4334 168.719 58.8481 168.646 58.2663C168.589 57.6717 168.468 57.1419 168.283 56.6769C168.113 56.1992 167.871 55.8066 167.554 55.499C167.24 55.1776 166.839 54.9962 166.35 54.955C166.015 54.9267 165.703 55.0126 165.411 55.2127C165.134 55.414 164.878 55.6802 164.641 56.0113C164.419 56.3436 164.214 56.7125 164.026 57.1178C163.839 57.5093 163.682 57.8892 163.554 58.2575C163.725 57.8788 163.897 57.4931 164.07 57.1005C164.257 56.709 164.46 56.3541 164.681 56.0357C164.915 55.7185 165.17 55.4662 165.446 55.2788C165.723 55.0776 166.029 54.9911 166.364 55.0193C166.796 55.0558 167.152 55.2053 167.431 55.4675C167.725 55.731 167.954 56.0593 168.119 56.4524C168.298 56.8467 168.422 57.2925 168.49 57.7897C168.575 58.2743 168.622 58.7698 168.633 59.2762C168.646 59.7688 168.632 60.252 168.59 60.726C168.564 61.1872 168.532 61.5847 168.493 61.9184C168.462 62.1826 168.424 62.4462 168.379 62.7092C168.348 62.9734 168.309 63.2439 168.262 63.5208C168.199 62.9819 168.166 62.4244 168.163 61.8484C168.175 61.2597 168.179 60.6843 168.175 60.1222C168.172 59.5462 168.145 58.9963 168.093 58.4724C168.058 57.9357 167.968 57.4367 167.825 56.9753L167.996 56.7791C167.894 56.4475 167.762 56.1906 167.6 56.0084C167.454 55.8135 167.302 55.6673 167.145 55.5697C166.987 55.4722 166.839 55.4105 166.701 55.3848C166.564 55.3592 166.474 55.3446 166.432 55.341C166.083 55.3116 165.755 55.4102 165.446 55.6369C165.152 55.8648 164.875 56.1855 164.615 56.5989C164.371 56.9995 164.139 57.4714 163.921 58.0147C163.702 58.5579 163.501 59.1307 163.318 59.7331C163.134 60.3355 162.964 60.946 162.807 61.5647C162.652 62.1694 162.514 62.7406 162.395 63.2781L162.583 63.294C162.708 62.8272 162.839 62.3116 162.976 61.7474C163.126 61.1844 163.278 60.6144 163.43 60.0375C163.598 59.4478 163.777 58.8802 163.968 58.3346C164.158 57.789 164.364 57.3008 164.583 56.87C164.817 56.4404 165.068 56.0965 165.338 55.8384C165.592 55.5931 165.882 55.4631 166.208 55.4485C165.893 55.4921 165.612 55.665 165.365 55.9671C165.103 56.282 164.859 56.6757 164.635 57.1482C164.411 57.6207 164.194 58.1431 163.986 58.7153C163.794 59.2748 163.611 59.8141 163.437 60.333L162.662 63.3428C162.583 63.5328 162.521 63.703 162.475 63.8536L162.34 64.2846C162.296 64.4213 162.25 64.5719 162.203 64.7364C162.157 64.887 162.101 65.0648 162.035 65.2698L161.942 65.5148L161.817 65.5042L159.787 64.6166C159.718 64.5968 159.665 64.5712 159.626 64.5399C159.602 64.5097 159.571 64.472 159.534 64.4268ZM164.429 54.0345C164.123 54.2473 163.869 54.4857 163.669 54.7497C163.485 55.0009 163.307 55.2597 163.135 55.526L163.132 55.5468C163.375 55.1601 163.695 54.7729 164.092 54.3852C164.473 54.0241 164.954 53.7698 165.534 53.6223C165.347 53.6626 165.166 53.7035 164.992 53.745C164.788 53.798 164.601 53.8945 164.429 54.0345ZM167.021 53.5583C166.953 53.5385 166.856 53.5233 166.731 53.5127C167.164 53.6616 167.568 53.8221 167.942 53.9941C168.318 54.1522 168.658 54.4407 168.961 54.8595C168.761 54.5196 168.477 54.2428 168.107 54.0291C167.752 53.8165 167.39 53.6596 167.021 53.5583ZM167.307 55.9837C167.206 55.8908 167.08 55.8171 166.932 55.7624C166.799 55.695 166.633 55.6107 166.433 55.5096L166.417 55.4662C166.653 55.5001 166.855 55.5734 167.025 55.686C167.197 55.7848 167.353 55.9524 167.495 56.1891L167.307 55.9837ZM168.998 54.9047C169.165 55.1576 169.315 55.4441 169.446 55.7641C169.578 56.0841 169.693 56.3676 169.791 56.6146C169.689 56.283 169.59 55.9798 169.496 55.7051C169.401 55.4303 169.235 55.1635 168.998 54.9047ZM181.837 60.2438L181.842 60.202L181.317 59.9892L181.744 59.4144L184.104 60.372C184.05 60.8309 184.016 61.3054 184.001 61.7956C184.001 62.2731 184 62.7645 183.997 63.2697C184.008 63.7762 184.003 64.2954 183.983 64.8273C183.979 65.3465 183.946 65.8703 183.884 66.3987C183.801 67.1078 183.654 67.8186 183.443 68.5311C183.233 69.2435 182.943 69.9141 182.574 70.5429C182.218 71.1729 181.77 71.7459 181.231 72.2621C180.705 72.7794 180.073 73.1893 179.333 73.492C178.927 73.7104 178.412 73.8986 177.787 74.0566C177.175 74.2296 176.582 74.3058 176.006 74.2853L175.755 74.2641C175.197 74.217 174.737 74.115 174.375 73.958C174.012 73.815 173.727 73.6575 173.522 73.4857C173.315 73.3278 173.171 73.1753 173.09 73.028C173.021 72.8957 172.988 72.8157 172.991 72.7879C172.997 72.7323 173.029 72.7069 173.084 72.7116C173.479 73.0679 173.92 73.3368 174.406 73.5182C174.892 73.6997 175.386 73.8116 175.888 73.854C176.739 73.9259 177.547 73.8256 178.311 73.5531C179.048 73.2783 179.724 72.9142 180.341 72.4607C179.726 72.9003 179.044 73.2499 178.295 73.5097C177.532 73.7682 176.739 73.8627 175.916 73.7932C175.428 73.752 174.955 73.6418 174.497 73.4627C174.053 73.2848 173.647 73.0189 173.28 72.6649C173.322 72.6684 173.372 72.6587 173.431 72.6356C173.489 72.6264 173.521 72.594 173.527 72.5383L173.377 72.3782C173.291 72.2726 173.187 72.1375 173.065 71.9727C172.958 71.8092 172.86 71.6184 172.773 71.4004C172.7 71.1836 172.677 70.957 172.705 70.7206C172.733 70.4842 172.837 70.3737 173.019 70.389C173.158 70.4008 173.308 70.5047 173.468 70.7008C173.628 70.8969 173.822 71.1098 174.048 71.3396C174.273 71.5833 174.55 71.8102 174.877 72.0204C175.219 72.2318 175.634 72.3581 176.122 72.3993C176.819 72.4582 177.463 72.3722 178.054 72.1412C178.643 71.9242 179.174 71.5969 179.648 71.1595C179.192 71.5703 178.677 71.8779 178.103 72.0822C177.544 72.2877 176.922 72.3616 176.239 72.3039C175.82 72.2686 175.431 72.1655 175.07 71.9946C174.724 71.8249 174.453 71.6125 174.258 71.3572C174.487 71.4468 174.771 71.548 175.11 71.6609C175.462 71.7749 175.848 71.8496 176.267 71.885C177.02 71.9486 177.705 71.8099 178.323 71.4688C178.953 71.1429 179.511 70.7056 179.998 70.1569L180.286 70.2234C180.673 69.6943 180.966 69.1152 181.166 68.4862C181.379 67.8723 181.526 67.2177 181.608 66.5225C181.663 66.0497 181.699 65.5682 181.714 65.078C181.729 64.5878 181.731 64.0895 181.72 63.583L181.598 63.7202C181.611 64.2127 181.604 64.6966 181.576 65.1717C181.564 65.6341 181.532 66.0878 181.48 66.5327C181.415 67.0889 181.295 67.6334 181.119 68.1663C180.943 68.7131 180.709 69.2059 180.418 69.6447C180.712 69.178 180.94 68.6708 181.103 68.1228C181.265 67.5888 181.382 67.0089 181.455 66.3832C181.428 66.0158 181.435 65.6513 181.478 65.2898C181.52 64.9282 181.549 64.5655 181.563 64.2017L181.57 63.781C181.456 63.9118 181.287 64.0941 181.062 64.3279C180.838 64.5617 180.578 64.7925 180.284 65.0204C179.991 65.2344 179.666 65.4177 179.31 65.5702C178.968 65.7238 178.616 65.7853 178.253 65.7547L177.723 65.7731C176.983 65.7107 176.343 65.467 175.801 65.0421C175.259 64.6172 174.812 64.102 174.461 63.4966C174.111 62.8772 173.864 62.2175 173.721 61.5173C173.579 60.8032 173.545 60.1264 173.62 59.4867C173.615 59.416 173.614 59.3598 173.619 59.3181L173.641 59.1304C173.741 58.2822 173.98 57.5652 174.358 56.9793C174.738 56.3795 175.216 55.9073 175.792 55.5627C176.382 55.2193 177.05 54.9879 177.797 54.8684C178.545 54.735 179.338 54.7036 180.175 54.7743C181.151 54.8567 182.126 55.0725 183.1 55.4215C183.013 55.4422 182.965 55.4874 182.957 55.5569C182.95 55.6125 182.951 55.6687 182.958 55.7255C182.981 55.7696 182.99 55.8194 182.983 55.875L182.978 55.9168C182.928 55.9828 182.826 56.0093 182.673 55.9963C182.519 55.9833 182.299 55.9436 182.011 55.8772C181.723 55.8107 181.318 55.7204 180.796 55.6061L180.766 55.8564C181.234 55.952 181.628 56.0766 181.948 56.23C182.27 56.3695 182.527 56.5176 182.72 56.6743C182.913 56.8311 183.044 56.9755 183.113 57.1077C183.196 57.2411 183.233 57.3495 183.223 57.433C183.216 57.4886 183.177 57.5273 183.104 57.5493C183.046 57.5585 182.983 57.5601 182.913 57.5542C182.759 57.5413 182.484 57.4899 182.086 57.4001C181.702 57.3115 181.21 57.2419 180.61 57.1912C180.038 57.1429 179.497 57.1323 178.986 57.1594C178.476 57.1866 178.021 57.2816 177.621 57.4444C177.236 57.6085 176.918 57.8554 176.668 58.1854C176.418 58.5153 176.261 58.9584 176.195 59.5146C176.142 59.9735 176.16 60.4174 176.251 60.8463C176.355 61.2764 176.493 61.6602 176.665 61.9976C176.851 62.3363 177.065 62.6142 177.307 62.8312C177.551 63.0344 177.798 63.1465 178.049 63.1677C178.217 63.1819 178.433 63.0808 178.698 62.8644C178.977 62.6492 179.269 62.379 179.575 62.0538C179.895 61.7297 180.203 61.3836 180.5 61.0155C180.796 60.6474 181.053 60.318 181.27 60.0274L181.837 60.2438ZM180.592 64.3724C180.436 64.4997 180.265 64.6397 180.078 64.7924C179.893 64.9312 179.687 65.0613 179.462 65.1827C179.252 65.2914 179.015 65.3907 178.75 65.4807C178.488 65.5569 178.208 65.5965 177.912 65.5995L178.051 65.6745C178.476 65.6542 178.874 65.5684 179.244 65.4171C179.615 65.2519 179.948 65.0553 180.243 64.8274C180.551 64.6007 180.825 64.3641 181.066 64.1175C181.306 63.871 181.514 63.6569 181.69 63.4752L181.678 63.2214C181.531 63.3915 181.354 63.5802 181.147 63.7874C180.953 63.9957 180.768 64.1907 180.592 64.3724ZM181.882 66.5246C181.811 67.1364 181.678 67.729 181.484 68.3024C181.293 68.848 181.058 69.3547 180.777 69.8225C181.073 69.3419 181.326 68.8086 181.535 68.2225C181.761 67.6236 181.911 67.0044 181.986 66.3648C182.023 66.045 182.048 65.717 182.059 65.381C182.084 65.0461 182.102 64.7106 182.113 64.3745L182.153 63.1351L182.034 63.2514C182.026 63.7984 182.011 64.3448 181.989 64.8906C181.982 65.4376 181.946 65.9823 181.882 66.5246ZM183.446 66.5302C183.532 65.7932 183.581 65.0742 183.593 64.3731C183.619 63.6731 183.629 62.9789 183.626 62.2905C183.606 62.9349 183.594 63.5798 183.589 64.2253C183.585 64.8569 183.544 65.5064 183.466 66.1738C183.412 66.6327 183.327 67.117 183.211 67.6268C183.111 68.1238 182.968 68.6173 182.784 69.1073C182.6 69.5973 182.369 70.0692 182.09 70.5231C181.828 70.9504 181.515 71.3452 181.148 71.7074C181.781 71.1149 182.263 70.4254 182.595 69.639C182.944 68.8259 183.201 68.0121 183.367 67.1976L183.446 66.5302ZM188.568 64.8353C188.783 64.9237 189.034 65.0712 189.319 65.2779C189.619 65.4858 189.953 65.7035 190.321 65.9312C190.688 66.1588 191.093 66.3686 191.536 66.5604C191.992 66.7534 192.485 66.8723 193.016 66.917L193.246 66.9365C193.329 66.9435 193.429 66.9379 193.544 66.9195L193.754 67.1058C194.318 66.9849 194.801 66.7097 195.204 66.2803C195.608 65.837 195.856 65.2191 195.949 64.4265C196.016 63.8564 195.922 63.4553 195.668 63.2231C195.429 62.9783 194.946 62.8252 194.221 62.764C193.775 62.7263 193.303 62.7216 192.807 62.7499C192.326 62.7654 191.82 62.7508 191.29 62.7061C191.053 62.686 190.81 62.6585 190.56 62.6234C190.313 62.5744 190.06 62.5039 189.803 62.412L189.789 62.5371C190.33 62.7233 190.873 62.8394 191.417 62.8853C191.947 62.9301 192.453 62.9447 192.934 62.9291C193.43 62.9008 193.901 62.9055 194.348 62.9432C194.725 62.975 195.013 63.0415 195.212 63.1426C195.427 63.2309 195.583 63.3424 195.68 63.477C195.777 63.6115 195.829 63.7704 195.836 63.9535C195.858 64.1239 195.857 64.3134 195.832 64.5219C195.756 65.1755 195.516 65.7169 195.114 66.1463C194.728 66.5491 194.299 66.7867 193.825 66.859C194.363 66.7219 194.804 66.4432 195.149 66.023C195.511 65.5761 195.727 65.0607 195.795 64.4767C195.844 64.0595 195.77 63.7303 195.573 63.489C195.39 63.2488 195.033 63.1064 194.503 63.0616C194.071 63.0251 193.579 63.0117 193.029 63.0214C192.478 63.031 191.896 63.01 191.282 62.9581C190.905 62.9263 190.472 62.8405 189.981 62.7008C189.504 62.5622 189.058 62.342 188.642 62.0401C188.227 61.7382 187.893 61.3449 187.639 60.8601C187.388 60.3615 187.306 59.7367 187.394 58.9858C187.464 58.3879 187.647 57.8487 187.943 57.3681C188.255 56.8749 188.635 56.4576 189.083 56.1163C189.533 55.7612 190.03 55.4941 190.572 55.3152C191.128 55.1375 191.686 55.0653 192.246 55.0985C192.776 55.1433 193.269 55.2622 193.725 55.4552C194.197 55.6354 194.636 55.862 195.04 56.1349C195.447 56.3939 195.829 56.679 196.187 56.99C196.545 57.3011 196.875 57.6098 197.177 57.9162L196.71 58.298C196.612 58.2898 196.472 58.2218 196.29 58.094C196.109 57.9524 195.834 57.7185 195.464 57.3924L195.316 57.5695C195.771 58.0151 196.09 58.4212 196.272 58.7876C196.469 59.1553 196.555 59.4364 196.532 59.6311C196.492 59.74 196.415 59.7897 196.304 59.7803C196.192 59.7709 195.979 59.6616 195.666 59.4526C195.352 59.2436 194.992 59.0096 194.586 58.7506C194.193 58.4927 193.771 58.2534 193.318 58.0326C192.864 57.8118 192.443 57.6849 192.052 57.6519C191.829 57.6331 191.601 57.6559 191.368 57.7205C191.135 57.7851 190.919 57.8862 190.719 58.0238C190.522 58.1476 190.348 58.3084 190.198 58.5064C190.062 58.7055 189.979 58.9303 189.95 59.1805C189.902 59.5838 190.059 59.8708 190.419 60.0417C190.78 60.2125 191.267 60.3239 191.881 60.3757C192.006 60.3863 192.139 60.3975 192.278 60.4093C192.433 60.4083 192.575 60.3993 192.704 60.3821C193.025 60.4092 193.235 60.4199 193.334 60.4142C193.449 60.3958 193.555 60.3908 193.653 60.399C194.253 60.4497 194.848 60.542 195.438 60.6761C196.028 60.8102 196.544 61.0363 196.986 61.3545C197.427 61.6726 197.764 62.1013 197.997 62.6405C198.23 63.1797 198.296 63.8804 198.194 64.7425C198.124 65.3404 197.95 65.9294 197.67 66.5097C197.407 67.0772 197.045 67.5802 196.585 68.0188C196.126 68.4435 195.581 68.7696 194.948 68.997C194.314 69.2384 193.593 69.3249 192.784 69.2566C192.295 69.2153 191.728 69.0691 191.081 68.8179C190.447 68.5818 189.844 68.3132 189.274 68.0123C188.719 67.6986 188.248 67.3851 187.862 67.0717C187.49 66.7594 187.316 66.5059 187.339 66.3113C187.345 66.2556 187.385 66.2169 187.458 66.195C188.235 66.8925 189.04 67.48 189.872 67.9575C190.693 68.406 191.554 68.6893 192.456 68.8076C192.013 68.7421 191.575 68.6279 191.143 68.4651C190.699 68.2872 190.259 68.0815 189.821 67.8479C189.399 67.6016 188.994 67.3357 188.604 67.0501C188.231 66.7517 187.871 66.4545 187.525 66.1585L187.871 65.9139C187.831 65.8965 187.76 65.8413 187.658 65.7485C187.556 65.6556 187.457 65.5419 187.36 65.4073C187.277 65.2739 187.202 65.1342 187.134 64.9881C187.067 64.842 187.041 64.7063 187.055 64.5812C187.072 64.4421 187.11 64.3541 187.171 64.3171C187.231 64.2801 187.297 64.2646 187.366 64.2704C187.436 64.2763 187.577 64.3374 187.789 64.4536C188.001 64.5697 188.26 64.697 188.568 64.8353ZM192.943 67.3533C192.455 67.312 191.922 67.1688 191.345 66.9234C190.784 66.6654 190.257 66.3541 189.764 65.9895C190.162 66.318 190.613 66.6229 191.115 66.904C191.619 67.1712 192.22 67.3343 192.918 67.3932C193.852 67.4721 194.625 67.2495 195.236 66.7254C195.861 66.2024 196.229 65.4612 196.342 64.5018L196.366 64.2932C196.349 63.8424 196.238 63.4679 196.033 63.1698C195.844 62.8589 195.514 62.6696 195.043 62.6017C195.329 62.682 195.556 62.7925 195.723 62.9329C195.903 63.0745 196.032 63.2399 196.108 63.4289C196.2 63.6052 196.255 63.7994 196.273 64.0115C196.29 64.2236 196.286 64.4409 196.26 64.6633C196.096 65.5763 195.718 66.2746 195.126 66.7583C194.536 67.228 193.808 67.4263 192.943 67.3533ZM195.505 68.3911C195.88 68.1981 196.191 67.9505 196.438 67.6484C196.685 67.3462 196.905 67.0278 197.099 66.6932C196.738 67.2524 196.273 67.7327 195.705 68.1341C195.15 68.5367 194.518 68.7641 193.807 68.8164C194.077 68.7971 194.356 68.7644 194.643 68.7185C194.946 68.6598 195.233 68.5507 195.505 68.3911ZM197.953 64.6378C197.971 64.4849 197.96 64.3365 197.921 64.1928C197.892 64.078 197.871 63.9569 197.858 63.8294L197.847 64.1023C197.848 64.2147 197.837 64.3682 197.814 64.5629C197.77 64.9383 197.686 65.2963 197.561 65.6369C197.437 65.9774 197.292 66.3092 197.128 66.6324C197.289 66.3371 197.445 66.0273 197.596 65.703C197.762 65.366 197.881 65.0109 197.953 64.6378ZM197.865 63.7668C197.863 63.7807 197.861 63.8015 197.858 63.8294C197.861 63.8015 197.863 63.7807 197.865 63.7668ZM193.802 66.8781C193.788 66.877 193.774 66.8758 193.76 66.8746C193.774 66.8758 193.788 66.877 193.802 66.8781Z" fill="white"/>
<g clip-path="url(#clip0_50_183)">
<path d="M5.70274 49.4831C7.2442 49.6125 8.66986 50.3489 9.66773 51.5296L11.8769 54.1435C13.9555 56.603 17.6331 56.9116 20.0925 54.833L20.0984 54.828C22.5579 52.7494 26.2355 53.058 28.3141 55.5175L28.3191 55.5234C30.3977 57.9828 34.0752 58.2915 36.5347 56.2129L39.1486 54.0037C40.3293 53.0059 41.8591 52.5175 43.3992 52.6467L47.8441 53.0197L48.1891 48.9092L4.3432 45.2295L3.99823 49.3401L5.70274 49.4831Z" fill="#C9C6C0"/>
<path d="M43.3992 52.6467C41.8578 52.5173 40.3293 53.0059 39.1486 54.0037L36.5347 56.2129C34.0752 58.2915 30.3927 57.9769 28.3141 55.5175C26.2354 53.058 22.5579 52.7494 20.0984 54.828C17.639 56.9066 13.9555 56.603 11.8769 54.1435L9.66773 51.5296C8.66985 50.3489 7.24282 49.6124 5.70274 49.4831L3.99823 49.3401L3.07832 60.3015C2.88778 62.5719 4.57351 64.5665 6.8439 64.7571L42.4687 67.7468C44.7391 67.9373 46.7336 66.2516 46.9242 63.9812L47.8441 53.0197L43.3992 52.6467Z" fill="#C9483A"/>
<path d="M48.649 43.4284L4.80316 39.7488L4.34321 45.2295L48.1891 48.9092L48.649 43.4284Z" fill="#80BCC4"/>
<path d="M45.4584 32.122L34.4969 31.2021L34.8419 27.0915C35.0324 24.8212 33.3467 22.8266 31.0763 22.636L25.5956 22.1761C23.3252 21.9855 21.3306 23.6713 21.1401 25.9417L20.7951 30.0522L9.83364 29.1323C7.56325 28.9418 5.56866 30.6275 5.37812 32.8979L4.80318 39.7488L48.649 43.4284L49.224 36.5775C49.4145 34.3071 47.7288 32.3125 45.4584 32.122Z" fill="#725A48"/>
<path d="M42.718 31.892L31.7566 30.9721L32.1015 26.8616C32.2921 24.5912 30.6064 22.5966 28.336 22.406L25.5956 22.1761C23.3252 21.9855 21.3306 23.6713 21.1401 25.9417L20.7951 30.0522L9.83364 29.1323C7.56325 28.9418 5.56866 30.6275 5.37812 32.8979L4.80318 39.7488L45.9087 43.1985L46.4836 36.3475C46.6742 34.0772 44.9884 32.0826 42.718 31.892Z" fill="#8E7866"/>
<path d="M45.9087 43.1985L4.80316 39.7488L4.34321 45.2295L45.4487 48.6792L45.9087 43.1985Z" fill="#A6E4EC"/>
<path d="M43.3992 52.6467C41.8578 52.5173 40.3293 53.0059 39.1486 54.0037L36.5347 56.2129C34.0752 58.2915 30.3927 57.9769 28.3141 55.5175C26.2354 53.058 22.5579 52.7494 20.0984 54.828C17.639 56.9066 13.9555 56.603 11.8769 54.1435L9.66773 51.5296C8.66985 50.3489 7.24282 49.6124 5.70274 49.4831L3.99823 49.3401L3.07832 60.3015C2.88778 62.5719 4.57351 64.5665 6.8439 64.7571L39.7283 67.5168C41.9987 67.7073 43.9933 66.0216 44.1838 63.7512L45.1037 52.7897L43.3992 52.6467Z" fill="#D97360"/>
<path d="M5.70274 49.4831C7.2442 49.6125 8.66986 50.3489 9.66773 51.5296L11.8769 54.1435C13.9555 56.603 17.6331 56.9116 20.0925 54.833L20.0984 54.828C22.5579 52.7494 26.2355 53.058 28.3141 55.5175L28.3191 55.5234C30.3977 57.9828 34.0752 58.2915 36.5347 56.2129L39.1486 54.0037C40.3293 53.0059 41.8591 52.5175 43.3992 52.6467L45.1037 52.7897L45.4487 48.6792L4.3432 45.2295L3.99823 49.3401L5.70274 49.4831Z" fill="#EDEAE5"/>
<path d="M26.5058 27.7718C27.2625 27.8353 27.9275 27.2733 27.991 26.5166C28.0545 25.7599 27.4925 25.0949 26.7358 25.0314C25.9791 24.9679 25.3141 25.5299 25.2506 26.2866C25.1871 27.0434 25.7491 27.7083 26.5058 27.7718Z" fill="#725A48"/>
</g>
<defs>
<clipPath id="clip0_50_183">
<rect width="44" height="44" fill="white" transform="translate(6.41302 20.5662) rotate(4.79716)"/>
</clipPath>
</defs>
</svg>
