<svg width="221" height="78" viewBox="0 0 221 78" fill="none" xmlns="http://www.w3.org/2000/svg">
<path fill-rule="evenodd" clip-rule="evenodd" d="M10.3104 1.09423e-06C5.89211 -0.00228429 2.1923 3.57564 2.04663 7.99152L0.00443134 69.9C-0.141237 74.3159 3.32241 77.8975 7.74068 77.8998L209.821 78.0044C214.239 78.0067 217.939 74.4288 218.085 70.0129L220.127 8.10437C220.272 3.68849 216.809 0.106866 212.391 0.10458L10.3104 1.09423e-06ZM21.1962 30.4396C22.856 28.7396 25.0417 28.0313 27.217 28.0313C29.3923 28.0313 31.5775 28.7396 33.2379 30.4396L34.3004 31.573L35.3629 30.4396C38.6821 27.1813 44.0853 27.1813 47.4045 30.4396C50.7238 33.8396 50.6331 39.0813 47.4045 42.4813L34.3004 56.3647L21.1962 42.4813C17.9679 39.0813 17.8768 33.8396 21.1962 30.4396Z" fill="#73A8F7"/>
<path d="M72.5041 36.4967C72.3781 36.4966 72.2024 36.5175 71.977 36.5594C71.7656 36.6013 71.547 36.6501 71.3211 36.706C71.1093 36.7618 70.9114 36.8177 70.7276 36.8736C70.5578 36.9295 70.4514 36.9714 70.4084 36.9994C70.7743 36.9436 71.1124 36.8808 71.4227 36.811C71.7334 36.7272 72.0708 36.6854 72.4348 36.6856C72.3607 36.8115 72.2664 36.9094 72.1521 36.9793C72.0378 37.0492 71.91 37.1051 71.7686 37.147C71.6417 37.1749 71.5007 37.2028 71.3458 37.2307C71.1914 37.2446 71.0294 37.2725 70.8601 37.3144L70.7193 37.1254C70.4501 37.2233 70.245 37.2861 70.1041 37.314C69.9636 37.3279 69.8164 37.3349 69.6624 37.3348C69.4944 37.3347 69.3194 37.3346 69.1374 37.3345C68.9698 37.3204 68.7811 37.3133 68.5711 37.3132C68.5687 37.3832 68.5599 37.4392 68.5445 37.4811C68.8665 37.4813 69.1395 37.4814 69.3635 37.4816C69.588 37.4677 69.8619 37.4398 70.1853 37.398C69.8754 37.4538 69.6011 37.4957 69.3621 37.5235C69.1372 37.5514 68.8637 37.5653 68.5417 37.5651C68.4751 37.8869 68.4157 38.2017 68.3636 38.5095C68.3114 38.8173 68.2805 39.1181 68.2708 39.412C68.2653 39.5799 68.2658 39.7758 68.2724 39.9997C68.2791 40.2236 68.2854 40.4544 68.2916 40.6923C68.3122 40.9162 68.326 41.1331 68.3331 41.343C68.3407 41.5389 68.3428 41.6858 68.3396 41.7838L68.298 43.0431C68.3588 43.323 68.5549 43.533 68.8863 43.673C69.2177 43.8131 69.6983 43.8834 70.3283 43.8837L71.0003 43.884C71.2383 43.8842 71.3984 43.9122 71.4806 43.9682C71.5772 44.0103 71.6241 44.0733 71.6213 44.1572C71.619 44.2272 71.5617 44.2691 71.4492 44.2831C71.3372 44.283 71.2252 44.2829 71.1132 44.2829C70.7072 44.2827 70.2811 44.2545 69.835 44.1983C69.4168 44.1421 69.0059 44.0789 68.6022 44.0087C69.005 44.1069 69.429 44.1981 69.8742 44.2822C70.3339 44.3524 70.7807 44.3877 71.2147 44.3879L71.4037 44.388C71.4597 44.388 71.523 44.381 71.5934 44.3671C71.5911 44.437 71.589 44.5 71.5872 44.556C71.5993 44.612 71.6183 44.6749 71.644 44.7449L71.8133 44.703C71.8558 44.6891 71.905 44.6821 71.961 44.6821C72.0175 44.6681 72.0602 44.6472 72.0891 44.6192C72.5357 44.6614 72.7547 44.8154 72.7459 45.0813C72.7408 45.2352 72.6947 45.3611 72.6074 45.459C72.5202 45.5569 72.4127 45.6338 72.2848 45.6897C72.157 45.7457 72.0156 45.7876 71.8607 45.8155C71.7062 45.8294 71.559 45.8363 71.419 45.8362C70.929 45.836 70.4469 45.8077 69.9727 45.7515C69.513 45.6813 69.0603 45.6111 68.6147 45.5409C69.002 45.6811 69.4953 45.7932 70.0946 45.8775C70.6938 45.9618 71.3014 46.0041 71.9174 46.0044C71.7602 46.1023 71.5757 46.1791 71.3638 46.235C71.152 46.2908 70.934 46.3187 70.71 46.3186L69.2043 46.1289C69.0092 46.1008 68.8561 46.0728 68.745 46.0447C68.648 46.0167 68.5509 45.9887 68.4538 45.9606C68.3572 45.9186 68.2466 45.8766 68.122 45.8345C68.0113 45.7925 67.852 45.7434 67.6438 45.6873L67.6514 45.4565C67.2907 45.3583 67.0022 45.1903 66.786 44.9523C66.5699 44.7143 66.4034 44.4554 66.2867 44.1754C66.1699 43.8955 66.0951 43.6156 66.0624 43.3358C66.03 43.0419 66.0176 42.783 66.025 42.5592C66.0328 42.3213 66.04 42.1044 66.0464 41.9085C66.0674 41.6986 66.0813 41.4887 66.0882 41.2789C66.0933 41.1249 66.0927 40.929 66.0866 40.6912C66.0944 40.4533 66.0957 40.2014 66.0905 39.9356C66.0853 39.6697 66.0803 39.3968 66.0755 39.117C66.0847 38.8371 66.0935 38.5713 66.1018 38.3194C66.1069 38.1655 66.1117 38.0186 66.1164 37.8787C66.135 37.7388 66.1531 37.6128 66.1708 37.5009L65.9608 37.5008C65.9436 37.5987 65.9329 37.7107 65.9287 37.8366L65.9163 38.2144C65.9029 38.6202 65.8965 39.0259 65.8971 39.4317C65.8982 39.8235 65.8932 40.1873 65.8821 40.5232C65.885 40.859 65.8894 41.1528 65.895 41.4047C65.9012 41.6426 65.9024 41.8175 65.8987 41.9294L65.871 42.769L65.8655 42.9369C65.836 42.5591 65.8117 42.0203 65.7928 41.3207C65.7776 40.5091 65.7861 39.6136 65.8184 38.6341L65.8309 38.2563C65.836 38.1024 65.8408 37.9555 65.8454 37.8156C65.8641 37.6756 65.8885 37.5707 65.9188 37.5008L65.2062 37.4584C65.0554 37.3604 64.904 37.2834 64.7518 37.2273C64.5997 37.1713 64.4606 37.1432 64.3346 37.1431L64.3484 36.7234C64.3512 36.6394 64.3605 36.5694 64.3764 36.5135C64.4067 36.4435 64.4778 36.4086 64.5898 36.4087C64.6178 36.4087 64.6874 36.4227 64.7984 36.4507L64.8068 36.1989C64.6555 36.1148 64.5332 36.0028 64.4398 35.8629C64.3469 35.7089 64.303 35.555 64.3081 35.401C64.3201 35.0372 64.5851 34.8555 65.1031 34.8557C65.2991 34.8558 65.5016 34.8699 65.7107 34.898C65.9198 34.9261 66.1361 34.9472 66.3596 34.9613C66.4258 34.6535 66.4838 34.3807 66.5336 34.1429C66.5839 33.891 66.6338 33.6532 66.6831 33.4293C66.733 33.1915 66.7896 32.9606 66.853 32.7368C66.9168 32.4989 66.9949 32.2541 67.0872 32.0023C67.2225 31.7225 67.3304 31.4217 67.411 31.0999C67.4921 30.7641 67.5519 30.4353 67.5905 30.1135L68.0308 30.1347C68.1008 30.1348 68.1562 30.1558 68.1968 30.1978C68.2514 30.2398 68.2762 30.3378 68.2711 30.4917C68.2669 30.6176 68.2404 30.7855 68.1915 30.9954L68.4414 31.0585C68.5658 30.6807 68.709 30.373 68.8708 30.1352C69.0467 29.8974 69.2116 29.7785 69.3656 29.7786C69.6036 29.7787 69.7407 30.0797 69.7768 30.6814L69.7644 31.0591C69.7524 31.423 69.7131 31.7657 69.6465 32.0875C69.5943 32.3954 69.5281 32.7032 69.448 33.011C69.3678 33.3188 69.2875 33.6335 69.2068 33.9553C69.1262 34.2771 69.0517 34.6269 68.9832 35.0047C69.2898 35.0468 69.5901 35.0679 69.8841 35.0681C70.0241 35.0682 70.1641 35.0682 70.3041 35.0683C70.4446 35.0544 70.5848 35.0475 70.7248 35.0475C70.8648 35.0476 71.0137 34.9917 71.1714 34.8799C71.3291 34.768 71.4709 34.7121 71.5969 34.7122C71.7089 34.7122 71.7918 34.7473 71.8454 34.8172C71.8991 34.8872 71.9246 34.9642 71.9218 35.0482C71.6675 35.118 71.413 35.1948 71.1582 35.2786C70.9179 35.3485 70.6846 35.4183 70.4583 35.4882C70.6832 35.4603 70.9228 35.4115 71.1771 35.3416C71.4319 35.2578 71.7004 35.181 71.9828 35.1112C71.9804 35.1811 71.9784 35.2441 71.9765 35.3001C71.9887 35.356 72.0076 35.419 72.0333 35.489C72.0613 35.489 72.0965 35.482 72.139 35.4681C72.2239 35.4401 72.2734 35.4261 72.2874 35.4262C72.4251 35.4962 72.5131 35.5872 72.5514 35.6991C72.5901 35.7971 72.6074 35.9091 72.6033 36.035C72.6001 36.1329 72.5831 36.2239 72.5523 36.3078C72.522 36.3778 72.5059 36.4407 72.5041 36.4967ZM66.6836 44.2386C66.5 43.8607 66.4073 43.4899 66.4053 43.1261C66.4033 42.7622 66.3936 42.4194 66.3762 42.0976L66.2924 38.9072L66.217 39.285C66.1861 40.2225 66.1859 41.076 66.2165 41.8456C66.2616 42.6013 66.3402 43.189 66.4523 43.6088C66.4482 43.7348 66.4384 43.8187 66.423 43.8607C66.4217 43.9027 66.4205 43.9376 66.4196 43.9656C66.4187 43.9936 66.4315 44.0286 66.4581 44.0706C66.4987 44.1126 66.5739 44.1686 66.6836 44.2386ZM67.918 43.1058C67.8937 42.9939 67.8836 42.875 67.8877 42.749L67.9217 41.7206C67.903 41.8605 67.8844 42.0004 67.8658 42.1403C67.8477 42.2663 67.8363 42.3992 67.8317 42.5391C67.8197 42.9029 67.8314 43.1828 67.867 43.3787C67.9034 43.5466 67.9828 43.6866 68.1051 43.7986C68.0379 43.7146 67.9919 43.6236 67.9671 43.5257C67.9568 43.4137 67.9404 43.2738 67.918 43.1058ZM65.8817 43.0838L65.8655 42.9369L65.8817 43.0838ZM68.1464 43.8196C68.1329 43.8056 68.1191 43.7986 68.1051 43.7986C68.1191 43.7986 68.1329 43.8056 68.1464 43.8196ZM77.9117 46.7211C77.866 46.833 77.8422 46.917 77.8404 46.9729C77.839 47.0149 77.8509 47.0779 77.8762 47.1619L75.3903 46.7618L75.3931 46.6778C75.2951 46.6778 75.2488 46.5938 75.2544 46.4259C75.2581 46.314 75.2758 46.202 75.3075 46.0901C75.3392 45.9782 75.3632 45.8872 75.3795 45.8173C75.5136 45.1457 75.6186 44.5091 75.6945 43.9075C75.7843 43.3058 75.8613 42.6692 75.9255 41.9976C75.9689 40.6823 75.9731 39.4929 75.9382 38.4295C75.9177 37.352 75.9246 36.2956 75.9587 35.2601C75.9878 34.3786 76.0559 33.5881 76.163 32.8885C76.27 32.1889 76.336 31.4613 76.361 30.7058C76.3785 30.174 76.3753 29.6353 76.3513 29.0896L76.837 29.0059C76.879 29.0059 76.9201 29.0339 76.9603 29.0899C77.0009 29.1319 77.0327 29.2299 77.0556 29.3838C77.079 29.5237 77.0933 29.7266 77.0985 29.9925C77.1182 30.2444 77.1213 30.5732 77.108 30.979L77.36 30.9791C77.4193 30.0277 77.5073 29.2721 77.6237 28.7125C77.7542 28.1528 77.8964 27.873 78.0504 27.8731C78.1904 27.8732 78.3044 28.0272 78.3922 28.3351C78.4805 28.6289 78.5444 29.0278 78.5837 29.5315C78.6371 30.0353 78.6672 30.609 78.674 31.2527C78.6947 31.8963 78.6938 32.561 78.6712 33.2466L78.5839 35.8912C78.8741 35.5835 79.2333 35.3038 79.6616 35.0522C80.104 34.8005 80.5841 34.6748 81.1021 34.6751C81.8581 34.6755 82.4889 34.8647 82.9944 35.2428C83.5144 35.6069 83.9404 36.0619 84.2724 36.6077C84.6049 37.1396 84.8519 37.7135 85.0136 38.3292C85.1898 38.931 85.3122 39.4628 85.381 39.9246C85.4418 40.2044 85.4944 40.5193 85.5389 40.8691C85.5973 41.219 85.6416 41.5758 85.6715 41.9397C85.7015 42.3035 85.7175 42.6673 85.7195 43.0311C85.7355 43.3949 85.7385 43.7307 85.7283 44.0386C85.7269 44.0806 85.716 44.1995 85.6955 44.3954C85.6895 44.5773 85.6691 44.7732 85.6342 44.983C85.5992 45.1929 85.551 45.3818 85.4895 45.5497C85.4279 45.7175 85.3482 45.8015 85.2502 45.8014C85.2222 45.8014 85.2014 45.7944 85.1878 45.7804C85.2265 45.4586 85.2578 45.1438 85.282 44.8359C85.3062 44.5281 85.3235 44.2133 85.3342 43.8915C85.3586 43.1499 85.3339 42.4152 85.2599 41.6876C85.198 41.0159 85.0944 40.3372 84.949 39.6515C85.0687 40.2672 85.1536 40.8759 85.2038 41.4777C85.2665 42.1213 85.2873 42.765 85.2661 43.4087C85.2407 44.1783 85.174 44.9268 85.066 45.6544C84.9242 45.7103 84.8148 45.8432 84.7378 46.053C84.6749 46.2629 84.6115 46.4867 84.5477 46.7246C84.4838 46.9624 84.3999 47.1722 84.2959 47.3541C84.2055 47.5499 84.0622 47.6478 83.8662 47.6477C83.7962 47.6477 83.7348 47.5987 83.6821 47.5007C83.6428 47.4167 83.6045 47.3048 83.5672 47.1648C83.5293 47.0389 83.4989 46.8989 83.476 46.745C83.4675 46.5771 83.4656 46.4231 83.4702 46.2832C83.4735 46.1853 83.4902 46.1013 83.5205 46.0314C83.5508 45.9614 83.5816 45.8775 83.6128 45.7796C83.6799 45.4438 83.726 45.108 83.7511 44.7722C83.7906 44.4224 83.8164 44.0656 83.8284 43.7018C83.8422 43.282 83.8367 42.8132 83.8118 42.2955C83.7869 41.7778 83.7342 41.253 83.6537 40.7212C83.5732 40.1895 83.4641 39.6787 83.3262 39.1889C83.1889 38.6851 83.0074 38.2442 82.7819 37.8663C82.5708 37.4744 82.3149 37.1664 82.0143 36.9424C81.7142 36.7044 81.3681 36.5852 80.9761 36.585C80.6681 36.5849 80.3837 36.7177 80.1229 36.9834C79.8766 37.2351 79.6488 37.5638 79.4394 37.9695C79.2445 38.3612 79.0689 38.8019 78.9128 39.2915C78.7711 39.7672 78.6441 40.2219 78.5318 40.6556L78.5283 40.7606C78.6266 40.3269 78.7462 39.8861 78.8869 39.4385C79.0417 38.9908 79.2233 38.5781 79.4318 38.2004C79.6547 37.8087 79.9108 37.473 80.2 37.1933C80.4893 36.9136 80.8243 36.7319 81.205 36.6481C81.541 36.6483 81.8381 36.7674 82.0963 37.0054C82.3544 37.2434 82.575 37.5584 82.7581 37.9502C82.9556 38.3281 83.1163 38.762 83.2402 39.2518C83.3785 39.7276 83.4818 40.2034 83.5501 40.6792C83.6324 41.155 83.6874 41.6098 83.7151 42.0436C83.7432 42.4634 83.7527 42.8132 83.7435 43.093C83.7287 43.5408 83.6929 43.9885 83.6362 44.4363C83.5798 44.87 83.5098 45.2968 83.4259 45.7165C83.3758 45.1148 83.3475 44.4851 83.3412 43.8275C83.3349 43.1698 83.3074 42.5191 83.2586 41.8754C83.2099 41.2318 83.1256 40.602 83.0059 39.9863C82.8867 39.3566 82.6891 38.7688 82.4131 38.2229L82.6042 38.1601C82.486 37.9221 82.3728 37.7472 82.2645 37.6352C82.1702 37.5232 82.0749 37.4392 81.9788 37.3831C81.8966 37.3271 81.8003 37.2781 81.6896 37.2361C81.5795 37.18 81.4565 37.089 81.3206 36.963L81.0056 36.9629C80.5296 36.9626 80.0879 37.4101 79.6803 38.3055C79.2728 39.2008 78.8812 40.4599 78.5057 42.0829L78.3991 43.4051C78.502 42.8315 78.6285 42.1809 78.7785 41.4533C78.9429 40.7118 79.1268 40.0193 79.33 39.3757C79.5477 38.7182 79.7897 38.1726 80.056 37.739C80.3368 37.2913 80.6522 37.0676 81.0022 37.0678C81.1562 37.0679 81.3366 37.1169 81.5433 37.215C81.7501 37.3131 81.9606 37.5091 82.1749 37.803C81.9863 37.579 81.7959 37.411 81.6036 37.299C81.4113 37.187 81.2381 37.1309 81.0841 37.1308L80.9364 37.1517C80.6564 37.1516 80.4056 37.3264 80.1841 37.6761C79.9626 38.0258 79.7516 38.4804 79.5511 39.04C79.3651 39.5856 79.1973 40.2152 79.0478 40.9288C78.8987 41.6283 78.7564 42.3349 78.6209 43.0484C78.4858 43.748 78.3584 44.4266 78.2387 45.0841C78.1335 45.7278 78.0245 46.2734 77.9117 46.7211ZM77.4806 47.0567C77.5655 47.0288 77.6159 46.9868 77.6318 46.9309C77.6616 46.8749 77.6905 46.8469 77.7185 46.8469L77.9022 45.7346L77.5316 46.7839L77.4645 46.9098C77.2269 46.8957 76.9968 46.8676 76.7742 46.8255C76.5792 46.7974 76.3701 46.7693 76.147 46.7412C75.9384 46.6991 75.7505 46.664 75.5835 46.636C75.5456 46.51 75.5276 46.419 75.5295 46.3631C75.5299 46.3491 75.5304 46.3351 75.5308 46.3211C75.5453 46.3071 75.5528 46.2931 75.5532 46.2791L75.4069 46.2581C75.4275 46.482 75.4442 46.6149 75.4568 46.6569C75.4838 46.6849 75.5179 46.7129 75.559 46.7409L77.4806 47.0567ZM82.9351 35.7675C82.6616 35.5714 82.3656 35.4174 82.0473 35.3053C81.7295 35.1792 81.3956 35.116 81.0456 35.1159C80.4856 35.1156 79.9975 35.2692 79.5813 35.5769C79.1656 35.8705 78.8258 36.1991 78.5618 36.5628L78.5597 36.6258C78.6917 36.4439 78.8375 36.2691 78.997 36.1013C79.171 35.9195 79.3581 35.7656 79.5583 35.6398C79.7589 35.5 79.9866 35.3882 80.2413 35.3043C80.4961 35.2205 80.7845 35.1787 81.1065 35.1789C81.7365 35.1792 82.2905 35.3614 82.7685 35.7254C83.2605 36.0895 83.6797 36.5375 84.0262 37.0694C83.88 36.8314 83.7196 36.6005 83.545 36.3765C83.3844 36.1525 83.1811 35.9495 82.9351 35.7675ZM84.9119 39.5045L84.949 39.6515L84.9119 39.5045ZM88.9516 45.9083C89.0205 45.5165 89.0845 45.0618 89.1436 44.5441C89.2171 44.0124 89.2836 43.4807 89.3432 42.949C89.4027 42.4173 89.4618 41.8996 89.5204 41.3959C89.5795 40.8782 89.6363 40.4305 89.6907 40.0527C89.6083 40.4305 89.5309 40.8642 89.4588 41.3539C89.3866 41.8436 89.314 42.3473 89.2409 42.865C89.1679 43.3827 89.0948 43.9004 89.0217 44.4181C88.9491 44.9218 88.8851 45.3765 88.8297 45.7823C88.6243 45.6422 88.5256 45.4533 88.5334 45.2154C88.5426 44.9356 88.5572 44.7047 88.5772 44.5228C88.5977 44.3269 88.6261 44.103 88.6624 43.8512L88.9003 43.6414C88.8886 43.5715 88.8837 43.5085 88.8856 43.4525L88.8925 43.2426C88.9031 42.9208 88.9501 42.557 89.0335 42.1513C89.1173 41.7315 89.2082 41.3118 89.306 40.8921C89.4183 40.4584 89.516 40.0456 89.5989 39.6539C89.6823 39.2481 89.7288 38.8984 89.7385 38.6045L89.4886 38.5414C89.4495 38.8772 89.3948 39.262 89.3245 39.6957C89.2546 40.1155 89.1771 40.5562 89.0919 41.0179C89.0211 41.4656 88.9503 41.9134 88.8796 42.3611C88.8437 42.5989 88.8083 42.8228 88.7734 43.0327C88.8143 42.6409 88.8632 42.2212 88.9199 41.7734C89.0112 41.1298 89.1022 40.4932 89.193 39.8636C89.2982 39.22 89.396 38.5903 89.4863 37.9747C89.5766 37.3591 89.6653 36.7924 89.7523 36.2748C89.7593 36.0649 89.8157 35.841 89.9215 35.6032C90.0418 35.3514 90.1273 35.0926 90.1781 34.8267C90.2612 34.8548 90.3307 34.8688 90.3867 34.8688L90.5337 34.8689C90.6737 34.869 90.7636 34.904 90.8033 34.974C90.8434 35.03 90.8617 35.1139 90.858 35.2259L90.8545 35.3308L91.0414 35.3939C91.1603 35.1841 91.2989 35.0162 91.457 34.8904C91.6152 34.7645 91.7713 34.7016 91.9253 34.7017C92.2613 34.7019 92.4175 35.0588 92.394 35.7724C92.3815 36.1502 92.3261 36.5559 92.2278 36.9897C92.144 37.4094 92.0953 37.8221 92.082 38.2279L92.073 38.5008C92.0582 38.9485 91.993 39.4382 91.8775 39.9699C91.7624 40.4876 91.6329 41.0192 91.4889 41.5649C91.3593 42.0965 91.2373 42.6142 91.1226 43.1179C91.008 43.6215 90.9438 44.0833 90.9299 44.503C90.9267 44.601 90.9302 44.7059 90.9406 44.8179C90.9509 44.9298 90.9544 45.0348 90.9512 45.1327C90.9442 45.3426 90.8979 45.4755 90.812 45.5314C90.7406 45.5734 90.6489 45.5943 90.5369 45.5942C90.5429 45.4123 90.5433 45.1885 90.5381 44.9226C90.5329 44.6567 90.5337 44.4189 90.5406 44.209C90.5076 44.3629 90.4866 44.5728 90.4779 44.8386C90.4691 45.1045 90.4468 45.3563 90.4109 45.5942L90.0959 45.594L90.0876 45.8459C89.9542 46.0697 89.7826 46.1815 89.5726 46.1814C89.4746 46.1814 89.3635 46.1533 89.2393 46.0973C89.1152 46.0413 89.0192 45.9783 88.9516 45.9083ZM93.8093 29.7913C93.5667 29.9311 93.3437 30.1129 93.1403 30.3366C92.9369 30.5604 92.7267 30.7772 92.5098 30.987C92.6386 30.9031 92.7536 30.8122 92.8548 30.7143C92.9561 30.6164 93.0573 30.5185 93.1585 30.4206C93.2737 30.3227 93.389 30.2248 93.5042 30.1269C93.6334 30.0291 93.7764 29.9382 93.9332 29.8543C93.9734 29.9103 94.0067 29.9593 94.0334 30.0013C94.074 30.0433 94.0936 30.0853 94.0922 30.1272L93.5933 30.6097C93.5942 30.5817 93.5671 30.5537 93.5121 30.5257C93.471 30.4977 93.4364 30.4837 93.4084 30.4837C93.3618 30.6236 93.2881 30.7355 93.1874 30.8194C93.0866 30.9033 92.986 30.9802 92.8857 31.0501C92.7854 31.12 92.6849 31.1969 92.5841 31.2808C92.4834 31.3648 92.4097 31.4767 92.363 31.6166L92.3617 31.6585C92.3612 31.6725 92.382 31.6795 92.424 31.6796L93.5065 30.6936L93.0944 31.0922C92.8919 31.288 92.6752 31.4908 92.4443 31.7006C92.2278 31.8963 92.019 32.0711 91.818 32.225C91.6309 32.3788 91.5164 32.4557 91.4744 32.4557L91.454 32.4347C91.357 32.4066 91.2524 32.3926 91.1404 32.3925C91.0424 32.3925 90.9377 32.3854 90.8261 32.3714C90.8298 32.2594 90.8127 32.1405 90.7749 32.0145C90.751 31.8886 90.7403 31.7906 90.7426 31.7207C90.7449 31.6507 90.781 31.6157 90.851 31.6158C90.8524 31.5738 90.8265 31.5108 90.7733 31.4268C90.7345 31.3289 90.689 31.2239 90.6367 31.1119C90.5848 30.986 90.533 30.86 90.4811 30.734C90.4437 30.5941 90.4274 30.4542 90.432 30.3142C90.4366 30.1743 90.497 30.0414 90.6131 29.9155C90.7437 29.7757 90.8877 29.6568 91.0449 29.559C91.2161 29.4611 91.3799 29.3772 91.5362 29.3073C91.6925 29.2375 91.8061 29.1885 91.8771 29.1606C91.9331 29.1606 91.955 29.1327 91.9428 29.0767C91.9311 29.0067 91.9533 28.9717 92.0093 28.9718L92.3831 29.0979C92.3528 29.1678 92.2579 29.2867 92.0984 29.4546C91.9533 29.6084 91.8446 29.7203 91.7723 29.7902C91.8726 29.7203 91.9881 29.6154 92.1187 29.4756C92.2633 29.3357 92.3717 29.2308 92.4441 29.1609C92.5131 29.1889 92.5752 29.2169 92.6303 29.2449C92.6854 29.273 92.7269 29.287 92.7549 29.287L92.82 29.2241C92.918 29.2241 93.0223 29.2451 93.1329 29.2872C93.2575 29.3292 93.3679 29.3783 93.4641 29.4343C93.5602 29.4903 93.6421 29.5533 93.7098 29.6233C93.7775 29.6933 93.8107 29.7493 93.8093 29.7913ZM88.7148 43.5364C88.7339 43.3825 88.7529 43.2286 88.772 43.0747C88.7525 43.2426 88.7334 43.3965 88.7148 43.5364ZM96.1035 45.6601C96.1058 45.5901 96.1295 45.5062 96.1748 45.4083C96.22 45.3103 96.2445 45.2054 96.2482 45.0935C96.3012 44.7577 96.3371 44.5198 96.3557 44.3799C96.3748 44.226 96.3862 44.0931 96.3899 43.9811C96.4092 43.3934 96.409 42.7638 96.3892 42.0921C96.3838 41.4065 96.3705 40.7488 96.3493 40.1191C96.3557 39.9232 96.3563 39.6924 96.3511 39.4265C96.3599 39.1607 96.3528 38.9508 96.3299 38.7968C96.388 38.3071 96.4389 37.8244 96.4826 37.3487C96.5263 36.8729 96.5563 36.3902 96.5724 35.9005L96.5897 35.3758C96.5957 35.1939 96.5947 35.012 96.5867 34.83C96.6273 34.872 96.6686 34.8931 96.7106 34.8931C96.7666 34.8931 96.8233 34.8722 96.8807 34.8302C96.9521 34.7883 97.0158 34.7673 97.0718 34.7673C97.1698 34.7674 97.2433 34.8724 97.2924 35.0823C97.3555 35.2922 97.3753 35.754 97.3517 36.4676L97.5407 36.4677C97.6366 35.6841 97.7621 35.0615 97.9173 34.5999C98.0866 34.1382 98.2482 33.9074 98.4022 33.9075C98.4722 33.9075 98.5791 34.0615 98.723 34.3694C98.8673 34.6633 98.9288 35.1321 98.9076 35.7758L99.151 35.3981C99.311 35.2163 99.4853 35.0274 99.6737 34.8316C99.8762 34.6359 100.099 34.4611 100.342 34.3073C100.585 34.1535 100.855 34.0277 101.152 33.9299C101.45 33.8181 101.788 33.7623 102.166 33.7625C102.894 33.7629 103.518 33.9311 104.039 34.2672C104.575 34.5893 105.016 35.0163 105.362 35.5482C105.709 36.0661 105.983 36.661 106.185 37.3327C106.402 37.9905 106.561 38.6622 106.665 39.3479C106.769 40.0196 106.831 40.6703 106.852 41.3C106.874 41.9296 106.877 42.4684 106.862 42.9161C106.849 43.3219 106.813 43.5667 106.754 43.6507C106.71 43.7206 106.624 43.7625 106.498 43.7765C106.505 42.699 106.472 41.6006 106.396 40.4812C106.321 39.3617 106.091 38.2772 105.706 37.2275C106.047 38.3331 106.249 39.4246 106.312 40.5021C106.389 41.5656 106.409 42.636 106.374 43.7134C106.291 43.6714 106.215 43.6504 106.145 43.6504C106.089 43.6503 106.039 43.6713 105.996 43.7132C105.992 43.8252 105.995 43.9441 106.005 44.0701C106.015 44.182 106.019 44.2939 106.015 44.4059C106.025 44.5178 106.029 44.6228 106.026 44.7207C105.931 45.0425 105.839 45.2733 105.751 45.4132C105.662 45.5531 105.583 45.623 105.513 45.623C105.429 45.6229 105.36 45.5879 105.306 45.5179C105.253 45.434 105.2 45.336 105.148 45.224C105.11 45.112 105.065 44.9931 105.013 44.8671C104.975 44.7272 104.917 44.5942 104.837 44.4682C104.873 44.2304 104.9 44.0415 104.919 43.9016C104.938 43.7477 104.949 43.6217 104.952 43.5238C104.965 43.146 104.973 42.6913 104.976 42.1595C104.98 41.6278 104.956 41.0751 104.905 40.5014C104.868 39.9137 104.789 39.3329 104.668 38.7592C104.562 38.1714 104.397 37.6536 104.173 37.2057C103.965 36.7439 103.69 36.3729 103.349 36.0929C103.009 35.7989 102.594 35.6517 102.104 35.6515C101.768 35.6513 101.463 35.7631 101.19 35.9868C100.93 36.2106 100.697 36.4973 100.489 36.847C100.296 37.1967 100.122 37.5814 99.9682 38.0011C99.8148 38.4068 99.6899 38.7986 99.5934 39.1763C99.7323 38.7846 99.8715 38.3859 100.011 37.9802C100.164 37.5745 100.337 37.2037 100.531 36.868C100.738 36.5323 100.971 36.2596 101.23 36.0498C101.489 35.8261 101.787 35.7143 102.123 35.7145C102.557 35.7147 102.924 35.8338 103.224 36.0718C103.538 36.3099 103.794 36.6178 103.991 36.9957C104.203 37.3737 104.364 37.8075 104.473 38.2973C104.598 38.7731 104.687 39.2629 104.74 39.7667C104.794 40.2564 104.82 40.7392 104.818 41.2149C104.831 41.6767 104.832 42.0755 104.821 42.4113C104.812 42.6772 104.796 42.943 104.773 43.2089C104.765 43.4747 104.749 43.7476 104.725 44.0274C104.617 43.4956 104.537 42.9429 104.486 42.3692C104.45 41.7815 104.405 41.2077 104.354 40.648C104.303 40.0743 104.23 39.5285 104.135 39.0108C104.054 38.479 103.924 37.9892 103.742 37.5413L103.896 37.3315C103.767 37.0096 103.614 36.7647 103.438 36.5967C103.276 36.4147 103.112 36.2817 102.947 36.1976C102.781 36.1136 102.629 36.0645 102.49 36.0505C102.35 36.0364 102.259 36.0294 102.217 36.0293C101.867 36.0292 101.548 36.1549 101.26 36.4066C100.985 36.6584 100.736 37.0011 100.512 37.4347C100.302 37.8544 100.111 38.344 99.9384 38.9036C99.7659 39.4633 99.6136 40.0509 99.4812 40.6665C99.3489 41.2821 99.2304 41.9047 99.1256 42.5343C99.0213 43.1499 98.9322 43.7306 98.8582 44.2762L99.0472 44.2763C99.1329 43.8006 99.2202 43.276 99.3091 42.7023C99.412 42.1287 99.5152 41.548 99.6186 40.9604C99.7364 40.3588 99.8676 39.7781 100.012 39.2185C100.156 38.6589 100.32 38.1552 100.503 37.7076C100.7 37.2599 100.922 36.8962 101.169 36.6165C101.402 36.3507 101.68 36.197 102.003 36.1552C101.693 36.225 101.427 36.4207 101.207 36.7424C100.972 37.0781 100.762 37.4908 100.578 37.9805C100.394 38.4701 100.222 39.0087 100.063 39.5963C99.9176 40.17 99.7804 40.7226 99.6509 41.2543L99.1298 44.3184C99.0673 44.5142 99.0195 44.6891 98.9865 44.843L98.8879 45.2837C98.8553 45.4236 98.8222 45.5775 98.7887 45.7454C98.7556 45.8993 98.7146 46.0812 98.6657 46.2911L98.5944 46.5429L98.4684 46.5429L96.3709 45.8281C96.3014 45.8141 96.2461 45.7931 96.205 45.7651C96.1779 45.7371 96.1441 45.7021 96.1035 45.6601ZM100.113 34.8948C99.8248 35.1326 99.5923 35.3913 99.415 35.6711C99.2523 35.9368 99.0963 36.2096 98.947 36.4894L98.9463 36.5104C99.1557 36.1047 99.4423 35.6921 99.8062 35.2725C100.155 34.8809 100.613 34.5873 101.179 34.3917C100.995 34.4475 100.819 34.5034 100.649 34.5593C100.45 34.6292 100.272 34.741 100.113 34.8948ZM102.655 34.2035C102.586 34.1895 102.488 34.1824 102.362 34.1824C102.806 34.2946 103.222 34.4207 103.61 34.5608C103.998 34.687 104.36 34.946 104.697 35.338C104.47 35.016 104.163 34.764 103.777 34.5819C103.405 34.3998 103.031 34.2737 102.655 34.2035ZM103.144 36.5965C103.034 36.5125 102.903 36.4495 102.751 36.4074C102.613 36.3514 102.44 36.2813 102.233 36.1973L102.213 36.1553C102.451 36.1694 102.659 36.2255 102.838 36.3235C103.017 36.4075 103.187 36.5616 103.347 36.7855L103.144 36.5965ZM104.738 35.38C104.926 35.618 105.099 35.8909 105.257 36.1988C105.415 36.5067 105.553 36.7797 105.671 37.0176C105.541 36.6957 105.418 36.4018 105.301 36.1359C105.184 35.87 104.996 35.618 104.738 35.38ZM117.978 39.6266L117.98 39.5846L117.439 39.4164L117.816 38.8079L120.248 39.5648C120.233 40.0266 120.238 40.5023 120.264 40.9921C120.305 41.4678 120.344 41.9576 120.384 42.4614C120.437 42.9651 120.476 43.4829 120.501 44.0146C120.54 44.5323 120.55 45.0571 120.533 45.5888C120.509 46.3024 120.422 47.023 120.272 47.7505C120.122 48.478 119.89 49.1706 119.574 49.8281C119.272 50.4855 118.874 51.094 118.38 51.6535C117.899 52.2129 117.303 52.6744 116.591 53.0378C116.205 53.2895 115.707 53.5201 115.098 53.7297C114.503 53.9533 113.918 54.0789 113.343 54.1066L113.091 54.1064C112.531 54.1062 112.064 54.0429 111.69 53.9168C111.316 53.8047 111.019 53.6716 110.8 53.5176C110.581 53.3775 110.424 53.2375 110.331 53.0975C110.251 52.9716 110.212 52.8946 110.212 52.8666C110.214 52.8106 110.243 52.7827 110.299 52.7827C110.723 53.1047 111.184 53.3359 111.683 53.476C112.183 53.6162 112.684 53.6865 113.188 53.6867C114.042 53.6872 114.839 53.5197 115.578 53.1842C116.289 52.8488 116.933 52.4293 117.51 51.9259C116.933 52.4153 116.283 52.8208 115.558 53.1422C114.82 53.4637 114.038 53.6242 113.212 53.6238C112.722 53.6235 112.241 53.5533 111.769 53.4131C111.312 53.273 110.886 53.0419 110.49 52.7198C110.532 52.7198 110.582 52.7059 110.639 52.6779C110.695 52.664 110.724 52.629 110.726 52.573L110.563 52.426C110.468 52.328 110.353 52.202 110.218 52.048C110.098 51.8941 109.985 51.7121 109.879 51.5021C109.788 51.2922 109.747 51.0683 109.755 50.8304C109.762 50.5926 109.857 50.4737 110.039 50.4738C110.179 50.4738 110.337 50.5649 110.513 50.7469C110.689 50.9289 110.9 51.1249 111.145 51.3349C111.39 51.5589 111.684 51.7619 112.028 51.944C112.386 52.1261 112.81 52.2173 113.3 52.2175C114 52.2179 114.635 52.0783 115.204 51.7988C115.773 51.5332 116.275 51.1626 116.71 50.6871C116.29 51.1347 115.802 51.4842 115.248 51.7358C114.708 51.9874 114.094 52.113 113.408 52.1127C112.988 52.1124 112.592 52.0423 112.218 51.9021C111.859 51.762 111.571 51.573 111.355 51.335C111.591 51.4051 111.882 51.4822 112.229 51.5663C112.591 51.6505 112.981 51.6927 113.401 51.6929C114.157 51.6933 114.829 51.4977 115.416 51.1062C116.016 50.7287 116.536 50.2463 116.975 49.6588L117.268 49.7009C117.608 49.1414 117.852 48.5398 118 47.8963C118.16 47.2667 118.252 46.6021 118.275 45.9024C118.291 45.4267 118.286 44.944 118.26 44.4542C118.234 43.9644 118.195 43.4677 118.141 42.9639L118.031 43.1108C118.085 43.6006 118.118 44.0833 118.131 44.5591C118.157 45.0209 118.163 45.4756 118.149 45.9234C118.13 46.4831 118.056 47.0357 117.926 47.5814C117.795 48.141 117.604 48.6517 117.35 49.1133C117.605 48.6237 117.79 48.099 117.906 47.5394C118.022 46.9937 118.091 46.4061 118.111 45.7764C118.053 45.4126 118.03 45.0488 118.042 44.685C118.054 44.3212 118.052 43.9574 118.036 43.5935L118.008 43.1737C117.906 43.3136 117.752 43.5094 117.548 43.7612C117.344 44.013 117.104 44.2647 116.83 44.5164C116.556 44.7542 116.248 44.9639 115.906 45.1456C115.578 45.3274 115.232 45.4181 114.868 45.4179L114.341 45.4806C113.599 45.4802 112.94 45.291 112.365 44.9129C111.789 44.5348 111.301 44.0588 110.9 43.4849C110.499 42.897 110.198 42.2602 109.997 41.5744C109.796 40.8747 109.706 40.203 109.727 39.5594C109.716 39.4894 109.711 39.4334 109.712 39.3914L109.718 39.2025C109.746 38.349 109.925 37.6145 110.253 36.999C110.582 36.3695 111.018 35.859 111.563 35.4675C112.122 35.076 112.769 34.7895 113.503 34.6079C114.237 34.4124 115.024 34.3149 115.864 34.3153C116.844 34.3158 117.834 34.4493 118.833 34.7156C118.748 34.7436 118.705 34.7925 118.702 34.8625C118.701 34.9185 118.706 34.9744 118.718 35.0304C118.745 35.0724 118.757 35.1214 118.755 35.1773L118.754 35.2193C118.709 35.2893 118.61 35.3242 118.456 35.3241C118.302 35.324 118.079 35.3029 117.786 35.2608C117.494 35.2187 117.083 35.1625 116.553 35.0923L116.545 35.3441C117.019 35.4003 117.422 35.4915 117.754 35.6176C118.086 35.7297 118.355 35.8558 118.56 35.9958C118.765 36.1358 118.908 36.2688 118.988 36.3948C119.082 36.5208 119.127 36.6258 119.125 36.7097C119.123 36.7657 119.086 36.8077 119.015 36.8356C118.959 36.8496 118.896 36.8565 118.826 36.8565C118.672 36.8564 118.393 36.8283 117.988 36.7721C117.598 36.7159 117.102 36.6877 116.5 36.6874C115.926 36.6871 115.386 36.7218 114.88 36.7915C114.373 36.8612 113.928 36.9939 113.544 37.1896C113.173 37.3853 112.877 37.658 112.656 38.0077C112.434 38.3574 112.314 38.8121 112.296 39.3718C112.28 39.8335 112.336 40.2743 112.462 40.6942C112.602 41.114 112.772 41.4849 112.971 41.8069C113.185 42.1288 113.421 42.3878 113.681 42.5838C113.941 42.7659 114.197 42.8569 114.449 42.8571C114.617 42.8572 114.824 42.7383 115.069 42.5006C115.329 42.2628 115.598 41.9691 115.876 41.6195C116.167 41.2698 116.445 40.8991 116.71 40.5075C116.975 40.1158 117.204 39.7661 117.396 39.4584L117.978 39.6266ZM117.083 43.8449C116.939 43.9848 116.779 44.1386 116.606 44.3064C116.433 44.4603 116.239 44.6071 116.024 44.7469C115.824 44.8727 115.596 44.9915 115.341 45.1033C115.085 45.2012 114.81 45.264 114.515 45.2918L114.66 45.3549C115.082 45.2991 115.471 45.1804 115.827 44.9987C116.184 44.8029 116.499 44.5792 116.773 44.3275C117.062 44.0758 117.315 43.817 117.534 43.5513C117.753 43.2856 117.942 43.0548 118.103 42.859L118.069 42.6071C117.937 42.7889 117.776 42.9917 117.587 43.2155C117.412 43.4393 117.244 43.6491 117.083 43.8449ZM118.549 45.8816C118.529 46.4973 118.446 47.0989 118.3 47.6865C118.156 48.2462 117.964 48.7708 117.724 49.2604C117.978 48.7568 118.185 48.2042 118.345 47.6026C118.52 46.987 118.617 46.3574 118.639 45.7137C118.649 45.3919 118.646 45.0631 118.629 44.7272C118.626 44.3914 118.616 44.0556 118.599 43.7198L118.535 42.4814L118.426 42.6073C118.464 43.153 118.495 43.6987 118.519 44.2444C118.557 44.7902 118.567 45.3359 118.549 45.8816ZM120.107 45.7565C120.132 45.0149 120.12 44.2942 120.073 43.5946C120.041 42.8949 119.993 42.2023 119.932 41.5166C119.967 42.1603 120.009 42.804 120.057 43.4477C120.107 44.0774 120.12 44.728 120.098 45.3997C120.083 45.8614 120.039 46.3511 119.965 46.8688C119.907 47.3725 119.806 47.8762 119.664 48.3799C119.521 48.8835 119.33 49.3732 119.09 49.8488C118.865 50.2964 118.586 50.7161 118.251 51.1077C118.832 50.4643 119.255 49.7369 119.52 48.9255C119.799 48.0861 119.988 47.2536 120.085 46.4281L120.107 45.7565ZM125.07 43.6392C125.292 43.7092 125.554 43.8353 125.856 44.0174C126.172 44.1994 126.522 44.3885 126.908 44.5846C127.293 44.7807 127.715 44.9558 128.172 45.11C128.643 45.2642 129.144 45.3414 129.676 45.3416L129.907 45.3418C129.991 45.3418 130.089 45.3279 130.202 45.2999L130.428 45.468C130.979 45.3003 131.438 44.9857 131.803 44.5242C132.169 44.0486 132.365 43.4121 132.391 42.6145C132.41 42.0408 132.283 41.6489 132.01 41.4389C131.751 41.2149 131.258 41.1027 130.53 41.1023C130.082 41.1021 129.612 41.1368 129.119 41.2065C128.642 41.2623 128.137 41.29 127.605 41.2897C127.367 41.2896 127.122 41.2825 126.87 41.2683C126.619 41.2402 126.362 41.1911 126.098 41.121L126.094 41.2469C126.649 41.3872 127.2 41.4574 127.746 41.4577C128.278 41.458 128.783 41.4302 129.261 41.3745C129.753 41.3048 130.223 41.2701 130.671 41.2703C131.049 41.2705 131.342 41.3126 131.549 41.3967C131.771 41.4668 131.936 41.5648 132.043 41.6908C132.151 41.8168 132.216 41.9707 132.238 42.1527C132.275 42.3206 132.289 42.5095 132.283 42.7194C132.261 43.377 132.067 43.9366 131.702 44.3982C131.352 44.8318 130.944 45.1044 130.478 45.2161C131.002 45.0345 131.419 44.7199 131.727 44.2723C132.051 43.7967 132.223 43.2651 132.242 42.6774C132.256 42.2576 132.154 41.9357 131.938 41.7117C131.735 41.4877 131.368 41.3756 130.836 41.3753C130.402 41.3751 129.911 41.4028 129.363 41.4585C128.815 41.5142 128.233 41.5419 127.617 41.5416C127.239 41.5414 126.8 41.4922 126.299 41.394C125.812 41.2958 125.349 41.1136 124.91 40.8475C124.471 40.5815 124.105 40.2175 123.812 39.7556C123.52 39.2797 123.386 38.6639 123.411 37.9083C123.431 37.3066 123.568 36.754 123.823 36.2504C124.092 35.7328 124.436 35.2852 124.854 34.9076C125.273 34.5161 125.745 34.2085 126.271 33.9849C126.81 33.7613 127.36 33.6426 127.92 33.6289C128.452 33.6292 128.954 33.7064 129.425 33.8606C129.91 34.0007 130.366 34.1899 130.792 34.428C131.219 34.6521 131.623 34.9042 132.006 35.1842C132.389 35.4643 132.744 35.7443 133.07 36.0243L132.637 36.4439C132.539 36.4438 132.393 36.3878 132.201 36.2757C132.009 36.1497 131.715 35.9397 131.319 35.6456L131.187 35.8344C131.677 36.2405 132.029 36.6185 132.241 36.9684C132.468 37.3183 132.578 37.5912 132.571 37.7871C132.54 37.899 132.468 37.955 132.356 37.9549C132.244 37.9549 132.023 37.8638 131.693 37.6817C131.363 37.4996 130.984 37.2966 130.558 37.0725C130.145 36.8484 129.704 36.6452 129.234 36.4631C128.764 36.2809 128.333 36.1898 127.941 36.1896C127.717 36.1895 127.491 36.2313 127.265 36.3152C127.038 36.399 126.831 36.5178 126.644 36.6716C126.457 36.8115 126.298 36.9863 126.165 37.1961C126.046 37.4059 125.982 37.6368 125.974 37.8887C125.96 38.2944 126.14 38.5674 126.514 38.7075C126.887 38.8476 127.382 38.9178 127.998 38.9182C128.124 38.9182 128.257 38.9183 128.397 38.9184C128.551 38.9045 128.692 38.8835 128.819 38.8556C129.141 38.8558 129.351 38.8489 129.45 38.835C129.563 38.807 129.668 38.7931 129.766 38.7931C130.368 38.7935 130.969 38.8357 131.568 38.92C132.167 39.0043 132.7 39.1865 133.167 39.4665C133.634 39.7466 134.005 40.1456 134.282 40.6635C134.559 41.1814 134.683 41.8741 134.655 42.7416C134.635 43.3433 134.51 43.9449 134.28 44.5464C134.065 45.134 133.746 45.6656 133.325 46.1411C132.903 46.6027 132.387 46.9732 131.776 47.2527C131.164 47.5463 130.452 47.6928 129.64 47.6924C129.15 47.6921 128.573 47.5939 127.907 47.3976C127.255 47.2154 126.632 46.9982 126.039 46.746C125.459 46.4799 124.964 46.2068 124.554 45.9267C124.157 45.6466 123.962 45.4087 123.968 45.2128C123.97 45.1568 124.006 45.1148 124.077 45.0869C124.911 45.717 125.761 46.2351 126.63 46.6414C127.486 47.0196 128.368 47.23 129.276 47.2724C128.829 47.2442 128.384 47.167 127.94 47.0409C127.483 46.9007 127.026 46.7325 126.571 46.5364C126.129 46.3263 125.703 46.0952 125.291 45.8431C124.894 45.577 124.511 45.311 124.142 45.0449L124.466 44.7722C124.424 44.7582 124.349 44.7092 124.24 44.6252C124.13 44.5412 124.022 44.4362 123.914 44.3102C123.82 44.1842 123.733 44.0512 123.654 43.9113C123.575 43.7713 123.537 43.6384 123.541 43.5124C123.546 43.3725 123.577 43.2816 123.634 43.2396C123.692 43.1977 123.755 43.1767 123.825 43.1768C123.895 43.1768 124.041 43.2258 124.261 43.3239C124.482 43.422 124.752 43.5271 125.07 43.6392ZM129.64 45.7824C129.15 45.7821 128.608 45.6839 128.012 45.4877C127.431 45.2775 126.88 45.0114 126.358 44.6893C126.783 44.9833 127.257 45.2494 127.781 45.4876C128.306 45.7117 128.918 45.824 129.618 45.8244C130.556 45.8248 131.308 45.5384 131.872 44.965C132.451 44.3916 132.757 43.6221 132.789 42.6567L132.796 42.4468C132.74 41.999 132.598 41.6351 132.37 41.3551C132.155 41.0612 131.811 40.9001 131.335 40.8719C131.628 40.928 131.863 41.0191 132.04 41.1451C132.232 41.2711 132.374 41.4251 132.466 41.6071C132.573 41.775 132.643 41.964 132.679 42.1739C132.714 42.3838 132.727 42.6007 132.72 42.8245C132.634 43.748 132.316 44.4755 131.766 45.0069C131.217 45.5243 130.508 45.7828 129.64 45.7824ZM132.28 46.6023C132.638 46.3786 132.927 46.1059 133.147 45.7842C133.368 45.4625 133.561 45.1268 133.727 44.777C133.413 45.3646 132.99 45.8821 132.457 46.3296C131.939 46.7771 131.327 47.0566 130.624 47.1682C130.891 47.1263 131.166 47.0705 131.448 47.0007C131.745 46.9169 132.022 46.7841 132.28 46.6023ZM134.406 42.6575C134.411 42.5036 134.388 42.3567 134.336 42.2167C134.298 42.1047 134.267 41.9858 134.243 41.8598L134.255 42.1327C134.265 42.2447 134.267 42.3986 134.261 42.5945C134.248 42.9723 134.194 43.336 134.099 43.6858C134.003 44.0356 133.887 44.3783 133.75 44.7141C133.886 44.4063 134.016 44.0846 134.139 43.7488C134.276 43.3991 134.365 43.0353 134.406 42.6575ZM134.245 41.7969C134.245 41.8109 134.244 41.8319 134.243 41.8598C134.244 41.8319 134.245 41.8109 134.245 41.7969ZM130.456 45.2371C130.442 45.2371 130.428 45.2371 130.414 45.2371C130.428 45.2371 130.442 45.2371 130.456 45.2371ZM145.858 45.7488C146.178 44.9514 146.409 44.091 146.552 43.1675C146.695 42.2301 146.81 41.2926 146.897 40.3552C146.901 40.2153 146.899 40.0823 146.889 39.9564C146.893 39.8445 146.896 39.7395 146.899 39.6416C146.823 40.677 146.705 41.7124 146.545 42.7477C146.398 43.8111 146.127 44.7905 145.734 45.6858C145.682 45.5738 145.643 45.4758 145.618 45.3919C145.592 45.3079 145.582 45.21 145.585 45.098C145.596 44.7622 145.664 44.4124 145.788 44.0487C145.912 43.6849 145.994 43.3072 146.035 42.9154L146.333 42.7896C146.356 42.104 146.406 41.4254 146.485 40.7538C146.563 40.0682 146.614 39.3826 146.636 38.6969C146.648 38.3471 146.645 38.0043 146.628 37.6685C146.625 37.3326 146.595 36.9828 146.537 36.619L146.411 36.6189C146.462 37.6124 146.473 38.5639 146.443 39.4734C146.428 39.9352 146.399 40.3759 146.357 40.7957C146.316 41.1874 146.254 41.5862 146.171 41.992C146.223 41.6841 146.261 41.3903 146.284 41.1105C146.322 40.7887 146.348 40.4459 146.36 40.0821C146.397 38.9487 146.386 37.8013 146.326 36.6399C146.281 35.4644 146.244 34.2611 146.214 33.0297L146.234 32.442C146.281 32.2741 146.308 32.0922 146.315 31.8963C146.335 31.7005 146.362 31.5116 146.396 31.3297C146.43 31.1478 146.484 31.0009 146.558 30.889C146.646 30.7631 146.781 30.7002 146.963 30.7003L147.317 30.8054L147.434 31.0574L147.623 31.0575C147.682 30.9735 147.747 30.9316 147.817 30.9316C147.901 30.9317 147.983 30.9667 148.065 31.0367C148.147 31.0927 148.244 31.1208 148.356 31.1208C148.566 31.1209 148.708 31.2679 148.783 31.5618C148.858 31.8417 148.902 32.1985 148.915 32.6323C148.93 33.0521 148.928 33.5208 148.911 34.0386C148.894 34.5423 148.907 35.018 148.948 35.4658C148.977 35.8716 148.998 36.2844 149.012 36.7042C149.041 37.11 149.048 37.5228 149.034 37.9426C149.02 38.3623 148.99 38.8521 148.944 39.4117C148.897 39.9714 148.836 40.5521 148.76 41.1537C148.699 41.7414 148.624 42.329 148.534 42.9167C148.445 43.5043 148.351 44.029 148.251 44.4907C148.152 44.9524 148.042 45.3302 147.92 45.6239C147.799 45.9037 147.682 46.0436 147.57 46.0435C147.542 46.0435 147.501 46.0295 147.445 46.0015C147.558 45.5538 147.664 45.1061 147.763 44.6584C147.876 44.2107 147.975 43.742 148.061 43.2523C147.948 43.7 147.828 44.1617 147.7 44.6373C147.587 45.099 147.461 45.5328 147.322 45.9385C147.267 45.8825 147.198 45.8544 147.114 45.8544C147.086 45.8544 147.05 45.8894 147.006 45.9593C146.976 46.0292 146.931 46.1132 146.872 46.2111C146.813 46.295 146.74 46.3719 146.654 46.4419C146.568 46.5118 146.475 46.5467 146.377 46.5467C146.279 46.5466 146.203 46.5256 146.149 46.4836C146.094 46.4416 146.047 46.3926 146.006 46.3366C145.981 46.2666 145.948 46.1966 145.908 46.1266C145.883 46.0567 145.843 45.9937 145.789 45.9377L145.858 45.7488ZM148.493 39.7054C148.4 39.9852 148.328 40.244 148.279 40.4818C148.243 40.7057 148.215 40.9226 148.194 41.1325C148.187 41.3423 148.18 41.5592 148.173 41.7831C148.166 41.979 148.152 42.1959 148.13 42.4337C148.202 41.958 148.265 41.5243 148.32 41.1325C148.39 40.7128 148.448 40.2371 148.493 39.7054ZM146.168 42.0759C146.169 42.0479 146.17 42.0199 146.171 41.992C146.17 42.0199 146.169 42.0479 146.168 42.0759ZM165.279 45.2551C165.195 45.2551 165.11 45.297 165.023 45.3809C164.726 45.4927 164.414 45.5905 164.09 45.6743C163.779 45.7441 163.456 45.7789 163.12 45.7787C162.168 45.7782 161.463 45.505 161.005 44.9591C160.548 44.3991 160.336 43.5944 160.371 42.545C160.387 42.0413 160.425 41.5376 160.484 41.0339C160.542 40.5442 160.585 40.0894 160.613 39.6697C160.556 40.1034 160.493 40.5371 160.423 40.9709C160.337 41.4326 160.286 41.9153 160.27 42.419C160.262 42.6709 160.272 42.9927 160.301 43.3845C160.344 43.7763 160.457 44.1612 160.641 44.5391C160.825 44.903 161.115 45.225 161.512 45.505C161.909 45.7711 162.465 45.9043 163.179 45.9047C163.515 45.9049 163.838 45.8701 164.148 45.8003C164.473 45.7165 164.784 45.6187 165.082 45.5069C164.878 45.7447 164.606 45.9334 164.265 46.0732C163.939 46.2129 163.551 46.2827 163.103 46.2825C162.529 46.2822 161.973 46.1629 161.435 45.9248C160.911 45.6866 160.518 45.2876 160.257 44.7278L160.39 44.497C160.153 44.0491 160.026 43.6503 160.01 43.3004C159.994 42.9366 159.978 42.5798 159.961 42.23L160.439 38.5571C160.53 37.9275 160.6 37.2979 160.649 36.6683L160.587 36.6262C160.453 37.2838 160.341 37.9134 160.252 38.5151C160.162 39.1027 160.087 39.6834 160.026 40.257L160.044 39.7113C160.149 39.0677 160.247 38.4381 160.337 37.8225C160.428 37.1929 160.54 36.5563 160.673 35.9127C160.807 35.2691 160.969 34.5975 161.16 33.898C161.365 33.1985 161.628 32.45 161.948 31.6526C162.358 31.1211 162.606 30.5965 162.693 30.0788C162.735 30.0788 162.777 30.0858 162.818 30.0998C162.86 30.1138 162.944 30.1209 163.07 30.121C163.154 30.121 163.223 30.142 163.277 30.184C163.347 30.212 163.379 30.282 163.376 30.394C163.371 30.5199 163.323 30.7088 163.231 30.9606C163.259 30.9606 163.3 30.9746 163.355 31.0026C163.411 31.0167 163.453 31.0237 163.481 31.0237C163.688 30.688 163.872 30.4012 164.034 30.1634C164.21 29.9256 164.375 29.8068 164.529 29.8069C164.627 29.8069 164.709 29.8699 164.775 29.9959C164.855 30.1079 164.891 30.2968 164.882 30.5627C164.837 31.0664 164.738 31.5421 164.583 31.9898C164.442 32.4374 164.288 32.8711 164.12 33.2908C163.952 33.7105 163.784 34.1372 163.616 34.5709C163.461 35.0046 163.341 35.4593 163.256 35.935C163.154 36.4806 163.051 37.0403 162.948 37.6139C162.846 38.1736 162.75 38.7333 162.662 39.2929C162.574 39.8526 162.486 40.3912 162.399 40.9089C162.326 41.4266 162.268 41.9093 162.225 42.3571C162.212 42.7629 162.261 43.1827 162.372 43.6165C162.439 43.7285 162.499 43.8124 162.553 43.8684C162.608 43.9105 162.705 43.9315 162.845 43.9316C163.013 43.9316 163.196 43.9108 163.393 43.8689C163.604 43.827 163.787 43.8061 163.941 43.8062C164.039 43.8062 164.109 43.8203 164.15 43.8483C164.191 43.8763 164.224 43.9253 164.25 43.9953C164.05 44.1071 163.837 44.1909 163.612 44.2468C163.386 44.3026 163.175 44.3305 162.979 44.3304L162.685 44.3303C162.629 44.3302 162.58 44.3302 162.538 44.3302C162.691 44.3583 162.886 44.3724 163.124 44.3725C163.488 44.3727 163.862 44.2889 164.246 44.1212C164.242 44.2471 164.28 44.3521 164.361 44.4361C164.404 44.4221 164.503 44.3732 164.66 44.2893C164.817 44.2054 164.951 44.1635 165.063 44.1636C165.399 44.1638 165.563 44.3038 165.554 44.5836C165.552 44.6256 165.536 44.6886 165.505 44.7725C165.475 44.8564 165.399 45.0173 165.279 45.2551ZM159.807 42.4398C159.81 42.3418 159.815 42.2159 159.82 42.062C159.839 41.9081 159.858 41.7542 159.877 41.6003L159.935 41.1175C159.954 40.9496 159.973 40.8027 159.991 40.6768C159.97 40.8867 159.948 41.1525 159.923 41.4743C159.913 41.7822 159.905 42.0131 159.9 42.167L159.872 43.0065C159.869 43.1184 159.865 43.2374 159.861 43.3633C159.871 43.4893 159.881 43.6082 159.891 43.7201C159.842 43.4962 159.814 43.2793 159.807 43.0694C159.801 42.8456 159.801 42.6357 159.807 42.4398ZM161.868 42.3569C161.879 42.0351 161.91 41.7202 161.962 41.4124C162.014 41.1046 162.06 40.7898 162.098 40.468C162.018 40.7898 161.951 41.1046 161.899 41.4124C161.861 41.7202 161.823 42.035 161.784 42.3568L161.774 42.6507C161.771 42.7486 161.775 42.8536 161.785 42.9655L161.79 42.8186C161.792 42.7486 161.802 42.6717 161.818 42.5877C161.835 42.5038 161.852 42.4268 161.868 42.3569ZM159.992 40.6558C159.993 40.6278 159.994 40.6068 159.994 40.5928C160.009 40.5789 160.016 40.5649 160.016 40.5509C160.015 40.6068 160.006 40.6418 159.992 40.6558ZM172.435 34.4075C172.446 34.4775 172.522 34.5125 172.662 34.5126L172.704 34.5126C172.788 34.5127 172.844 34.5197 172.871 34.5337C173.592 34.758 174.302 35.0872 175.002 35.5213C175.716 35.9414 176.35 36.4525 176.904 37.0545C177.473 37.6424 177.92 38.3143 178.245 39.0701C178.584 39.8259 178.739 40.6375 178.711 41.5051C178.686 42.2606 178.515 42.9882 178.198 43.6876C177.88 44.3871 177.454 44.9956 176.919 45.513C177.467 45.0515 177.905 44.4781 178.236 43.7926C178.581 43.0932 178.767 42.3446 178.793 41.5471C178.823 40.6516 178.661 39.8189 178.309 39.0491C177.956 38.2654 177.497 37.5655 176.929 36.9495C176.361 36.3336 175.72 35.8085 175.007 35.3744C174.308 34.9262 173.619 34.5831 172.941 34.3448C173.473 34.3451 174.008 34.4643 174.546 34.7025C175.098 34.9406 175.62 35.2557 176.111 35.6478C176.602 36.0259 177.05 36.4668 177.453 36.9708C177.871 37.4608 178.218 37.9647 178.495 38.4825L178.341 38.6923C178.608 39.1123 178.803 39.5671 178.926 40.0569C179.064 40.5467 179.125 41.0505 179.107 41.5682C179.075 42.5617 178.829 43.4361 178.37 44.1915C177.925 44.9328 177.366 45.5552 176.691 46.0586C176.031 46.548 175.305 46.9184 174.513 47.1699C173.734 47.4214 173.002 47.5469 172.316 47.5466C171.924 47.5464 171.527 47.5042 171.123 47.42C170.734 47.3359 170.34 47.1957 169.94 46.9996L169.936 47.1256C170.321 47.3496 170.715 47.5038 171.118 47.5879C171.535 47.6721 171.947 47.7143 172.353 47.7145C173.361 47.715 174.355 47.4916 175.336 47.0444C176.33 46.6111 177.176 45.9959 177.875 45.1987C177.203 46.0239 176.377 46.6671 175.396 47.1284C174.429 47.5896 173.427 47.82 172.391 47.8195C171.327 47.8189 170.473 47.6086 169.829 47.1885C169.184 46.7823 168.683 46.2783 168.325 45.6765C167.981 45.0746 167.757 44.4378 167.653 43.7661C167.549 43.0944 167.506 42.4927 167.523 41.961C167.547 41.2474 167.661 40.5478 167.866 39.8623C168.084 39.1768 168.399 38.5473 168.81 37.9738C169.221 37.4003 169.741 36.9108 170.37 36.5054C171 36.0859 171.752 35.7925 172.625 35.625L172.021 35.4778C171.73 35.4077 171.522 35.3236 171.4 35.2256C171.277 35.1276 171.217 35.0436 171.219 34.9736C171.223 34.8617 171.346 34.7428 171.588 34.617C171.844 34.4772 172.127 34.4074 172.435 34.4075ZM171.402 37.0516C171.785 36.9119 172.151 36.8421 172.501 36.8423C172.851 36.8425 173.115 36.8986 173.294 37.0106C173.487 37.1087 173.581 37.2137 173.577 37.3256C173.575 37.3956 173.489 37.4725 173.318 37.5563C173.161 37.6402 172.954 37.759 172.697 37.9128C172.454 38.0526 172.182 38.2344 171.881 38.4581C171.594 38.6819 171.318 38.9686 171.055 39.3182C170.806 39.6539 170.589 40.0666 170.405 40.5563C170.235 41.0459 170.139 41.6196 170.117 42.2772C170.085 43.2427 170.278 43.9704 170.696 44.4603C171.114 44.9503 171.708 45.1955 172.478 45.1959C172.968 45.1961 173.467 45.1124 173.977 44.9448C174.501 44.7772 174.97 44.5395 175.387 44.2319C175.817 43.9243 176.165 43.5467 176.432 43.099C176.713 42.6514 176.862 42.1478 176.881 41.5881C176.895 41.1683 176.831 40.7485 176.691 40.3286C176.565 39.9088 176.375 39.5099 176.122 39.132C175.883 38.74 175.587 38.3761 175.234 38.0401C174.895 37.7041 174.519 37.417 174.107 37.179C173.709 36.9549 173.378 36.7868 173.116 36.6747C172.868 36.5486 172.69 36.4296 172.582 36.3176C172.468 36.3735 172.304 36.4434 172.092 36.5273C171.893 36.5971 171.624 36.7089 171.283 36.8627L171.402 37.0516ZM172.842 36.0659C173.479 36.2761 174.085 36.5912 174.659 37.0113C175.15 37.3894 175.599 37.8024 176.004 38.2504C175.614 37.7744 175.187 37.3474 174.723 36.9694C174.192 36.5213 173.594 36.1712 172.931 35.919L172.842 36.0659ZM176.68 43.2251C176.455 43.6727 176.148 44.0714 175.758 44.421C176.016 44.2532 176.233 44.0504 176.408 43.8126C176.598 43.5749 176.753 43.3371 176.873 43.0993C176.993 42.8615 177.084 42.6446 177.146 42.4487C177.194 42.2669 177.234 42.12 177.266 42.008C177.1 42.3718 176.905 42.7775 176.68 43.2251ZM178.027 45.0308C178.012 45.0588 177.99 45.0868 177.961 45.1148C177.947 45.1288 177.933 45.1357 177.919 45.1357C177.905 45.1357 177.942 45.0658 178.031 44.9259C178.12 44.772 178.224 44.5972 178.342 44.4013C178.475 44.1915 178.601 43.9747 178.72 43.7509C178.824 43.583 178.899 43.4361 178.945 43.3102C178.729 43.9118 178.423 44.4853 178.027 45.0308ZM179.315 41.6313C179.308 41.8552 179.287 42.0791 179.251 42.3029C179.216 42.5128 179.161 42.7087 179.085 42.8905C179.194 42.5408 179.256 42.149 179.271 41.7152C179.281 41.3934 179.264 41.0786 179.218 40.7707C179.185 40.5048 179.137 40.2459 179.075 39.994C179.137 40.2459 179.192 40.4978 179.239 40.7497C179.3 41.0296 179.326 41.3235 179.315 41.6313ZM172.853 35.7301L172.667 35.646C172.652 35.674 172.63 35.702 172.601 35.7299C172.572 35.7579 172.557 35.7859 172.556 35.8139C172.555 35.8419 172.568 35.8838 172.594 35.9398C172.635 35.9818 172.669 36.0168 172.696 36.0448L172.853 35.7301ZM176.125 38.3974C176.085 38.3414 176.045 38.2924 176.004 38.2504C176.044 38.3064 176.084 38.3554 176.125 38.3974ZM178.945 43.3102C178.96 43.2822 178.968 43.2543 178.969 43.2263C178.968 43.2543 178.96 43.2822 178.945 43.3102ZM178.991 43.1843C178.977 43.1983 178.969 43.2123 178.969 43.2263C178.969 43.2123 178.977 43.1983 178.991 43.1843ZM183.86 47.0698C183.579 45.8103 183.283 44.5928 182.972 43.4173C182.661 42.2277 182.337 41.0312 181.998 39.8276C181.835 39.2679 181.699 38.7221 181.59 38.1903C181.482 37.6445 181.318 37.0987 181.098 36.5529C181.197 36.525 181.276 36.476 181.334 36.4061C181.407 36.3222 181.492 36.2802 181.59 36.2803C181.66 36.2803 181.722 36.3223 181.775 36.4063C181.843 36.4903 181.895 36.5883 181.934 36.7003C181.986 36.7982 182.032 36.9032 182.07 37.0152C182.109 37.1271 182.134 37.2041 182.147 37.2461L182.401 37.1832C182.352 36.9593 182.31 36.7424 182.275 36.5325C182.255 36.3086 182.248 36.0847 182.255 35.8609C182.258 35.7769 182.269 35.651 182.289 35.4831C182.323 35.3012 182.41 35.2103 182.55 35.2104C182.76 35.2105 182.984 35.4065 183.223 35.7984C183.463 36.1763 183.692 36.6662 183.91 37.268C184.142 37.8698 184.365 38.5345 184.579 39.2623C184.794 39.976 184.988 40.6687 185.162 41.3405C185.335 42.0122 185.484 42.614 185.606 43.1458C185.743 43.6776 185.835 44.0554 185.884 44.2793C186.263 43.8177 186.601 43.3352 186.897 42.8316C187.194 42.328 187.484 41.8244 187.766 41.3208C188.063 40.8033 188.367 40.2997 188.677 39.8101C189.002 39.3065 189.374 38.831 189.795 38.3834C189.897 38.2716 190.05 38.0897 190.254 37.838C190.473 37.5862 190.698 37.3345 190.93 37.0827C191.177 36.817 191.416 36.5862 191.646 36.3904C191.876 36.1947 192.062 36.0968 192.202 36.0969C192.272 36.0969 192.333 36.1459 192.386 36.2439C191.836 36.7753 191.287 37.3068 190.737 37.8382C190.202 38.3697 189.727 38.9711 189.313 39.6425C189.74 38.9991 190.221 38.4186 190.756 37.9012C191.306 37.3698 191.869 36.8593 192.445 36.3699L192.625 36.6218C192.714 36.4959 192.872 36.3561 193.101 36.2023C193.33 36.0485 193.522 35.9716 193.676 35.9717C193.788 35.9718 193.871 36.0068 193.924 36.0768C193.978 36.1468 194.003 36.2377 193.999 36.3497C193.996 36.4476 193.978 36.5736 193.945 36.7275C193.912 36.8814 193.866 36.9933 193.808 37.0632C193.735 37.1611 193.648 37.245 193.548 37.3149C193.072 37.7345 192.618 38.126 192.186 38.4896C191.768 38.8392 191.369 39.2728 190.988 39.7903L191.14 39.6435C191.532 39.1959 191.924 38.7973 192.313 38.4477C192.717 38.0981 193.169 37.7625 193.669 37.4409C193.389 37.8886 193.068 38.2732 192.707 38.5948C192.361 38.9025 192.007 39.2521 191.644 39.6437C191.469 39.8395 191.315 40.0563 191.181 40.2942C191.062 40.518 190.908 40.7208 190.72 40.9026L190.533 40.8395C190.248 41.4131 189.949 42.0006 189.635 42.6021C189.336 43.1897 189.009 43.7702 188.654 44.3437C188.299 44.9032 187.904 45.4347 187.467 45.9383C187.044 46.4418 186.568 46.8823 186.037 47.2598C185.993 47.3438 185.899 47.4137 185.757 47.4696C185.629 47.5395 185.529 47.5954 185.458 47.6373L184.154 47.049C184.067 46.7271 183.966 46.3842 183.852 46.0203C183.752 45.6565 183.652 45.3136 183.55 44.9917L183.444 45.0127L183.944 47.0488C183.958 47.0628 183.978 47.0768 184.006 47.0909C184.047 47.1049 184.117 47.1329 184.213 47.1749C184.323 47.2309 184.482 47.301 184.689 47.3851C184.91 47.4831 185.207 47.6092 185.58 47.7633C186.151 47.4278 186.639 47.0642 187.044 46.6726C187.434 46.295 187.813 45.8475 188.18 45.3299C188.017 45.5957 187.848 45.8405 187.673 46.0643C187.497 46.3021 187.308 46.5259 187.105 46.7356C186.902 46.9454 186.678 47.1412 186.434 47.323C186.19 47.5188 185.911 47.7005 185.597 47.8683L183.86 47.0698ZM186.827 46.2528C187.524 45.4975 188.124 44.7002 188.628 43.8609C189.145 43.0217 189.608 42.1614 190.015 41.28L190.016 41.2381C189.764 41.6577 189.512 42.0913 189.259 42.539C189.021 42.9726 188.776 43.4063 188.523 43.8399C188.271 44.2596 188.006 44.6792 187.726 45.0988C187.446 45.5045 187.147 45.8891 186.827 46.2528ZM187.933 41.9926C188.379 41.1952 188.839 40.4119 189.313 39.6425C188.798 40.3979 188.324 41.1672 187.893 41.9506C187.461 42.7199 186.995 43.4683 186.495 44.1957C187.023 43.4963 187.502 42.7619 187.933 41.9926ZM190.9 39.9162C190.753 40.112 190.614 40.3078 190.481 40.5037C190.363 40.6855 190.245 40.8674 190.127 41.0492C190.259 40.8674 190.412 40.6925 190.586 40.5247C190.76 40.3429 190.864 40.1401 190.9 39.9162ZM188.29 45.1831C188.526 44.8194 188.748 44.4487 188.957 44.071C188.971 44.057 188.986 44.043 189 44.0291C188.986 44.043 188.978 44.057 188.978 44.071C188.769 44.4487 188.54 44.8194 188.29 45.1831ZM189.29 43.5045L189.112 43.8192L189.29 43.5045ZM189.469 43.1687C189.41 43.2807 189.35 43.3926 189.29 43.5045C189.35 43.3926 189.41 43.2807 189.469 43.1687ZM189.09 43.8402C189.075 43.8822 189.052 43.9241 189.023 43.9661C189.052 43.9241 189.075 43.8822 189.09 43.8402ZM188.246 45.246C188.217 45.274 188.195 45.302 188.18 45.3299C188.195 45.302 188.217 45.274 188.246 45.246ZM202.687 47.4363C202.149 47.618 201.74 47.7157 201.459 47.7296C201.178 47.7574 200.933 47.7783 200.722 47.7921C199.938 47.7917 199.236 47.6444 198.616 47.3503C197.995 47.0561 197.469 46.6571 197.038 46.1531C196.607 45.6491 196.276 45.0613 196.046 44.3895C195.831 43.7038 195.736 42.9761 195.761 42.2065C195.776 41.7588 195.833 41.297 195.933 40.8213C196.033 40.3316 196.175 39.856 196.358 39.3943C196.542 38.9187 196.773 38.478 197.053 38.0724C197.318 37.6667 197.631 37.3031 197.992 36.9814C197.618 37.2751 197.298 37.6247 197.033 38.0304C196.754 38.436 196.515 38.8767 196.317 39.3523C196.12 39.814 195.971 40.2966 195.871 40.8003C195.77 41.29 195.713 41.7657 195.698 42.2275C195.678 42.8152 195.748 43.4449 195.908 44.1166C196.083 44.7743 196.37 45.3902 196.771 45.9641C197.173 46.524 197.696 46.993 198.342 47.3711C199.001 47.7493 199.807 47.9386 200.759 47.9391C201.207 47.9393 201.678 47.8766 202.172 47.7509C201.629 48.1004 201.028 48.275 200.37 48.2747C199.838 48.2744 199.337 48.1902 198.866 48.0221C198.41 47.8679 197.983 47.6438 197.587 47.3498C197.204 47.0697 196.858 46.7337 196.549 46.3417C196.24 45.9498 195.981 45.5299 195.771 45.082L195.966 44.9142C195.744 44.4383 195.584 43.9625 195.488 43.4867C195.406 43.0109 195.373 42.5281 195.389 42.0384C195.412 41.3248 195.533 40.6392 195.751 39.9817C195.982 39.3241 196.276 38.7016 196.631 38.1141L197.158 37.4218C197.247 37.2679 197.371 37.114 197.53 36.9602C197.703 36.8064 197.89 36.6595 198.091 36.5197C198.292 36.3659 198.499 36.2331 198.713 36.1212C198.941 35.9954 199.155 35.8836 199.354 35.7858C199.866 35.5342 200.378 35.3105 200.888 35.1149C201.399 34.9053 201.992 34.7517 202.667 34.6541L202.586 34.5911C201.293 34.7163 200.191 35.0306 199.278 35.5339C198.366 36.0231 197.618 36.6244 197.035 37.3377C196.451 38.0511 196.019 38.8344 195.739 39.6878C195.46 40.5272 195.306 41.3527 195.28 42.1643C195.265 42.5981 195.286 43.0388 195.341 43.4866C195.411 43.9204 195.515 44.3543 195.655 44.7881C195.333 43.9484 195.187 43.0598 195.218 42.1223C195.248 41.1988 195.433 40.2824 195.771 39.373C196.109 38.4637 196.619 37.6244 197.303 36.8551C198.168 36.086 199.105 35.4988 200.112 35.0935C201.12 34.6743 202.086 34.4649 203.01 34.4653C203.304 34.4655 203.603 34.5146 203.908 34.6127C204.213 34.7108 204.488 34.8649 204.733 35.0749C204.978 35.2709 205.173 35.5299 205.316 35.8518C205.473 36.1737 205.544 36.5656 205.529 37.0273C205.517 37.4051 205.411 37.8668 205.211 38.4124C205.011 38.958 204.72 39.4896 204.339 40.0071C203.972 40.5107 203.517 40.9442 202.973 41.3077C202.429 41.6573 201.808 41.8318 201.108 41.8315L200.415 41.8311C199.9 41.7189 199.429 41.5927 198.999 41.4526C198.584 41.2985 198.189 41.1793 197.814 41.0952C197.751 41.319 197.708 41.5359 197.687 41.7458C197.681 41.9416 197.675 42.1375 197.668 42.3334C197.655 42.7392 197.684 43.138 197.755 43.5298C197.84 43.9077 197.976 44.2576 198.161 44.5795C198.346 44.9014 198.582 45.1744 198.869 45.3984C199.17 45.6085 199.537 45.7416 199.969 45.7978C200.233 45.8539 200.463 45.889 200.658 45.9031C200.854 45.9032 201.015 45.9103 201.141 45.9243C201.281 45.9244 201.378 45.9455 201.433 45.9875C201.502 46.0155 201.535 46.0785 201.531 46.1764C201.39 46.2183 201.242 46.2462 201.088 46.2601C200.947 46.2741 200.8 46.281 200.646 46.2809C200.156 46.2806 199.717 46.2035 199.331 46.0493C198.944 45.8812 198.614 45.6922 198.341 45.4821C198.653 45.8041 199.03 46.0352 199.473 46.1753C199.917 46.3015 200.356 46.3647 200.79 46.3649C201.028 46.3651 201.274 46.3442 201.527 46.3023C201.496 46.3863 201.481 46.4352 201.48 46.4492C201.478 46.5332 201.511 46.5892 201.58 46.6172C201.636 46.6032 201.735 46.5683 201.877 46.5124C202.02 46.4425 202.162 46.3796 202.304 46.3237C202.46 46.2539 202.609 46.198 202.75 46.1561C202.892 46.1002 202.991 46.0722 203.047 46.0723C203.117 46.0723 203.179 46.0863 203.234 46.1143C203.29 46.1283 203.315 46.2053 203.311 46.3452C203.306 46.4852 203.252 46.6531 203.147 46.8489C203.043 47.0447 202.889 47.2406 202.687 47.4363ZM200.063 39.1234L200.522 39.2076C200.675 39.2356 200.815 39.2497 200.941 39.2498C201.081 39.2498 201.243 39.2079 201.428 39.1241C201.627 39.0262 201.821 38.8934 202.008 38.7256C202.21 38.5578 202.385 38.348 202.533 38.0962C202.695 37.8444 202.817 37.5576 202.897 37.2358L202.943 37.1099C202.747 37.1098 202.452 37.1586 202.057 37.2564C201.661 37.3541 201.251 37.4868 200.825 37.6545C200.4 37.8082 200.002 37.9969 199.631 38.2206C199.26 38.4303 199 38.6611 198.852 38.9129C199.061 38.9549 199.262 38.997 199.457 39.0391C199.666 39.0672 199.868 39.0953 200.063 39.1234ZM199.046 40.676C199.075 40.6481 199.09 40.6061 199.092 40.5501C199.108 40.4941 199.116 40.4522 199.117 40.4242L198.142 40.0669L198.027 40.3607L199.046 40.676ZM198.301 45.4401C198.206 45.3281 198.112 45.2161 198.018 45.1042C197.937 45.0062 197.87 44.9082 197.817 44.8102C197.936 45.0481 198.097 45.2581 198.301 45.4401Z" fill="#FDFEFF"/>
</svg>
