<svg width="295" height="79" viewBox="0 0 295 79" fill="none" xmlns="http://www.w3.org/2000/svg">
<rect width="229.338" height="77.9422" rx="8" transform="matrix(1 0.000517505 -0.0329695 0.999456 2.5697 0.786011)" fill="#F5D63E"/>
<path d="M26.5743 37.4968C26.4483 37.4967 26.2726 37.5176 26.0472 37.5595C25.8358 37.6014 25.6172 37.6502 25.3914 37.7061C25.1795 37.7619 24.9817 37.8178 24.7978 37.8737C24.628 37.9296 24.5216 37.9715 24.4787 37.9994C24.8445 37.9437 25.1826 37.8809 25.4929 37.8111C25.8037 37.7273 26.1411 37.6855 26.5051 37.6857C26.4309 37.8116 26.3367 37.9095 26.2224 37.9794C26.1081 38.0493 25.9802 38.1052 25.8388 38.1471C25.7119 38.175 25.571 38.2029 25.4161 38.2308C25.2616 38.2447 25.0997 38.2726 24.9303 38.3145L24.7895 38.1255C24.5203 38.2233 24.3152 38.2862 24.1743 38.3141C24.0338 38.328 23.8866 38.335 23.7326 38.3349C23.5646 38.3348 23.3896 38.3347 23.2076 38.3346C23.0401 38.3205 22.8513 38.3134 22.6413 38.3133C22.639 38.3833 22.6302 38.4393 22.6148 38.4812C22.9368 38.4814 23.2098 38.4815 23.4338 38.4816C23.6582 38.4678 23.9322 38.4399 24.2555 38.3981C23.9457 38.4539 23.6713 38.4958 23.4324 38.5236C23.2075 38.5515 22.934 38.5653 22.612 38.5652C22.5454 38.887 22.486 39.2018 22.4338 39.5096C22.3817 39.8174 22.3508 40.1182 22.3411 40.4121C22.3355 40.58 22.3361 40.7759 22.3427 40.9998C22.3493 41.2236 22.3557 41.4545 22.3618 41.6924C22.3825 41.9163 22.3963 42.1332 22.4034 42.3431C22.4109 42.539 22.4131 42.6859 22.4098 42.7839L22.3683 44.0432C22.4291 44.3231 22.6251 44.533 22.9565 44.6731C23.2879 44.8132 23.7686 44.8835 24.3986 44.8838L25.0706 44.8841C25.3086 44.8842 25.4687 44.9123 25.5508 44.9683C25.6474 45.0104 25.6944 45.0733 25.6916 45.1573C25.6893 45.2273 25.6319 45.2692 25.5194 45.2831C25.4074 45.2831 25.2954 45.283 25.1834 45.283C24.7774 45.2828 24.3514 45.2546 23.9052 45.1984C23.4871 45.1422 23.0761 45.079 22.6724 45.0088C23.0752 45.107 23.4992 45.1981 23.9444 45.2823C24.4041 45.3525 24.851 45.3877 25.285 45.388L25.474 45.3881C25.53 45.3881 25.5932 45.3811 25.6637 45.3672C25.6614 45.4371 25.6593 45.5001 25.6574 45.5561C25.6696 45.6121 25.6885 45.675 25.7142 45.745L25.8836 45.7031C25.9261 45.6891 25.9753 45.6822 26.0313 45.6822C26.0878 45.6682 26.1304 45.6473 26.1594 45.6193C26.606 45.6615 26.8249 45.8155 26.8161 46.0814C26.8111 46.2353 26.7649 46.3612 26.6777 46.4591C26.5904 46.557 26.4829 46.6339 26.3551 46.6898C26.2272 46.7457 26.0858 46.7876 25.9309 46.8156C25.7764 46.8295 25.6292 46.8364 25.4892 46.8363C24.9992 46.8361 24.5171 46.8078 24.043 46.7516C23.5833 46.6814 23.1306 46.6112 22.6849 46.541C23.0723 46.6811 23.5656 46.7933 24.1648 46.8776C24.7641 46.9619 25.3717 47.0042 25.9877 47.0045C25.8304 47.1023 25.6459 47.1792 25.4341 47.2351C25.2222 47.2909 25.0043 47.3188 24.7803 47.3187L23.2745 47.129C23.0794 47.1009 22.9264 47.0729 22.8153 47.0448C22.7182 47.0168 22.6211 46.9887 22.5241 46.9607C22.4274 46.9187 22.3168 46.8766 22.1922 46.8346C22.0816 46.7926 21.9222 46.7435 21.7141 46.6874L21.7217 46.4566C21.3609 46.3584 21.0724 46.1904 20.8563 45.9524C20.6401 45.7144 20.4737 45.4554 20.3569 45.1755C20.2401 44.8956 20.1654 44.6157 20.1326 44.3359C20.1003 44.042 20.0878 43.7831 20.0952 43.5592C20.1031 43.3214 20.1102 43.1045 20.1167 42.9086C20.1376 42.6987 20.1515 42.4888 20.1585 42.279C20.1635 42.125 20.163 41.9291 20.1568 41.6913C20.1647 41.4534 20.166 41.2015 20.1608 40.9357C20.1555 40.6698 20.1505 40.3969 20.1458 40.1171C20.155 39.8372 20.1638 39.5714 20.1721 39.3195C20.1772 39.1656 20.182 39.0187 20.1866 38.8788C20.2052 38.7388 20.2234 38.6129 20.2411 38.501L20.0311 38.5009C20.0138 38.5988 20.0032 38.7108 19.999 38.8367L19.9865 39.2145C19.9732 39.6203 19.9668 40.026 19.9674 40.4318C19.9685 40.8236 19.9635 41.1874 19.9524 41.5232C19.9553 41.8591 19.9596 42.1529 19.9653 42.4048C19.9715 42.6427 19.9727 42.8176 19.969 42.9295L19.9413 43.7691L19.9358 43.937C19.9062 43.5591 19.882 43.0204 19.8631 42.3208C19.8478 41.5092 19.8564 40.6137 19.8887 39.6342L19.9012 39.2564C19.9062 39.1025 19.9111 38.9556 19.9157 38.8157C19.9343 38.6757 19.9588 38.5708 19.9891 38.5009L19.2765 38.4585C19.1257 38.3605 18.9742 38.2834 18.8221 38.2274C18.6699 38.1713 18.5308 38.1433 18.4048 38.1432L18.4187 37.7235C18.4215 37.6395 18.4308 37.5695 18.4466 37.5136C18.4769 37.4436 18.5481 37.4087 18.6601 37.4087C18.6881 37.4088 18.7576 37.4228 18.8687 37.4508L18.877 37.199C18.7258 37.1149 18.6035 37.0029 18.5101 36.863C18.4172 36.709 18.3732 36.555 18.3783 36.4011C18.3903 36.0373 18.6553 35.8556 19.1733 35.8558C19.3693 35.8559 19.5719 35.87 19.7809 35.8981C19.99 35.9262 20.2063 35.9473 20.4299 35.9614C20.496 35.6536 20.554 35.3808 20.6039 35.1429C20.6542 34.8911 20.704 34.6533 20.7534 34.4294C20.8032 34.1915 20.8599 33.9607 20.9232 33.7368C20.9871 33.499 21.0652 33.2542 21.1575 33.0024C21.2927 32.7226 21.4006 32.4218 21.4812 32.1C21.5623 31.7642 21.6222 31.4354 21.6608 31.1136L22.1011 31.1348C22.1711 31.1349 22.2264 31.1559 22.267 31.1979C22.3216 31.2399 22.3464 31.3378 22.3413 31.4918C22.3372 31.6177 22.3106 31.7856 22.2617 31.9955L22.5116 32.0586C22.6361 31.6808 22.7792 31.3731 22.9411 31.1353C23.1169 30.8975 23.2819 30.7786 23.4359 30.7787C23.6739 30.7788 23.8109 31.0797 23.8471 31.6814L23.8346 32.0592C23.8226 32.423 23.7833 32.7658 23.7167 33.0876C23.6646 33.3954 23.5984 33.7033 23.5182 34.011C23.4381 34.3188 23.3577 34.6336 23.2771 34.9554C23.1965 35.2772 23.1219 35.627 23.0535 36.0048C23.3601 36.0469 23.6604 36.068 23.9544 36.0682C24.0944 36.0683 24.2344 36.0683 24.3744 36.0684C24.5149 36.0545 24.6551 36.0476 24.7951 36.0476C24.9351 36.0477 25.0839 35.9918 25.2416 35.88C25.3993 35.7681 25.5412 35.7122 25.6672 35.7123C25.7792 35.7123 25.862 35.7473 25.9157 35.8173C25.9694 35.8873 25.9949 35.9643 25.9921 36.0483C25.7378 36.1181 25.4832 36.1949 25.2285 36.2787C24.9882 36.3486 24.7549 36.4184 24.5285 36.4883C24.7535 36.4604 24.9931 36.4115 25.2474 36.3417C25.5022 36.2579 25.7707 36.1811 26.053 36.1113C26.0507 36.1812 26.0486 36.2442 26.0468 36.3002C26.0589 36.3561 26.0779 36.4191 26.1035 36.4891C26.1315 36.4891 26.1668 36.4821 26.2092 36.4681C26.2942 36.4402 26.3436 36.4262 26.3576 36.4262C26.4953 36.4963 26.5833 36.5873 26.6216 36.6992C26.6604 36.7972 26.6777 36.9092 26.6735 37.0351C26.6703 37.133 26.6533 37.224 26.6225 37.3079C26.5922 37.3779 26.5762 37.4408 26.5743 37.4968ZM20.7538 45.2387C20.5703 44.8608 20.4775 44.49 20.4755 44.1261C20.4735 43.7623 20.4638 43.4195 20.4465 43.0977L20.3627 39.9073L20.2872 40.2851C20.2563 41.2226 20.2561 42.0761 20.2868 42.8457C20.3318 43.6013 20.4104 44.1891 20.5226 44.6089C20.5184 44.7348 20.5087 44.8188 20.4933 44.8608C20.4919 44.9027 20.4908 44.9377 20.4898 44.9657C20.4889 44.9937 20.5018 45.0287 20.5284 45.0707C20.569 45.1127 20.6441 45.1687 20.7538 45.2387ZM21.9882 44.1059C21.9639 43.994 21.9538 43.875 21.958 43.7491L21.9919 42.7207C21.9733 42.8606 21.9547 43.0005 21.9361 43.1404C21.9179 43.2663 21.9065 43.3993 21.9019 43.5392C21.8899 43.903 21.9017 44.1829 21.9372 44.3788C21.9737 44.5467 22.0531 44.6867 22.1754 44.7987C22.1081 44.7147 22.0621 44.6237 22.0374 44.5257C22.0271 44.4138 22.0107 44.2739 21.9882 44.1059ZM19.9519 44.0839L19.9358 43.937L19.9519 44.0839ZM22.2167 44.8197C22.2031 44.8057 22.1894 44.7987 22.1754 44.7987C22.1894 44.7987 22.2031 44.8057 22.2167 44.8197ZM32.6793 48.2253C32.5384 48.2532 32.3839 48.2671 32.2159 48.267L31.6069 48.2667C31.2429 48.2665 30.9826 48.3084 30.8258 48.3923C30.683 48.4761 30.5976 48.5181 30.5696 48.5181L30.4981 48.1402L30.5106 47.7624L30.4706 45.7894C30.4551 45.4116 30.3915 45.0058 30.2798 44.572C30.1681 44.1382 30.0846 43.6973 30.0294 43.2496C29.9971 42.9557 29.9713 42.6758 29.9521 42.41L29.8951 41.5914C29.8763 41.3115 29.8508 41.0246 29.8185 40.7308C29.8002 40.4369 29.7616 40.1221 29.7027 39.7862C29.7054 39.7023 29.7082 39.6183 29.711 39.5343C29.7277 39.4504 29.7375 39.3664 29.7403 39.2825C29.7546 38.8487 29.7337 38.4219 29.6775 38.0021C29.6214 37.5823 29.537 37.1695 29.4244 36.7637C29.5237 36.7217 29.6159 36.6868 29.7008 36.6589C29.7862 36.6169 29.8639 36.596 29.9339 36.596C30.0039 36.596 30.0781 36.68 30.1566 36.848C30.2355 37.002 30.3157 37.3308 30.397 37.8346C30.425 37.8346 30.4673 37.8276 30.5237 37.8137C30.5807 37.7857 30.6231 37.7717 30.6511 37.7718C30.645 37.5339 30.6183 37.282 30.571 37.0161C30.5243 36.7362 30.477 36.4704 30.4294 36.2185C30.3817 35.9666 30.333 35.7427 30.2835 35.5467C30.2484 35.3368 30.233 35.1689 30.2371 35.043C30.2381 35.015 30.2392 34.98 30.2406 34.938C30.256 34.8961 30.2917 34.8751 30.3477 34.8751C30.4177 34.8752 30.5061 34.9522 30.6131 35.1061C30.72 35.2601 30.8325 35.4561 30.9507 35.694C31.0688 35.9319 31.1793 36.1909 31.282 36.4708C31.3993 36.7367 31.503 36.9886 31.5931 37.2265C31.9947 36.5131 32.4394 35.9746 32.9274 35.6111C33.4299 35.2335 34.0731 35.045 34.8571 35.0454C35.4311 35.0457 35.8978 35.1159 36.2572 35.256C36.6171 35.3821 36.8922 35.5292 37.0827 35.6972C37.2876 35.8512 37.4227 35.9982 37.4881 36.1382L37.6072 36.3481C37.6044 36.4321 37.5606 36.488 37.4757 36.516C37.1232 36.166 36.719 35.8999 36.263 35.7177C35.807 35.5356 35.334 35.4444 34.844 35.4442C34.368 35.4439 34.0089 35.5067 33.7667 35.6325C33.539 35.7443 33.2964 35.8841 33.0389 36.0519C33.3104 35.8841 33.5598 35.7513 33.787 35.6535C34.0283 35.5557 34.3729 35.5069 34.8209 35.5071C35.3109 35.5074 35.7767 35.6056 36.2182 35.8017C36.6602 35.9838 37.0374 36.2219 37.3497 36.5159C37.2787 36.5438 37.2146 36.5788 37.1572 36.6207C37.1143 36.6487 37.0917 36.6977 37.0894 36.7676C37.1594 36.7677 37.2347 36.8167 37.3155 36.9147C37.3967 36.9987 37.4703 37.1036 37.5361 37.2296C37.602 37.3556 37.6536 37.4885 37.691 37.6285C37.7428 37.7544 37.7674 37.8594 37.7646 37.9434C37.7567 38.1812 37.6618 38.3001 37.4798 38.3C37.3398 38.2999 37.1734 38.2509 36.9807 38.1528C36.9391 38.1388 36.8507 38.0618 36.7153 37.9218C36.5939 37.7818 36.4375 37.6418 36.2461 37.5018C36.0552 37.3478 35.8358 37.2077 35.588 37.0817C35.3401 36.9556 35.0622 36.8925 34.7542 36.8923C34.5022 36.8922 34.2764 36.9481 34.0767 37.0599C33.8914 37.1578 33.7188 37.2976 33.5588 37.4794C33.3993 37.6472 33.2528 37.8431 33.1194 38.0669L32.8298 38.5705C33.0523 38.1928 33.2946 37.8501 33.5567 37.5424C33.8487 37.1787 34.2047 36.997 34.6247 36.9972C34.9887 36.9974 35.322 37.0815 35.6244 37.2496C35.9274 37.4037 36.1729 37.5997 36.361 37.8377C36.1263 37.7396 35.8495 37.6415 35.5307 37.5434C35.212 37.4453 34.9056 37.3962 34.6116 37.396C34.4576 37.3959 34.3234 37.4308 34.2091 37.5007C34.0948 37.5706 33.9938 37.6615 33.9061 37.7734C33.8329 37.8714 33.7592 37.9833 33.685 38.1092C33.6249 38.2351 33.558 38.354 33.4843 38.4659L33.2099 38.5077C32.9585 38.9134 32.7468 39.389 32.5748 39.9346C32.4173 40.4663 32.3288 41.0259 32.3094 41.6136C32.2979 41.9634 32.3015 42.2782 32.3203 42.5581C32.353 42.838 32.3996 43.1248 32.4599 43.4187L32.6904 44.0695L32.6685 43.4608C32.6562 42.9851 32.642 42.5653 32.626 42.2014C32.6105 41.8236 32.6101 41.4109 32.6249 40.9631C32.6663 40.5573 32.735 40.1726 32.831 39.8088C32.9111 39.501 33.0256 39.2142 33.1743 38.9484C32.9953 39.2842 32.8706 39.6689 32.8003 40.1026C32.7146 40.5784 32.663 41.0821 32.6454 41.6138C32.6316 42.0335 32.6394 42.4323 32.669 42.8102C32.6985 43.188 32.735 43.5658 32.7786 43.9436C32.8361 44.3214 32.8932 44.7133 32.9498 45.1191C33.0069 45.5109 33.0486 45.9447 33.0749 46.4205L33.1247 46.8193L33.2113 48.0157L32.6793 48.2253ZM33.2408 38.8435L33.1743 38.9484L33.2408 38.8435ZM46.6699 42.5026C46.2919 42.5024 46.0052 42.4952 45.8096 42.4811C45.6281 42.467 45.4603 42.46 45.3063 42.4599C44.8863 42.4597 44.5146 42.4805 44.1912 42.5223C43.8679 42.5641 43.5921 42.6479 43.3639 42.7737C43.1358 42.8995 42.9618 43.0813 42.8419 43.3192C42.7221 43.557 42.6557 43.8718 42.6428 44.2635C42.6239 44.8372 42.6728 45.264 42.7895 45.544C42.9208 45.8099 43.1033 46.0059 43.3372 46.1319C43.5855 46.244 43.8842 46.3141 44.2332 46.3423C44.5823 46.3704 44.9722 46.4336 45.403 46.5318C45.6541 46.5599 45.9054 46.581 46.1569 46.5951C46.4089 46.5953 46.6609 46.5954 46.9129 46.5955L48.4249 46.5963C47.7263 46.554 47.027 46.5326 46.327 46.5323C45.6415 46.5179 45.0205 46.4546 44.4642 46.3424C43.9219 46.2302 43.4804 46.0341 43.1396 45.754C42.8128 45.474 42.6589 45.0471 42.6779 44.4735C42.6931 44.0117 42.7606 43.6619 42.8805 43.4241C43.0148 43.1723 43.1818 42.9905 43.3815 42.8787C43.5956 42.7528 43.8429 42.683 44.1234 42.6692C44.4043 42.6413 44.7058 42.6275 45.0278 42.6276C45.4198 42.6278 45.8181 42.649 46.2227 42.6912C45.8975 42.789 45.5659 42.8658 45.2281 42.9216C44.9047 42.9634 44.6021 43.0122 44.3202 43.068C44.0389 43.1099 43.7918 43.1727 43.579 43.2566C43.3807 43.3264 43.2442 43.4313 43.1696 43.5712L43.1385 44.5157L42.9677 44.5995C43.0122 44.9494 43.0524 45.2153 43.0884 45.3972C43.1388 45.5651 43.2745 45.6981 43.4952 45.7962C43.7165 45.8803 44.0712 45.9504 44.5593 46.0066C45.0615 46.0629 45.7865 46.1542 46.7343 46.2806L48.2463 46.2814C48.5123 46.2815 48.6665 46.2746 48.709 46.2606C48.7659 46.2327 48.8014 46.2187 48.8154 46.2187L48.6638 45.0852C48.645 44.8054 48.6183 44.5535 48.5837 44.3296C48.5491 44.1057 48.5009 43.8678 48.4392 43.6159C48.4239 43.6579 48.3812 43.6788 48.3112 43.6788C48.3733 43.9167 48.421 44.1686 48.4542 44.4345C48.5015 44.7004 48.5352 44.9522 48.5553 45.1901C48.5895 45.428 48.6108 45.6309 48.6192 45.7988C48.6417 45.9668 48.6665 46.0647 48.6935 46.0927L48.5662 46.1346C48.5377 46.1486 48.4955 46.1556 48.4395 46.1556L48.3135 46.1555C48.2155 46.1554 48.1037 46.1484 47.9782 46.1343C47.8531 46.1063 47.6925 46.0922 47.4965 46.0921L46.8035 46.0917C46.2575 46.0915 45.7545 46.0632 45.2943 46.007C44.8622 45.9508 44.4865 45.8807 44.1672 45.7965C44.4869 45.8667 44.8771 45.9228 45.3377 45.965C45.8258 46.0213 46.2799 46.0495 46.6999 46.0497C46.8819 46.0498 47.0709 46.0499 47.2669 46.05C47.4774 46.0361 47.7016 46.0292 47.9396 46.0294L48.6326 46.0297C48.592 45.9877 48.5437 45.9667 48.4877 45.9667L48.4457 45.9667C48.4215 45.0012 48.326 44.0776 48.1591 43.196C47.9922 42.3143 47.7026 41.5446 47.2902 40.8867C46.8784 40.2149 46.3289 39.6829 45.6419 39.2907C44.9552 38.8846 44.0869 38.6812 43.0369 38.6807C42.7429 38.6805 42.4483 38.7014 42.1529 38.7432C41.8575 38.785 41.5546 38.8408 41.2443 38.9106C41.2733 38.8827 41.2882 38.8547 41.2891 38.8267C41.2914 38.7568 41.2655 38.6938 41.2113 38.6378C41.1576 38.5678 41.1319 38.4978 41.1343 38.4278C41.137 38.3439 41.2236 38.267 41.3939 38.1971C41.5786 38.1132 41.9592 38.0365 42.5355 37.9668C42.5084 37.9388 42.4888 37.8968 42.4766 37.8408C42.4785 37.7849 42.4799 37.7429 42.4808 37.7149C41.7248 37.7145 41.1373 37.7002 40.7182 37.672C40.2996 37.6298 40.093 37.5248 40.0986 37.3569C40.1009 37.2869 40.1881 37.189 40.3603 37.0632C40.5464 36.9373 40.8023 36.8185 41.128 36.7067C41.4542 36.581 41.8426 36.4762 42.2934 36.3925C42.7586 36.2948 43.2713 36.2461 43.8313 36.2464C44.9093 36.2469 45.8277 36.4153 46.5866 36.7515C47.346 37.0738 47.9757 37.5079 48.4757 38.0538C48.9902 38.5858 49.3971 39.1947 49.6965 39.8805C50.0099 40.5663 50.253 41.2591 50.4259 41.9588C50.6133 42.6445 50.7452 43.3162 50.8215 43.9739C50.8982 44.6176 50.9708 45.1774 51.0391 45.6532C51.0363 45.7371 51.0335 45.8211 51.0308 45.905C51.042 45.989 51.0458 46.0869 51.0421 46.1989C51.0287 46.6047 50.9399 46.9614 50.7758 47.2692C50.6261 47.5629 50.415 47.8077 50.1425 48.0035C49.8836 48.2132 49.5775 48.367 49.2243 48.4647C48.8846 48.5765 48.5188 48.6323 48.1268 48.6321C47.8188 48.6319 47.42 48.6247 46.9305 48.6105C46.4409 48.5962 45.9733 48.554 45.5276 48.4838C45.2359 48.4137 44.9158 48.3576 44.5671 48.3154C44.2181 48.2872 43.8629 48.2311 43.5017 48.1469C43.1405 48.0628 42.7874 47.9437 42.4425 47.7896C42.1115 47.6355 41.8112 47.4045 41.5413 47.0965C41.2859 46.7745 41.0825 46.3616 40.9312 45.8578C40.7938 45.354 40.7378 44.7173 40.7632 43.9477C40.7872 43.2201 40.9743 42.6395 41.3246 42.206C41.6754 41.7584 42.0857 41.4158 42.5556 41.1781C43.0399 40.9265 43.5282 40.7659 44.0205 40.6961C44.5132 40.6124 44.9136 40.5707 45.2216 40.5708C45.6136 40.571 45.8717 40.5992 45.9959 40.6552C46.12 40.7112 46.1812 40.7672 46.1793 40.8232C46.1779 40.8652 46.1698 40.9001 46.1549 40.9281C45.8049 40.9279 45.3564 40.9417 44.8095 40.9694C44.2626 40.9971 43.7276 41.0878 43.2045 41.2414C42.6954 41.3951 42.2536 41.6327 41.8789 41.9544C41.5048 42.262 41.3082 42.7027 41.2893 43.2764C41.4324 42.7587 41.6558 42.353 41.9595 42.0594C42.2776 41.7517 42.635 41.528 43.0316 41.3883C43.4287 41.2346 43.8307 41.1438 44.2376 41.116C44.659 41.0743 45.0377 41.0535 45.3737 41.0537L46.0877 41.054C46.0299 41.11 46 41.1659 45.9982 41.2219C45.9963 41.2779 46.0227 41.3268 46.0773 41.3689L46.8963 41.3693C47.1189 41.4114 47.2774 41.4884 47.3717 41.6004C47.4665 41.6984 47.5125 41.7894 47.5097 41.8733C47.5055 41.9993 47.4389 42.1112 47.3096 42.209C47.1804 42.3069 46.9672 42.4048 46.6699 42.5026ZM42.9744 47.58C43.3613 47.7341 43.7564 47.8532 44.1596 47.9374C44.5768 48.0216 44.988 48.0778 45.3931 48.1059C45.7977 48.1481 46.175 48.1693 46.525 48.1695C46.2459 48.1414 45.9675 48.0923 45.6898 48.0221C45.3982 47.952 45.1412 47.8889 44.9191 47.8328C44.6829 47.7768 44.4461 47.7417 44.2085 47.7275C43.9855 47.6994 43.7486 47.6643 43.498 47.6222C43.2614 47.5801 43.0185 47.517 42.7692 47.4329C42.5205 47.3349 42.2731 47.1948 42.0271 47.0128C42.2852 47.2508 42.601 47.4399 42.9744 47.58ZM43.2571 45.3763C43.2435 45.3623 43.2842 45.4043 43.3789 45.5023C43.4602 45.5863 43.5701 45.6493 43.7087 45.6913C43.6396 45.6633 43.5358 45.6283 43.3972 45.5862C43.245 45.5302 43.1708 45.4462 43.1745 45.3343L43.2571 45.3763ZM43.7717 45.6914C43.7577 45.6914 43.7367 45.6914 43.7087 45.6913C43.7227 45.6914 43.7437 45.6914 43.7717 45.6914ZM56.3342 48.0277C56.0538 46.7682 55.7579 45.5507 55.4467 44.3751C55.1359 43.1856 54.8114 41.989 54.4731 40.7855C54.3095 40.2257 54.1735 39.6799 54.0651 39.1482C53.9571 38.6024 53.7931 38.0566 53.5731 37.5108C53.672 37.4828 53.7506 37.4339 53.8089 37.364C53.8817 37.28 53.9671 37.2381 54.0651 37.2382C54.1351 37.2382 54.1967 37.2802 54.2499 37.3642C54.3172 37.4482 54.3699 37.5462 54.4082 37.6581C54.461 37.7561 54.5065 37.8611 54.5449 37.973C54.5832 38.085 54.6086 38.162 54.6212 38.2039L54.8753 38.1411C54.8267 37.9172 54.7849 37.7003 54.7498 37.4904C54.7292 37.2665 54.7226 37.0426 54.7299 36.8187C54.7327 36.7348 54.7439 36.6088 54.7634 36.4409C54.7974 36.2591 54.8844 36.1682 55.0244 36.1682C55.2344 36.1683 55.4589 36.3643 55.698 36.7563C55.9375 37.1342 56.1664 37.624 56.3845 38.2258C56.6167 38.8276 56.8398 39.4924 57.0538 40.2201C57.2682 40.9339 57.4624 41.6266 57.6362 42.2983C57.8101 42.9701 57.9582 43.5718 58.0807 44.1036C58.2171 44.6354 58.3097 45.0133 58.3583 45.2372C58.7375 44.7756 59.0755 44.293 59.3721 43.7895C59.6687 43.2859 59.9583 42.7823 60.2409 42.2787C60.538 41.7611 60.8416 41.2576 61.1518 40.768C61.4764 40.2644 61.8491 39.7889 62.2699 39.3413C62.3715 39.2294 62.5245 39.0476 62.7289 38.7958C62.9472 38.5441 63.1725 38.2923 63.4048 38.0406C63.6515 37.7748 63.8902 37.5441 64.1206 37.3483C64.3511 37.1525 64.5363 37.0547 64.6763 37.0548C64.7463 37.0548 64.8077 37.1038 64.8605 37.2018C64.3109 37.7332 63.7614 38.2646 63.2119 38.7961C62.6763 39.3275 62.2015 39.929 61.7873 40.6004C62.2145 39.957 62.6957 39.3765 63.2308 38.8591C63.7803 38.3276 64.3432 37.8172 64.9193 37.3277L65.1 37.5797C65.1882 37.4538 65.3468 37.314 65.5759 37.1602C65.8049 37.0064 65.9965 36.9295 66.1505 36.9296C66.2625 36.9296 66.3453 36.9647 66.399 37.0347C66.4527 37.1046 66.4777 37.1956 66.474 37.3076C66.4708 37.4055 66.4526 37.5314 66.4195 37.6853C66.3865 37.8392 66.3408 37.9511 66.2825 38.0211C66.2092 38.119 66.1225 38.2029 66.0222 38.2728C65.5463 38.6923 65.0924 39.0839 64.6604 39.4475C64.2429 39.7971 63.8435 40.2307 63.4625 40.7482L63.6143 40.6013C64.0071 40.1538 64.3982 39.7552 64.7878 39.4056C65.1913 39.056 65.6434 38.7204 66.144 38.3988C65.8632 38.8464 65.5425 39.2311 65.1819 39.5527C64.8358 39.8604 64.4812 40.21 64.1183 40.6016C63.9438 40.7974 63.7897 41.0142 63.6558 41.252C63.5365 41.4758 63.3828 41.6786 63.1948 41.8605L63.0078 41.7974C62.7229 42.3709 62.4235 42.9585 62.1097 43.56C61.8103 44.1475 61.4831 44.7281 61.1282 45.3016C60.7738 45.8611 60.3782 46.3926 59.9416 46.8961C59.519 47.3996 59.0424 47.8402 58.512 48.2177C58.4672 48.3016 58.3739 48.3715 58.2321 48.4274C58.1038 48.4973 58.0039 48.5532 57.9325 48.5952L56.6289 48.0068C56.5415 47.6849 56.4408 47.3421 56.3268 46.9782C56.2268 46.6143 56.1261 46.2715 56.0248 45.9496L55.9191 45.9705L56.4189 48.0067C56.4324 48.0207 56.453 48.0347 56.4805 48.0487C56.5221 48.0627 56.5911 48.0908 56.6878 48.1328C56.7979 48.1888 56.9566 48.2589 57.1638 48.3429C57.3846 48.441 57.6814 48.5671 58.0544 48.7212C58.6254 48.3857 59.1134 48.0221 59.5184 47.6305C59.9088 47.2529 60.2876 46.8053 60.6547 46.2878C60.4919 46.5536 60.3228 46.7984 60.1474 47.0222C59.9716 47.2599 59.7822 47.4837 59.5793 47.6935C59.3764 47.9033 59.1529 48.0991 58.9089 48.2809C58.6644 48.4766 58.3854 48.6584 58.0719 48.8261L56.3342 48.0277ZM59.3012 47.2106C59.9981 46.4554 60.5985 45.6581 61.1021 44.8188C61.6198 43.9795 62.0822 43.1192 62.4893 42.2379L62.4907 42.1959C62.2388 42.6156 61.9865 43.0492 61.7338 43.4968C61.4955 43.9305 61.2501 44.3641 60.9978 44.7978C60.746 45.2174 60.4801 45.6371 60.2003 46.0567C59.9209 46.4623 59.6212 46.847 59.3012 47.2106ZM60.4078 42.9504C60.8541 42.1531 61.3139 41.3697 61.7873 40.6004C61.2724 41.3557 60.799 42.1251 60.3672 42.9084C59.9358 43.6778 59.4701 44.4262 58.9701 45.1535C59.4971 44.4542 59.9764 43.7198 60.4078 42.9504ZM63.3743 40.8741C63.2278 41.0699 63.0884 41.2657 62.9559 41.4615C62.8379 41.6434 62.7199 41.8252 62.6019 42.0071C62.7339 41.8252 62.8867 41.6504 63.0602 41.4826C63.2342 41.3008 63.3389 41.0979 63.3743 40.8741ZM60.7645 46.1409C61.0005 45.7773 61.2228 45.4066 61.4312 45.0289C61.4457 45.0149 61.4601 45.0009 61.4746 44.9869C61.4601 45.0009 61.4527 45.0149 61.4522 45.0289C61.2438 45.4066 61.0145 45.7773 60.7645 46.1409ZM61.7649 44.4623L61.5865 44.7771L61.7649 44.4623ZM61.944 44.1266C61.8843 44.2385 61.8246 44.3504 61.7649 44.4623C61.8246 44.3504 61.8843 44.2385 61.944 44.1266ZM61.5648 44.7981C61.5495 44.84 61.5271 44.882 61.4977 44.924C61.5271 44.882 61.5495 44.84 61.5648 44.7981ZM60.7205 46.2039C60.6915 46.2319 60.6696 46.2598 60.6547 46.2878C60.6696 46.2598 60.6915 46.2319 60.7205 46.2039ZM75.1614 48.3942C74.6234 48.5758 74.2142 48.6736 73.9337 48.6874C73.6528 48.7153 73.4071 48.7361 73.1966 48.75C72.4126 48.7496 71.7105 48.6023 71.0902 48.3081C70.4699 48.014 69.944 47.6149 69.5126 47.111C69.0813 46.607 68.7507 46.0191 68.5208 45.3474C68.3054 44.6616 68.2104 43.934 68.2358 43.1644C68.2506 42.7166 68.3078 42.2549 68.4075 41.7792C68.5077 41.2895 68.6494 40.8138 68.8326 40.3522C69.0163 39.8765 69.2478 39.4359 69.5272 39.0302C69.7926 38.6246 70.1056 38.2609 70.4662 37.9393C70.0925 38.2329 69.773 38.5826 69.5076 38.9882C69.2282 39.3939 68.9897 39.8345 68.792 40.3102C68.5947 40.7718 68.4458 41.2545 68.3452 41.7582C68.245 42.2479 68.1874 42.7236 68.1721 43.1853C68.1527 43.773 68.223 44.4027 68.3828 45.0744C68.5571 45.7322 68.8448 46.348 69.2459 46.9219C69.6474 47.4818 70.171 47.9509 70.8165 48.329C71.476 48.7071 72.2818 48.8965 73.2338 48.8969C73.6818 48.8972 74.1529 48.8345 74.647 48.7088C74.1035 49.0583 73.5027 49.2329 72.8447 49.2326C72.3127 49.2323 71.8115 49.1481 71.341 48.9799C70.8841 48.8258 70.4575 48.6017 70.0612 48.3076C69.6784 48.0276 69.3325 47.6916 69.0234 47.2996C68.7143 46.9077 68.4552 46.4877 68.246 46.0399L68.4405 45.8721C68.2182 45.3962 68.0589 44.9204 67.9626 44.4446C67.8803 43.9688 67.8472 43.486 67.8633 42.9963C67.8869 42.2827 68.0075 41.5971 68.2252 40.9395C68.4569 40.282 68.7504 39.6595 69.1058 39.072L69.6327 38.3796C69.7217 38.2258 69.8458 38.0719 70.0049 37.9181C70.178 37.7642 70.3648 37.6174 70.5654 37.4776C70.7665 37.3238 70.9739 37.1909 71.1876 37.0791C71.4157 36.9533 71.6294 36.8415 71.8287 36.7436C72.341 36.492 72.8524 36.2684 73.3628 36.0728C73.8738 35.8631 74.4668 35.7095 75.1421 35.6119L75.0601 35.5489C73.768 35.6742 72.6656 35.9885 71.753 36.4917C70.8408 36.981 70.093 37.5823 69.5094 38.2956C68.9259 39.0089 68.4941 39.7923 68.2139 40.6457C67.9342 41.4851 67.781 42.3106 67.7542 43.1222C67.7399 43.5559 67.7603 43.9967 67.8156 44.4445C67.8853 44.8783 67.99 45.3121 68.1297 45.746C67.8073 44.9062 67.6617 44.0176 67.6926 43.0801C67.723 42.1566 67.9073 41.2402 68.2453 40.3309C68.5833 39.4215 69.094 38.5822 69.7774 37.813C70.6427 37.0439 71.5791 36.4566 72.5865 36.0514C73.5944 35.6321 74.5603 35.4227 75.4843 35.4232C75.7783 35.4234 76.0777 35.4725 76.3824 35.5706C76.6872 35.6687 76.9621 35.8228 77.2072 36.0328C77.4528 36.2288 77.6472 36.4878 77.7906 36.8097C77.948 37.1316 78.0191 37.5234 78.0038 37.9852C77.9914 38.363 77.8851 38.8247 77.6851 39.3703C77.4851 39.9159 77.1946 40.4474 76.8135 40.965C76.4469 41.4685 75.9916 41.9021 75.4476 42.2656C74.904 42.6151 74.2823 42.7897 73.5823 42.7893L72.8893 42.789C72.375 42.6768 71.9031 42.5506 71.4737 42.4105C71.0588 42.2563 70.6637 42.1372 70.2885 42.053C70.2251 42.2769 70.183 42.4937 70.162 42.7036C70.1556 42.8995 70.1491 43.0954 70.1427 43.2913C70.1293 43.6971 70.1581 44.0959 70.2292 44.4877C70.3147 44.8656 70.4502 45.2154 70.6356 45.5374C70.821 45.8593 71.057 46.1323 71.3436 46.3563C71.6446 46.5664 72.0113 46.6995 72.4434 46.7557C72.7076 46.8118 72.9374 46.8469 73.133 46.861C73.329 46.8611 73.4897 46.8681 73.6153 46.8822C73.7553 46.8823 73.8526 46.9033 73.9072 46.9453C73.9763 46.9733 74.0092 47.0363 74.006 47.1343C73.8646 47.1762 73.7166 47.2041 73.5622 47.218C73.4217 47.2319 73.2745 47.2388 73.1205 47.2388C72.6305 47.2385 72.192 47.1613 71.8051 47.0072C71.4186 46.8391 71.0889 46.65 70.8158 46.44C71.1272 46.762 71.5046 46.9931 71.948 47.1332C72.3918 47.2594 72.8307 47.3226 73.2647 47.3228C73.5027 47.3229 73.7484 47.3021 74.0018 47.2602C73.971 47.3441 73.9554 47.3931 73.955 47.4071C73.9522 47.4911 73.9853 47.547 74.0544 47.5751C74.1109 47.5611 74.21 47.5262 74.3519 47.4703C74.4942 47.4004 74.6363 47.3375 74.7781 47.2816C74.9344 47.2117 75.0833 47.1558 75.2246 47.1139C75.3665 47.058 75.4654 47.0301 75.5214 47.0301C75.5914 47.0302 75.654 47.0442 75.709 47.0722C75.7646 47.0862 75.79 47.1632 75.7854 47.3031C75.7808 47.443 75.7263 47.6109 75.6218 47.8068C75.5173 48.0026 75.3639 48.1984 75.1614 48.3942ZM72.5376 40.0812L72.9968 40.1654C73.1499 40.1935 73.2894 40.2076 73.4154 40.2076C73.5554 40.2077 73.7178 40.1658 73.9026 40.0819C74.1018 39.9841 74.2952 39.8513 74.4827 39.6834C74.6843 39.5156 74.8592 39.3058 75.0075 39.0541C75.1698 38.8023 75.2913 38.5155 75.3719 38.1937L75.4181 38.0678C75.2221 38.0677 74.9264 38.1165 74.5312 38.2142C74.136 38.312 73.7256 38.4447 73.3001 38.6124C72.875 38.7661 72.4767 38.9548 72.1054 39.1785C71.7344 39.3882 71.4748 39.6189 71.3265 39.8707C71.5351 39.9128 71.7367 39.9549 71.9314 39.997C72.1404 40.0251 72.3425 40.0531 72.5376 40.0812ZM71.5204 41.6339C71.5493 41.6059 71.5647 41.5639 71.5665 41.508C71.5824 41.452 71.5907 41.41 71.5917 41.3821L70.6164 41.0247L70.5017 41.3185L71.5204 41.6339ZM70.7752 46.398C70.6809 46.286 70.5866 46.174 70.4923 46.062C70.4115 45.964 70.3447 45.866 70.292 45.7681C70.4101 46.006 70.5712 46.216 70.7752 46.398ZM85.8218 46.2379C85.7378 46.2378 85.6524 46.2798 85.5657 46.3637C85.268 46.4755 84.9567 46.5732 84.632 46.657C84.3217 46.7268 83.9985 46.7616 83.6625 46.7615C82.7105 46.761 82.0055 46.4878 81.5475 45.9418C81.09 45.3819 80.8785 44.5772 80.9131 43.5278C80.9297 43.024 80.9674 42.5203 81.026 42.0166C81.0841 41.5269 81.1271 41.0722 81.155 40.6524C81.0987 41.0861 81.0354 41.5199 80.9651 41.9536C80.8798 42.4153 80.8289 42.898 80.8123 43.4018C80.804 43.6536 80.8144 43.9755 80.8434 44.3673C80.8865 44.7591 80.9998 45.1439 81.1834 45.5218C81.3674 45.8857 81.6577 46.2077 82.0545 46.4878C82.4517 46.7538 83.0073 46.8871 83.7213 46.8874C84.0573 46.8876 84.3805 46.8528 84.6908 46.783C85.0156 46.6992 85.3268 46.6014 85.6245 46.4896C85.4207 46.7274 85.1484 46.9162 84.8078 47.0559C84.4812 47.1957 84.0939 47.2654 83.6459 47.2652C83.0719 47.2649 82.5158 47.1457 81.9777 46.9075C81.4535 46.6694 81.0607 46.2704 80.7991 45.7105L80.9327 45.4797C80.6955 45.0318 80.5687 44.633 80.5522 44.2832C80.5362 43.9194 80.52 43.5625 80.5035 43.2127L80.9817 39.5399C81.0724 38.9103 81.1422 38.2806 81.191 37.651L81.1294 37.609C80.9957 38.2666 80.8839 38.8962 80.7941 39.4978C80.7047 40.0855 80.6295 40.6661 80.5686 41.2398L80.5866 40.6941C80.6918 40.0505 80.7896 39.4209 80.8799 38.8052C80.9707 38.1756 81.0827 37.539 81.2159 36.8954C81.3491 36.2518 81.5113 35.5802 81.7024 34.8807C81.9075 34.1812 82.1702 33.4327 82.4905 32.6353C82.9 32.1038 83.1483 31.5792 83.2354 31.0615C83.2774 31.0615 83.3192 31.0686 83.3607 31.0826C83.4022 31.0966 83.486 31.1036 83.612 31.1037C83.696 31.1037 83.7653 31.1248 83.8199 31.1668C83.889 31.1948 83.9217 31.2648 83.918 31.3767C83.9138 31.5026 83.8656 31.6915 83.7733 31.9433C83.8013 31.9434 83.8428 31.9574 83.8979 31.9854C83.9535 31.9994 83.9952 32.0064 84.0232 32.0064C84.2303 31.6707 84.4148 31.384 84.5766 31.1462C84.7525 30.9084 84.9174 30.7895 85.0714 30.7896C85.1694 30.7897 85.2513 30.8527 85.3172 30.9786C85.3975 31.0906 85.4332 31.2795 85.4245 31.5454C85.3798 32.0491 85.2802 32.5248 85.1254 32.9725C84.9846 33.4202 84.8303 33.8539 84.6625 34.2736C84.4946 34.6933 84.3265 35.1199 84.1582 35.5536C84.0039 35.9873 83.8839 36.442 83.7982 36.9177C83.6962 37.4634 83.5938 38.023 83.4908 38.5967C83.3884 39.1563 83.2929 39.716 83.2044 40.2757C83.116 40.8353 83.0282 41.374 82.9411 41.8917C82.8681 42.4094 82.8101 42.8921 82.7674 43.3398C82.754 43.7456 82.8031 44.1654 82.9148 44.5992C82.9811 44.7112 83.0414 44.7952 83.0955 44.8512C83.1501 44.8932 83.2474 44.9142 83.3874 44.9143C83.5554 44.9144 83.7381 44.8935 83.9355 44.8516C84.1469 44.8098 84.3296 44.7889 84.4836 44.7889C84.5816 44.789 84.6511 44.803 84.6922 44.831C84.7333 44.859 84.7667 44.908 84.7924 44.978C84.5927 45.0898 84.3799 45.1737 84.154 45.2295C83.9282 45.2854 83.7173 45.3133 83.5213 45.3132L83.2273 45.313C83.1713 45.313 83.1223 45.313 83.0803 45.3129C83.2334 45.341 83.4289 45.3551 83.6669 45.3552C84.0309 45.3554 84.4047 45.2716 84.7882 45.1039C84.784 45.2299 84.8226 45.3348 84.9038 45.4188C84.9463 45.4049 85.0459 45.3559 85.2027 45.2721C85.3594 45.1882 85.4938 45.1463 85.6058 45.1463C85.9418 45.1465 86.1052 45.2865 86.096 45.5664C86.0946 45.6083 86.0785 45.6713 86.0477 45.7552C86.017 45.8392 85.9417 46.0001 85.8218 46.2379ZM80.3496 43.4225C80.3528 43.3246 80.357 43.1986 80.3621 43.0447C80.3811 42.8908 80.4002 42.7369 80.4193 42.583L80.4772 42.1003C80.4967 41.9324 80.5156 41.7855 80.5337 41.6595C80.5128 41.8694 80.4901 42.1353 80.4654 42.4571C80.4553 42.7649 80.4477 42.9958 80.4426 43.1497L80.4149 43.9893C80.4112 44.1012 80.4073 44.2201 80.4031 44.3461C80.413 44.472 80.423 44.5909 80.4334 44.7029C80.3847 44.479 80.3569 44.2621 80.3498 44.0522C80.3432 43.8283 80.3431 43.6184 80.3496 43.4225ZM82.4104 43.3396C82.421 43.0178 82.4524 42.703 82.5045 42.3952C82.5567 42.0874 82.6021 41.7726 82.6407 41.4507C82.5601 41.7725 82.4937 42.0873 82.4415 42.3951C82.4034 42.703 82.365 43.0178 82.3264 43.3396L82.3167 43.6334C82.3134 43.7314 82.317 43.8363 82.3273 43.9483L82.3321 43.8013C82.3344 43.7314 82.344 43.6544 82.3607 43.5705C82.3775 43.4865 82.394 43.4096 82.4104 43.3396ZM80.5344 41.6386C80.5354 41.6106 80.5361 41.5896 80.5365 41.5756C80.551 41.5616 80.5584 41.5476 80.5589 41.5336C80.5571 41.5896 80.5489 41.6246 80.5344 41.6386ZM103.632 42.532C103.254 42.5318 102.968 42.5247 102.772 42.5106C102.591 42.4965 102.423 42.4894 102.269 42.4894C101.849 42.4891 101.477 42.5099 101.154 42.5517C100.83 42.5936 100.555 42.6774 100.326 42.8032C100.098 42.929 99.9243 43.1108 99.8044 43.3486C99.6846 43.5864 99.6182 43.9012 99.6053 44.293C99.5863 44.8667 99.6353 45.2935 99.752 45.5734C99.8833 45.8394 100.066 46.0353 100.3 46.1614C100.548 46.2735 100.847 46.3436 101.196 46.3718C101.545 46.3999 101.935 46.4631 102.365 46.5613C102.617 46.5894 102.868 46.6105 103.119 46.6246C103.371 46.6247 103.623 46.6249 103.875 46.625L105.387 46.6258C104.689 46.5835 103.989 46.5621 103.289 46.5617C102.604 46.5474 101.983 46.4841 101.427 46.3719C100.884 46.2597 100.443 46.0635 100.102 45.7835C99.7753 45.5035 99.6214 45.0766 99.6403 44.5029C99.6556 44.0412 99.7231 43.6914 99.843 43.4536C99.9773 43.2018 100.144 43.02 100.344 42.9081C100.558 42.7823 100.805 42.7125 101.086 42.6986C101.367 42.6708 101.668 42.657 101.99 42.6571C102.382 42.6573 102.781 42.6785 103.185 42.7207C102.86 42.8185 102.528 42.8953 102.191 42.9511C101.867 42.9929 101.565 43.0417 101.283 43.0975C101.001 43.1394 100.754 43.2022 100.542 43.286C100.343 43.3559 100.207 43.4608 100.132 43.6007L100.101 44.5452L99.9302 44.629C99.9747 44.9789 100.015 45.2447 100.051 45.4267C100.101 45.5946 100.237 45.7276 100.458 45.8257C100.679 45.9097 101.034 45.9799 101.522 46.0361C102.024 46.0923 102.749 46.1837 103.697 46.3101L105.209 46.3109C105.475 46.311 105.629 46.3041 105.671 46.2901C105.728 46.2622 105.764 46.2482 105.778 46.2482L105.626 45.1147C105.608 44.8348 105.581 44.583 105.546 44.3591C105.512 44.1352 105.463 43.8973 105.402 43.6454C105.386 43.6873 105.344 43.7083 105.274 43.7083C105.336 43.9462 105.384 44.1981 105.417 44.4639C105.464 44.7298 105.498 44.9817 105.518 45.2196C105.552 45.4575 105.573 45.6604 105.582 45.8283C105.604 45.9962 105.629 46.0942 105.656 46.1222L105.529 46.1641C105.5 46.1781 105.458 46.1851 105.402 46.185L105.276 46.185C105.178 46.1849 105.066 46.1779 104.941 46.1638C104.816 46.1358 104.655 46.1217 104.459 46.1216L103.766 46.1212C103.22 46.1209 102.717 46.0927 102.257 46.0365C101.825 45.9803 101.449 45.9101 101.13 45.826C101.449 45.8961 101.84 45.9523 102.3 45.9945C102.788 46.0507 103.242 46.079 103.662 46.0792C103.844 46.0793 104.033 46.0794 104.229 46.0795C104.44 46.0656 104.664 46.0587 104.902 46.0588L105.595 46.0592C105.554 46.0172 105.506 45.9962 105.45 45.9962L105.408 45.9961C105.384 45.0306 105.289 44.1071 105.122 43.2254C104.955 42.3438 104.665 41.5741 104.253 40.9162C103.841 40.2444 103.291 39.7123 102.604 39.3202C101.918 38.9141 101.049 38.7107 99.9994 38.7102C99.7054 38.71 99.4107 38.7309 99.1154 38.7727C98.82 38.8145 98.5171 38.8703 98.2068 38.9401C98.2357 38.9122 98.2507 38.8842 98.2516 38.8562C98.2539 38.7862 98.228 38.7232 98.1738 38.6673C98.1201 38.5973 98.0944 38.5273 98.0967 38.4573C98.0995 38.3734 98.1861 38.2965 98.3564 38.2266C98.5411 38.1427 98.9217 38.066 99.498 37.9963C99.4709 37.9683 99.4513 37.9263 99.4391 37.8703C99.441 37.8144 99.4424 37.7724 99.4433 37.7444C98.6873 37.744 98.0997 37.7297 97.6807 37.7015C97.2621 37.6593 97.0555 37.5543 97.0611 37.3863C97.0634 37.3164 97.1506 37.2185 97.3228 37.0926C97.5089 36.9668 97.7648 36.848 98.0905 36.7362C98.4167 36.6105 98.8051 36.5057 99.2559 36.422C99.7211 36.3243 100.234 36.2756 100.794 36.2759C101.872 36.2764 102.79 36.4448 103.549 36.781C104.309 37.1033 104.938 37.5373 105.438 38.0833C105.953 38.6153 106.36 39.2242 106.659 39.91C106.972 40.5958 107.216 41.2886 107.388 41.9883C107.576 42.674 107.708 43.3457 107.784 44.0034C107.861 44.6471 107.933 45.2069 108.002 45.6826C107.999 45.7666 107.996 45.8506 107.993 45.9345C108.004 46.0185 108.008 46.1164 108.005 46.2284C107.991 46.6341 107.902 46.9909 107.738 47.2987C107.589 47.5924 107.377 47.8372 107.105 48.0329C106.846 48.2427 106.54 48.3965 106.187 48.4942C105.847 48.606 105.481 48.6618 105.089 48.6616C104.781 48.6614 104.382 48.6542 103.893 48.64C103.403 48.6257 102.936 48.5835 102.49 48.5133C102.198 48.4432 101.878 48.387 101.53 48.3449C101.181 48.3167 100.825 48.2606 100.464 48.1764C100.103 48.0923 99.7499 47.9732 99.405 47.8191C99.074 47.665 98.7736 47.4339 98.5038 47.126C98.2484 46.804 98.045 46.3911 97.8937 45.8873C97.7563 45.3835 97.7003 44.7468 97.7257 43.9772C97.7497 43.2496 97.9368 42.669 98.2871 42.2354C98.6379 41.7878 99.0482 41.4452 99.518 41.2076C100.002 40.956 100.491 40.7953 100.983 40.7256C101.476 40.6419 101.876 40.6001 102.184 40.6003C102.576 40.6005 102.834 40.6286 102.958 40.6847C103.083 40.7407 103.144 40.7967 103.142 40.8527C103.14 40.8946 103.132 40.9296 103.117 40.9576C102.767 40.9574 102.319 40.9712 101.772 40.9989C101.225 41.0266 100.69 41.1173 100.167 41.2709C99.6579 41.4246 99.216 41.6622 98.8414 41.9838C98.4673 42.2915 98.2707 42.7322 98.2518 43.3058C98.3949 42.7882 98.6183 42.3825 98.922 42.0888C99.2401 41.7812 99.5975 41.5575 99.9941 41.4177C100.391 41.264 100.793 41.1733 101.2 41.1455C101.622 41.1038 102 41.083 102.336 41.0831L103.05 41.0835C102.992 41.1394 102.963 41.1954 102.961 41.2514C102.959 41.3073 102.985 41.3563 103.04 41.3983L103.859 41.3988C104.081 41.4408 104.24 41.5179 104.334 41.6299C104.429 41.7279 104.475 41.8189 104.472 41.9028C104.468 42.0287 104.401 42.1406 104.272 42.2385C104.143 42.3364 103.93 42.4342 103.632 42.532ZM99.9369 47.6095C100.324 47.7636 100.719 47.8827 101.122 47.9669C101.539 48.051 101.95 48.1072 102.356 48.1354C102.76 48.1776 103.137 48.1988 103.487 48.199C103.208 48.1709 102.93 48.1217 102.652 48.0516C102.361 47.9815 102.104 47.9184 101.882 47.8623C101.645 47.8062 101.409 47.7711 101.171 47.757C100.948 47.7289 100.711 47.6938 100.46 47.6517C100.224 47.6096 99.981 47.5465 99.7317 47.4624C99.483 47.3643 99.2356 47.2243 98.9896 47.0423C99.2477 47.2803 99.5635 47.4693 99.9369 47.6095ZM100.22 45.4058C100.206 45.3918 100.247 45.4338 100.341 45.5318C100.423 45.6158 100.533 45.6788 100.671 45.7208C100.602 45.6928 100.498 45.6578 100.36 45.6157C100.207 45.5597 100.133 45.4757 100.137 45.3637L100.22 45.4058ZM100.734 45.7209C100.72 45.7209 100.699 45.7208 100.671 45.7208C100.685 45.7208 100.706 45.7208 100.734 45.7209ZM111.238 46.6918C111.24 46.6218 111.264 46.5379 111.309 46.44C111.354 46.342 111.379 46.2371 111.382 46.1252C111.436 45.7894 111.471 45.5515 111.49 45.4116C111.509 45.2577 111.52 45.1248 111.524 45.0128C111.544 44.4251 111.543 43.7955 111.523 43.1238C111.518 42.4382 111.505 41.7805 111.484 41.1508C111.49 40.9549 111.491 40.7241 111.485 40.4582C111.494 40.1923 111.487 39.9825 111.464 39.8285C111.522 39.3388 111.573 38.8561 111.617 38.3804C111.661 37.9046 111.691 37.4219 111.707 36.9322L111.724 36.4075C111.73 36.2256 111.729 36.0437 111.721 35.8617C111.762 35.9037 111.803 35.9248 111.845 35.9248C111.901 35.9248 111.958 35.9038 112.015 35.8619C112.086 35.82 112.15 35.799 112.206 35.799C112.304 35.7991 112.378 35.9041 112.427 36.114C112.49 36.3239 112.51 36.7857 112.486 37.4993L112.675 37.4994C112.771 36.7158 112.896 36.0932 113.052 35.6316C113.221 35.1699 113.382 34.9391 113.536 34.9392C113.606 34.9392 113.713 35.0932 113.857 35.4011C114.002 35.695 114.063 36.1638 114.042 36.8074L114.285 36.4298C114.445 36.2479 114.62 36.0591 114.808 35.8633C115.01 35.6675 115.233 35.4928 115.476 35.339C115.719 35.1852 115.99 35.0594 116.287 34.9616C116.584 34.8498 116.922 34.794 117.3 34.7942C118.028 34.7946 118.653 34.9628 119.174 35.2989C119.709 35.621 120.15 36.048 120.496 36.5799C120.843 37.0978 121.118 37.6926 121.32 38.3644C121.536 39.0222 121.696 39.6939 121.799 40.3796C121.903 41.0513 121.966 41.702 121.987 42.3316C122.008 42.9613 122.011 43.5 121.996 43.9478C121.983 44.3536 121.947 44.5984 121.888 44.6824C121.844 44.7523 121.759 44.7942 121.632 44.8082C121.64 43.7307 121.606 42.6323 121.531 41.5128C121.456 40.3934 121.225 39.3088 120.84 38.2592C121.182 39.3648 121.384 40.4563 121.446 41.5338C121.523 42.5973 121.544 43.6677 121.508 44.7451C121.426 44.7031 121.349 44.6821 121.279 44.682C121.223 44.682 121.174 44.703 121.13 44.7449C121.126 44.8569 121.13 44.9758 121.139 45.1018C121.15 45.2137 121.153 45.3256 121.149 45.4376C121.16 45.5495 121.163 45.6545 121.16 45.7524C121.065 46.0742 120.974 46.305 120.885 46.4449C120.796 46.5848 120.717 46.6547 120.647 46.6547C120.563 46.6546 120.494 46.6196 120.441 46.5496C120.387 46.4656 120.335 46.3677 120.282 46.2557C120.244 46.1437 120.199 46.0248 120.147 45.8988C120.11 45.7589 120.051 45.6259 119.971 45.4999C120.007 45.2621 120.034 45.0732 120.053 44.9333C120.072 44.7794 120.083 44.6534 120.086 44.5555C120.099 44.1777 120.107 43.7229 120.11 43.1912C120.114 42.6595 120.09 42.1068 120.039 41.5331C120.002 40.9454 119.924 40.3646 119.803 39.7909C119.696 39.2031 119.531 38.6853 119.308 38.2374C119.099 37.7756 118.824 37.4046 118.483 37.1246C118.143 36.8306 117.728 36.6834 117.238 36.6832C116.902 36.683 116.597 36.7948 116.324 37.0185C116.065 37.2423 115.831 37.529 115.624 37.8787C115.43 38.2284 115.256 38.6131 115.102 39.0328C114.949 39.4385 114.824 39.8303 114.728 40.208C114.867 39.8163 115.006 39.4176 115.145 39.0119C115.299 38.6061 115.472 38.2354 115.665 37.8997C115.872 37.564 116.105 37.2913 116.364 37.0815C116.623 36.8578 116.921 36.746 117.257 36.7461C117.691 36.7464 118.058 36.8655 118.358 37.1035C118.672 37.3416 118.928 37.6495 119.126 38.0274C119.337 38.4053 119.498 38.8392 119.608 39.329C119.732 39.8048 119.821 40.2946 119.874 40.7984C119.928 41.2881 119.954 41.7709 119.953 42.2466C119.965 42.7084 119.966 43.1072 119.955 43.443C119.946 43.7089 119.931 43.9747 119.908 44.2406C119.899 44.5064 119.883 44.7793 119.86 45.0591C119.751 44.5273 119.672 43.9746 119.62 43.4009C119.584 42.8132 119.54 42.2394 119.488 41.6797C119.437 41.106 119.364 40.5602 119.269 40.0424C119.189 39.5107 119.058 39.0209 118.877 38.573L119.031 38.3632C118.901 38.0413 118.748 37.7964 118.572 37.6284C118.41 37.4464 118.246 37.3134 118.081 37.2293C117.916 37.1453 117.763 37.0962 117.624 37.0822C117.484 37.0681 117.394 37.061 117.352 37.061C117.002 37.0608 116.682 37.1866 116.394 37.4383C116.12 37.6901 115.87 38.0327 115.646 38.4664C115.436 38.8861 115.245 39.3757 115.073 39.9353C114.9 40.4949 114.748 41.0826 114.616 41.6982C114.483 42.3138 114.365 42.9364 114.26 43.566C114.156 44.1816 114.066 44.7623 113.992 45.3079L114.181 45.308C114.267 44.8323 114.354 44.3077 114.443 43.734C114.546 43.1604 114.649 42.5797 114.753 41.9921C114.871 41.3905 115.002 40.8098 115.146 40.2502C115.291 39.6906 115.454 39.1869 115.637 38.7393C115.834 38.2916 116.056 37.9279 116.303 37.6482C116.536 37.3824 116.814 37.2287 117.137 37.1868C116.827 37.2567 116.562 37.4524 116.341 37.7741C116.106 38.1098 115.896 38.5225 115.712 39.0121C115.528 39.5018 115.356 40.0404 115.197 40.628C115.052 41.2017 114.915 41.7543 114.785 42.2859L114.264 45.3501C114.202 45.5459 114.154 45.7208 114.121 45.8747L114.022 46.3154C113.99 46.4553 113.957 46.6092 113.923 46.7771C113.89 46.931 113.849 47.1129 113.8 47.3228L113.729 47.5746L113.603 47.5745L111.505 46.8598C111.436 46.8458 111.38 46.8248 111.339 46.7968C111.312 46.7688 111.278 46.7338 111.238 46.6918ZM115.247 35.9265C114.959 36.1643 114.727 36.423 114.549 36.7028C114.387 36.9685 114.231 37.2413 114.081 37.5211L114.081 37.5421C114.29 37.1364 114.577 36.7238 114.94 36.3042C115.289 35.9126 115.747 35.619 116.314 35.4234C116.13 35.4792 115.953 35.5351 115.783 35.591C115.585 35.6608 115.406 35.7727 115.247 35.9265ZM117.79 35.2352C117.72 35.2212 117.622 35.2141 117.496 35.2141C117.941 35.3262 118.357 35.4524 118.744 35.5925C119.132 35.7187 119.494 35.9777 119.831 36.3697C119.604 36.0477 119.297 35.7957 118.911 35.6136C118.539 35.4315 118.165 35.3054 117.79 35.2352ZM118.278 37.6282C118.169 37.5442 118.038 37.4812 117.885 37.4391C117.747 37.3831 117.574 37.313 117.367 37.2289L117.347 37.187C117.585 37.2011 117.793 37.2572 117.972 37.3552C118.151 37.4392 118.321 37.5932 118.482 37.8172L118.278 37.6282ZM119.872 36.4117C120.06 36.6496 120.233 36.9226 120.391 37.2305C120.549 37.5384 120.687 37.8114 120.805 38.0493C120.676 37.7274 120.552 37.4335 120.435 37.1676C120.318 36.9016 120.13 36.6497 119.872 36.4117ZM136.188 32.7261C136.203 33.1319 136.211 33.5307 136.212 33.9224C136.213 34.3002 136.207 34.692 136.194 35.0978C136.166 35.9374 136.11 36.7839 136.026 37.6374C135.957 38.4769 135.872 39.3304 135.774 40.1979C135.675 41.0654 135.576 41.9539 135.476 42.8634C135.376 43.7728 135.282 44.7173 135.193 45.6967C135.188 45.8506 135.176 46.0115 135.157 46.1794C135.151 46.3334 135.132 46.5083 135.097 46.7041L135.089 46.956C135.088 46.998 135.072 47.0539 135.041 47.1239C135.011 47.1938 134.981 47.2428 134.953 47.2708C134.764 47.4806 134.59 47.6414 134.433 47.7532C134.289 47.8511 134.154 47.928 134.026 47.9839C133.899 48.0258 133.779 48.0467 133.667 48.0467C133.554 48.0606 133.442 48.0746 133.33 48.0885L133.456 48.0886C133.498 48.0886 133.575 48.0816 133.687 48.0677C133.814 48.0538 133.947 48.0328 134.088 48.0049C134.244 47.963 134.385 47.9141 134.513 47.8582C134.655 47.7883 134.756 47.6974 134.816 47.5855L135.018 47.2078C135.107 47.054 135.161 46.8931 135.181 46.7252C135.215 46.5433 135.234 46.3684 135.24 46.2005C135.26 46.0186 135.273 45.8437 135.278 45.6758C135.284 45.5079 135.303 45.347 135.336 45.1931C135.407 44.3116 135.492 43.4301 135.591 42.5486C135.704 41.6671 135.811 40.7786 135.91 39.8831C136.01 38.9877 136.103 38.0852 136.189 37.1757C136.275 36.2523 136.334 35.3148 136.365 34.3633C136.375 34.0695 136.377 33.7896 136.372 33.5237C136.381 33.2439 136.383 32.978 136.377 32.7262C136.417 32.7822 136.456 32.8731 136.494 32.9991C136.547 33.111 136.583 33.293 136.602 33.5448C136.667 33.6988 136.704 33.8667 136.712 34.0486C136.72 34.2305 136.734 34.4195 136.756 34.6154C136.725 35.5668 136.659 36.4903 136.56 37.3858C136.461 38.2673 136.361 39.1488 136.262 40.0303L136.071 40.0931L135.764 43.6821C135.731 44.6895 135.654 45.522 135.535 46.1796C135.429 46.8232 135.338 47.25 135.261 47.4598L135.259 47.5228C135.042 47.7326 134.855 47.8934 134.697 48.0052C134.554 48.1031 134.419 48.18 134.291 48.2359C134.163 48.2918 134.043 48.3197 133.931 48.3197C133.832 48.3336 133.727 48.3406 133.615 48.3405L132.271 48.3398C131.895 48.2976 131.489 48.2764 131.055 48.2762C130.621 48.29 130.167 48.2478 129.694 48.1496C129.222 48.0514 128.738 47.8482 128.245 47.5401C127.765 47.2321 127.284 46.7421 126.802 46.0702C126.801 46.0982 126.793 46.1191 126.779 46.1331C126.764 46.1471 126.75 46.1681 126.735 46.1961C127.176 46.826 127.712 47.344 128.343 47.7501C128.987 48.1562 129.686 48.3944 130.44 48.4648L132.204 48.4657C132.371 48.4938 132.539 48.5079 132.707 48.5079C132.888 48.522 133.084 48.5291 133.294 48.5292C133.504 48.5293 133.778 48.5015 134.116 48.4457C134.468 48.3899 134.803 48.2082 135.121 47.9005C135.179 47.8306 135.216 47.7816 135.231 47.7537C135.26 47.7117 135.29 47.6557 135.32 47.5858L135.387 47.4599C135.461 47.334 135.515 47.2081 135.547 47.0822C135.593 46.9423 135.633 46.8094 135.665 46.6834C135.66 46.8374 135.641 46.9703 135.61 47.0822C135.592 47.1941 135.538 47.362 135.446 47.5859L135.381 47.6488L135.117 48.0264C134.986 48.1523 134.843 48.2502 134.687 48.3201C134.531 48.39 134.382 48.4389 134.241 48.4668C134.1 48.5087 133.966 48.5366 133.839 48.5505C133.727 48.5644 133.642 48.5784 133.586 48.5924L132.893 48.592C132.711 48.5919 132.557 48.5848 132.432 48.5708C132.32 48.5707 132.229 48.5637 132.159 48.5496C132.103 48.5496 132.055 48.5426 132.013 48.5286L131.383 48.5283C131.257 48.5282 131.131 48.5281 131.005 48.5281C130.879 48.542 130.745 48.5489 130.605 48.5488C129.947 48.5485 129.309 48.3873 128.689 48.0651C128.083 47.7569 127.524 47.3159 127.011 46.7419C126.512 46.168 126.072 45.4891 125.692 44.7053C125.312 43.9215 125.032 43.0538 124.854 42.1023C124.859 41.9483 124.85 41.8014 124.826 41.6615C124.817 41.5215 124.815 41.3746 124.82 41.2207C124.837 40.703 124.931 40.1783 125.103 39.6467C125.289 39.1011 125.599 38.6115 126.033 38.1779C126.468 37.7444 127.046 37.3949 127.769 37.1294C128.492 36.8499 129.4 36.7104 130.492 36.711C130.996 36.7113 131.485 36.7255 131.96 36.7538C132.436 36.768 132.918 36.7892 133.407 36.8175C133.35 36.8594 133.32 36.9084 133.318 36.9643C133.316 37.0343 133.328 37.0973 133.354 37.1533C133.381 37.1953 133.393 37.2442 133.391 37.3002C133.389 37.3702 133.331 37.4331 133.217 37.489C133.118 37.5309 132.9 37.5518 132.564 37.5516C132.452 37.5516 132.319 37.5515 132.165 37.5514C132.026 37.5374 131.865 37.5233 131.683 37.5092L131.677 37.6981C132.346 37.7964 132.881 37.9296 133.281 38.0977C133.696 38.2519 133.95 38.3919 134.044 38.5179L134.085 38.5599L134.199 37.6364C134.254 37.2587 134.289 36.8319 134.305 36.3562C134.321 35.8664 134.323 35.3837 134.31 34.9079C134.298 34.4322 134.296 34.0614 134.305 33.7955C134.316 33.4597 134.344 33.2358 134.39 33.1239C134.436 33.012 134.494 32.9561 134.564 32.9561C134.62 32.9561 134.658 33.0751 134.678 33.313C134.712 33.5509 134.731 33.8237 134.735 34.1316C134.753 34.4254 134.758 34.7193 134.748 35.0131L134.728 35.6218C134.714 36.0276 134.694 36.4403 134.666 36.8601C134.639 37.2659 134.604 37.6716 134.563 38.0774C134.622 37.5457 134.674 37.028 134.719 36.5243C134.764 36.0066 134.795 35.4819 134.813 34.9502C134.824 34.6284 134.827 34.3135 134.823 34.0057C134.82 33.6839 134.809 33.362 134.792 33.0402C134.873 33.1242 134.935 33.1662 134.977 33.1662C135.033 33.1662 135.076 33.1243 135.107 33.0403C135.097 32.9284 135.087 32.8094 135.077 32.6835C135.066 32.5716 135.063 32.4596 135.067 32.3477L135.077 32.0329C135.153 31.865 135.248 31.7391 135.363 31.6552C135.478 31.5573 135.577 31.5084 135.661 31.5084C135.899 31.5086 136.101 31.7675 136.266 32.2853L136.188 32.7261ZM132.579 39.0209C132.116 39.0486 131.59 39.0763 131.001 39.104C130.426 39.1317 129.877 39.2084 129.355 39.334C128.834 39.4457 128.38 39.6204 127.994 39.8581C127.622 40.0957 127.408 40.4245 127.352 40.8442C127.337 41.306 127.418 41.8237 127.595 42.3975C127.772 42.9713 128.013 43.5171 128.318 44.035C128.624 44.5389 128.973 44.9729 129.367 45.3369C129.775 45.7009 130.203 45.904 130.649 45.9462L131.846 45.9469C131.916 45.9469 131.965 45.9539 131.992 45.9679C132.034 45.9679 132.09 45.982 132.159 46.01L132.663 46.0102C132.872 46.0523 133.081 46.0734 133.291 46.0735C133.33 44.8982 133.418 43.6949 133.557 42.4636C133.71 41.2183 133.869 40.001 134.035 38.8117C133.848 38.9516 133.363 39.0213 132.579 39.0209ZM133.947 43.3663C133.942 43.5202 133.923 43.6811 133.889 43.849C133.87 44.0029 133.858 44.1778 133.851 44.3737C134.031 43.5902 134.149 42.7647 134.206 41.8972C134.262 41.0297 134.325 40.1972 134.393 39.3996C134.301 40.0712 134.223 40.7358 134.159 41.3934C134.11 42.0371 134.039 42.6947 133.947 43.3663ZM135.7 45.634C135.705 45.4801 135.717 45.3262 135.736 45.1723C135.755 45.0044 135.782 44.8295 135.816 44.6476C135.788 45.0674 135.768 45.4661 135.756 45.8439C135.744 46.2077 135.714 46.4666 135.667 46.6205C135.669 46.5505 135.671 46.4875 135.673 46.4316C135.69 46.3616 135.699 46.2917 135.701 46.2217C135.705 46.1098 135.701 46.0048 135.691 45.9069C135.694 45.8089 135.697 45.718 135.7 45.634ZM136.127 42.234C136.096 42.304 136.073 42.3879 136.055 42.4859C136.039 42.5698 136.015 42.6607 135.983 42.7587L136.11 41.4784L136.127 42.234ZM135.884 43.871C135.88 43.997 135.868 44.1229 135.85 44.2488C135.846 44.3747 135.835 44.4937 135.817 44.6056C135.827 44.3258 135.843 44.0459 135.866 43.7661C135.89 43.4722 135.92 43.2064 135.955 42.9685L135.884 43.871ZM133.762 45.1713C133.778 45.1153 133.786 45.0593 133.788 45.0034C133.79 44.9474 133.806 44.8844 133.837 44.8145L133.844 44.5836C133.829 44.6116 133.821 44.6396 133.82 44.6675C133.82 44.6815 133.812 44.6955 133.798 44.7095L133.776 44.7515L133.762 45.1713ZM133.666 46.1787C133.684 46.0527 133.702 45.9268 133.72 45.8009C133.739 45.661 133.75 45.5211 133.755 45.3811L133.757 45.3182L133.646 46.1367L133.666 46.1787ZM149.947 47.7823C149.901 47.8942 149.877 47.9781 149.876 48.0341C149.874 48.0761 149.886 48.139 149.911 48.223L147.426 47.8229L147.428 47.739C147.33 47.7389 147.284 47.6549 147.29 47.487C147.293 47.3751 147.311 47.2632 147.343 47.1512C147.374 47.0393 147.398 46.9484 147.415 46.8784C147.549 46.2068 147.654 45.5702 147.73 44.9686C147.82 44.367 147.897 43.7303 147.961 43.0587C148.004 41.7434 148.008 40.5541 147.973 39.4906C147.953 38.4132 147.96 37.3567 147.994 36.3213C148.023 35.4398 148.091 34.6492 148.198 33.9496C148.305 33.2501 148.371 32.5225 148.396 31.7669C148.414 31.2352 148.411 30.6965 148.387 30.1507L148.872 30.067C148.914 30.0671 148.955 30.0951 148.996 30.1511C149.036 30.1931 149.068 30.291 149.091 30.4449C149.114 30.5849 149.129 30.7878 149.134 31.0536C149.153 31.3055 149.157 31.6344 149.143 32.0401L149.395 32.0403C149.455 31.0888 149.543 30.3332 149.659 29.7736C149.789 29.214 149.932 28.9342 150.086 28.9343C150.226 28.9343 150.34 29.0883 150.427 29.3962C150.516 29.6901 150.58 30.0889 150.619 30.5927C150.672 31.0964 150.702 31.6701 150.709 32.3138C150.73 32.9575 150.729 33.6221 150.706 34.3077L150.619 36.9523C150.909 36.6446 151.269 36.365 151.697 36.1133C152.139 35.8617 152.619 35.736 153.137 35.7363C153.893 35.7366 154.524 35.9259 155.03 36.3039C155.55 36.668 155.976 37.123 156.308 37.6689C156.64 38.2008 156.887 38.7746 157.049 39.3904C157.225 39.9921 157.348 40.5239 157.416 40.9857C157.477 41.2656 157.53 41.5804 157.574 41.9303C157.633 42.2801 157.677 42.637 157.707 43.0008C157.737 43.3646 157.753 43.7284 157.755 44.0922C157.771 44.4561 157.774 44.7919 157.764 45.0997C157.762 45.1417 157.751 45.2606 157.731 45.4565C157.725 45.6384 157.704 45.8343 157.669 46.0442C157.635 46.254 157.586 46.4429 157.525 46.6108C157.463 46.7787 157.383 46.8626 157.285 46.8625C157.257 46.8625 157.237 46.8555 157.223 46.8415C157.262 46.5197 157.293 46.2049 157.317 45.8971C157.341 45.5892 157.359 45.2744 157.369 44.9526C157.394 44.211 157.369 43.4764 157.295 42.7487C157.233 42.077 157.13 41.3983 156.984 40.7126C157.104 41.3284 157.189 41.9371 157.239 42.5388C157.302 43.1825 157.323 43.8262 157.301 44.4698C157.276 45.2394 157.209 45.988 157.101 46.7155C156.959 46.7714 156.85 46.9043 156.773 47.1141C156.71 47.324 156.647 47.5478 156.583 47.7857C156.519 48.0235 156.435 48.2334 156.331 48.4152C156.241 48.6111 156.097 48.709 155.901 48.7089C155.831 48.7088 155.77 48.6598 155.717 48.5618C155.678 48.4779 155.64 48.3659 155.602 48.2259C155.565 48.1 155.534 47.9601 155.511 47.8061C155.503 47.6382 155.501 47.4843 155.505 47.3444C155.509 47.2464 155.526 47.1625 155.556 47.0925C155.586 47.0226 155.617 46.9386 155.648 46.8407C155.715 46.5049 155.761 46.1691 155.786 45.8333C155.826 45.4835 155.852 45.1267 155.864 44.7629C155.878 44.3431 155.872 43.8744 155.847 43.3566C155.822 42.8389 155.769 42.3142 155.689 41.7824C155.609 41.2506 155.499 40.7398 155.362 40.25C155.224 39.7462 155.043 39.3054 154.817 38.9274C154.606 38.5355 154.35 38.2276 154.05 38.0035C153.749 37.7655 153.403 37.6464 153.011 37.6462C152.703 37.646 152.419 37.7788 152.158 38.0445C151.912 38.2963 151.684 38.625 151.475 39.0307C151.28 39.4223 151.104 39.863 150.948 40.3527C150.806 40.8284 150.679 41.2831 150.567 41.7168L150.564 41.8217C150.662 41.388 150.781 40.9473 150.922 40.4996C151.077 40.0519 151.259 39.6392 151.467 39.2615C151.69 38.8699 151.946 38.5342 152.235 38.2545C152.525 37.9748 152.86 37.793 153.24 37.7093C153.576 37.7094 153.873 37.8285 154.132 38.0665C154.39 38.3045 154.61 38.6195 154.793 39.0114C154.991 39.3893 155.152 39.8231 155.275 40.3129C155.414 40.7888 155.517 41.2646 155.585 41.7404C155.668 42.2161 155.723 42.6709 155.75 43.1047C155.779 43.5245 155.788 43.8743 155.779 44.1542C155.764 44.6019 155.728 45.0497 155.671 45.4974C155.615 45.9312 155.545 46.3579 155.461 46.7776C155.411 46.1759 155.383 45.5462 155.377 44.8886C155.37 44.2309 155.343 43.5803 155.294 42.9366C155.245 42.2929 155.161 41.6632 155.041 41.0474C154.922 40.4177 154.724 39.8299 154.448 39.2841L154.639 39.2212C154.521 38.9833 154.408 38.8083 154.3 38.6963C154.205 38.5843 154.11 38.5003 154.014 38.4443C153.932 38.3883 153.836 38.3392 153.725 38.2972C153.615 38.2412 153.492 38.1502 153.356 38.0242L153.041 38.024C152.565 38.0238 152.123 38.4713 151.716 39.3666C151.308 40.2619 150.917 41.5211 150.541 43.144L150.434 44.4663C150.537 43.8926 150.664 43.242 150.814 42.5145C150.978 41.773 151.162 41.0804 151.365 40.4369C151.583 39.7793 151.825 39.2337 152.091 38.8001C152.372 38.3525 152.687 38.1288 153.037 38.1289C153.191 38.129 153.372 38.1781 153.579 38.2761C153.785 38.3742 153.996 38.5702 154.21 38.8642C154.022 38.6402 153.831 38.4722 153.639 38.3601C153.447 38.2481 153.273 38.192 153.119 38.192L152.972 38.2129C152.692 38.2127 152.441 38.3875 152.219 38.7372C151.998 39.0869 151.787 39.5415 151.586 40.1012C151.4 40.6468 151.233 41.2763 151.083 41.9899C150.934 42.6894 150.792 43.396 150.656 44.1096C150.521 44.8091 150.394 45.4877 150.274 46.1453C150.169 46.7889 150.06 47.3345 149.947 47.7823ZM149.516 48.1179C149.601 48.0899 149.651 48.048 149.667 47.992C149.697 47.936 149.726 47.9081 149.754 47.9081L149.938 46.7958L149.567 47.845L149.5 47.9709C149.262 47.9568 149.032 47.9287 148.809 47.8866C148.614 47.8585 148.405 47.8304 148.182 47.8023C147.974 47.7602 147.786 47.7252 147.619 47.6971C147.581 47.5711 147.563 47.4802 147.565 47.4242C147.565 47.4102 147.566 47.3962 147.566 47.3822C147.581 47.3682 147.588 47.3543 147.589 47.3403L147.442 47.3192C147.463 47.5431 147.479 47.676 147.492 47.718C147.519 47.746 147.553 47.774 147.594 47.802L149.516 48.1179ZM154.97 36.8286C154.697 36.6326 154.401 36.4785 154.083 36.3664C153.765 36.2403 153.431 36.1772 153.081 36.177C152.521 36.1767 152.033 36.3304 151.617 36.638C151.201 36.9316 150.861 37.2603 150.597 37.6239L150.595 37.6869C150.727 37.5051 150.873 37.3302 151.032 37.1624C151.206 36.9806 151.393 36.8268 151.594 36.7009C151.794 36.5611 152.022 36.4493 152.277 36.3655C152.531 36.2817 152.82 36.2398 153.142 36.24C153.772 36.2403 154.326 36.4225 154.804 36.7866C155.296 37.1506 155.715 37.5986 156.061 38.1305C155.915 37.8926 155.755 37.6616 155.58 37.4376C155.42 37.2137 155.216 37.0107 154.97 36.8286ZM156.947 40.5657L156.984 40.7126L156.947 40.5657ZM160.987 46.9694C161.056 46.5776 161.12 46.1229 161.179 45.6052C161.252 45.0735 161.319 44.5419 161.378 44.0102C161.438 43.4785 161.497 42.9608 161.556 42.4571C161.615 41.9394 161.672 41.4916 161.726 41.1139C161.644 41.4916 161.566 41.9254 161.494 42.4151C161.422 42.9048 161.349 43.4085 161.276 43.9262C161.203 44.4438 161.13 44.9615 161.057 45.4792C160.984 45.9829 160.92 46.4376 160.865 46.8434C160.66 46.7034 160.561 46.5144 160.569 46.2765C160.578 45.9967 160.593 45.7658 160.613 45.5839C160.633 45.388 160.661 45.1642 160.698 44.9123L160.936 44.7026C160.924 44.6326 160.919 44.5696 160.921 44.5137L160.928 44.3038C160.938 43.9819 160.985 43.6182 161.069 43.2124C161.153 42.7927 161.243 42.373 161.341 41.9532C161.454 41.5195 161.551 41.1068 161.634 40.715C161.718 40.3093 161.764 39.9595 161.774 39.6657L161.524 39.6026C161.485 39.9384 161.43 40.3231 161.36 40.7569C161.29 41.1766 161.212 41.6173 161.127 42.079C161.056 42.5268 160.986 42.9745 160.915 43.4222C160.879 43.6601 160.844 43.884 160.809 44.0938C160.85 43.7021 160.898 43.2823 160.955 42.8346C161.046 42.1909 161.137 41.5543 161.228 40.9247C161.333 40.2811 161.431 39.6515 161.522 39.0359C161.612 38.4202 161.701 37.8536 161.788 37.3359C161.795 37.126 161.851 36.9022 161.957 36.6643C162.077 36.4125 162.163 36.1537 162.213 35.8879C162.296 35.9159 162.366 35.9299 162.422 35.93L162.569 35.93C162.709 35.9301 162.799 35.9651 162.839 36.0351C162.879 36.0911 162.897 36.1751 162.893 36.287L162.89 36.392L163.077 36.455C163.196 36.2452 163.334 36.0774 163.492 35.9515C163.65 35.8256 163.807 35.7628 163.961 35.7628C164.297 35.763 164.453 36.1199 164.429 36.8335C164.417 37.2113 164.361 37.6171 164.263 38.0508C164.179 38.4705 164.131 38.8833 164.117 39.2891L164.108 39.5619C164.093 40.0097 164.028 40.4994 163.913 41.031C163.798 41.5487 163.668 42.0804 163.524 42.626C163.395 43.1577 163.273 43.6753 163.158 44.179C163.043 44.6827 162.979 45.1444 162.965 45.5642C162.962 45.6621 162.966 45.7671 162.976 45.879C162.986 45.991 162.99 46.0959 162.986 46.1938C162.98 46.4037 162.933 46.5366 162.847 46.5926C162.776 46.6345 162.684 46.6554 162.572 46.6554C162.578 46.4735 162.579 46.2496 162.573 45.9837C162.568 45.7179 162.569 45.48 162.576 45.2701C162.543 45.424 162.522 45.6339 162.513 45.8998C162.504 46.1656 162.482 46.4175 162.446 46.6553L162.131 46.6552L162.123 46.907C161.99 47.1308 161.818 47.2427 161.608 47.2426C161.51 47.2425 161.399 47.2145 161.275 47.1584C161.15 47.1024 161.055 47.0394 160.987 46.9694ZM165.845 30.8524C165.602 30.9922 165.379 31.174 165.176 31.3978C164.972 31.6215 164.762 31.8383 164.545 32.0481C164.674 31.9642 164.789 31.8733 164.89 31.7754C164.991 31.6775 165.093 31.5796 165.194 31.4817C165.309 31.3838 165.424 31.286 165.539 31.1881C165.669 31.0902 165.812 30.9993 165.968 30.9154C166.009 30.9714 166.042 31.0204 166.069 31.0624C166.109 31.1044 166.129 31.1464 166.127 31.1884L165.629 31.6709C165.629 31.6429 165.602 31.6149 165.547 31.5869C165.506 31.5589 165.472 31.5448 165.444 31.5448C165.397 31.6847 165.323 31.7966 165.223 31.8805C165.122 31.9644 165.021 32.0414 164.921 32.1113C164.821 32.1812 164.72 32.2581 164.619 32.342C164.519 32.4259 164.445 32.5378 164.398 32.6777L164.397 32.7197C164.396 32.7337 164.417 32.7407 164.459 32.7407L165.542 31.7548L165.13 32.1534C164.927 32.3491 164.71 32.5519 164.48 32.7617C164.263 32.9575 164.054 33.1323 163.853 33.2861C163.666 33.4399 163.552 33.5168 163.51 33.5168L163.489 33.4958C163.392 33.4678 163.288 33.4537 163.176 33.4537C163.078 33.4536 162.973 33.4466 162.861 33.4325C162.865 33.3206 162.848 33.2016 162.81 33.0757C162.786 32.9497 162.776 32.8518 162.778 32.7818C162.78 32.7118 162.816 32.6769 162.886 32.6769C162.888 32.6349 162.862 32.572 162.809 32.488C162.77 32.39 162.724 32.285 162.672 32.1731C162.62 32.0471 162.568 31.9211 162.516 31.7952C162.479 31.6552 162.463 31.5153 162.467 31.3754C162.472 31.2355 162.532 31.1026 162.648 30.9767C162.779 30.8368 162.923 30.718 163.08 30.6201C163.251 30.5222 163.415 30.4384 163.571 30.3685C163.728 30.2986 163.841 30.2497 163.912 30.2217C163.968 30.2218 163.99 30.1938 163.978 30.1378C163.966 30.0678 163.989 30.0329 164.045 30.0329L164.418 30.159C164.388 30.229 164.293 30.3479 164.134 30.5157C163.989 30.6695 163.88 30.7814 163.808 30.8514C163.908 30.7814 164.023 30.6766 164.154 30.5367C164.299 30.3968 164.407 30.292 164.479 30.222C164.548 30.2501 164.61 30.2781 164.666 30.3061C164.721 30.3341 164.762 30.3481 164.79 30.3481L164.855 30.2852C164.953 30.2852 165.058 30.3063 165.168 30.3483C165.293 30.3904 165.403 30.4394 165.499 30.4954C165.595 30.5514 165.677 30.6144 165.745 30.6844C165.813 30.7544 165.846 30.8104 165.845 30.8524ZM160.75 44.5975C160.769 44.4436 160.788 44.2897 160.807 44.1358C160.788 44.3037 160.769 44.4576 160.75 44.5975ZM176.765 48.132C176.679 47.7681 176.545 47.3902 176.362 46.9983C176.193 46.6065 175.996 46.2146 175.771 45.8227C175.982 46.2146 176.15 46.6134 176.277 47.0193C176.418 47.4251 176.51 47.817 176.553 48.1948C176.405 48.0268 176.264 47.8309 176.132 47.6069C176.014 47.369 175.889 47.124 175.757 46.8721C175.626 46.6062 175.487 46.3402 175.342 46.0743C175.211 45.8084 175.065 45.5564 174.905 45.3185C174.992 45.2346 175.056 45.1926 175.098 45.1926C174.546 44.5207 173.944 43.8977 173.291 43.3237C172.638 42.7497 171.867 42.3505 170.978 42.1261L170.967 42.4829C171.37 42.5671 171.799 42.7142 172.254 42.9244C171.854 42.7562 171.437 42.6441 171.005 42.5879C170.964 42.9937 170.923 43.3924 170.882 43.7842C170.841 44.162 170.787 44.5328 170.719 44.8965C170.712 45.1204 170.71 45.3793 170.714 45.6731C170.719 45.953 170.717 46.2328 170.708 46.5127C170.682 47.2962 170.564 47.688 170.354 47.6879C170.326 47.6879 170.284 47.6738 170.229 47.6458C170.251 47.422 170.265 47.2051 170.272 46.9952L170.339 44.9593C170.297 45.3931 170.261 45.8338 170.232 46.2815C170.204 46.7153 170.155 47.1421 170.085 47.5618C169.928 47.6597 169.819 47.7716 169.759 47.8975C169.713 48.0094 169.668 48.1143 169.623 48.2122C169.591 48.3101 169.54 48.3871 169.468 48.443C169.41 48.5129 169.297 48.5479 169.129 48.5478C168.975 48.5477 168.844 48.4777 168.736 48.3377C168.643 48.2117 168.55 48.0507 168.458 47.8548L168.528 47.6449C168.612 47.2392 168.667 46.8265 168.695 46.4067C168.737 45.9729 168.766 45.5392 168.78 45.1054C168.806 44.3079 168.846 43.5453 168.898 42.8177C168.964 42.0901 169.037 41.3485 169.118 40.593C169.129 40.2432 169.134 39.9003 169.131 39.5645C169.142 39.2287 169.153 38.8999 169.163 38.5781L168.805 43.0905C168.709 43.86 168.648 44.6436 168.622 45.4412C168.596 46.2247 168.503 46.9313 168.342 47.5609C168.277 47.4209 168.225 47.281 168.188 47.141C168.165 46.9871 168.157 46.8052 168.164 46.5953C168.173 46.3295 168.174 46.0916 168.166 45.8817C168.174 45.6578 168.181 45.4269 168.189 45.1891C168.195 45.0212 168.201 44.8393 168.207 44.6434C168.228 44.4475 168.249 44.2306 168.271 43.9927L168.6 43.5731C168.592 43.3772 168.591 43.1883 168.597 43.0064L168.617 42.4187C168.641 41.6911 168.678 40.9705 168.73 40.2569C168.782 39.5294 168.82 38.7948 168.845 38.0532L168.863 37.4865C168.869 37.3186 168.867 37.1576 168.858 37.0037C168.849 36.8498 168.841 36.6889 168.832 36.521C168.824 36.3391 168.81 36.1432 168.789 35.9333L168.726 35.9332C168.718 36.1711 168.711 36.388 168.704 36.5839C168.712 36.7798 168.712 36.9757 168.706 37.1716C168.714 37.3535 168.715 37.5424 168.708 37.7383L168.687 38.3679C168.631 40.075 168.511 41.789 168.329 43.51C168.377 42.8944 168.418 42.2927 168.451 41.705C168.485 41.1034 168.512 40.5017 168.532 39.9C168.553 39.2704 168.566 38.6617 168.571 38.074C168.576 37.4863 168.582 36.9056 168.586 36.3319C168.606 35.7443 168.618 35.1496 168.624 34.5479C168.63 33.9462 168.644 33.3166 168.666 32.6589C168.678 32.2951 168.702 31.9663 168.74 31.6725C168.778 31.3786 168.822 31.0918 168.874 30.812C168.939 30.5182 168.998 30.2174 169.05 29.9096C169.116 29.6018 169.177 29.245 169.233 28.8392L169.694 28.8604C169.778 28.8605 169.847 28.8955 169.9 28.9655C169.969 29.0215 169.999 29.1545 169.992 29.3643C169.99 29.4343 169.981 29.5043 169.964 29.5742C169.962 29.6442 169.952 29.7281 169.935 29.8261L170.145 29.8262C170.271 29.4065 170.422 29.0847 170.597 28.8609C170.787 28.6231 170.959 28.5043 171.113 28.5044C171.309 28.5045 171.436 28.6864 171.494 29.0503C171.566 29.4001 171.591 29.9109 171.569 30.5825C171.56 30.8484 171.546 31.0862 171.525 31.2961C171.518 31.506 171.504 31.7159 171.483 31.9258C171.462 32.1356 171.441 32.3595 171.419 32.5974C171.411 32.8213 171.403 33.0801 171.393 33.3739C171.381 33.7378 171.377 34.0806 171.38 34.4024C171.384 34.7242 171.387 35.0391 171.391 35.3469C171.409 35.6548 171.419 35.9696 171.423 36.2914C171.427 36.5993 171.423 36.9281 171.411 37.2779L171.31 40.3422C171.75 40.1606 172.215 39.867 172.704 39.4614C173.194 39.0559 173.656 38.6154 174.092 38.1398C174.528 37.6643 174.914 37.1888 175.252 36.7132C175.59 36.2376 175.827 35.8389 175.963 35.5172C176.004 35.5732 176.058 35.6082 176.128 35.6222L176.337 35.6643C176.406 35.6783 176.468 35.7063 176.523 35.7484C176.578 35.7764 176.604 35.8324 176.601 35.9163C176.599 35.9863 176.575 36.0772 176.529 36.1891C176.498 36.2871 176.431 36.413 176.328 36.5668L176.533 36.7139C176.767 36.4061 176.999 36.1614 177.229 35.9796C177.46 35.7838 177.652 35.686 177.806 35.6861C178.016 35.6862 178.115 35.8611 178.104 36.2109C178.088 36.6727 177.961 37.1344 177.722 37.596C177.497 38.0437 177.21 38.4703 176.861 38.8759C176.512 39.2675 176.115 39.6381 175.669 39.9877C175.237 40.3373 174.808 40.6379 174.379 40.8895C175.118 41.4076 175.756 42.0237 176.292 42.7376C176.829 43.4375 177.246 44.1583 177.544 44.9001C177.623 45.04 177.723 45.208 177.842 45.404C177.962 45.5999 178.081 45.8029 178.2 46.0128C178.319 46.2228 178.417 46.4327 178.495 46.6426C178.586 46.8386 178.63 47.0065 178.625 47.1464C178.619 47.3283 178.587 47.4333 178.531 47.4612C178.474 47.4892 178.41 47.5031 178.34 47.5031C178.163 46.9433 177.941 46.4325 177.677 45.9706C177.439 45.5367 177.201 45.1098 176.963 44.6899C177.187 45.1238 177.411 45.5507 177.635 45.9705C177.871 46.4324 178.058 46.9433 178.193 47.503C178.123 47.503 178.06 47.51 178.003 47.5239C177.947 47.5379 177.897 47.5798 177.852 47.6498C177.864 47.7197 177.876 47.7827 177.888 47.8387C177.912 47.9646 177.944 48.0626 177.983 48.1326C177.92 48.3564 177.845 48.5033 177.759 48.5732C177.672 48.6571 177.58 48.6991 177.482 48.699C177.37 48.699 177.231 48.6499 177.067 48.5519C176.915 48.4679 176.813 48.3978 176.758 48.3418L176.765 48.132ZM173.591 43.1349C174.068 43.541 174.508 43.996 174.911 44.4999L174.732 44.206C174.44 43.7161 174.048 43.3031 173.555 42.967C173.089 42.6449 172.614 42.4068 172.129 42.2527C172.641 42.4488 173.128 42.7429 173.591 43.1349ZM176.127 43.3042C175.903 42.8703 175.621 42.5133 175.28 42.2333C174.967 41.9673 174.639 41.7012 174.298 41.4352C174.597 41.7012 174.903 41.9882 175.215 42.2962C175.54 42.6182 175.844 42.9542 176.127 43.3042ZM174.482 44.7725C174.226 44.4646 173.915 44.1496 173.547 43.8276C173.18 43.4915 172.832 43.2325 172.502 43.0504C172.846 43.2185 173.189 43.4426 173.53 43.7226C173.885 43.9886 174.202 44.3386 174.482 44.7725ZM181.483 46.98C181.552 46.5882 181.616 46.1335 181.675 45.6158C181.749 45.0841 181.815 44.5525 181.875 44.0208C181.934 43.4891 181.993 42.9714 182.052 42.4677C182.111 41.95 182.168 41.5022 182.222 41.1245C182.14 41.5022 182.063 41.936 181.99 42.4257C181.918 42.9154 181.846 43.4191 181.773 43.9368C181.699 44.4544 181.626 44.9721 181.553 45.4898C181.481 45.9935 181.417 46.4483 181.361 46.854C181.156 46.714 181.057 46.525 181.065 46.2872C181.074 46.0073 181.089 45.7764 181.109 45.5945C181.129 45.3987 181.158 45.1748 181.194 44.9229L181.432 44.7132C181.42 44.6432 181.415 44.5802 181.417 44.5243L181.424 44.3144C181.435 43.9926 181.482 43.6288 181.565 43.223C181.649 42.8033 181.74 42.3836 181.838 41.9638C181.95 41.5301 182.048 41.1174 182.13 40.7256C182.214 40.3199 182.26 39.9701 182.27 39.6763L182.02 39.6132C181.981 39.949 181.926 40.3337 181.856 40.7675C181.786 41.1872 181.709 41.6279 181.623 42.0897C181.553 42.5374 181.482 42.9851 181.411 43.4328C181.375 43.6707 181.34 43.8946 181.305 44.1044C181.346 43.7127 181.395 43.2929 181.452 42.8452C181.543 42.2016 181.634 41.5649 181.725 40.9353C181.83 40.2917 181.928 39.6621 182.018 39.0465C182.108 38.4308 182.197 37.8642 182.284 37.3465C182.291 37.1366 182.347 36.9128 182.453 36.6749C182.573 36.4231 182.659 36.1643 182.71 35.8985C182.793 35.9265 182.862 35.9405 182.918 35.9406L183.065 35.9406C183.205 35.9407 183.295 35.9757 183.335 36.0457C183.375 36.1017 183.393 36.1857 183.39 36.2976L183.386 36.4026L183.573 36.4656C183.692 36.2558 183.83 36.088 183.989 35.9621C184.147 35.8363 184.303 35.7734 184.457 35.7735C184.793 35.7736 184.949 36.1305 184.926 36.8441C184.913 37.2219 184.858 37.6277 184.759 38.0614C184.676 38.4811 184.627 38.8939 184.614 39.2997L184.605 39.5725C184.59 40.0203 184.525 40.51 184.409 41.0417C184.294 41.5593 184.164 42.091 184.02 42.6366C183.891 43.1683 183.769 43.6859 183.654 44.1896C183.54 44.6933 183.475 45.155 183.462 45.5748C183.458 45.6727 183.462 45.7777 183.472 45.8896C183.482 46.0016 183.486 46.1065 183.483 46.2045C183.476 46.4143 183.429 46.5472 183.344 46.6032C183.272 46.6451 183.181 46.6661 183.069 46.666C183.075 46.4841 183.075 46.2602 183.07 45.9943C183.064 45.7285 183.065 45.4906 183.072 45.2807C183.039 45.4346 183.018 45.6445 183.009 45.9104C183.001 46.1762 182.978 46.4281 182.943 46.6659L182.628 46.6658L182.619 46.9176C182.486 47.1414 182.314 47.2533 182.104 47.2532C182.006 47.2531 181.895 47.2251 181.771 47.1691C181.647 47.113 181.551 47.05 181.483 46.98ZM186.341 30.863C186.098 31.0028 185.875 31.1846 185.672 31.4084C185.469 31.6322 185.258 31.8489 185.041 32.0587C185.17 31.9748 185.285 31.8839 185.386 31.786C185.488 31.6881 185.589 31.5902 185.69 31.4923C185.805 31.3945 185.921 31.2966 186.036 31.1987C186.165 31.1008 186.308 31.0099 186.465 30.926C186.505 30.982 186.538 31.031 186.565 31.073C186.606 31.115 186.625 31.157 186.624 31.199L186.125 31.6815C186.126 31.6535 186.099 31.6255 186.044 31.5975C186.003 31.5695 185.968 31.5555 185.94 31.5554C185.893 31.6953 185.82 31.8072 185.719 31.8911C185.618 31.9751 185.518 32.052 185.417 32.1219C185.317 32.1918 185.217 32.2687 185.116 32.3526C185.015 32.4365 184.941 32.5484 184.895 32.6883L184.893 32.7303C184.893 32.7443 184.914 32.7513 184.956 32.7513L186.038 31.7654L185.626 32.164C185.424 32.3597 185.207 32.5625 184.976 32.7723C184.759 32.9681 184.551 33.1429 184.35 33.2967C184.163 33.4505 184.048 33.5274 184.006 33.5274L183.986 33.5064C183.889 33.4784 183.784 33.4643 183.672 33.4643C183.574 33.4642 183.469 33.4572 183.358 33.4431C183.361 33.3312 183.344 33.2122 183.307 33.0863C183.283 32.9603 183.272 32.8624 183.274 32.7924C183.277 32.7224 183.313 32.6875 183.383 32.6875C183.384 32.6455 183.358 32.5826 183.305 32.4986C183.266 32.4006 183.221 32.2956 183.168 32.1837C183.116 32.0577 183.065 31.9318 183.013 31.8058C182.975 31.6658 182.959 31.5259 182.964 31.386C182.968 31.2461 183.029 31.1132 183.145 30.9873C183.275 30.8474 183.419 30.7286 183.577 30.6307C183.748 30.5328 183.912 30.449 184.068 30.3791C184.224 30.3092 184.338 30.2603 184.409 30.2323C184.465 30.2324 184.487 30.2044 184.474 30.1484C184.463 30.0785 184.485 30.0435 184.541 30.0435L184.915 30.1696C184.884 30.2396 184.79 30.3585 184.63 30.5263C184.485 30.6801 184.376 30.792 184.304 30.862C184.404 30.792 184.52 30.6872 184.65 30.5473C184.795 30.4075 184.903 30.3026 184.976 30.2326C185.045 30.2607 185.107 30.2887 185.162 30.3167C185.217 30.3447 185.259 30.3587 185.287 30.3587L185.352 30.2958C185.45 30.2958 185.554 30.3169 185.665 30.3589C185.789 30.401 185.9 30.45 185.996 30.506C186.092 30.562 186.174 30.6251 186.241 30.695C186.309 30.765 186.342 30.821 186.341 30.863ZM181.246 44.6081C181.265 44.4542 181.285 44.3003 181.304 44.1464C181.284 44.3143 181.265 44.4682 181.246 44.6081ZM188.635 46.7318C188.637 46.6619 188.661 46.5779 188.706 46.48C188.752 46.3821 188.776 46.2772 188.78 46.1652C188.833 45.8294 188.869 45.5916 188.887 45.4516C188.906 45.2977 188.918 45.1648 188.921 45.0529C188.941 44.4652 188.941 43.8355 188.921 43.1639C188.915 42.4782 188.902 41.8206 188.881 41.1909C188.887 40.995 188.888 40.7641 188.883 40.4983C188.891 40.2324 188.884 40.0225 188.861 39.8686C188.92 39.3789 188.971 38.8961 189.014 38.4204C189.058 37.9447 189.088 37.462 189.104 36.9722L189.121 36.4475C189.127 36.2656 189.126 36.0837 189.118 35.9018C189.159 35.9438 189.2 35.9648 189.242 35.9648C189.298 35.9649 189.355 35.9439 189.412 35.9019C189.484 35.86 189.547 35.8391 189.603 35.8391C189.701 35.8391 189.775 35.9441 189.824 36.154C189.887 36.364 189.907 36.8257 189.883 37.5393L190.072 37.5394C190.168 36.7559 190.294 36.1333 190.449 35.6716C190.618 35.2099 190.78 34.9791 190.934 34.9792C191.004 34.9793 191.111 35.1332 191.255 35.4411C191.399 35.7351 191.46 36.2038 191.439 36.8475L191.683 36.4698C191.843 36.288 192.017 36.0992 192.205 35.9034C192.408 35.7076 192.631 35.5328 192.874 35.379C193.117 35.2252 193.387 35.0994 193.684 35.0016C193.982 34.8898 194.32 34.8341 194.698 34.8342C195.426 34.8346 196.05 35.0029 196.571 35.339C197.106 35.6611 197.547 36.0881 197.894 36.62C198.241 37.1379 198.515 37.7327 198.717 38.4044C198.933 39.0622 199.093 39.7339 199.196 40.4196C199.3 41.0913 199.363 41.742 199.384 42.3717C199.405 43.0014 199.409 43.5401 199.394 43.9879C199.38 44.3936 199.344 44.6385 199.286 44.7224C199.241 44.7924 199.156 44.8343 199.029 44.8482C199.037 43.7708 199.003 42.6723 198.928 41.5529C198.853 40.4334 198.623 39.3489 198.237 38.2993C198.579 39.4048 198.781 40.4964 198.843 41.5738C198.92 42.6373 198.941 43.7078 198.905 44.7852C198.823 44.7432 198.747 44.7221 198.677 44.7221C198.621 44.7221 198.571 44.743 198.527 44.785C198.524 44.8969 198.527 45.0159 198.537 45.1418C198.547 45.2538 198.55 45.3657 198.547 45.4776C198.557 45.5896 198.56 45.6945 198.557 45.7925C198.463 46.1143 198.371 46.3451 198.282 46.485C198.194 46.6248 198.114 46.6948 198.044 46.6947C197.96 46.6947 197.892 46.6597 197.838 46.5897C197.785 46.5057 197.732 46.4077 197.68 46.2958C197.641 46.1838 197.596 46.0648 197.544 45.9389C197.507 45.7989 197.448 45.666 197.369 45.54C197.404 45.3021 197.432 45.1132 197.45 44.9733C197.469 44.8194 197.48 44.6935 197.484 44.5955C197.496 44.2178 197.504 43.763 197.508 43.2313C197.511 42.6996 197.487 42.1468 197.436 41.5731C197.4 40.9854 197.321 40.4047 197.2 39.8309C197.093 39.2432 196.928 38.7254 196.705 38.2775C196.496 37.8156 196.222 37.4447 195.881 37.1646C195.54 36.8706 195.125 36.7235 194.635 36.7232C194.299 36.723 193.995 36.8348 193.721 37.0586C193.462 37.2823 193.228 37.569 193.021 37.9188C192.827 38.2685 192.654 38.6532 192.5 39.0729C192.346 39.4786 192.221 39.8703 192.125 40.2481C192.264 39.8563 192.403 39.4576 192.542 39.0519C192.696 38.6462 192.869 38.2755 193.062 37.9398C193.269 37.604 193.502 37.3313 193.761 37.1216C194.021 36.8978 194.318 36.786 194.654 36.7862C195.088 36.7864 195.455 36.9055 195.755 37.1436C196.07 37.3816 196.325 37.6896 196.523 38.0675C196.735 38.4454 196.895 38.8793 197.005 39.3691C197.129 39.8449 197.218 40.3347 197.272 40.8384C197.325 41.3282 197.352 41.8109 197.35 42.2867C197.363 42.7485 197.363 43.1472 197.352 43.4831C197.344 43.7489 197.328 44.0148 197.305 44.2806C197.296 44.5465 197.28 44.8193 197.257 45.0992C197.149 44.5674 197.069 44.0146 197.018 43.4409C196.981 42.8532 196.937 42.2795 196.886 41.7198C196.834 41.146 196.761 40.6003 196.667 40.0825C196.586 39.5507 196.455 39.0609 196.274 38.6131L196.428 38.4033C196.299 38.0814 196.146 37.8364 195.969 37.6684C195.807 37.4864 195.644 37.3534 195.478 37.2694C195.313 37.1853 195.161 37.1363 195.021 37.1222C194.882 37.1081 194.791 37.1011 194.749 37.1011C194.399 37.1009 194.08 37.2267 193.791 37.4784C193.517 37.7301 193.268 38.0728 193.043 38.5065C192.834 38.9261 192.642 39.4158 192.47 39.9754C192.298 40.535 192.145 41.1226 192.013 41.7382C191.881 42.3538 191.762 42.9764 191.657 43.6061C191.553 44.2217 191.464 44.8023 191.39 45.348L191.579 45.3481C191.664 44.8724 191.752 44.3477 191.841 43.7741C191.944 43.2004 192.047 42.6198 192.15 42.0321C192.268 41.4305 192.399 40.8499 192.544 40.2903C192.688 39.7306 192.852 39.227 193.034 38.7793C193.231 38.3316 193.453 37.968 193.7 37.6882C193.933 37.4225 194.211 37.2687 194.535 37.2269C194.224 37.2967 193.959 37.4925 193.738 37.8142C193.503 38.1499 193.294 38.5626 193.109 39.0522C192.925 39.5418 192.754 40.0805 192.594 40.6681C192.449 41.2417 192.312 41.7943 192.182 42.326L191.661 45.3901C191.599 45.586 191.551 45.7609 191.518 45.9148L191.42 46.3555C191.387 46.4954 191.354 46.6493 191.32 46.8172C191.287 46.9711 191.246 47.153 191.197 47.3628L191.126 47.6147L191 47.6146L188.903 46.8999C188.833 46.8859 188.778 46.8648 188.737 46.8368C188.71 46.8088 188.676 46.7738 188.635 46.7318ZM192.644 35.9666C192.356 36.2043 192.124 36.4631 191.947 36.7428C191.784 37.0086 191.628 37.2814 191.479 37.5611L191.478 37.5821C191.687 37.1765 191.974 36.7638 192.338 36.3442C192.687 35.9526 193.144 35.659 193.711 35.4634C193.527 35.5193 193.35 35.5752 193.18 35.631C192.982 35.7009 192.803 35.8128 192.644 35.9666ZM195.187 35.2753C195.118 35.2612 195.02 35.2542 194.894 35.2541C195.338 35.3663 195.754 35.4924 196.141 35.6326C196.529 35.7587 196.892 36.0178 197.229 36.4097C197.001 36.0878 196.695 35.8358 196.309 35.6537C195.937 35.4716 195.563 35.3454 195.187 35.2753ZM195.675 37.6683C195.566 37.5842 195.435 37.5212 195.282 37.4792C195.144 37.4231 194.972 37.3531 194.764 37.269L194.745 37.227C194.982 37.2411 195.19 37.2972 195.369 37.3952C195.548 37.4793 195.718 37.6333 195.879 37.8573L195.675 37.6683ZM197.269 36.4517C197.457 36.6897 197.63 36.9626 197.788 37.2706C197.946 37.5785 198.084 37.8514 198.202 38.0893C198.073 37.7675 197.95 37.4735 197.832 37.2076C197.715 36.9417 197.527 36.6897 197.269 36.4517ZM210.51 40.6983L210.511 40.6564L209.971 40.4882L210.348 39.8797L212.78 40.6366C212.765 41.0983 212.77 41.5741 212.796 42.0638C212.836 42.5396 212.876 43.0293 212.915 43.5331C212.969 44.0369 213.008 44.5546 213.032 45.0863C213.071 45.6041 213.082 46.1288 213.064 46.6605C213.041 47.3741 212.954 48.0947 212.804 48.8223C212.654 49.5498 212.421 50.2423 212.105 50.8998C211.804 51.5573 211.406 52.1658 210.911 52.7252C210.431 53.2847 209.834 53.7461 209.122 54.1096C208.736 54.3612 208.239 54.5918 207.63 54.8014C207.034 55.025 206.449 55.1506 205.874 55.1783L205.622 55.1782C205.062 55.1779 204.595 55.1147 204.221 54.9886C203.847 54.8764 203.55 54.7433 203.332 54.5893C203.112 54.4493 202.956 54.3093 202.862 54.1693C202.783 54.0433 202.743 53.9663 202.744 53.9383C202.746 53.8824 202.775 53.8544 202.831 53.8544C203.254 54.1765 203.716 54.4076 204.215 54.5478C204.714 54.688 205.216 54.7582 205.72 54.7585C206.574 54.7589 207.371 54.5914 208.11 54.256C208.821 53.9205 209.465 53.5011 210.041 52.9976C209.465 53.4871 208.815 53.8925 208.09 54.214C207.351 54.5354 206.569 54.6959 205.743 54.6955C205.253 54.6952 204.772 54.625 204.301 54.4849C203.844 54.3447 203.417 54.1136 203.022 53.7916C203.064 53.7916 203.113 53.7776 203.17 53.7497C203.227 53.7357 203.256 53.7007 203.258 53.6448L203.095 53.4978C203 53.3998 202.885 53.2738 202.75 53.1198C202.629 52.9658 202.516 52.7838 202.411 52.5739C202.32 52.364 202.278 52.1401 202.286 51.9022C202.294 51.6643 202.389 51.5454 202.571 51.5455C202.711 51.5456 202.869 51.6366 203.045 51.8186C203.221 52.0006 203.432 52.1966 203.677 52.4066C203.921 52.6306 204.216 52.8337 204.56 53.0158C204.918 53.1979 205.341 53.289 205.831 53.2893C206.531 53.2897 207.166 53.1501 207.735 52.8705C208.304 52.6049 208.806 52.2344 209.242 51.7589C208.821 52.2064 208.334 52.556 207.779 52.8076C207.239 53.0591 206.626 53.1848 205.94 53.1844C205.52 53.1842 205.123 53.114 204.75 52.9739C204.391 52.8338 204.103 52.6447 203.887 52.4067C204.122 52.4768 204.414 52.5539 204.761 52.6381C205.122 52.7222 205.513 52.7644 205.933 52.7646C206.689 52.765 207.36 52.5695 207.947 52.178C208.548 51.8005 209.068 51.318 209.507 50.7305L209.8 50.7727C210.14 50.2131 210.384 49.6116 210.531 48.968C210.692 48.3384 210.784 47.6738 210.807 46.9742C210.823 46.4985 210.818 46.0157 210.792 45.5259C210.766 45.0362 210.726 44.5394 210.673 44.0357L210.563 44.1825C210.617 44.6723 210.65 45.1551 210.662 45.6308C210.689 46.0926 210.695 46.5474 210.68 46.9951C210.662 47.5548 210.588 48.1075 210.458 48.6531C210.327 49.2128 210.135 49.7234 209.882 50.185C210.136 49.6954 210.321 49.1708 210.438 48.6111C210.554 48.0655 210.622 47.4778 210.643 46.8482C210.585 46.4843 210.562 46.1205 210.574 45.7567C210.586 45.3929 210.584 45.0291 210.568 44.6653L210.54 44.2455C210.437 44.3854 210.284 44.5812 210.08 44.8329C209.875 45.0847 209.636 45.3364 209.362 45.5882C209.088 45.8259 208.78 46.0356 208.438 46.2174C208.11 46.3991 207.764 46.4899 207.4 46.4897L206.873 46.5524C206.131 46.552 205.472 46.3628 204.896 45.9847C204.321 45.6066 203.833 45.1306 203.432 44.5566C203.031 43.9688 202.73 43.3319 202.529 42.6462C202.328 41.9465 202.238 41.2748 202.259 40.6311C202.247 40.5611 202.242 40.5052 202.244 40.4632L202.25 40.2743C202.278 39.4208 202.456 38.6862 202.784 38.0707C203.113 37.4412 203.55 36.9307 204.095 36.5392C204.654 36.1477 205.3 35.8612 206.034 35.6797C206.769 35.4842 207.556 35.3866 208.396 35.387C209.376 35.3876 210.366 35.521 211.365 35.7874C211.28 35.8153 211.236 35.8643 211.234 35.9342C211.232 35.9902 211.237 36.0462 211.25 36.1021C211.276 36.1441 211.289 36.1931 211.287 36.2491L211.285 36.2911C211.241 36.361 211.142 36.3959 210.988 36.3959C210.834 36.3958 210.611 36.3747 210.318 36.3325C210.025 36.2904 209.614 36.2342 209.084 36.164L209.076 36.4159C209.55 36.4721 209.953 36.5632 210.285 36.6893C210.617 36.8015 210.886 36.9275 211.092 37.0676C211.297 37.2076 211.44 37.3406 211.52 37.4666C211.613 37.5926 211.659 37.6975 211.656 37.7815C211.654 37.8374 211.618 37.8794 211.547 37.9074C211.491 37.9213 211.427 37.9283 211.357 37.9282C211.203 37.9282 210.924 37.9 210.52 37.8439C210.13 37.7877 209.634 37.7594 209.032 37.7591C208.458 37.7588 207.918 37.7935 207.411 37.8632C206.905 37.9329 206.46 38.0656 206.075 38.2613C205.705 38.457 205.409 38.7297 205.187 39.0794C204.966 39.4291 204.846 39.8838 204.827 40.4435C204.812 40.9053 204.867 41.3461 204.994 41.7659C205.134 42.1858 205.304 42.5567 205.503 42.8786C205.716 43.2005 205.953 43.4595 206.212 43.6556C206.472 43.8376 206.728 43.9287 206.98 43.9288C207.148 43.9289 207.355 43.8101 207.601 43.5723C207.861 43.3346 208.13 43.0409 208.407 42.6912C208.699 42.3415 208.977 41.9709 209.242 41.5792C209.507 41.1876 209.735 40.8379 209.927 40.5301L210.51 40.6983ZM209.615 44.9167C209.47 45.0565 209.311 45.2103 209.138 45.3782C208.964 45.532 208.771 45.6788 208.556 45.8186C208.356 45.9445 208.128 46.0633 207.872 46.1751C207.617 46.2729 207.342 46.3357 207.047 46.3636L207.192 46.4266C207.614 46.3709 208.003 46.2521 208.359 46.0704C208.715 45.8747 209.031 45.651 209.305 45.3992C209.593 45.1475 209.847 44.8888 210.065 44.623C210.284 44.3573 210.474 44.1265 210.634 43.9307L210.601 43.6788C210.469 43.8607 210.308 44.0635 210.119 44.2873C209.943 44.511 209.775 44.7208 209.615 44.9167ZM211.081 46.9533C211.06 47.569 210.977 48.1707 210.832 48.7583C210.688 49.3179 210.495 49.8425 210.255 50.3321C210.51 49.8285 210.717 49.2759 210.877 48.6743C211.051 48.0587 211.149 47.4291 211.17 46.7855C211.181 46.4637 211.178 46.1348 211.161 45.799C211.158 45.4632 211.148 45.1273 211.131 44.7915L211.067 43.5531L210.958 43.679C210.996 44.2247 211.027 44.7705 211.051 45.3162C211.089 45.8619 211.099 46.4076 211.081 46.9533ZM212.639 46.8282C212.663 46.0866 212.652 45.366 212.605 44.6663C212.572 43.9667 212.525 43.274 212.464 42.5884C212.498 43.232 212.54 43.8757 212.589 44.5194C212.638 45.1491 212.652 45.7998 212.63 46.4714C212.614 46.9332 212.57 47.4229 212.497 47.9406C212.438 48.4443 212.338 48.9479 212.195 49.4516C212.053 49.9553 211.861 50.4449 211.622 50.9205C211.397 51.3682 211.117 51.7878 210.782 52.1794C211.363 51.5361 211.786 50.8087 212.051 49.9972C212.331 49.1578 212.519 48.3254 212.617 47.4999L212.639 46.8282Z" fill="#6D5F14"/>
<path d="M260.796 19.9964C265.617 18.2004 271.53 18.5193 276.563 21.2097C286.548 26.5476 289.585 36.6959 286.645 47.3476C284.256 56.0032 275.661 64.9974 266.335 65.9751C260.755 66.5601 254.911 62.5563 254.434 56.7103C254.257 54.5288 254.966 52.6701 255.848 50.8494L256.453 49.6381C256.878 48.8003 257.306 47.9574 257.666 47.0809C258.398 45.3029 257.685 43.8516 256.639 42.5144L256.094 41.8544L254.817 40.3999L254.216 39.6618C252.81 37.8619 251.46 35.4912 251.633 32.0228C251.936 25.9502 255.9 21.8202 260.796 19.9964ZM255.562 6.90995C258.684 7.83072 260.469 11.108 259.548 14.2301C258.627 17.3521 255.35 19.1366 252.228 18.2158C249.106 17.295 247.321 14.0177 248.242 10.8957C249.163 7.77366 252.44 5.98919 255.562 6.90995ZM292.886 20.99C294.447 21.4503 295.339 23.089 294.879 24.65C294.418 26.211 292.78 27.1032 291.219 26.6428C289.658 26.1824 288.765 24.5438 289.226 22.9829C289.686 21.4219 291.325 20.5296 292.886 20.99ZM269.532 6.42145C271.873 7.112 273.212 9.57 272.521 11.9115C271.831 14.2531 269.372 15.5914 267.031 14.9008C264.69 14.2103 263.351 11.7523 264.042 9.41074C264.732 7.06922 267.19 5.73087 269.532 6.42145ZM283.664 10.5894C286.006 11.28 287.344 13.738 286.653 16.0795C285.963 18.421 283.505 19.7593 281.163 19.0688C278.822 18.3783 277.484 15.9202 278.174 13.5787C278.865 11.2372 281.323 9.89888 283.664 10.5894Z" fill="#FFF8D5"/>
<path d="M266.973 14.8273C264.328 13.9224 263.17 11.1353 264.398 8.63507C264.525 8.37682 264.884 7.90775 265.198 7.5893C267.323 5.43678 270.908 6.03541 272.208 8.75992C272.699 9.78742 272.785 10.6557 272.505 11.749C272.112 13.2863 270.916 14.4946 269.396 14.8907C268.657 15.0831 267.643 15.0566 266.973 14.8273Z" fill="#FF8080"/>
<path d="M252.866 18.3334C251.933 18.1776 250.79 17.6314 250.071 16.9977C248.769 15.8497 248.069 14.2963 248.071 12.5595C248.073 11.5404 248.235 10.8385 248.681 9.91546C249.172 8.89823 250.193 7.87642 251.22 7.37289C252.208 6.88893 252.871 6.72986 253.903 6.72986C254.428 6.72986 254.966 6.78508 255.307 6.87402C259.605 7.99332 261.19 13.294 258.189 16.5075C256.785 18.0111 254.87 18.668 252.866 18.3334Z" fill="#80CDFF"/>
<path d="M281.286 19.0586C279.398 18.5506 278.041 16.792 278.041 14.8507C278.041 13.667 278.476 12.6173 279.313 11.7756C280.538 10.5452 282.17 10.1494 283.805 10.6863C285.373 11.2011 286.501 12.5694 286.746 14.2524C286.832 14.8404 286.827 15.0496 286.711 15.6087C286.507 16.5976 286.194 17.1847 285.498 17.8827C284.853 18.5309 284.297 18.863 283.517 19.0662C282.909 19.2245 281.89 19.221 281.286 19.0586Z" fill="#9573F7"/>
<path d="M291.017 26.5363C290.447 26.2948 289.991 25.9313 289.671 25.4643C288.631 23.9454 289.194 21.9574 290.888 21.1631C291.571 20.8433 292.526 20.8433 293.208 21.1631C293.88 21.4782 294.342 21.929 294.664 22.5828C294.905 23.0721 294.94 23.227 294.934 23.787C294.923 24.9663 294.33 25.9418 293.325 26.4346C292.763 26.7104 291.554 26.7637 291.017 26.5363Z" fill="#F6BC7C"/>
</svg>
