<svg width="12" height="11" viewBox="0 0 12 11" fill="none" xmlns="http://www.w3.org/2000/svg">
<mask id="path-1-outside-1_303_3" maskUnits="userSpaceOnUse" x="0" y="0" width="12" height="11" fill="black">
<rect fill="white" width="12" height="11"/>
<path d="M0.876 0.676H11.172V1.528H0.876V0.676ZM0.648 9.664H11.364V10.504H0.648V9.664ZM8.052 6.952L9.036 7.204C8.852 7.604 8.652 8.012 8.436 8.428C8.228 8.844 8.032 9.2 7.848 9.496L7.068 9.244C7.18 9.036 7.296 8.8 7.416 8.536C7.544 8.264 7.664 7.988 7.776 7.708C7.888 7.428 7.98 7.176 8.052 6.952ZM3.156 7.264L3.972 7.036C4.1 7.26 4.224 7.508 4.344 7.78C4.464 8.044 4.568 8.304 4.656 8.56C4.752 8.808 4.812 9.032 4.836 9.232L3.972 9.484C3.94 9.292 3.884 9.068 3.804 8.812C3.724 8.556 3.628 8.292 3.516 8.02C3.404 7.74 3.284 7.488 3.156 7.264ZM3.12 3.616V5.956H8.952V3.616H3.12ZM2.244 2.812H9.864V6.76H2.244V2.812Z"/>
</mask>
<path d="M0.876 0.676V0.276H0.476V0.676H0.876ZM11.172 0.676H11.572V0.276H11.172V0.676ZM11.172 1.528V1.928H11.572V1.528H11.172ZM0.876 1.528H0.476V1.928H0.876V1.528ZM0.648 9.664V9.264H0.248V9.664H0.648ZM11.364 9.664H11.764V9.264H11.364V9.664ZM11.364 10.504V10.904H11.764V10.504H11.364ZM0.648 10.504H0.248V10.904H0.648V10.504ZM8.052 6.952L8.15124 6.56451L7.78643 6.47108L7.67119 6.8296L8.052 6.952ZM9.036 7.204L9.3994 7.37116L9.59981 6.93548L9.13524 6.81651L9.036 7.204ZM8.436 8.428L8.08096 8.24365L8.07823 8.24911L8.436 8.428ZM7.848 9.496L7.72503 9.87663L8.02261 9.97277L8.18771 9.70717L7.848 9.496ZM7.068 9.244L6.71581 9.05436L6.48821 9.47704L6.94503 9.62463L7.068 9.244ZM7.416 8.536L7.05404 8.36567L7.05185 8.37048L7.416 8.536ZM7.776 7.708L7.40461 7.55944L7.40461 7.55944L7.776 7.708ZM3.156 7.264L3.04836 6.87876L2.55408 7.01686L2.8087 7.46246L3.156 7.264ZM3.972 7.036L4.3193 6.83754L4.16462 6.56686L3.86436 6.65076L3.972 7.036ZM4.344 7.78L3.97801 7.94147L3.97985 7.94552L4.344 7.78ZM4.656 8.56L4.27773 8.69003L4.28021 8.69726L4.28297 8.7044L4.656 8.56ZM4.836 9.232L4.948 9.616L5.27356 9.52105L5.23315 9.18434L4.836 9.232ZM3.972 9.484L3.57744 9.54976L3.65151 9.99414L4.084 9.868L3.972 9.484ZM3.804 8.812L3.42221 8.93131L3.42221 8.93131L3.804 8.812ZM3.516 8.02L3.14459 8.16856L3.14613 8.1723L3.516 8.02ZM3.12 3.616V3.216H2.72V3.616H3.12ZM3.12 5.956H2.72V6.356H3.12V5.956ZM8.952 5.956V6.356H9.352V5.956H8.952ZM8.952 3.616H9.352V3.216H8.952V3.616ZM2.244 2.812V2.412H1.844V2.812H2.244ZM9.864 2.812H10.264V2.412H9.864V2.812ZM9.864 6.76V7.16H10.264V6.76H9.864ZM2.244 6.76H1.844V7.16H2.244V6.76ZM0.876 1.076H11.172V0.276H0.876V1.076ZM10.772 0.676V1.528H11.572V0.676H10.772ZM11.172 1.128H0.876V1.928H11.172V1.128ZM1.276 1.528V0.676H0.476V1.528H1.276ZM0.648 10.064H11.364V9.264H0.648V10.064ZM10.964 9.664V10.504H11.764V9.664H10.964ZM11.364 10.104H0.648V10.904H11.364V10.104ZM1.048 10.504V9.664H0.248V10.504H1.048ZM7.95276 7.33949L8.93676 7.59149L9.13524 6.81651L8.15124 6.56451L7.95276 7.33949ZM8.6726 7.03684C8.49143 7.43069 8.29425 7.83297 8.081 8.24367L8.791 8.61233C9.00975 8.19103 9.21257 7.77731 9.3994 7.37116L8.6726 7.03684ZM8.07823 8.24911C7.87405 8.65747 7.68404 9.0021 7.50829 9.28483L8.18771 9.70717C8.37996 9.3979 8.58195 9.03053 8.79377 8.60689L8.07823 8.24911ZM7.97097 9.11537L7.19097 8.86337L6.94503 9.62463L7.72503 9.87663L7.97097 9.11537ZM7.42019 9.43364C7.53727 9.2162 7.65723 8.97194 7.78015 8.70152L7.05185 8.37048C6.93477 8.62806 6.82273 8.8558 6.71581 9.05436L7.42019 9.43364ZM7.77793 8.70632C7.90931 8.42714 8.03246 8.14388 8.14739 7.85656L7.40461 7.55944C7.29554 7.83212 7.17869 8.10086 7.05407 8.36568L7.77793 8.70632ZM8.14739 7.85656C8.26193 7.57021 8.35732 7.30927 8.43281 7.0744L7.67119 6.8296C7.60268 7.04273 7.51407 7.28579 7.40461 7.55944L8.14739 7.85656ZM3.26364 7.64924L4.07964 7.42124L3.86436 6.65076L3.04836 6.87876L3.26364 7.64924ZM3.6247 7.23446C3.74491 7.44481 3.86279 7.68025 3.97803 7.94146L4.70997 7.61854C4.58521 7.33575 4.45509 7.07519 4.3193 6.83754L3.6247 7.23446ZM3.97985 7.94552C4.09495 8.19874 4.19415 8.4469 4.27773 8.69003L5.03427 8.42997C4.94185 8.1611 4.83305 7.88926 4.70815 7.61448L3.97985 7.94552ZM4.28297 8.7044C4.37052 8.93057 4.41986 9.1214 4.43885 9.27966L5.23315 9.18434C5.20414 8.9426 5.13348 8.68543 5.02903 8.4156L4.28297 8.7044ZM4.724 8.848L3.86 9.1L4.084 9.868L4.948 9.616L4.724 8.848ZM4.36656 9.41824C4.33065 9.2028 4.26939 8.96019 4.18579 8.69269L3.42221 8.93131C3.49862 9.17581 3.54935 9.3812 3.57744 9.54976L4.36656 9.41824ZM4.18579 8.69269C4.10199 8.42452 4.0019 8.14949 3.88587 7.8677L3.14613 8.1723C3.2541 8.43451 3.34601 8.68748 3.42221 8.93131L4.18579 8.69269ZM3.88739 7.87144C3.76964 7.57706 3.64185 7.30801 3.5033 7.06554L2.8087 7.46246C2.92615 7.66799 3.03836 7.90294 3.14461 8.16856L3.88739 7.87144ZM2.72 3.616V5.956H3.52V3.616H2.72ZM3.12 6.356H8.952V5.556H3.12V6.356ZM9.352 5.956V3.616H8.552V5.956H9.352ZM8.952 3.216H3.12V4.016H8.952V3.216ZM2.244 3.212H9.864V2.412H2.244V3.212ZM9.464 2.812V6.76H10.264V2.812H9.464ZM9.864 6.36H2.244V7.16H9.864V6.36ZM2.644 6.76V2.812H1.844V6.76H2.644Z" fill="#3F4F26" mask="url(#path-1-outside-1_303_3)"/>
</svg>
