<svg width="282" height="267" viewBox="0 0 282 267" fill="none" xmlns="http://www.w3.org/2000/svg">
<path d="M75.3553 70.3819C77.6293 71.9563 77.6293 71.9563 80.0861 74.0318C80.8992 74.7054 81.7122 75.379 82.55 76.073C84.6942 78.2186 85.8085 80.0194 86.9649 82.8002C87.6025 82.6294 88.24 82.4585 88.8968 82.2825C90.6218 84.8951 92.3467 87.5077 94.1239 90.1994C94.7615 90.0286 95.399 89.8578 96.0558 89.6818C97.2216 91.3914 98.3874 93.1011 99.5532 94.8107C100.966 96.71 100.966 96.71 102.948 98.0909C109.117 103.092 112.535 111.71 115.89 118.79C116.187 119.416 116.484 120.042 116.79 120.687C118.012 123.284 119.21 125.888 120.354 128.521C122.316 132.797 124.264 135.419 128.508 137.583C132.492 138.877 136.587 139.151 140.75 139.438C144.448 140.215 145.64 141.107 147.911 144.115C148.811 146.665 149.518 149.001 150.114 151.613C150.364 152.622 150.364 152.622 150.618 153.652C151.023 155.299 151.41 156.951 151.793 158.604C156.319 156.367 156.319 156.367 160.935 154.084C160.764 153.447 160.593 152.809 160.417 152.152C161.064 151.616 161.71 151.08 162.376 150.528C165.986 147.382 168.997 143.683 172.096 140.045C174.558 137.814 175.207 137.88 178.373 138.024C178.634 138.57 178.895 139.117 179.163 139.68C180.348 142.149 181.544 144.613 182.739 147.077C183.355 148.367 183.355 148.367 183.984 149.684C184.584 150.914 184.584 150.914 185.196 152.17C185.562 152.928 185.928 153.687 186.305 154.468C187.346 156.532 187.346 156.532 189.862 157.721C192.282 157.324 192.282 157.324 194.845 156.516C195.719 156.263 196.594 156.01 197.495 155.749C198.163 155.546 198.832 155.343 199.521 155.133C199.452 154.159 199.452 154.159 199.382 153.165C199.405 152.454 199.428 151.743 199.452 151.011C200.004 150.521 200.556 150.031 201.125 149.527C202.034 144.894 202.195 140.716 202.079 135.987C202.054 127.354 203.357 120.077 209.005 113.252C212.7 111.459 215.273 111.429 219.182 112.595C218.889 110.784 218.889 110.784 218.589 108.936C218.115 105.567 218.113 102.635 218.715 99.2617C219.99 98.9201 221.265 98.5785 222.578 98.2265C232.804 113.714 230.137 136.357 228.12 153.682C227.483 153.853 226.845 154.023 226.188 154.199C226.13 154.948 226.072 155.696 226.011 156.467C225.499 159.895 224.514 162.806 223.28 166.043C222.871 167.139 222.463 168.235 222.042 169.363C220.152 173.329 218.45 174.702 214.495 176.485C211.569 177.606 211.569 177.606 209.407 180.437C203.56 182.772 200.712 182.41 194.903 180.307C191.063 179.351 188.556 180.363 184.931 181.819C184.464 182.627 183.998 183.435 183.517 184.268C181.303 185.158 179.063 185.985 176.812 186.776C170.147 189.289 166.64 192.437 163.63 198.914C162.622 198.501 161.615 198.088 160.577 197.662C156.44 196.503 154.895 196.481 151.003 198.156C145.574 201.35 144.47 206.115 142.82 211.867C141.891 215.802 141.439 219.513 141.243 223.548C135.577 224.489 130.404 224.757 124.685 224.296C123.91 224.235 123.135 224.174 122.337 224.111C112.839 223.215 103.299 220.709 94.7902 216.325C94.534 215.368 94.2778 214.412 94.0138 213.427C94.8883 212.91 94.8883 212.91 95.7804 212.383C100.194 209.727 104.184 207.084 107.916 203.49C106.487 199.432 105.058 195.373 103.585 191.192C102.948 191.363 102.31 191.534 101.653 191.71C100.422 188.804 100.422 188.804 99.8415 184.948C100.936 182.892 102.275 181.2 103.708 179.366C106.457 175.216 106.741 170.286 107.033 165.422C104.843 154.98 101.279 145.194 97.0672 135.422C96.1629 133.315 95.2874 131.196 94.4127 129.076C89.8547 118.254 84.4253 109.442 74.432 102.917C73.8305 102.513 73.2289 102.108 72.6092 101.692C66.8576 97.9211 61.0083 94.3154 53.934 94.7566C54.3735 90.421 56.5912 87.4761 59.0906 84.0574C59.476 83.5138 59.8615 82.9701 60.2586 82.4099C69.162 70.0101 69.162 70.0101 75.3553 70.3819Z" fill="#92E8F7"/>
<path d="M121.512 45.591C124.849 50.0519 127.447 54.2608 129.733 59.3701C132.315 64.9667 135.195 70.29 138.404 75.5522C138.794 76.1963 139.184 76.8404 139.586 77.504C141.356 80.3593 142.914 82.4924 145.457 84.727C145.799 86.0021 146.14 87.2771 146.492 88.5907C148.055 88.6845 148.055 88.6845 149.649 88.7802C150.42 89.4276 151.191 90.0751 151.986 90.7421C154.831 92.5906 156.341 93.1819 159.7 92.5898C164.323 90.7184 171.252 86.7174 173.797 82.3097C175.517 81.9644 177.24 81.6349 178.965 81.3132C182.808 80.3621 182.808 80.3621 185.77 77.9287C188.229 71.9747 188.045 65.13 188.198 58.7808C192.221 59.0222 193.407 60.3529 196.484 62.9015C197.371 63.6273 198.258 64.3532 199.172 65.101C204.379 69.6795 208.719 74.397 212.721 80.0327C213.37 80.9408 213.37 80.9408 214.032 81.8673C217.092 86.2567 221.423 93.3576 223 98.5C222.343 98.9963 221.177 98.9886 220.5 99.5C217.545 103.352 219.955 108.271 220 113C218.986 113.122 213.766 112.374 212.721 112.5C207.508 114.537 207.382 115.678 205 120.5C204.071 121.92 202.947 129.551 202 131C200.031 134.862 200.51 129.093 200.43 133.408C200.19 140.542 199.742 147.68 196.106 153.978C192.637 155.037 192.637 155.037 189.345 155.789C189.084 155.243 188.823 154.697 188.554 154.134C187.369 151.664 186.173 149.2 184.978 146.736C184.362 145.446 184.362 145.446 183.733 144.13C183.133 142.899 183.133 142.899 182.521 141.644C182.155 140.885 181.789 140.127 181.412 139.345C180.371 137.281 180.371 137.281 177.855 136.092C174.699 136.31 172.728 136.969 170.481 139.241C169.325 140.623 168.177 142.012 167.036 143.407C163.134 147.763 158.478 151.294 153.915 154.93C153.43 153.487 153.43 153.487 152.935 152.014C150.287 143.812 150.287 143.812 144.249 138.173C140.126 136.761 135.831 136.332 131.498 136.046C128.862 135.666 127.574 135.117 125.418 133.578C124.261 131.691 124.261 131.691 123.274 129.413C122.9 128.575 122.525 127.737 122.139 126.873C121.748 125.979 121.357 125.084 120.954 124.163C115.729 112.688 109.853 102.565 101.097 93.3577C99.7302 91.8031 99.7302 91.8031 99.2126 89.8712C98.575 90.0421 97.9375 90.2129 97.2807 90.3889C96.6301 89.5196 95.9794 88.6503 95.3091 87.7547C92.6435 84.3699 89.654 81.5275 86.4408 78.6701C85.9178 78.1951 85.3948 77.72 84.856 77.2305C82.4132 75.0331 79.9909 73.0201 77.3212 71.0926C75.0966 69.4159 75.0966 69.4159 74.579 67.4841C88.9157 55.2567 103.363 49.9377 121.512 45.591Z" fill="#3DD799"/>
<path d="M55.0584 95.8141C60.1429 95.5629 63.5505 97.8075 67.8544 100.344C68.816 100.91 69.7777 101.476 70.7684 102.058C84.3319 110.446 89.091 121.076 95.0074 135.515C95.4043 136.482 95.4043 136.482 95.8092 137.468C107.269 165.516 107.269 165.516 104.532 175.409C103.198 178.511 101.748 181.379 99.5826 183.982C98.6263 184.238 97.67 184.495 96.6848 184.759C97.229 185.674 97.7731 186.589 98.3337 187.532C99.0484 188.749 99.7628 189.966 100.477 191.184C100.836 191.785 101.194 192.386 101.564 193.005C103.486 196.297 104.966 199.296 105.725 203.042C103.685 204.662 101.634 206.265 99.5749 207.86C99.0006 208.319 98.4262 208.778 97.8345 209.251C95.3385 211.167 93.223 212.612 90.1497 213.374C78.3666 211.804 66.4469 197.453 59.3926 188.539C58.9491 187.99 58.5055 187.44 58.0485 186.873C53.5204 180.706 51.4769 173.647 49.3173 166.392C49.0396 165.482 48.762 164.571 48.4759 163.633C40.6122 137.549 40.6122 137.549 43.2765 124.529C43.914 124.359 44.5515 124.188 45.2084 124.012C44.9521 123.056 44.6959 122.099 44.4319 121.114C45.0694 120.943 45.7069 120.772 46.3637 120.596C46.074 119.769 45.7843 118.942 45.4859 118.09C44.6964 114.243 45.2003 112.241 46.4339 108.543C46.7672 107.5 47.1005 106.458 47.4439 105.384C49.2136 101.213 51.0323 98.0216 55.0584 95.8141Z" fill="#8686BF"/>
<path d="M123.444 45.0732C143.006 40.9586 163.668 44.9502 181.556 53.3133C182.266 53.6409 182.976 53.9686 183.707 54.3062C185.231 55.4346 185.231 55.4346 186.31 59.2218C186.962 65.5033 186.537 71.7403 183.904 77.5308C181.48 79.1644 179.377 79.7162 176.541 80.4016C171.76 81.9016 168.156 84.9461 164.186 87.9301C161.097 89.9344 159.191 91.0352 155.514 91.3497C149.207 88.7041 146.072 85.0402 142.411 79.3962C141.91 78.6444 141.408 77.8925 140.892 77.1179C135.41 68.689 130.888 59.7517 126.472 50.7301C125.512 48.813 124.499 46.9392 123.444 45.0732Z" fill="#EC9A40"/>
<path d="M188.061 179.492C191.509 178.628 193.588 178.959 196.91 180.162C201.804 181.911 204.346 181.457 209.149 179.471C210.532 178.106 211.891 176.714 213.202 175.279C215.516 174.982 215.516 174.982 217.324 175.21C217.874 179.232 216.507 181.06 214.11 184.224C210.291 189.192 206.199 193.679 201.699 198.031C201.036 198.731 200.373 199.43 199.69 200.151C186.029 213.636 166.139 220.67 147.556 223.927C146.514 223.864 145.473 223.802 144.399 223.737C144.057 223.018 143.715 222.298 143.362 221.557C142.267 219.17 142.267 219.17 140.656 217.494C141.236 214.528 141.236 214.528 142.258 210.917C142.586 209.731 142.914 208.545 143.252 207.323C144.842 202.473 146.367 199.907 150.745 197.191C155.671 195.173 158.517 195.957 163.371 197.948C163.636 197.378 163.901 196.808 164.174 196.221C168.065 189.162 172.969 187.071 180.272 184.503C184.022 182.995 184.201 181.042 188.061 179.492Z" fill="#3A9740"/>
<path d="M46.0364 109.231C44.9046 113.499 44.5116 116.43 46.3641 120.596C45.7265 120.767 45.089 120.938 44.4322 121.114C44.6884 122.07 44.9447 123.027 45.2087 124.012C44.5712 124.183 43.9336 124.353 43.2768 124.529C43.1094 126.446 42.958 128.364 42.8127 130.283C42.7265 131.351 42.6403 132.419 42.5516 133.52C42.4823 141.236 44.3547 148.519 46.3822 155.92C46.6235 156.802 46.8648 157.684 47.1135 158.593C47.8356 161.196 48.572 163.795 49.3176 166.392C49.5233 167.112 49.729 167.831 49.9409 168.571C52.3088 176.66 55.0342 182.935 60.6177 189.246C61.4104 190.198 62.2031 191.149 63.0199 192.129C68.156 198.215 73.5047 203.327 80.0935 207.839C80.864 208.439 81.6346 209.038 82.4285 209.656C83.1885 210.227 83.9486 210.797 84.7316 211.385C85.4051 211.901 86.0786 212.417 86.7724 212.949C88.9956 214.034 88.9956 214.034 91.5824 212.91C94.6927 211.102 97.5556 209.131 100.44 206.982C101.435 206.244 102.431 205.506 103.456 204.746C104.205 204.183 104.954 203.621 105.725 203.042C103.312 196.586 100.111 190.731 96.6851 184.759C97.227 184.52 97.769 184.281 98.3273 184.035C100.791 182.431 101.559 180.943 102.853 178.318C103.255 177.535 103.656 176.752 104.07 175.945C108.363 163.096 99.9715 147.532 95.2093 135.784C94.7199 134.564 94.2305 133.343 93.7263 132.085C89.2118 121.187 84.6763 110.693 74.3051 104.374C73.6817 103.963 73.0583 103.552 72.416 103.128C64.3528 97.6726 64.3529 97.6726 55.1794 95.7818C49.6036 98.7681 47.8771 103.471 46.0364 109.231Z" fill="#A4A4E7"/>
<path d="M135.742 40.7427C135.998 41.699 136.254 42.6552 136.518 43.6405C135.113 43.8698 133.706 44.0947 132.3 44.3179C131.125 44.5065 131.125 44.5065 129.927 44.6989C127.74 44.9814 125.645 45.0553 123.444 45.0733C124.151 46.0035 124.858 46.9337 125.586 47.8922C128.88 52.5023 131.351 57.4716 133.88 62.5295C134.799 64.3554 135.721 66.1804 136.645 68.0043C137.076 68.8593 137.506 69.7142 137.95 70.5951C139.035 72.646 140.203 74.5655 141.471 76.5059C142.197 77.8347 142.197 77.8347 142.938 79.1903C142.557 80.3173 142.175 81.4444 141.783 82.6057C135.472 72.7835 129.642 63.0339 124.919 52.3454C123.871 49.9981 122.778 47.8176 121.512 45.5909C105.117 50.2721 89.4785 55.4673 76.5108 66.9664C75.8733 67.1372 75.2358 67.308 74.5789 67.484C75.5648 68.3195 76.5507 69.155 77.5665 70.0158C78.888 71.1391 80.2095 72.2624 81.5308 73.3858C82.1773 73.9333 82.8238 74.4807 83.4898 75.0447C85.4524 76.7151 87.4017 78.3994 89.3452 80.0918C90.0025 80.659 90.6598 81.2263 91.337 81.8107C91.9581 82.3636 92.5791 82.9165 93.219 83.4861C93.7769 83.9779 94.3348 84.4696 94.9096 84.9763C96.2454 86.5251 96.2454 86.5251 97.2807 90.3888C97.9182 90.218 98.5557 90.0472 99.2125 89.8712C109.93 101.981 118.376 113.273 123.158 129.007C122.287 129.582 121.416 130.157 120.519 130.75C120.08 129.816 119.642 128.881 119.19 127.919C111.064 110.268 111.064 110.268 98.8648 95.3349C97.0912 93.5454 97.0912 93.5454 96.056 89.6817C95.4184 89.8525 94.7809 90.0234 94.1241 90.1994C91.5367 86.2805 91.5367 86.2805 88.8969 82.2825C88.2594 82.4533 87.6219 82.6241 86.9651 82.8001C86.4723 82.2209 85.9794 81.6416 85.4716 81.0448C84.4887 79.9089 84.4887 79.9089 83.4858 78.7501C82.84 77.9983 82.1941 77.2466 81.5287 76.472C79.7048 74.5969 78.1223 73.5769 75.873 72.3136C75.7022 71.6761 75.5314 71.0386 75.3554 70.3818C73.7616 70.8088 72.1679 71.2359 70.5258 71.6759C71.2258 70.4634 71.9258 69.2509 72.6471 68.0017C72.1575 67.4496 71.6679 66.8975 71.1635 66.3286C89.5538 50.8344 111.258 41.1329 135.742 40.7427Z" fill="#575757"/>
<path d="M228.758 148.334C230.5 150.973 230.5 150.973 229.972 153.889C221.795 180.901 206.72 201.451 181.973 215.708C162.857 225.655 140.568 230.218 119.216 226.344C119.278 225.303 119.341 224.261 119.405 223.188C120.713 223.286 122.02 223.384 123.367 223.485C129.332 223.851 135.272 223.713 141.243 223.548C140.901 222.273 140.559 220.998 140.207 219.684C141.514 218.822 141.514 218.822 142.846 217.942C143.359 219.854 143.871 221.767 144.399 223.737C171.654 217.52 196.501 208.16 212.77 184.065C214.128 182.189 215.613 180.804 217.394 179.332C217.137 178.376 216.881 177.42 216.617 176.434C215.894 176.286 215.171 176.138 214.427 175.986C215.234 175.553 216.042 175.121 216.874 174.675C220.393 171.972 221.24 169.729 222.772 165.597C223.463 163.782 223.463 163.782 224.168 161.931C225.04 159.33 225.741 156.897 226.188 154.199C226.826 154.029 227.464 153.858 228.12 153.682C228.331 151.917 228.541 150.153 228.758 148.334Z" fill="#4F4047"/>
<path d="M133.103 42.4852C138.915 40.4698 143.566 40.7527 149.612 41.5555C150.885 41.707 150.885 41.707 152.184 41.8614C155.979 42.3241 159.704 42.8724 163.444 43.6727C163.615 44.3103 163.786 44.9478 163.962 45.6046C164.653 45.633 165.344 45.6614 166.056 45.6907C182.298 48.4448 199.955 60.1008 210.502 72.4747C210.758 73.4309 211.015 74.3872 211.279 75.3724C207.093 75.1212 206.334 73.6651 203.483 70.6673C196.803 63.2294 196.803 63.2294 188.198 58.7808C188.477 60.1795 188.477 60.1795 188.761 61.6064C189.472 67.4125 188.122 73.4436 185.97 78.8417C184.142 81.0922 182.532 81.1716 179.714 81.6948C173.994 83.0426 170.628 85.5069 166.398 89.4688C162.726 92.725 160.036 93.6226 155.065 93.5405C152.66 92.2757 150.818 90.7619 148.683 89.0391C147.96 88.8911 147.237 88.7432 146.492 88.5908C143.931 85.702 142.754 83.2168 141.972 79.4492C144.887 80.0457 145.338 81.2195 147.09 83.5777C150.444 87.9687 150.444 87.9687 155.255 90.3839C161.308 89.267 165.908 85.5714 170.752 82.0095C174.766 79.4185 179.105 77.9721 183.646 76.565C186.244 66.0069 186.244 66.0069 184.265 55.6936C181.397 53.2774 178.249 52.1974 174.726 51.0026C173.63 50.613 172.534 50.2234 171.405 49.822C162.327 46.8496 153.52 45.6241 144.056 44.7266C141.939 44.4805 139.822 44.2289 137.707 43.9693C136.859 43.8681 136.011 43.767 135.137 43.6628C134.551 43.593 133.966 43.5231 133.362 43.4511C133.276 43.1323 133.191 42.8136 133.103 42.4852Z" fill="#504036"/>
<path d="M41.174 143.728C41.4928 143.642 41.8115 143.557 42.1399 143.469C42.3361 144.125 42.5323 144.78 42.7344 145.456C49.1606 168.683 49.1606 168.683 61.5835 188.988C62.3754 189.941 63.1672 190.893 63.983 191.875C69.1223 197.951 74.4531 203.096 81.0593 207.58C82.1661 208.409 82.1661 208.409 83.2953 209.254C94.2627 217.132 107.677 220.678 120.63 223.895C118.421 225.482 117.335 225.922 114.585 225.692C95.1614 220.867 78.8789 211.83 64.8788 197.422C64.0877 196.621 63.2966 195.82 62.4815 194.995C52.6397 184.526 46.4933 171.988 42.7816 158.179C42.5542 157.378 42.3269 156.577 42.0926 155.751C40.9425 151.5 40.2128 148.133 41.174 143.728Z" fill="#3C3C3C"/>
<path d="M119.673 123.729C119.991 123.644 120.31 123.559 120.639 123.471C121.19 124.412 121.741 125.353 122.309 126.323C122.993 127.442 123.677 128.561 124.382 129.714C125.025 130.919 125.025 130.919 125.682 132.149C128.713 135.103 132.287 135.233 136.371 135.82C141.376 136.637 144.881 137.778 149.067 140.7C150.88 143.89 150.88 143.89 152.227 147.424C152.687 148.599 153.148 149.774 153.622 150.985C153.952 151.882 154.282 152.78 154.622 153.705C157.224 151.332 159.821 148.952 162.416 146.57C163.156 145.895 163.896 145.221 164.658 144.525C165.365 143.876 166.072 143.226 166.8 142.556C167.453 141.958 168.106 141.361 168.779 140.745C170.529 139.123 170.529 139.123 171.801 136.679C174.634 135.661 174.634 135.661 177.596 135.126C180.738 136.94 181.209 138.793 182.564 142.077C181.927 142.248 181.289 142.419 180.633 142.595C179.568 141.172 178.503 139.749 177.407 138.283C174.223 139.806 172.226 141.793 169.853 144.383C166.925 147.487 164.152 150.018 160.417 152.152C160.588 152.79 160.759 153.427 160.935 154.084C158.173 157.006 155.642 157.663 151.793 158.604C151.478 157.616 151.162 156.627 150.837 155.609C150.41 154.305 149.983 153.002 149.555 151.698C149.348 151.048 149.142 150.397 148.929 149.727C147.372 144.753 147.372 144.753 143.978 141.028C140.789 140.247 140.789 140.247 137.197 139.869C126.887 138.226 126.887 138.226 122.52 134.355C121.113 130.875 120.292 127.425 119.673 123.729Z" fill="#4D4D4D"/>
<path d="M188.061 179.492C191.509 178.628 193.588 178.959 196.91 180.162C202.724 182.257 206.36 180.739 211.917 178.211C212.512 177.881 213.107 177.551 213.719 177.211C212.909 179.498 212.909 179.498 210.891 182.11C206.346 184.254 202.061 185.258 197.213 183.704C192.771 182.46 189.826 182.877 185.708 184.716C183.636 185.961 181.666 187.291 179.695 188.689C177.791 189.944 177.791 189.944 174.342 191.321C170.681 192.999 168.918 194.928 166.528 198.138C165.956 199.828 165.956 199.828 165.372 201.553C164.097 201.895 162.822 202.237 161.509 202.589C160.529 201.484 159.55 200.38 158.542 199.242C152.395 200.607 152.395 200.607 147.468 204.28C146.469 207.671 146.469 207.671 146.123 210.852C145.486 211.023 144.848 211.194 144.191 211.37C143.876 214.017 143.876 214.017 143.554 216.717C142.45 215.27 142.45 215.27 141.552 213.112C142.62 207.773 144.618 202.95 148.134 198.796C151.072 196.989 153.102 196.042 156.54 195.638C160.318 196.696 160.318 196.696 163.371 197.948C163.636 197.378 163.901 196.808 164.174 196.221C168.065 189.162 172.969 187.071 180.272 184.503C184.022 182.995 184.201 181.042 188.061 179.492Z" fill="#504049"/>
<path d="M72.8366 64.8451C75.0273 65.2934 75.0273 65.2934 76.5108 66.9664C75.8733 67.1372 75.2358 67.3081 74.579 67.4841C75.5649 68.3195 76.5508 69.155 77.5665 70.0158C78.888 71.1391 80.2095 72.2624 81.5309 73.3859C82.1773 73.9333 82.8238 74.4807 83.4899 75.0447C85.4524 76.7151 87.4017 78.3994 89.3453 80.0919C90.0025 80.6591 90.6598 81.2263 91.337 81.8107C91.9581 82.3636 92.5792 82.9165 93.2191 83.4862C93.777 83.9779 94.3349 84.4697 94.9097 84.9763C96.2455 86.5252 96.2455 86.5252 97.2807 90.3889C97.9182 90.2181 98.5558 90.0472 99.2126 89.8712C109.93 101.981 118.377 113.274 123.158 129.007C122.287 129.582 121.416 130.157 120.519 130.75C120.08 129.816 119.642 128.881 119.19 127.919C111.065 110.268 111.065 110.268 98.8648 95.3349C97.0913 93.5455 97.0913 93.5455 96.056 89.6818C95.4185 89.8526 94.781 90.0234 94.1241 90.1994C92.3992 87.5868 90.6742 84.9743 88.897 82.2825C88.2595 82.4533 87.622 82.6242 86.9651 82.8002C86.4723 82.2209 85.9794 81.6417 85.4717 81.0449C84.4887 79.909 84.4887 79.909 83.4859 78.7502C82.84 77.9984 82.1942 77.2466 81.5288 76.472C79.7048 74.5969 78.1223 73.5769 75.8731 72.3137C75.7023 71.6762 75.5314 71.0387 75.3554 70.3818C73.7617 70.8089 72.1679 71.2359 70.5258 71.6759C71.2259 70.4634 71.9259 69.2509 72.6471 68.0017C72.1576 67.4496 71.668 66.8975 71.1636 66.3287C71.7157 65.8391 72.2678 65.3495 72.8366 64.8451Z" fill="#3C3C3C"/>
<path d="M228.758 148.334C230.501 150.973 230.501 150.973 229.972 153.889C224.051 173.449 214.866 191.574 198.163 204.155C197.121 204.093 196.08 204.03 195.006 203.966C195.694 200.607 198.38 199.128 200.908 197.014C205.455 193.116 209.206 189.167 212.627 184.212C214.051 182.294 215.555 180.847 217.394 179.332C217.137 178.376 216.881 177.419 216.617 176.434C215.894 176.286 215.171 176.138 214.427 175.986C215.234 175.553 216.042 175.121 216.874 174.675C220.393 171.972 221.24 169.729 222.772 165.597C223.233 164.387 223.693 163.177 224.168 161.931C225.04 159.33 225.741 156.897 226.189 154.199C226.826 154.028 227.464 153.858 228.12 153.682C228.331 151.917 228.541 150.152 228.758 148.334Z" fill="#3D2D36"/>
<path d="M217.001 83.5891C220.031 84.494 220.031 84.494 221.497 87.0694C229.513 105.867 234.106 125.661 229.375 146.03C228.536 146.651 229.05 147.36 228.185 148C226.556 144.983 227.604 143.244 228.185 140C229.17 134.093 228.221 127.449 227.664 121.454C227.524 119.069 227.748 116.994 228.185 114.652C227.375 114.083 226.565 113.514 225.73 112.928C225.081 113.279 224.431 113.63 223.762 113.991C224.104 113.141 224.445 112.291 224.797 111.415C225.761 107.083 224.97 104.819 223.492 100.668C223.069 99.4447 222.645 98.2215 222.209 96.9612C221.209 94.4067 220.184 92.0914 218.795 89.7355C219.174 89.1953 219.554 88.6551 219.944 88.0985C218.973 86.6104 218.001 85.1223 217.001 83.5891Z" fill="#52421E"/>
<path d="M135.742 40.7427C135.998 41.699 136.254 42.6552 136.518 43.6405C135.113 43.8698 133.706 44.0947 132.3 44.3179C131.125 44.5065 131.125 44.5065 129.927 44.6989C127.74 44.9814 125.645 45.0553 123.444 45.0733C124.151 46.0035 124.858 46.9337 125.586 47.8922C128.88 52.5023 131.351 57.4716 133.88 62.5295C134.799 64.3554 135.721 66.1804 136.645 68.0043C137.076 68.8592 137.506 69.7142 137.95 70.5951C139.035 72.646 140.203 74.5654 141.471 76.5059C141.955 77.3918 142.439 78.2776 142.938 79.1903C142.557 80.3173 142.175 81.4444 141.783 82.6057C135.472 72.7835 129.642 63.0339 124.919 52.3454C123.512 49.0709 123.512 49.0709 121.512 45.5909C114.499 47.4699 107.487 49.349 100.261 51.2849C100.176 50.9662 100.091 50.6474 100.003 50.319C104.096 49.016 108.194 47.7284 112.293 46.4434C113.442 46.0776 114.59 45.7118 115.773 45.3349C122.397 43.2677 128.852 41.603 135.742 40.7427Z" fill="#6F6258"/>
<path d="M43.0687 112.162C45.777 114.542 45.777 114.542 46.2398 117.718C46.2808 118.668 46.3218 119.618 46.364 120.596C45.7265 120.767 45.089 120.938 44.4322 121.114C44.6884 122.07 44.9446 123.027 45.2086 124.012C44.5711 124.183 43.9336 124.353 43.2768 124.529C42.1162 141.642 47.6029 157.632 52.354 173.861C52.0353 173.946 51.7165 174.032 51.3881 174.12C48.8115 168.46 46.9519 162.649 45.1069 156.715C44.8017 155.743 44.4966 154.771 44.1823 153.77C43.4354 151.389 42.6915 149.008 41.9505 146.626C41.6317 146.711 41.313 146.796 40.9846 146.884C38.5515 135.425 39.556 123.309 43.0687 112.162Z" fill="#3E3D8D"/>
<path d="M180.305 137.506C182.899 139.786 183.496 140.559 184.663 143.598C184.94 144.307 185.216 145.017 185.502 145.749C185.781 146.487 186.06 147.226 186.348 147.987C186.638 148.734 186.928 149.482 187.226 150.253C187.939 152.096 188.643 153.942 189.345 155.789C194.388 154.096 194.388 154.096 197.358 149.954C198.234 145.825 198.689 141.886 198.985 137.677C200.027 137.74 201.069 137.802 202.142 137.867C202.636 142.278 202.095 146.142 201.384 150.493C200.747 150.664 200.109 150.835 199.452 151.011C199.498 151.66 199.544 152.31 199.592 152.979C199.569 153.69 199.545 154.401 199.522 155.133C196.916 157.444 193.547 158.354 190.121 158.687C186.58 157.363 185.472 155.279 183.913 151.939C181.738 147.106 180.829 142.763 180.305 137.506Z" fill="#626262"/>
<path d="M73.6131 67.743C72.788 68.678 71.9629 69.6131 71.1128 70.5765C59.4505 82.9964 59.4505 82.9964 52.7788 98.1721C52.2057 98.9022 51.6327 99.6323 51.0422 100.384C48.1936 104.462 46.9526 108.847 45.5183 113.576C44.3564 112.213 44.3564 112.213 43.5171 109.971C44.243 107.455 45.0315 105.307 46.0974 102.939C46.393 102.265 46.6886 101.59 46.9931 100.896C51.3533 91.1596 56.5459 82.6337 63.3709 74.4343C63.9099 73.778 64.4488 73.1216 65.0041 72.4454C65.5237 71.8425 66.0433 71.2397 66.5786 70.6187C67.271 69.8082 67.271 69.8082 67.9774 68.9814C69.9288 67.4737 71.2017 67.5624 73.6131 67.743Z" fill="#3C3C3C"/>
<path d="M174.634 135.661C177.596 135.126 177.596 135.126 180.046 136.54C180.944 138.358 181.791 140.203 182.565 142.077C181.927 142.248 181.29 142.419 180.633 142.595C179.568 141.172 178.504 139.749 177.407 138.283C174.223 139.806 172.226 141.793 169.853 144.383C166.925 147.487 164.152 150.018 160.418 152.152C160.588 152.79 160.759 153.427 160.935 154.084C157.891 157.304 156.612 157.313 151.794 158.604C150.769 154.779 149.744 150.954 148.688 147.013C149.007 146.928 149.325 146.842 149.654 146.754C150.593 150.261 151.533 153.767 152.501 157.38C153.776 157.038 155.051 156.696 156.364 156.344C155.789 155.473 155.214 154.603 154.622 153.705C155.092 153.277 155.562 152.848 156.047 152.406C158.173 150.464 160.294 148.517 162.416 146.57C163.156 145.895 163.896 145.221 164.658 144.525C165.365 143.876 166.072 143.226 166.8 142.556C167.453 141.958 168.106 141.361 168.779 140.745C173.392 136.107 173.392 136.107 174.634 135.661Z" fill="#3C3C3C"/>
<path d="M141.972 79.4491C144.887 80.0457 145.338 81.2194 147.09 83.5777C150.444 87.9687 150.444 87.9687 155.255 90.3839C160.618 88.9469 164.371 86.659 168.858 83.4389C174.027 79.8595 178.213 79.1232 184.422 79.4627C184.508 79.7815 184.593 80.1002 184.681 80.4286C184.003 80.5623 183.325 80.696 182.626 80.8337C175.767 82.3921 171.501 84.6889 166.398 89.4687C162.726 92.7249 160.036 93.6225 155.065 93.5405C152.66 92.2756 150.818 90.7618 148.683 89.039C147.96 88.8911 147.237 88.7432 146.492 88.5907C143.931 85.702 142.754 83.2167 141.972 79.4491Z" fill="#614E44"/>
<path d="M77.9028 207.391C81.3275 207.886 83.2518 208.816 85.9671 210.924C96.0385 217.902 108.885 220.978 120.63 223.895C118.421 225.482 117.335 225.922 114.585 225.692C102.013 222.569 88.5076 217.701 78.4205 209.323C78.2496 208.685 78.0788 208.048 77.9028 207.391Z" fill="#3C3C3C"/>
<path d="M52.7094 94.0494C63.9971 92.9943 73.9629 101.036 82.2928 107.863C85.4319 111.03 87.358 113.68 88.7987 117.896C89.2332 119.137 89.2332 119.137 89.6766 120.403C89.8815 121.023 90.0864 121.644 90.2976 122.283C89.5746 122.135 88.8517 121.987 88.1069 121.835C87.1367 120.143 86.2117 118.425 85.3067 116.697C79.3885 106.936 68.9548 100.914 58.5743 96.619C55.7219 96.4874 55.7219 96.4874 53.4859 96.9472C53.2296 95.9909 52.9734 95.0347 52.7094 94.0494Z" fill="#3B3B73"/>
<path d="M177.175 52.4168C180.299 52.9197 182.649 53.578 185.231 55.4347C187.445 63.2023 185.821 69.8171 183.904 77.5309C182.311 77.958 180.717 78.385 179.075 78.825C178.298 75.9272 178.298 75.9272 179.713 73.4777C180.301 72.4872 180.89 71.4968 181.497 70.4762C183.886 66.438 183.886 66.438 184.063 61.9147C183.858 61.2371 183.652 60.5595 183.44 59.8614C182.892 58.0546 182.892 58.0546 182.333 56.2112C180.973 56.2341 179.612 56.257 178.21 56.2805C177.869 55.0055 177.527 53.7305 177.175 52.4168Z" fill="#D59757"/>
<path d="M133.103 42.485C138.897 40.4845 143.564 40.7244 149.596 41.495C150.866 41.6343 150.866 41.6343 152.161 41.7764C156.274 42.2628 159.941 42.786 163.703 44.6385C161.166 46.6382 159.91 46.6301 156.613 46.4615C155.247 46.2823 153.883 46.0905 152.52 45.8879C151.084 45.6944 149.648 45.5009 148.212 45.3075C147.508 45.2083 146.804 45.1091 146.079 45.0069C143.293 44.6206 140.501 44.2933 137.706 43.9691C136.258 43.7964 134.81 43.6237 133.362 43.4509C133.276 43.1322 133.191 42.8134 133.103 42.485Z" fill="#4D3A2C"/>
<path d="M41.174 143.728C41.4928 143.642 41.8115 143.557 42.1399 143.469C43.2142 147.365 44.2773 151.265 45.3385 155.165C45.6422 156.266 45.9459 157.367 46.2588 158.501C46.5488 159.571 46.8388 160.641 47.1377 161.744C47.4057 162.723 47.6737 163.703 47.9498 164.713C48.6306 167.706 48.9658 170.614 49.1974 173.672C48.8786 173.757 48.5599 173.842 48.2315 173.93C45.8821 168.79 44.2474 163.633 42.7816 158.179C42.5542 157.378 42.3269 156.577 42.0926 155.751C40.9425 151.5 40.2128 148.133 41.174 143.728Z" fill="#3A3960"/>
<path d="M184.672 180.853C189.413 179.118 192.113 178.4 196.91 180.162C202.724 182.257 206.36 180.739 211.917 178.211C212.512 177.881 213.107 177.551 213.719 177.211C212.909 179.498 212.909 179.498 210.891 182.11C205.493 184.656 201.03 185.092 195.443 183.167C191.749 182.208 187.99 182.699 184.224 183.043C184.372 182.321 184.52 181.598 184.672 180.853Z" fill="#4F4048"/>
<path d="M155.717 45.7432C160.269 45.8671 164.139 46.5699 168.474 47.9543C169.54 48.2866 170.606 48.6189 171.704 48.9612C174.467 50.0366 174.467 50.0366 177.175 52.4168C174.588 53.1101 172.796 53.4721 170.155 53.2626C169.261 52.4771 168.367 51.6917 167.447 50.8824C165.502 50.6583 165.502 50.6583 163.429 50.8591C160.385 51.0075 157.788 50.934 154.82 50.1246C155.116 48.6787 155.412 47.2329 155.717 45.7432Z" fill="#E09749"/>
<path d="M186.415 183.492C183.497 186.849 180.937 188.568 176.841 190.263C173.136 191.807 170.107 193.422 166.976 195.947C166.2 193.05 166.2 193.05 167.258 191.1C169.916 188.501 172.864 187.285 176.268 185.952C176.894 185.691 177.52 185.429 178.165 185.16C181.165 183.947 183.144 183.295 186.415 183.492Z" fill="#5B4A53"/>
<path d="M97.5532 48.9048C106.797 46.4279 116.041 43.951 125.565 41.399C125.736 42.0365 125.907 42.6741 126.083 43.3309C110.432 48.0368 110.432 48.0368 94.4659 52.8378C95.6555 52.1774 96.8451 51.517 98.0708 50.8366C97.9 50.1991 97.7292 49.5616 97.5532 48.9048Z" fill="#654F20"/>
<path d="M191.096 58.0043C195.473 58.267 197.696 60.7345 200.905 63.4638C201.5 63.9565 202.094 64.4491 202.707 64.9567C210.159 71.1949 210.159 71.1949 211.279 75.3724C207.063 75.1193 206.259 73.5833 203.39 70.5627C200.558 67.6533 197.893 64.9546 194.495 62.7227C191.872 60.902 191.872 60.902 191.096 58.0043Z" fill="#654F20"/>
<path d="M217.324 175.209C217.774 178.186 217.413 179.299 215.833 181.93C215.152 182.824 214.47 183.718 213.769 184.638C212.757 185.988 212.757 185.988 211.725 187.366C209.805 189.648 209.805 189.648 207.166 191.39C206.389 188.492 206.389 188.492 207.755 185.862C208.238 185.113 208.721 184.364 209.218 183.593C207.624 184.02 206.03 184.447 204.388 184.887C204.303 184.568 204.217 184.25 204.129 183.921C205.153 183.519 206.177 183.116 207.232 182.702C210.767 181.362 210.767 181.362 213.012 178.435C212.523 177.883 212.033 177.331 211.529 176.762C213.612 174.915 214.622 175.129 217.324 175.209Z" fill="#9A6C81"/>
<path d="M73.613 67.7427C73.2473 68.1694 72.8815 68.5961 72.5047 69.0358C70.8363 70.9832 69.1692 72.9316 67.5021 74.88C66.9266 75.5514 66.3512 76.2227 65.7582 76.9144C65.1994 77.5679 64.6405 78.2214 64.0647 78.8948C63.5526 79.4928 63.0406 80.0908 62.5131 80.707C60.9394 82.5877 59.4224 84.5057 57.918 86.4421C57.1096 85.9754 56.3013 85.5087 55.4685 85.0278C57.0422 82.9419 58.6197 80.8591 60.1996 78.7779C60.8618 77.8988 60.8618 77.8988 61.5375 77.002C68.7156 67.5656 68.7156 67.5656 73.613 67.7427Z" fill="#3B3C3B"/>
<path d="M208.122 75.1829C209.397 74.8412 210.672 74.4996 211.986 74.1476C213.362 75.9299 214.723 77.7233 216.078 79.5214C216.838 80.5189 217.598 81.5164 218.381 82.5442C220.817 86.4254 220.817 86.4254 220.249 89.533C219.697 90.0226 219.145 90.5122 218.576 91.0166C215.091 85.7387 211.607 80.4608 208.122 75.1829Z" fill="#654F20"/>
<path d="M228.758 148.334C229.333 149.205 229.908 150.076 230.501 150.973C229.982 153.462 229.378 155.738 228.605 158.146C228.316 159.113 228.316 159.113 228.022 160.1C226.855 163.874 225.427 167.166 223.309 170.5C222.501 170.033 221.693 169.567 220.86 169.086C221.169 168.378 221.479 167.671 221.798 166.942C222.201 166.006 222.604 165.071 223.02 164.107C223.421 163.183 223.822 162.259 224.235 161.307C225.163 158.914 225.77 156.723 226.189 154.199C226.826 154.029 227.464 153.858 228.12 153.682C228.331 151.917 228.541 150.153 228.758 148.334Z" fill="#3C3C3C"/>
<path d="M130.223 58.7858C133.01 61.6633 134.939 64.8622 136.978 68.2991C137.62 69.3749 138.262 70.4507 138.924 71.5591C139.502 72.5691 140.081 73.579 140.678 74.6195C141.151 75.4336 141.624 76.2477 142.111 77.0865C142.938 79.1903 142.938 79.1903 141.782 82.6058C131.616 66.8434 131.616 66.8434 130.223 58.7858Z" fill="#7F6249"/>
<path d="M161.771 45.1562C168.09 44.935 172.98 47.3855 178.589 49.9673C179.332 50.3047 180.075 50.6421 180.841 50.9897C182.459 51.7305 184.07 52.4854 185.679 53.244C185.212 54.0523 184.746 54.8607 184.265 55.6935C183.448 55.2537 183.448 55.2537 182.615 54.805C176.8 51.7959 171.027 49.7395 164.725 47.9681C163.921 47.6777 163.117 47.3873 162.289 47.0881C162.118 46.4506 161.947 45.8131 161.771 45.1562Z" fill="#482E21"/>
<path d="M119.405 223.188C119.993 223.23 120.581 223.273 121.187 223.317C126.525 223.675 131.772 223.776 137.12 223.617C137.058 224.659 136.995 225.701 136.931 226.774C130.821 227.855 125.331 227.246 119.216 226.344C119.278 225.303 119.341 224.261 119.405 223.188Z" fill="#595959"/>
<path d="M87.2613 114.814C90.482 117.645 91.3225 119.951 92.9327 123.906C93.4269 125.103 93.921 126.3 94.4302 127.533C95.71 130.968 96.7117 134.372 97.5955 137.927C96.5538 137.865 95.5121 137.802 94.4389 137.738C93.6278 135.367 92.8203 132.995 92.0148 130.623C91.7885 129.963 91.5623 129.303 91.3292 128.623C89.7839 124.059 88.4663 119.479 87.2613 114.814Z" fill="#4E4E7B"/>
<path d="M86.1057 118.23C89.2266 121.749 90.6758 125.069 92.3271 129.374C92.6027 130.069 92.8783 130.764 93.1623 131.48C94.6812 135.366 95.9656 139.214 96.9575 143.275C96.32 143.445 95.6825 143.616 95.0257 143.792C93.8528 140.69 92.68 137.588 91.4716 134.392C91.1528 134.477 90.8341 134.563 90.5056 134.651C89.0537 129.232 87.6017 123.813 86.1057 118.23Z" fill="#654F20"/>
<path d="M61.1353 191.178C61.7728 191.008 62.4103 190.837 63.0672 190.661C63.9109 191.636 63.9109 191.636 64.7718 192.63C69.2553 197.758 73.7927 202.59 78.8687 207.132C77.9125 207.388 76.9562 207.645 75.971 207.909C73.9816 206.305 72.2267 204.721 70.4293 202.923C69.9382 202.447 69.4471 201.972 68.9411 201.482C62.1121 194.824 62.1121 194.824 61.1353 191.178Z" fill="#3C3C3C"/>
<path d="M106.243 204.974C103.998 208.246 102.037 209.691 98.4198 211.275C96.0062 212.294 96.0062 212.294 94.0139 213.427C93.866 214.15 93.7181 214.872 93.5657 215.617C92.3532 214.917 91.1407 214.217 89.8914 213.496C91.6521 212.124 93.4258 210.768 95.2049 209.419C96.1912 208.663 97.1775 207.906 98.1937 207.126C101.2 205.274 102.77 204.824 106.243 204.974Z" fill="#4B4B87"/>
<path d="M60.3588 188.281C60.9963 188.11 61.6338 187.939 62.2907 187.763C62.4615 188.4 62.6323 189.038 62.8083 189.695C63.4458 189.524 64.0833 189.353 64.7402 189.177C65.1672 190.771 65.5943 192.365 66.0343 194.007C67.5426 193.261 69.051 192.515 70.6051 191.747C70.9696 194.382 71.3341 197.018 71.7097 199.733C72.3472 199.562 72.9847 199.391 73.6416 199.215C73.6644 200.576 73.6873 201.936 73.7109 203.338C68.6183 198.645 64.1798 194.068 60.3588 188.281Z" fill="#3C3C3C"/>
<path d="M43.0685 112.162C45.7768 114.542 45.7768 114.542 46.2396 117.718C46.2806 118.668 46.3216 119.618 46.3638 120.596C45.7263 120.767 45.0888 120.938 44.432 121.114C44.6882 122.07 44.9444 123.027 45.2084 124.012C44.5709 124.183 43.9334 124.354 43.2766 124.53C43.1286 125.252 42.9807 125.975 42.8283 126.72C40.7625 120.94 41.2178 117.808 43.0685 112.162Z" fill="#654F20"/>
<path d="M184.214 67.0951C185.204 73.6885 185.204 73.6885 183.904 77.5308C181.417 78.3913 181.417 78.3913 179.075 78.8249C178.298 75.9271 178.298 75.9271 179.713 73.4776C180.601 71.8942 180.601 71.8942 181.508 70.2789C183.248 67.3539 183.248 67.3539 184.214 67.0951Z" fill="#E4974E"/>
<path d="M104.204 170.32C104.842 170.15 105.479 169.979 106.136 169.803C107.207 175.048 105.004 178.758 102.481 183.206C99.892 187.005 99.892 187.005 97.4616 187.656C97.2053 186.7 96.9491 185.744 96.6851 184.759C98.0362 183.361 99.3872 181.964 100.738 180.567C102.653 177.229 103.971 174.209 104.204 170.32Z" fill="#3C3C3C"/>
<path d="M121.512 45.5909C122.149 45.4201 122.787 45.2493 123.444 45.0733C128.108 51.2693 131.412 56.6103 131.777 64.5813C131.458 64.6667 131.139 64.7521 130.811 64.8401C130.307 63.7526 129.804 62.6651 129.285 61.5447C128.619 60.1108 127.953 58.677 127.287 57.2433C126.956 56.5273 126.624 55.8114 126.283 55.0737C125.799 54.0324 125.799 54.0324 125.305 52.9701C125.01 52.3335 124.714 51.697 124.41 51.0412C123.507 49.1842 122.53 47.3866 121.512 45.5909Z" fill="#947C5D"/>
<path d="M147.394 142.183C147.969 143.054 148.544 143.925 149.136 144.822C149.774 144.652 150.411 144.481 151.068 144.305C152.007 147.811 152.947 151.317 153.915 154.93C154.552 154.759 155.19 154.588 155.847 154.412C156.018 155.05 156.188 155.687 156.364 156.344C155.089 156.686 153.814 157.027 152.501 157.379C150.815 152.365 149.13 147.35 147.394 142.183Z" fill="#3F3F3F"/>
<path d="M141.972 79.4491C144.872 80.0425 145.321 81.1778 147.074 83.5173C149.585 86.7325 152.06 89.1147 155.514 91.3498C151.685 91.8111 149.611 90.7903 146.492 88.5908C143.884 85.7092 142.76 83.2426 141.972 79.4491Z" fill="#513C2B"/>
<path d="M104.588 221.981C108.714 220.484 111.183 220.894 115.326 222.21C116.323 222.519 117.32 222.829 118.347 223.148C119.101 223.394 119.854 223.641 120.63 223.895C119.222 224.98 119.222 224.98 117.025 225.896C114.009 225.446 114.009 225.446 110.711 224.547C109.613 224.255 108.515 223.963 107.384 223.663C106.547 223.427 105.71 223.191 104.847 222.947C104.762 222.629 104.676 222.31 104.588 221.981Z" fill="#3C3C3C"/>
<path d="M210.822 177.987C211.863 178.05 212.905 178.112 213.978 178.177C211.715 181.564 210.033 182.766 206.098 183.782C205.272 184.011 204.446 184.241 203.595 184.477C200.825 184.736 199.769 184.189 197.557 182.577C198.783 182.266 198.783 182.266 200.034 181.949C201.095 181.674 202.156 181.4 203.248 181.116C204.833 180.71 204.833 180.71 206.45 180.295C209.153 179.674 209.153 179.674 210.822 177.987Z" fill="#3D2C37"/>
<path d="M77.9028 207.391C81.5187 207.91 83.9493 209.094 86.9859 211.104C87.7683 211.608 88.5506 212.113 89.3567 212.632C90.2277 213.41 90.2277 213.41 91.1162 214.203C91.0537 215.245 90.9912 216.287 90.9267 217.36C81.2212 211.917 81.2212 211.917 78.4205 209.323C78.2496 208.685 78.0788 208.048 77.9028 207.391Z" fill="#3C3C3C"/>
<path d="M101.824 173.029C102.866 173.091 103.908 173.154 104.981 173.218C104.263 174.776 103.534 176.329 102.8 177.879C102.396 178.744 101.991 179.609 101.574 180.5C100.29 182.757 100.29 182.757 97.651 184.5C97.5118 182.531 97.5118 182.531 97.5816 180.377C98.1337 179.888 98.6858 179.398 99.2547 178.894C99.3172 177.852 99.3797 176.81 99.4441 175.737C99.615 176.375 99.7858 177.012 99.9618 177.669C100.599 177.498 101.237 177.327 101.894 177.151C101.871 175.791 101.848 174.43 101.824 173.029Z" fill="#3C3C3C"/>
<path d="M42.8285 126.72C43.1472 126.635 43.466 126.549 43.7944 126.461C44.4392 128.704 45.0419 130.959 45.6061 133.223C45.3728 133.627 45.1395 134.031 44.899 134.448C44.9763 136.787 45.152 139.113 45.3228 141.447C45.2966 143.658 45.2966 143.658 43.8823 146.108C42.672 139.506 42.435 133.415 42.8285 126.72Z" fill="#654F20"/>
<path d="M198.985 137.677C200.027 137.74 201.069 137.802 202.142 137.867C202.636 142.278 202.095 146.142 201.384 150.493C198.676 148.113 198.676 148.113 198.479 145.598C198.539 144.657 198.599 143.716 198.661 142.746C198.714 141.799 198.768 140.852 198.822 139.876C198.876 139.15 198.93 138.425 198.985 137.677Z" fill="#707070"/>
<path d="M118.827 116.709C120.256 120.768 121.685 124.826 123.158 129.007C122.287 129.582 121.416 130.157 120.519 130.75C118.313 126.776 117.283 122.834 116.188 118.451C117.861 116.968 117.861 116.968 118.827 116.709Z" fill="#818181"/>
<path d="M61.4536 80.3185C62.1765 80.4665 62.8994 80.6144 63.6442 80.7668C63.19 81.5371 62.7358 82.3074 62.2679 83.101C61.6813 84.1043 61.0946 85.1076 60.4903 86.1412C59.9048 87.1389 59.3194 88.1365 58.7162 89.1644C57.2014 91.6279 57.2014 91.6279 56.832 93.9802C55.8757 94.2364 54.9194 94.4926 53.9342 94.7566C54.4371 90.8246 55.9751 88.32 58.1982 85.0731C59.1081 83.7323 59.1081 83.7323 60.0363 82.3644C60.504 81.6893 60.9717 81.0141 61.4536 80.3185Z" fill="#DADAD8"/>
<path d="M151.784 42.6559C155.865 41.919 159.448 42.7395 163.444 43.6726C162.088 45.1926 162.088 45.1926 160.098 46.6398C157.643 46.5939 157.643 46.5939 155.025 46.058C154.152 45.8889 153.279 45.7197 152.38 45.5454C151.385 45.3276 151.385 45.3276 150.369 45.1054C150.836 44.2971 151.303 43.4888 151.784 42.6559Z" fill="#5A4A3E"/>
<path d="M131.43 43.9686C137.552 43.8656 137.552 43.8656 143.797 43.7606C143.883 44.0793 143.968 44.3981 144.056 44.7265C142.462 45.1536 140.869 45.5806 139.227 46.0206C139.079 46.7435 138.931 47.4664 138.778 48.2113C136.61 47.7675 134.441 47.3237 132.206 46.8664C131.95 45.9101 131.694 44.9539 131.43 43.9686Z" fill="#E59950"/>
<path d="M148.688 147.013C149.007 146.928 149.325 146.842 149.654 146.754C150.593 150.261 151.533 153.767 152.501 157.38C153.776 157.038 155.051 156.696 156.364 156.344C155.789 155.473 155.214 154.603 154.622 153.705C155.812 153.045 157.001 152.385 158.227 151.704C159.568 152.882 159.568 152.882 160.935 154.084C157.891 157.304 156.612 157.313 151.794 158.604C150.769 154.779 149.744 150.954 148.688 147.013Z" fill="#6E6E6E"/>
<path d="M54.7614 86.2527C55.8031 86.3152 56.8448 86.3778 57.918 86.4422C57.6139 86.936 57.3099 87.4299 56.9966 87.9387C56.6045 88.5922 56.2125 89.2458 55.8085 89.9191C55.417 90.5645 55.0254 91.21 54.622 91.8749C53.4632 93.9077 53.4632 93.9077 53.4859 96.9473C52.5296 97.2035 51.5734 97.4597 50.5881 97.7237C50.2766 94.3364 50.8488 92.5415 52.6358 89.6693C53.0302 89.0245 53.4246 88.3796 53.8309 87.7153C54.2915 86.9913 54.2915 86.9913 54.7614 86.2527Z" fill="#3C3C3C"/>
<path d="M230.034 137.64C230.352 137.554 230.671 137.469 231 137.381C231.757 142.059 232.307 146.002 231.466 150.715C230.339 150.333 229.212 149.952 228.051 149.559C228.185 145.338 228.65 141.642 230.034 137.64Z" fill="#505050"/>
<path d="M199.383 146.888C199.872 147.44 200.362 147.992 200.866 148.561C200.49 150.765 200.044 152.959 199.522 155.133C196.653 155.902 193.784 156.671 190.828 157.463C190.743 157.144 190.657 156.825 190.569 156.497C192.482 155.984 194.394 155.472 196.365 154.944C196.469 154.297 196.573 153.649 196.681 152.983C197.254 150.593 198.063 148.942 199.383 146.888Z" fill="#3C3C3C"/>
<path d="M139.786 136.975C143.404 137.496 146.116 138.513 149.067 140.7C149.408 142.938 149.408 142.938 149.136 144.822C146.945 144.374 146.945 144.374 145.615 142.79C143.695 140.723 141.983 140.06 139.338 139.166C139.486 138.443 139.634 137.72 139.786 136.975Z" fill="#3C3C3C"/>
<path d="M119.673 123.729C119.992 123.644 120.31 123.559 120.639 123.471C121.185 124.392 121.73 125.313 122.293 126.263C124.069 129.229 125.941 132.121 127.867 134.992C126.911 135.249 125.955 135.505 124.969 135.769C122.52 134.355 122.52 134.355 121.658 131.892C121.422 130.922 121.186 129.953 120.943 128.954C120.701 127.98 120.459 127.007 120.21 126.004C120.032 125.253 119.855 124.503 119.673 123.729Z" fill="#3C3C3C"/>
<path d="M123.444 45.0732C125.962 44.9108 125.962 44.9108 128.532 44.7451C128.47 45.7867 128.407 46.8284 128.343 47.9017C128.682 49.4271 129.069 50.9422 129.495 52.4456C129.713 53.224 129.931 54.0024 130.156 54.8043C130.326 55.3952 130.497 55.9862 130.672 56.595C130.353 56.6804 130.035 56.7658 129.706 56.8538C127.639 52.9662 125.573 49.0786 123.444 45.0732Z" fill="#DB9854"/>
<path d="M81.8445 110.054C84.8656 111.175 86.4317 112.246 87.8601 115.163C88.7378 117.521 89.5544 119.88 90.2976 122.283C88.1069 121.835 88.1069 121.835 86.7202 119.95C86.2435 119.157 85.7667 118.363 85.2755 117.546C84.7951 116.76 84.3148 115.973 83.8198 115.162C82.6209 112.952 82.6209 112.952 81.8445 110.054Z" fill="#654F20"/>
<path d="M166.67 47.9847C167.901 48.2742 169.131 48.5637 170.399 48.862C171.091 49.0248 171.784 49.1876 172.497 49.3554C174.467 50.0367 174.467 50.0367 177.175 52.4169C174.588 53.1102 172.796 53.4722 170.155 53.2627C167.447 50.8825 167.447 50.8825 166.67 47.9847Z" fill="#D2904C"/>
<path d="M184.094 74.3743C184.731 74.2035 185.369 74.0327 186.026 73.8567C186.184 77.8261 186.184 77.8261 185.388 79.2039C183.57 79.598 181.738 79.9271 179.902 80.221C178.396 80.4663 178.396 80.4663 176.86 80.7166C175.694 80.899 175.694 80.899 174.504 81.085C174.419 80.7663 174.333 80.4475 174.245 80.1191C174.919 79.8879 175.592 79.6568 176.286 79.4186C177.588 78.9535 177.588 78.9535 178.917 78.4789C179.785 78.1745 180.652 77.87 181.546 77.5564C182.585 77.0656 182.585 77.0656 183.646 76.565C183.794 75.8421 183.942 75.1191 184.094 74.3743Z" fill="#3F2C1E"/>
<path d="M52.872 175.793C54.5626 176.365 54.5626 176.365 56.2874 176.948C57.5116 179.54 57.5116 179.54 58.5367 182.686C58.8838 183.728 59.2309 184.769 59.5885 185.842C59.8428 186.647 60.0971 187.451 60.3591 188.28C53.9783 181.121 53.9783 181.121 52.872 175.793Z" fill="#3C3C3C"/>
<path d="M184.422 79.4628C184.508 79.7815 184.593 80.1003 184.681 80.4287C183.576 80.7067 183.576 80.7067 182.449 80.9902C181.487 81.2388 180.525 81.4873 179.533 81.7433C178.578 81.9873 177.622 82.2314 176.638 82.4828C173.928 83.1824 173.928 83.1824 171.417 85.0181C170.29 84.6368 169.163 84.2555 168.001 83.8627C172.96 79.5613 178.156 79.6789 184.422 79.4628Z" fill="#716258"/>
<path d="M174.208 49.0707C178.447 49.6613 181.86 51.3966 185.679 53.244C185.212 54.0523 184.746 54.8606 184.265 55.6935C182.682 54.9602 181.104 54.2167 179.528 53.4687C178.209 52.8493 178.209 52.8493 176.863 52.2173C176.158 51.8164 175.452 51.4156 174.726 51.0025C174.555 50.365 174.384 49.7275 174.208 49.0707Z" fill="#3B2920"/>
<path d="M73.613 67.7428C71.49 70.0198 69.367 72.2969 67.1797 74.643C66.3713 74.1763 65.563 73.7096 64.7302 73.2287C68.9751 67.8208 68.9751 67.8208 73.613 67.7428Z" fill="#414141"/>
<path d="M105.05 177.341C105.307 178.297 105.563 179.253 105.827 180.239C104.966 181.686 104.966 181.686 104.087 183.163C102.222 186.485 101.968 187.792 102.619 191.451C102.301 191.536 101.982 191.622 101.653 191.71C100.422 188.804 100.422 188.804 99.8417 184.948C101.219 182.108 103.02 179.748 105.05 177.341Z" fill="#CDCCD3"/>
<path d="M173.733 136.161C175.425 136.004 177.122 135.893 178.821 135.833C180.056 137.894 181.292 139.954 182.565 142.077C181.927 142.248 181.29 142.419 180.633 142.595C180.191 141.902 179.749 141.209 179.294 140.495C177.174 138.01 176.201 137.672 173.025 137.386C173.259 136.982 173.492 136.578 173.733 136.161Z" fill="#3C3C3C"/>
<path d="M204.378 68.9391C207.535 69.1286 207.535 69.1286 209.167 70.6323C210.502 72.4746 210.502 72.4746 211.279 75.3724C208.122 75.1829 208.122 75.1829 206.49 73.6792C205.155 71.8369 205.155 71.8369 204.378 68.9391Z" fill="#3C3C3C"/>
<path d="M72.8366 64.8451C75.0273 65.2934 75.0273 65.2934 76.5108 66.9664C75.8733 67.1372 75.2358 67.3081 74.579 67.4841C75.5581 68.5883 76.5373 69.6925 77.5461 70.8301C76.718 71.5645 76.718 71.5645 75.8731 72.3137C75.7023 71.6762 75.5314 71.0387 75.3554 70.3818C73.7617 70.8089 72.1679 71.2359 70.5258 71.6759C71.2259 70.4634 71.9259 69.2509 72.6471 68.0017C72.1576 67.4496 71.668 66.8975 71.1636 66.3287C71.7157 65.8391 72.2678 65.3495 72.8366 64.8451Z" fill="#7F7F7F"/>
<path d="M151.581 88.2626C152.201 88.2671 152.822 88.2717 153.461 88.2764C155.842 88.2715 155.842 88.2715 158.601 87.4168C159.324 87.5647 160.047 87.7126 160.792 87.8651C160.962 88.5026 161.133 89.1401 161.309 89.7969C158.657 90.7663 158.657 90.7663 155.514 91.3498C153.185 89.9033 153.185 89.9033 151.581 88.2626Z" fill="#D6944D"/>
<path d="M137.004 72.4981C139.493 73.6357 140.6 74.499 142.11 76.824C142.938 79.1903 142.938 79.1903 141.783 82.6057C139.419 79.2809 137.83 76.5083 137.004 72.4981Z" fill="#755C46"/>
<path d="M221.119 170.052C221.756 169.881 222.394 169.71 223.05 169.534C222.533 172.254 221.891 174.691 220.999 177.331C220.042 177.587 219.086 177.843 218.101 178.107C217.93 177.47 217.759 176.832 217.583 176.175C218.221 176.005 218.858 175.834 219.515 175.658C219.715 174.611 219.715 174.611 219.919 173.544C220.412 171.276 220.412 171.276 221.119 170.052Z" fill="#3C3C3C"/>
<path d="M200.779 128.914C201.097 128.829 201.416 128.743 201.745 128.655C202.501 133.171 202.884 136.194 200.728 140.316C199.211 135.909 199.074 133.28 200.779 128.914Z" fill="#3C3C3C"/>
<path d="M94.5724 88.0087C95.6568 88.2306 95.6568 88.2306 96.7631 88.457C96.9339 89.0945 97.1047 89.732 97.2807 90.3888C97.9182 90.218 98.5557 90.0472 99.2125 89.8712C100.044 91.6983 100.875 93.5254 101.731 95.4079C99.5687 94.8227 99.5687 94.8227 97.0912 93.5454C95.5418 90.6606 95.5418 90.6606 94.5724 88.0087Z" fill="#4F4F4F"/>
<path d="M52.52 97.2061C55.035 96.2087 55.035 96.2087 58.3155 95.6532C61.7396 97.3239 61.7396 97.3239 64.4392 99.1887C63.1642 99.5304 61.8892 99.872 60.5755 100.224C60.4047 99.5865 60.2339 98.949 60.0579 98.2922C59.4204 98.463 58.7829 98.6338 58.126 98.8098C57.9552 98.1723 57.7844 97.5348 57.6084 96.878C56.0146 97.305 54.4208 97.7321 52.7788 98.1721C52.6934 97.8533 52.6079 97.5345 52.52 97.2061Z" fill="#3C3C3C"/>
<path d="M177.175 52.4167C180.583 52.9217 181.547 53.3046 184.265 55.6935C183.437 56.4278 183.437 56.4278 182.592 57.177C180.297 56.8215 180.297 56.8215 178.21 56.2805C177.869 55.0054 177.527 53.7304 177.175 52.4167Z" fill="#D88E4B"/>
<path d="M135.969 68.6344C139.125 68.8239 139.125 68.8239 140.609 70.4969C141.251 72.74 141.858 74.9938 142.42 77.2584C139.455 74.6524 137.918 72.0389 135.969 68.6344Z" fill="#DB9953"/>
<path d="M84.9924 210.668C86.2675 210.326 87.5425 209.984 88.8561 209.632C89.027 210.27 89.1978 210.907 89.3738 211.564C90.9676 211.137 92.5613 210.71 94.2034 210.27C93.7367 211.079 93.27 211.887 92.7892 212.72C90.3258 213.186 90.3258 213.186 87.7007 213.048C86.807 212.262 85.9133 211.477 84.9924 210.668Z" fill="#3C3C3C"/>
<path d="M103.465 198.471C103.784 198.386 104.103 198.3 104.431 198.212C104.858 199.806 105.285 201.4 105.725 203.042C103.665 204.277 101.604 205.513 99.4814 206.785C100.231 204.514 100.231 204.514 101.344 202.145C102.3 201.889 103.256 201.633 104.242 201.369C103.985 200.413 103.729 199.456 103.465 198.471Z" fill="#3C3C3C"/>
<path d="M74.9443 103.621C78.5341 105.566 81.5452 107.218 84.0351 110.502C80.4358 110.03 78.3494 109.038 75.7207 106.519C75.4645 105.562 75.2083 104.606 74.9443 103.621Z" fill="#40406B"/>
<path d="M74.496 105.812C77.5094 107.398 77.5094 107.398 80.6198 109.347C80.876 110.303 81.1322 111.26 81.3962 112.245C78.2656 111.317 77.0328 110.85 75.336 107.981C75.0588 107.265 74.7816 106.549 74.496 105.812Z" fill="#654F20"/>
<path d="M185.18 66.8364C185.988 67.3031 186.797 67.7697 187.629 68.2506C187.947 70.8832 187.947 70.8832 187.958 73.339C187.001 73.5953 186.045 73.8515 185.06 74.1155C185.099 71.7134 185.139 69.3113 185.18 66.8364Z" fill="#604D3D"/>
</svg>
